<?xml version="1.0" encoding="utf-8"?>
<!-- Generator: Adobe Illustrator 26.0.2, SVG Export Plug-In . SVG Version: 6.00 Build 0)  -->
<svg version="1.1" id="图层_1" xmlns="http://www.w3.org/2000/svg" xmlns:xlink="http://www.w3.org/1999/xlink" x="0px" y="0px"
	 viewBox="0 0 632.9 256.5" style="enable-background:new 0 0 632.9 256.5;" xml:space="preserve">
<style type="text/css">
	.st0{fill:#E9E8E2;}
	.st1{fill:#494949;}
	.st2{fill:#A52723;}
	.st3{fill:#F2B59D;}
	.st4{fill:#E56249;}
	.st5{fill:#CC3C31;}
	.st6{fill:#FFFFFF;}
	.st7{font-family:'Montserrat-Bold';}
	.st8{font-size:44.21px;}
</style>
<g>
	<path class="st0" d="M9.9,254c-4.1,0-7.4-3.3-7.4-7.4V9.9c0-4.1,3.3-7.4,7.4-7.4H623c4.1,0,7.4,3.3,7.4,7.4v236.7
		c0,4.1-3.3,7.4-7.4,7.4L9.9,254L9.9,254z"/>
	<path class="st1" d="M623,5c2.7,0,4.9,2.2,4.9,4.9v236.7c0,2.7-2.2,4.9-4.9,4.9H9.9c-2.7,0-4.9-2.2-4.9-4.9V9.9C5,7.2,7.2,5,9.9,5
		H623 M623,0H9.9C4.4,0,0,4.4,0,9.9v236.7c0,5.5,4.4,9.9,9.9,9.9H623c5.5,0,9.9-4.4,9.9-9.9V9.9C632.9,4.4,628.5,0,623,0L623,0z"/>
</g>
<ellipse class="st2" cx="520.1" cy="121.1" rx="63" ry="63"/>
<ellipse class="st3" cx="93.9" cy="123.2" rx="50" ry="50"/>
<ellipse class="st4" cx="231.6" cy="123.2" rx="50" ry="50"/>
<ellipse class="st5" cx="369.4" cy="123.2" rx="50" ry="50"/>
<text transform="matrix(0.97 0 0 1 79.2871 140.5869)" class="st6 st7 st8">5</text>
<text transform="matrix(0.97 0 0 1 209.1348 140.5869)" class="st6 st7 st8">10</text>
<text transform="matrix(0.97 0 0 1 341.627 140.5869)" class="st6 st7 st8">20</text>
<text transform="matrix(0.97 0 0 1 477.731 140.0474)" class="st6 st7 st8">&gt;20</text>
</svg>
