<?xml version="1.0" encoding="utf-8"?>
<!-- Generator: Adobe Illustrator 26.0.2, SVG Export Plug-In . SVG Version: 6.00 Build 0)  -->
<svg version="1.1" id="图层_1" xmlns="http://www.w3.org/2000/svg" xmlns:xlink="http://www.w3.org/1999/xlink" x="0px" y="0px"
	 viewBox="0 0 632.8 256.5" style="enable-background:new 0 0 632.8 256.5;" xml:space="preserve">
<style type="text/css">
	.st0{fill:#E9E8E2;}
	.st1{fill:#494949;}
	.st2{fill:#E8E7E1;}
	.st3{fill:#E7E6E0;}
	.st4{fill:#E6E5DF;}
	.st5{fill:#E5E4DE;}
	.st6{fill:#E4E3DD;}
	.st7{fill:#E3E2DC;}
	.st8{fill:#E2E1DB;}
	.st9{fill:#E1E0DA;}
	.st10{fill:#E0DFD9;}
	.st11{fill:#DFDED8;}
	.st12{fill:#DEDDD7;}
	.st13{fill:#DDDCD7;}
	.st14{fill:#DCDBD6;}
	.st15{fill:#DBDAD5;}
	.st16{fill:#DAD9D4;}
	.st17{fill:#D9D8D3;}
	.st18{fill:#D8D7D2;}
	.st19{fill:#D7D6D1;}
	.st20{fill:#D6D5D0;}
	.st21{fill:#D5D4CF;}
	.st22{fill:#D4D3CE;}
	.st23{fill:#D3D2CD;}
	.st24{fill:#D2D1CC;}
	.st25{fill:#D1D0CB;}
	.st26{fill:#D0CFCA;}
	.st27{fill:#CFCEC9;}
	.st28{fill:#CECDC8;}
	.st29{fill:#CDCCC7;}
	.st30{fill:#CCCBC6;}
	.st31{fill:#CBCAC5;}
	.st32{fill:#CAC9C4;}
	.st33{fill:#C9C8C3;}
	.st34{fill:#C8C7C2;}
	.st35{fill:#C7C6C1;}
	.st36{fill:#C6C5C1;}
	.st37{fill:#C5C4C0;}
	.st38{fill:#C4C3BF;}
	.st39{fill:#C3C2BE;}
	.st40{fill:#C2C1BD;}
	.st41{fill:#C1C0BC;}
	.st42{fill:#C0BFBB;}
	.st43{fill:#BFBEBA;}
	.st44{fill:#BEBDB9;}
	.st45{fill:#BDBCB8;}
	.st46{fill:#BCBBB7;}
	.st47{fill:#BBBAB6;}
	.st48{fill:#BAB9B5;}
	.st49{fill:#B9B8B4;}
	.st50{fill:#B8B7B3;}
	.st51{fill:#B7B6B2;}
	.st52{fill:#B6B5B1;}
	.st53{fill:#B5B4B0;}
	.st54{fill:#B4B3AF;}
	.st55{fill:#B3B2AE;}
	.st56{fill:#B2B1AD;}
	.st57{fill:#B1B0AC;}
	.st58{fill:#B0AFAB;}
	.st59{fill:#AFAEAB;}
	.st60{fill:#AEADAA;}
	.st61{fill:#ADACA9;}
	.st62{fill:#ACABA8;}
	.st63{fill:#ABAAA7;}
	.st64{fill:#AAA9A6;}
	.st65{fill:#A9A8A5;}
	.st66{fill:#A8A7A4;}
	.st67{fill:#A7A6A3;}
	.st68{fill:#A6A5A2;}
	.st69{fill:#A5A4A1;}
	.st70{fill:#A4A3A0;}
	.st71{fill:#A3A29F;}
	.st72{fill:#A2A19E;}
	.st73{fill:#A1A09D;}
	.st74{fill:#A09F9C;}
	.st75{fill:#9F9E9B;}
	.st76{fill:#9E9D9A;}
	.st77{fill:#9D9C99;}
	.st78{fill:#9C9B98;}
	.st79{fill:#9B9A97;}
	.st80{fill:#9A9996;}
	.st81{fill:#999996;}
	.st82{fill:#989895;}
	.st83{fill:#979794;}
	.st84{fill:#969693;}
	.st85{fill:#959592;}
	.st86{fill:#949491;}
	.st87{fill:#939390;}
	.st88{fill:#92928F;}
	.st89{fill:#91918E;}
	.st90{fill:#90908D;}
	.st91{fill:#8F8F8C;}
	.st92{fill:#8E8E8B;}
	.st93{fill:#8D8D8A;}
	.st94{fill:#8C8C89;}
	.st95{fill:#8B8B88;}
	.st96{fill:#8A8A87;}
	.st97{fill:#898986;}
	.st98{fill:#888885;}
	.st99{fill:#878784;}
	.st100{fill:#868683;}
	.st101{fill:#858582;}
	.st102{fill:#848481;}
	.st103{fill:#838380;}
	.st104{fill:#828280;}
	.st105{fill:#81817F;}
	.st106{fill:#80807E;}
	.st107{fill:#7F7F7D;}
	.st108{fill:#7E7E7C;}
	.st109{fill:#7D7D7B;}
	.st110{fill:#7C7C7A;}
	.st111{fill:#7B7B79;}
	.st112{fill:#7A7A78;}
	.st113{fill:#797977;}
	.st114{fill:#787876;}
	.st115{fill:#777775;}
	.st116{fill:#767674;}
	.st117{fill:#757573;}
	.st118{fill:#747472;}
	.st119{fill:#737371;}
	.st120{fill:#727270;}
	.st121{fill:#71716F;}
	.st122{fill:#70706E;}
	.st123{fill:#6F6F6D;}
	.st124{fill:#6E6E6C;}
	.st125{fill:#6D6D6B;}
	.st126{fill:#6C6C6A;}
	.st127{fill:#6B6B6A;}
	.st128{fill:#6A6A69;}
	.st129{fill:#696968;}
	.st130{fill:#686867;}
	.st131{fill:#676766;}
	.st132{fill:#666665;}
	.st133{fill:#656564;}
	.st134{fill:#646463;}
	.st135{fill:#636362;}
	.st136{fill:#626261;}
	.st137{fill:#616160;}
	.st138{fill:#60605F;}
	.st139{fill:#5F5F5E;}
	.st140{fill:#5E5E5D;}
	.st141{fill:#5D5D5C;}
	.st142{fill:#5C5C5B;}
	.st143{fill:#5B5B5A;}
	.st144{fill:#5A5A59;}
	.st145{fill:#595958;}
	.st146{fill:#585857;}
	.st147{fill:#575756;}
	.st148{fill:#565655;}
	.st149{fill:#555554;}
	.st150{fill:#545454;}
	.st151{fill:#535353;}
	.st152{fill:#525252;}
	.st153{fill:#515151;}
	.st154{fill:#505050;}
	.st155{fill:#4F4F4F;}
	.st156{fill:#4E4E4E;}
	.st157{fill:#4D4D4D;}
	.st158{fill:#4C4C4C;}
	.st159{fill:#4B4B4B;}
	.st160{fill:#4A4A4A;}
	.st161{font-family:'Montserrat-Bold';}
	.st162{font-size:48px;}
</style>
<g>
	<g>
		<path class="st0" d="M9.9,254c-4.1,0-7.4-3.3-7.4-7.4V10c0-4.1,3.4-7.5,7.4-7.5h613c4.1,0,7.4,3.3,7.4,7.4v236.7
			c0,4.1-3.2,7.4-7.4,7.4L9.9,254L9.9,254z"/>
		<path class="st1" d="M622.9,5c2.7,0,4.9,2.2,4.9,4.9v236.7c0,2.7-2.2,4.9-4.9,4.9H9.9c-2.7,0-4.9-2.2-4.9-4.9V10
			c0-2.7,2.2-5,4.9-5H622.9 M622.9,0H9.9C4.5,0,0,4.5,0,10v236.6c0,5.5,4.4,9.9,9.9,9.9h613c5.5,0,9.9-4.4,9.9-9.9V9.9
			C632.8,4.4,628.4,0,622.9,0L622.9,0z"/>
	</g>
	<g>
		
			<ellipse transform="matrix(7.157662e-03 -1 1 7.157662e-03 5.4006 198.9872)" class="st0" cx="102.9" cy="96.8" rx="35" ry="36.9"/>
		
			<ellipse transform="matrix(7.151994e-03 -1 1 7.151994e-03 8.1678 201.7901)" class="st2" cx="105.7" cy="96.8" rx="35" ry="36.9"/>
		
			<ellipse transform="matrix(7.155602e-03 -1 1 7.155602e-03 11.0008 204.4935)" class="st3" cx="108.5" cy="96.7" rx="35" ry="36.9"/>
		
			<ellipse transform="matrix(7.154028e-03 -1 1 7.154028e-03 13.571 207.0963)" class="st4" cx="111.1" cy="96.7" rx="35.1" ry="36.9"/>
		
			<ellipse transform="matrix(7.157830e-03 -1 1 7.157830e-03 16.1347 209.6973)" class="st5" cx="113.7" cy="96.7" rx="35.1" ry="36.9"/>
		
			<ellipse transform="matrix(7.154028e-03 -1 1 7.154028e-03 19.113 212.4639)" class="st6" cx="116.6" cy="96.6" rx="35.1" ry="36.9"/>
		
			<ellipse transform="matrix(7.157830e-03 -1 1 7.157830e-03 21.6403 215.2664)" class="st7" cx="119.2" cy="96.7" rx="35.1" ry="36.9"/>
		
			<ellipse transform="matrix(7.152942e-03 -1 1 7.152942e-03 24.4098 218.0278)" class="st8" cx="122" cy="96.7" rx="35.1" ry="36.9"/>
		
			<ellipse transform="matrix(7.156201e-03 -1 1 7.156201e-03 27.0774 220.7286)" class="st9" cx="124.7" cy="96.7" rx="35.1" ry="36.9"/>
		
			<ellipse transform="matrix(7.154572e-03 -1 1 7.154572e-03 29.6477 223.3679)" class="st10" cx="127.3" cy="96.8" rx="35.2" ry="36.9"/>
		
			<ellipse transform="matrix(7.154572e-03 -1 1 7.154572e-03 32.2758 226.2329)" class="st11" cx="130.1" cy="96.9" rx="35.2" ry="36.9"/>
		
			<ellipse transform="matrix(7.154572e-03 -1 1 7.154572e-03 34.9456 228.9319)" class="st12" cx="132.8" cy="96.9" rx="35.2" ry="36.9"/>
		
			<ellipse transform="matrix(7.154572e-03 -1 1 7.154572e-03 37.5146 231.4921)" class="st13" cx="135.3" cy="96.9" rx="35.2" ry="36.9"/>
		
			<ellipse transform="matrix(7.154572e-03 -1 1 7.154572e-03 40.183 234.1937)" class="st14" cx="138" cy="96.9" rx="35.2" ry="36.9"/>
		
			<ellipse transform="matrix(7.154572e-03 -1 1 7.154572e-03 42.8093 236.8969)" class="st15" cx="140.7" cy="96.9" rx="35.2" ry="36.9"/>
		
			<ellipse transform="matrix(7.154572e-03 -1 1 7.154572e-03 45.6785 239.6005)" class="st16" cx="143.5" cy="96.8" rx="35.2" ry="36.9"/>
		
			<ellipse transform="matrix(7.154572e-03 -1 1 7.154572e-03 48.3472 242.3009)" class="st17" cx="146.2" cy="96.8" rx="35.3" ry="37"/>
		
			<ellipse transform="matrix(7.154572e-03 -1 1 7.154572e-03 51.1124 245.0587)" class="st18" cx="149" cy="96.8" rx="35.3" ry="37"/>
		
			<ellipse transform="matrix(7.154572e-03 -1 1 7.154572e-03 53.6421 247.6619)" class="st19" cx="151.5" cy="96.8" rx="35.3" ry="37"/>
		
			<ellipse transform="matrix(7.154572e-03 -1 1 7.154572e-03 56.4098 250.2657)" class="st20" cx="154.2" cy="96.7" rx="35.3" ry="37"/>
		
			<ellipse transform="matrix(7.154572e-03 -1 1 7.154572e-03 59.0773 252.9236)" class="st21" cx="156.9" cy="96.7" rx="35.3" ry="37"/>
		
			<ellipse transform="matrix(7.154572e-03 -1 1 7.154572e-03 61.747 255.6245)" class="st22" cx="159.6" cy="96.7" rx="35.3" ry="37"/>
		
			<ellipse transform="matrix(7.154570e-03 -1 1 7.154570e-03 64.2763 258.4677)" class="st23" cx="162.3" cy="96.9" rx="35.4" ry="37"/>
		
			<ellipse transform="matrix(7.155783e-03 -1 1 7.155783e-03 66.9464 261.1284)" class="st24" cx="165" cy="96.9" rx="35.4" ry="37"/>
		
			<ellipse transform="matrix(7.154572e-03 -1 1 7.154572e-03 69.6149 263.8299)" class="st25" cx="167.7" cy="96.9" rx="35.4" ry="37"/>
		
			<ellipse transform="matrix(7.155797e-03 -1 1 7.155797e-03 72.3816 266.5872)" class="st26" cx="170.4" cy="96.8" rx="35.4" ry="37"/>
		
			<ellipse transform="matrix(7.154572e-03 -1 1 7.154572e-03 75.3151 269.3908)" class="st27" cx="173.3" cy="96.8" rx="35.4" ry="37"/>
		
			<ellipse transform="matrix(7.154572e-03 -1 1 7.154572e-03 77.9838 272.0919)" class="st28" cx="176" cy="96.8" rx="35.4" ry="37"/>
		
			<ellipse transform="matrix(7.154572e-03 -1 1 7.154572e-03 80.6525 274.9506)" class="st29" cx="178.8" cy="96.9" rx="35.5" ry="37"/>
		
			<ellipse transform="matrix(7.153274e-03 -1 1 7.153274e-03 83.3226 277.4933)" class="st30" cx="181.4" cy="96.8" rx="35.5" ry="37"/>
		
			<ellipse transform="matrix(7.155844e-03 -1 1 7.155844e-03 85.9505 280.1576)" class="st31" cx="184.1" cy="96.8" rx="35.5" ry="37"/>
		
			<ellipse transform="matrix(7.153291e-03 -1 1 7.153291e-03 88.6194 282.8581)" class="st32" cx="186.8" cy="96.8" rx="35.5" ry="37"/>
		
			<ellipse transform="matrix(7.154572e-03 -1 1 7.154572e-03 91.2878 285.5587)" class="st33" cx="189.4" cy="96.8" rx="35.5" ry="37"/>
		
			<ellipse transform="matrix(7.154572e-03 -1 1 7.154572e-03 94.0555 288.1196)" class="st34" cx="192.1" cy="96.7" rx="35.5" ry="37"/>
		
			<ellipse transform="matrix(7.153257e-03 -1 1 7.153257e-03 96.5846 291.1214)" class="st35" cx="194.9" cy="96.9" rx="35.6" ry="37"/>
		
			<ellipse transform="matrix(7.155896e-03 -1 1 7.155896e-03 99.254 293.8225)" class="st36" cx="197.6" cy="96.9" rx="35.6" ry="37.1"/>
		
			<ellipse transform="matrix(7.154572e-03 -1 1 7.154572e-03 101.9236 296.5227)" class="st37" cx="200.3" cy="96.9" rx="35.6" ry="37.1"/>
		
			<ellipse transform="matrix(7.155912e-03 -1 1 7.155912e-03 104.8314 299.0253)" class="st38" cx="203" cy="96.7" rx="35.6" ry="37.1"/>
		
			<ellipse transform="matrix(7.154572e-03 -1 1 7.154572e-03 107.2598 301.8828)" class="st39" cx="205.7" cy="96.9" rx="35.6" ry="37.1"/>
		
			<ellipse transform="matrix(7.155932e-03 -1 1 7.155932e-03 110.0272 304.4857)" class="st40" cx="208.3" cy="96.8" rx="35.6" ry="37.1"/>
		
			<ellipse transform="matrix(7.153183e-03 -1 1 7.153183e-03 112.5957 307.0479)" class="st41" cx="210.9" cy="96.8" rx="35.7" ry="37.1"/>
		
			<ellipse transform="matrix(7.153183e-03 -1 1 7.153183e-03 115.2645 309.7481)" class="st42" cx="213.6" cy="96.8" rx="35.7" ry="37.1"/>
		
			<ellipse transform="matrix(7.153183e-03 -1 1 7.153183e-03 117.8955 312.6893)" class="st43" cx="216.4" cy="97" rx="35.7" ry="37.1"/>
		
			<ellipse transform="matrix(7.153183e-03 -1 1 7.153183e-03 120.662 315.2502)" class="st44" cx="219.1" cy="96.9" rx="35.7" ry="37.1"/>
		
			<ellipse transform="matrix(7.151755e-03 -1 1 7.151755e-03 123.3303 317.9516)" class="st45" cx="221.8" cy="96.9" rx="35.7" ry="37.1"/>
		
			<ellipse transform="matrix(7.146291e-03 -1 1 7.146291e-03 126.1038 320.7182)" class="st46" cx="224.6" cy="96.9" rx="35.7" ry="37.1"/>
		
			<ellipse transform="matrix(7.154617e-03 -1 1 7.154617e-03 128.83 323.5196)" class="st47" cx="227.3" cy="96.9" rx="35.8" ry="37.1"/>
		
			<ellipse transform="matrix(7.166482e-03 -1 1 7.166482e-03 131.497 326.2189)" class="st48" cx="230" cy="96.9" rx="35.8" ry="37.1"/>
		
			<ellipse transform="matrix(7.160543e-03 -1 1 7.160543e-03 134.0662 328.9825)" class="st49" cx="232.7" cy="97" rx="35.8" ry="37.1"/>
		
			<ellipse transform="matrix(7.163529e-03 -1 1 7.163529e-03 136.933 331.5223)" class="st50" cx="235.4" cy="96.8" rx="35.8" ry="37.1"/>
		
			<ellipse transform="matrix(7.159051e-03 -1 1 7.159051e-03 139.5689 334.3867)" class="st51" cx="238.2" cy="96.9" rx="35.8" ry="37.1"/>
		
			<ellipse transform="matrix(7.154572e-03 -1 1 7.154572e-03 142.0351 336.8896)" class="st52" cx="240.7" cy="96.9" rx="35.8" ry="37.1"/>
		
			<ellipse transform="matrix(7.154572e-03 -1 1 7.154572e-03 144.7054 339.5918)" class="st53" cx="243.4" cy="96.9" rx="35.9" ry="37.1"/>
		
			<ellipse transform="matrix(7.154572e-03 -1 1 7.154572e-03 147.5755 342.2527)" class="st54" cx="246.1" cy="96.8" rx="35.9" ry="37.1"/>
		
			<ellipse transform="matrix(7.154572e-03 -1 1 7.154572e-03 150.1044 345.0544)" class="st55" cx="248.8" cy="96.9" rx="35.9" ry="37.1"/>
		
			<ellipse transform="matrix(7.154572e-03 -1 1 7.154572e-03 152.7746 347.756)" class="st56" cx="251.5" cy="96.9" rx="35.9" ry="37.1"/>
		
			<ellipse transform="matrix(7.154572e-03 -1 1 7.154572e-03 155.5415 350.5549)" class="st57" cx="254.3" cy="96.9" rx="35.9" ry="37.1"/>
		
			<ellipse transform="matrix(7.154572e-03 -1 1 7.154572e-03 158.2111 353.2569)" class="st58" cx="257" cy="97" rx="35.9" ry="37.1"/>
		
			<ellipse transform="matrix(7.154572e-03 -1 1 7.154572e-03 161.0456 355.9106)" class="st59" cx="259.8" cy="96.9" rx="36" ry="37.2"/>
		
			<ellipse transform="matrix(7.154572e-03 -1 1 7.154572e-03 163.613 358.5148)" class="st60" cx="262.4" cy="96.9" rx="36" ry="37.2"/>
		
			<ellipse transform="matrix(7.154572e-03 -1 1 7.154572e-03 166.2822 361.215)" class="st61" cx="265" cy="96.9" rx="36" ry="37.2"/>
		
			<ellipse transform="matrix(7.154572e-03 -1 1 7.154572e-03 168.851 363.7742)" class="st62" cx="267.6" cy="96.9" rx="36" ry="37.2"/>
		
			<ellipse transform="matrix(7.154572e-03 -1 1 7.154572e-03 171.7827 366.6163)" class="st63" cx="270.5" cy="96.8" rx="36" ry="37.2"/>
		
			<ellipse transform="matrix(7.154572e-03 -1 1 7.154572e-03 174.4486 369.2802)" class="st64" cx="273.2" cy="96.8" rx="36" ry="37.2"/>
		
			<ellipse transform="matrix(7.154572e-03 -1 1 7.154572e-03 177.1158 371.9798)" class="st65" cx="275.9" cy="96.8" rx="36" ry="37.2"/>
		
			<ellipse transform="matrix(7.154572e-03 -1 1 7.154572e-03 179.6433 374.781)" class="st66" cx="278.6" cy="96.9" rx="36.1" ry="37.2"/>
		
			<ellipse transform="matrix(7.154572e-03 -1 1 7.154572e-03 182.5093 377.2441)" class="st67" cx="281.2" cy="96.7" rx="36.1" ry="37.2"/>
		
			<ellipse transform="matrix(7.154572e-03 -1 1 7.154572e-03 185.1794 379.9445)" class="st68" cx="283.9" cy="96.7" rx="36.1" ry="37.2"/>
		
			<ellipse transform="matrix(7.154572e-03 -1 1 7.154572e-03 187.8464 382.8037)" class="st69" cx="286.7" cy="96.8" rx="36.1" ry="37.2"/>
		
			<ellipse transform="matrix(7.154572e-03 -1 1 7.154572e-03 190.3772 385.4467)" class="st70" cx="289.3" cy="96.9" rx="36.1" ry="37.2"/>
		
			<ellipse transform="matrix(7.154572e-03 -1 1 7.154572e-03 193.0469 388.1486)" class="st71" cx="292" cy="96.9" rx="36.1" ry="37.2"/>
		
			<ellipse transform="matrix(7.154572e-03 -1 1 7.154572e-03 195.7155 391.007)" class="st72" cx="294.8" cy="96.9" rx="36.2" ry="37.2"/>
		
			<ellipse transform="matrix(7.154572e-03 -1 1 7.154572e-03 198.386 393.7087)" class="st73" cx="297.5" cy="96.9" rx="36.2" ry="37.2"/>
		
			<ellipse transform="matrix(7.154572e-03 -1 1 7.154572e-03 201.2156 396.3734)" class="st74" cx="300.2" cy="96.9" rx="36.2" ry="37.2"/>
		
			<ellipse transform="matrix(7.154572e-03 -1 1 7.154572e-03 203.8853 399.0743)" class="st75" cx="302.9" cy="96.9" rx="36.2" ry="37.2"/>
		
			<ellipse transform="matrix(7.154572e-03 -1 1 7.154572e-03 206.4514 401.7172)" class="st76" cx="305.5" cy="96.9" rx="36.2" ry="37.2"/>
		
			<ellipse transform="matrix(7.154572e-03 -1 1 7.154572e-03 209.2246 404.4769)" class="st77" cx="308.3" cy="96.9" rx="36.2" ry="37.2"/>
		
			<ellipse transform="matrix(7.154572e-03 -1 1 7.154572e-03 211.9496 407.0822)" class="st78" cx="311" cy="96.8" rx="36.3" ry="37.2"/>
		
			<ellipse transform="matrix(7.154572e-03 -1 1 7.154572e-03 214.5574 410.0399)" class="st79" cx="313.8" cy="97" rx="36.3" ry="37.2"/>
		
			<ellipse transform="matrix(7.154572e-03 -1 1 7.154572e-03 217.2277 412.7415)" class="st80" cx="316.5" cy="97" rx="36.3" ry="37.2"/>
		
			<ellipse transform="matrix(7.154572e-03 -1 1 7.154572e-03 219.8958 415.4421)" class="st81" cx="319.2" cy="97" rx="36.3" ry="37.3"/>
		
			<ellipse transform="matrix(7.154572e-03 -1 1 7.154572e-03 222.623 417.8088)" class="st82" cx="321.7" cy="96.8" rx="36.3" ry="37.3"/>
		
			<ellipse transform="matrix(7.154572e-03 -1 1 7.154572e-03 225.2956 420.5426)" class="st83" cx="324.4" cy="96.8" rx="36.4" ry="37.3"/>
		
			<ellipse transform="matrix(7.154572e-03 -1 1 7.154572e-03 228.0619 423.3101)" class="st84" cx="327.2" cy="96.8" rx="36.4" ry="37.3"/>
		
			<ellipse transform="matrix(7.154572e-03 -1 1 7.154572e-03 230.7298 426.0112)" class="st85" cx="329.9" cy="96.8" rx="36.4" ry="37.3"/>
		
			<ellipse transform="matrix(7.154572e-03 -1 1 7.154572e-03 233.358 428.7084)" class="st86" cx="332.6" cy="96.8" rx="36.4" ry="37.3"/>
		
			<ellipse transform="matrix(7.154572e-03 -1 1 7.154572e-03 235.9327 431.6799)" class="st87" cx="335.4" cy="97" rx="36.4" ry="37.3"/>
		
			<ellipse transform="matrix(7.154572e-03 -1 1 7.154572e-03 238.6022 434.3805)" class="st88" cx="338.1" cy="97" rx="36.4" ry="37.3"/>
		
			<ellipse transform="matrix(7.154572e-03 -1 1 7.154572e-03 241.1698 436.9425)" class="st89" cx="340.6" cy="97" rx="36.5" ry="37.3"/>
		
			<ellipse transform="matrix(7.154572e-03 -1 1 7.154572e-03 243.8 439.8828)" class="st90" cx="343.4" cy="97.2" rx="36.5" ry="37.3"/>
		
			<ellipse transform="matrix(7.154572e-03 -1 1 7.154572e-03 246.4674 442.5836)" class="st91" cx="346.1" cy="97.2" rx="36.5" ry="37.3"/>
		
			<ellipse transform="matrix(7.154572e-03 -1 1 7.154572e-03 249.236 445.1445)" class="st92" cx="348.8" cy="97.1" rx="36.5" ry="37.3"/>
		
			<ellipse transform="matrix(7.154572e-03 -1 1 7.154572e-03 251.9052 447.8453)" class="st93" cx="351.5" cy="97.1" rx="36.5" ry="37.3"/>
		
			<ellipse transform="matrix(7.154572e-03 -1 1 7.154572e-03 254.8301 450.6057)" class="st94" cx="354.3" cy="97" rx="36.5" ry="37.3"/>
		
			<ellipse transform="matrix(7.154572e-03 -1 1 7.154572e-03 257.4993 453.3069)" class="st95" cx="357" cy="97" rx="36.5" ry="37.3"/>
		
			<ellipse transform="matrix(7.154572e-03 -1 1 7.154572e-03 260.0728 455.9512)" class="st96" cx="359.6" cy="97" rx="36.6" ry="37.3"/>
		
			<ellipse transform="matrix(7.154572e-03 -1 1 7.154572e-03 262.8388 458.7093)" class="st97" cx="362.4" cy="97" rx="36.6" ry="37.3"/>
		
			<ellipse transform="matrix(7.154572e-03 -1 1 7.154572e-03 265.4666 461.4115)" class="st98" cx="365.1" cy="97" rx="36.6" ry="37.3"/>
		
			<ellipse transform="matrix(7.154572e-03 -1 1 7.154572e-03 268.1342 464.0709)" class="st99" cx="367.8" cy="97" rx="36.6" ry="37.3"/>
		
			<ellipse transform="matrix(7.154572e-03 -1 1 7.154572e-03 270.7041 466.674)" class="st100" cx="370.4" cy="97" rx="36.6" ry="37.3"/>
		
			<ellipse transform="matrix(7.154572e-03 -1 1 7.154572e-03 273.3728 469.3759)" class="st101" cx="373.1" cy="97" rx="36.6" ry="37.3"/>
		
			<ellipse transform="matrix(7.154572e-03 -1 1 7.154572e-03 276.1046 472.1366)" class="st102" cx="375.8" cy="97" rx="36.7" ry="37.4"/>
		
			<ellipse transform="matrix(7.154572e-03 -1 1 7.154572e-03 278.975 475.0764)" class="st103" cx="378.7" cy="97" rx="36.7" ry="37.4"/>
		
			<ellipse transform="matrix(7.154572e-03 -1 1 7.154572e-03 281.6429 477.7788)" class="st104" cx="381.4" cy="97.1" rx="36.7" ry="37.4"/>
		
			<ellipse transform="matrix(7.154572e-03 -1 1 7.154572e-03 284.2106 480.3402)" class="st105" cx="384" cy="97" rx="36.7" ry="37.4"/>
		
			<ellipse transform="matrix(7.154572e-03 -1 1 7.154572e-03 286.9383 482.9417)" class="st106" cx="386.7" cy="97" rx="36.7" ry="37.4"/>
		
			<ellipse transform="matrix(7.154572e-03 -1 1 7.154572e-03 289.4094 485.8049)" class="st107" cx="389.4" cy="97.2" rx="36.8" ry="37.4"/>
		
			<ellipse transform="matrix(7.154572e-03 -1 1 7.154572e-03 292.176 488.4062)" class="st108" cx="392" cy="97.1" rx="36.8" ry="37.4"/>
		
			<ellipse transform="matrix(7.154572e-03 -1 1 7.154572e-03 294.8452 491.1074)" class="st109" cx="394.7" cy="97.1" rx="36.8" ry="37.4"/>
		
			<ellipse transform="matrix(7.154572e-03 -1 1 7.154572e-03 297.5744 493.9084)" class="st110" cx="397.5" cy="97.1" rx="36.8" ry="37.4"/>
		
			<ellipse transform="matrix(7.154572e-03 -1 1 7.154572e-03 300.3418 496.7099)" class="st111" cx="400.3" cy="97.1" rx="36.8" ry="37.4"/>
		
			<ellipse transform="matrix(7.154572e-03 -1 1 7.154572e-03 302.8112 499.1734)" class="st112" cx="402.8" cy="97.1" rx="36.8" ry="37.4"/>
		
			<ellipse transform="matrix(7.154572e-03 -1 1 7.154572e-03 305.4809 501.873)" class="st113" cx="405.5" cy="97.1" rx="36.9" ry="37.4"/>
		
			<ellipse transform="matrix(7.154572e-03 -1 1 7.154572e-03 308.1058 504.5768)" class="st114" cx="408.2" cy="97.1" rx="36.9" ry="37.4"/>
		
			<ellipse transform="matrix(7.154572e-03 -1 1 7.154572e-03 310.8734 507.1367)" class="st115" cx="410.8" cy="97" rx="36.9" ry="37.4"/>
		
			<ellipse transform="matrix(7.154572e-03 -1 1 7.154572e-03 313.4447 509.9791)" class="st116" cx="413.5" cy="97.1" rx="36.9" ry="37.4"/>
		
			<ellipse transform="matrix(7.146894e-03 -1 1 7.146894e-03 316.2171 512.5393)" class="st117" cx="416.2" cy="97" rx="36.9" ry="37.4"/>
		
			<ellipse transform="matrix(7.146894e-03 -1 1 7.146894e-03 318.8493 515.2354)" class="st118" cx="418.9" cy="97" rx="36.9" ry="37.4"/>
		
			<ellipse transform="matrix(7.146894e-03 -1 1 7.146894e-03 321.5183 517.937)" class="st119" cx="421.6" cy="97.1" rx="36.9" ry="37.4"/>
		
			<ellipse transform="matrix(7.154572e-03 -1 1 7.154572e-03 324.3174 520.6993)" class="st120" cx="424.4" cy="97" rx="37" ry="37.4"/>
		
			<ellipse transform="matrix(7.154572e-03 -1 1 7.154572e-03 326.9857 523.399)" class="st121" cx="427.1" cy="97" rx="37" ry="37.4"/>
		
			<ellipse transform="matrix(7.146230e-03 -1 1 7.146230e-03 329.7286 526.1625)" class="st122" cx="429.8" cy="97" rx="37" ry="37.4"/>
		
			<ellipse transform="matrix(7.154572e-03 -1 1 7.154572e-03 332.4877 528.7998)" class="st123" cx="432.5" cy="97" rx="37" ry="37.5"/>
		
			<ellipse transform="matrix(7.145649e-03 -1 1 7.145649e-03 335.1618 531.5021)" class="st124" cx="435.2" cy="97" rx="37" ry="37.5"/>
		
			<ellipse transform="matrix(7.146894e-03 -1 1 7.146894e-03 337.7379 534.2656)" class="st125" cx="437.9" cy="97.1" rx="37" ry="37.5"/>
		
			<ellipse transform="matrix(7.145220e-03 -1 1 7.145220e-03 340.6723 537.0677)" class="st126" cx="440.8" cy="97" rx="37.1" ry="37.5"/>
		
			<ellipse transform="matrix(7.164153e-03 -1 1 7.164153e-03 343.3298 539.9251)" class="st127" cx="443.6" cy="97.1" rx="37.1" ry="37.5"/>
		
			<ellipse transform="matrix(7.154327e-03 -1 1 7.154327e-03 345.9023 542.5309)" class="st128" cx="446.2" cy="97.1" rx="37.1" ry="37.5"/>
		
			<ellipse transform="matrix(1.000300e-02 -0.9999 0.9999 1.000300e-02 347.8275 546.8575)" class="st129" cx="450.1" cy="97.8" rx="37.1" ry="37.5"/>
		
			<ellipse transform="matrix(7.165212e-03 -1 1 7.165212e-03 351.2965 547.833)" class="st130" cx="451.5" cy="97" rx="37.1" ry="37.5"/>
		
			<ellipse transform="matrix(7.164153e-03 -1 1 7.164153e-03 353.9664 550.5351)" class="st131" cx="454.2" cy="97" rx="37.1" ry="37.5"/>
		
			<ellipse transform="matrix(7.165835e-03 -1 1 7.165835e-03 356.8322 553.1955)" class="st132" cx="457" cy="96.9" rx="37.2" ry="37.5"/>
		
			<ellipse transform="matrix(7.154572e-03 -1 1 7.154572e-03 359.5059 555.8974)" class="st133" cx="459.7" cy="96.9" rx="37.2" ry="37.5"/>
		
			<ellipse transform="matrix(7.154572e-03 -1 1 7.154572e-03 362.0352 558.6996)" class="st134" cx="462.4" cy="97" rx="37.2" ry="37.5"/>
		
			<ellipse transform="matrix(7.141812e-03 -1 1 7.141812e-03 364.7089 561.3604)" class="st135" cx="465" cy="97" rx="37.2" ry="37.5"/>
		
			<ellipse transform="matrix(7.141812e-03 -1 1 7.141812e-03 367.3818 564.1038)" class="st136" cx="467.8" cy="97" rx="37.2" ry="37.5"/>
		
			<ellipse transform="matrix(7.154572e-03 -1 1 7.154572e-03 370.0432 566.7603)" class="st137" cx="470.4" cy="97" rx="37.2" ry="37.5"/>
		
			<ellipse transform="matrix(7.154572e-03 -1 1 7.154572e-03 372.5688 569.5616)" class="st138" cx="473.1" cy="97.2" rx="37.3" ry="37.5"/>
		
			<ellipse transform="matrix(7.139856e-03 -1 1 7.139856e-03 375.2451 572.2645)" class="st139" cx="475.8" cy="97.2" rx="37.3" ry="37.5"/>
		
			<ellipse transform="matrix(7.169873e-03 -1 1 7.169873e-03 377.9973 574.822)" class="st140" cx="478.5" cy="97.1" rx="37.3" ry="37.5"/>
		
			<ellipse transform="matrix(7.154572e-03 -1 1 7.154572e-03 380.675 577.5245)" class="st141" cx="481.2" cy="97.1" rx="37.3" ry="37.5"/>
		
			<ellipse transform="matrix(7.090752e-03 -1 1 7.090752e-03 383.4303 580.1356)" class="st142" cx="483.8" cy="97" rx="37.3" ry="37.6"/>
		
			<ellipse transform="matrix(7.072546e-03 -1 1 7.072546e-03 386.1104 582.8398)" class="st143" cx="486.5" cy="97" rx="37.3" ry="37.6"/>
		
			<ellipse transform="matrix(7.039841e-03 -1 1 7.039841e-03 388.7961 585.5418)" class="st144" cx="489.2" cy="97" rx="37.4" ry="37.6"/>
		
			<ellipse transform="matrix(7.039841e-03 -1 1 7.039841e-03 391.5614 588.3004)" class="st145" cx="492" cy="97" rx="37.4" ry="37.6"/>
		
			<ellipse transform="matrix(7.058960e-03 -1 1 7.058960e-03 394.181 591.0039)" class="st146" cx="494.7" cy="97" rx="37.4" ry="37.6"/>
		
			<ellipse transform="matrix(7.135450e-03 -1 1 7.135450e-03 396.8135 593.6981)" class="st147" cx="497.4" cy="97" rx="37.4" ry="37.6"/>
		
			<ellipse transform="matrix(7.116330e-03 -1 1 7.116330e-03 399.3926 596.4584)" class="st148" cx="500.1" cy="97.1" rx="37.4" ry="37.6"/>
		
			<ellipse transform="matrix(7.039839e-03 -1 1 7.039839e-03 402.0575 599.2085)" class="st149" cx="502.7" cy="97.2" rx="37.4" ry="37.6"/>
		
			<ellipse transform="matrix(7.230951e-03 -1 1 7.230951e-03 404.8363 602.0526)" class="st150" cx="505.6" cy="97.1" rx="37.5" ry="37.6"/>
		
			<ellipse transform="matrix(7.154572e-03 -1 1 7.154572e-03 407.5428 604.7607)" class="st151" cx="508.3" cy="97.1" rx="37.5" ry="37.6"/>
		
			<ellipse transform="matrix(7.001775e-03 -1 1 7.001775e-03 410.2898 607.475)" class="st152" cx="511" cy="97.2" rx="37.5" ry="37.6"/>
		
			<ellipse transform="matrix(7.154572e-03 -1 1 7.154572e-03 412.9423 610.0233)" class="st153" cx="513.7" cy="97.1" rx="37.5" ry="37.6"/>
		
			<ellipse transform="matrix(7.154572e-03 -1 1 7.154572e-03 415.611 612.725)" class="st154" cx="516.4" cy="97.1" rx="37.5" ry="37.6"/>
		
			<ellipse transform="matrix(7.154572e-03 -1 1 7.154572e-03 418.1733 615.2866)" class="st155" cx="518.9" cy="97.1" rx="37.5" ry="37.6"/>
		
			<ellipse transform="matrix(7.154572e-03 -1 1 7.154572e-03 420.8459 618.0278)" class="st156" cx="521.7" cy="97.1" rx="37.5" ry="37.6"/>
		
			<ellipse transform="matrix(0.7071 -0.7071 0.7071 0.7071 84.8655 399.3381)" class="st157" cx="524.5" cy="97.2" rx="37.6" ry="37.6"/>
		
			<ellipse transform="matrix(0.7071 -0.7071 0.7071 0.7071 85.6299 401.1754)" class="st158" cx="527.1" cy="97.2" rx="37.6" ry="37.6"/>
		
			<ellipse transform="matrix(0.7071 -0.7071 0.7071 0.7071 86.4206 403.0846)" class="st159" cx="529.8" cy="97.2" rx="37.6" ry="37.6"/>
		
			<ellipse transform="matrix(0.7071 -0.7071 0.7071 0.7071 87.2108 404.9931)" class="st160" cx="532.5" cy="97.2" rx="37.6" ry="37.6"/>
		
			<ellipse transform="matrix(0.7071 -0.7071 0.7071 0.7071 88.0009 406.9031)" class="st1" cx="535.2" cy="97.2" rx="37.6" ry="37.6"/>
		<g>
			<text transform="matrix(1 0 0 1 63.0027 187.1372)" class="st1 st161 st162">Low</text>
			<text transform="matrix(1 0 0 1 467.5864 187.1369)" class="st1 st161 st162">High</text>
		</g>
	</g>
</g>
</svg>
