<?xml version="1.0" encoding="utf-8"?>
<!-- Generator: Adobe Illustrator 26.0.2, SVG Export Plug-In . SVG Version: 6.00 Build 0)  -->
<svg version="1.1" id="图层_1" xmlns="http://www.w3.org/2000/svg" xmlns:xlink="http://www.w3.org/1999/xlink" x="0px" y="0px"
	 viewBox="0 0 875 120.5" style="enable-background:new 0 0 875 120.5;" xml:space="preserve">
<style type="text/css">
	.st0{fill:#E9E8E2;}
	.st1{fill:#FF0000;}
	.st2{fill:#FE0001;}
	.st3{fill:#FD0002;}
	.st4{fill:#FC0003;}
	.st5{fill:#FB0004;}
	.st6{fill:#FA0005;}
	.st7{fill:#F90006;}
	.st8{fill:#F80007;}
	.st9{fill:#F70008;}
	.st10{fill:#F60009;}
	.st11{fill:#F5000A;}
	.st12{fill:#F4000B;}
	.st13{fill:#F3000C;}
	.st14{fill:#F2000D;}
	.st15{fill:#F1000E;}
	.st16{fill:#F0000F;}
	.st17{fill:#EF0010;}
	.st18{fill:#EE0011;}
	.st19{fill:#ED0012;}
	.st20{fill:#EC0013;}
	.st21{fill:#EB0014;}
	.st22{fill:#EA0015;}
	.st23{fill:#E90016;}
	.st24{fill:#E80017;}
	.st25{fill:#E70018;}
	.st26{fill:#E60019;}
	.st27{fill:#E5001A;}
	.st28{fill:#E4001B;}
	.st29{fill:#E3001C;}
	.st30{fill:#E2001D;}
	.st31{fill:#E1001E;}
	.st32{fill:#E0001F;}
	.st33{fill:#DF0020;}
	.st34{fill:#DE0021;}
	.st35{fill:#DD0022;}
	.st36{fill:#DC0023;}
	.st37{fill:#DB0024;}
	.st38{fill:#DA0025;}
	.st39{fill:#D90026;}
	.st40{fill:#D80027;}
	.st41{fill:#D70028;}
	.st42{fill:#D60029;}
	.st43{fill:#D5002A;}
	.st44{fill:#D4002B;}
	.st45{fill:#D3002C;}
	.st46{fill:#D2002D;}
	.st47{fill:#D1002E;}
	.st48{fill:#D0002F;}
	.st49{fill:#CF0030;}
	.st50{fill:#CE0031;}
	.st51{fill:#CD0032;}
	.st52{fill:#CC0033;}
	.st53{fill:#CB0034;}
	.st54{fill:#CA0035;}
	.st55{fill:#C90036;}
	.st56{fill:#C80037;}
	.st57{fill:#C70038;}
	.st58{fill:#C60039;}
	.st59{fill:#C5003A;}
	.st60{fill:#C4003B;}
	.st61{fill:#C3003C;}
	.st62{fill:#C2003D;}
	.st63{fill:#C1003E;}
	.st64{fill:#C0003F;}
	.st65{fill:#BF0040;}
	.st66{fill:#BE0041;}
	.st67{fill:#BD0042;}
	.st68{fill:#BC0043;}
	.st69{fill:#BB0044;}
	.st70{fill:#BA0045;}
	.st71{fill:#B90046;}
	.st72{fill:#B80047;}
	.st73{fill:#B70048;}
	.st74{fill:#B60049;}
	.st75{fill:#B5004A;}
	.st76{fill:#B4004B;}
	.st77{fill:#B3004C;}
	.st78{fill:#B2004D;}
	.st79{fill:#B1004E;}
	.st80{fill:#B0004F;}
	.st81{fill:#AF0050;}
	.st82{fill:#AE0051;}
	.st83{fill:#AD0052;}
	.st84{fill:#AC0053;}
	.st85{fill:#AB0054;}
	.st86{fill:#AA0055;}
	.st87{fill:#A90056;}
	.st88{fill:#A80057;}
	.st89{fill:#A70058;}
	.st90{fill:#A60059;}
	.st91{fill:#A5005A;}
	.st92{fill:#A4005B;}
	.st93{fill:#A3005C;}
	.st94{fill:#A2005D;}
	.st95{fill:#A1005E;}
	.st96{fill:#A0005F;}
	.st97{fill:#9F0060;}
	.st98{fill:#9E0061;}
	.st99{fill:#9D0062;}
	.st100{fill:#9C0063;}
	.st101{fill:#9B0064;}
	.st102{fill:#9A0065;}
	.st103{fill:#990066;}
	.st104{fill:#980067;}
	.st105{fill:#970068;}
	.st106{fill:#960069;}
	.st107{fill:#95006A;}
	.st108{fill:#94006B;}
	.st109{fill:#93006C;}
	.st110{fill:#92006D;}
	.st111{fill:#91006E;}
	.st112{fill:#90006F;}
	.st113{fill:#8F0070;}
	.st114{fill:#8E0071;}
	.st115{fill:#8D0072;}
	.st116{fill:#8C0073;}
	.st117{fill:#8B0074;}
	.st118{fill:#8A0075;}
	.st119{fill:#890076;}
	.st120{fill:#880077;}
	.st121{fill:#870078;}
	.st122{fill:#860079;}
	.st123{fill:#85007A;}
	.st124{fill:#84007B;}
	.st125{fill:#83007C;}
	.st126{fill:#82007D;}
	.st127{fill:#81007E;}
	.st128{fill:#80007F;}
	.st129{fill:#7F0080;}
	.st130{fill:#7E0081;}
	.st131{fill:#7D0082;}
	.st132{fill:#7C0083;}
	.st133{fill:#7B0084;}
	.st134{fill:#7A0085;}
	.st135{fill:#790086;}
	.st136{fill:#780087;}
	.st137{fill:#770088;}
	.st138{fill:#760089;}
	.st139{fill:#75008A;}
	.st140{fill:#74008B;}
	.st141{fill:#73008C;}
	.st142{fill:#72008D;}
	.st143{fill:#71008E;}
	.st144{fill:#70008F;}
	.st145{fill:#6F0090;}
	.st146{fill:#6E0091;}
	.st147{fill:#6D0092;}
	.st148{fill:#6C0093;}
	.st149{fill:#6B0094;}
	.st150{fill:#6A0095;}
	.st151{fill:#690096;}
	.st152{fill:#680097;}
	.st153{fill:#670098;}
	.st154{fill:#660099;}
	.st155{fill:#65009A;}
	.st156{fill:#64009B;}
	.st157{fill:#63009C;}
	.st158{fill:#62009D;}
	.st159{fill:#61009E;}
	.st160{fill:#60009F;}
	.st161{fill:#5F00A0;}
	.st162{fill:#5E00A1;}
	.st163{fill:#5D00A2;}
	.st164{fill:#5C00A3;}
	.st165{fill:#5B00A4;}
	.st166{fill:#5A00A5;}
	.st167{fill:#5900A6;}
	.st168{fill:#5800A7;}
	.st169{fill:#5700A8;}
	.st170{fill:#5600A9;}
	.st171{fill:#5500AA;}
	.st172{fill:#5400AB;}
	.st173{fill:#5300AC;}
	.st174{fill:#5200AD;}
	.st175{fill:#5100AE;}
	.st176{fill:#5000AF;}
	.st177{fill:#4F00B0;}
	.st178{fill:#4E00B1;}
	.st179{fill:#4D00B2;}
	.st180{fill:#4C00B3;}
	.st181{fill:#4B00B4;}
	.st182{fill:#4A00B5;}
	.st183{fill:#4900B6;}
	.st184{fill:#4800B7;}
	.st185{fill:#4700B8;}
	.st186{fill:#4600B9;}
	.st187{fill:#4500BA;}
	.st188{fill:#4400BB;}
	.st189{fill:#4300BC;}
	.st190{fill:#4200BD;}
	.st191{fill:#4100BE;}
	.st192{fill:#4000BF;}
	.st193{fill:#3F00C0;}
	.st194{fill:#3E00C1;}
	.st195{fill:#3D00C2;}
	.st196{fill:#3C00C3;}
	.st197{fill:#3B00C4;}
	.st198{fill:#3A00C5;}
	.st199{fill:#3900C6;}
	.st200{fill:#3800C7;}
	.st201{fill:#3700C8;}
	.st202{fill:#3600C9;}
	.st203{fill:#3500CA;}
	.st204{fill:#3400CB;}
	.st205{fill:#3300CC;}
	.st206{fill:#3200CD;}
	.st207{fill:#3100CE;}
	.st208{fill:#3000CF;}
	.st209{fill:#2F00D0;}
	.st210{fill:#2E00D1;}
	.st211{fill:#2D00D2;}
	.st212{fill:#2C00D3;}
	.st213{fill:#2B00D4;}
	.st214{fill:#2A00D5;}
	.st215{fill:#2900D6;}
	.st216{fill:#2800D7;}
	.st217{fill:#2700D8;}
	.st218{fill:#2600D9;}
	.st219{fill:#2500DA;}
	.st220{fill:#2400DB;}
	.st221{fill:#2300DC;}
	.st222{fill:#2200DD;}
	.st223{fill:#2100DE;}
	.st224{fill:#2000DF;}
	.st225{fill:#1F00E0;}
	.st226{fill:#1E00E1;}
	.st227{fill:#1D00E2;}
	.st228{fill:#1C00E3;}
	.st229{fill:#1B00E4;}
	.st230{fill:#1A00E5;}
	.st231{fill:#1900E6;}
	.st232{fill:#1800E7;}
	.st233{fill:#1700E8;}
	.st234{fill:#1600E9;}
	.st235{fill:#1500EA;}
	.st236{fill:#1400EB;}
	.st237{fill:#1300EC;}
	.st238{fill:#1200ED;}
	.st239{fill:#1100EE;}
	.st240{fill:#1000EF;}
	.st241{fill:#0F00F0;}
	.st242{fill:#0E00F1;}
	.st243{fill:#0D00F2;}
	.st244{fill:#0C00F3;}
	.st245{fill:#0B00F4;}
	.st246{fill:#0A00F5;}
	.st247{fill:#0900F6;}
	.st248{fill:#0800F7;}
	.st249{fill:#0700F8;}
	.st250{fill:#0600F9;}
	.st251{fill:#0500FA;}
	.st252{fill:#0400FB;}
	.st253{fill:#0300FC;}
	.st254{fill:#0200FD;}
	.st255{fill:#0100FE;}
	.st256{fill:#0000FF;}
	.st257{font-family:'Montserrat-Bold';}
	.st258{font-size:24px;}
</style>
<path class="st0" d="M13.7,0h847.7c7.6,0,13.7,2.1,13.7,4.7v111.2c0,2.6-6.1,4.7-13.7,4.7H13.7c-7.6,0-13.7-2.1-13.7-4.7V4.7
	C0,2.1,6.1,0,13.7,0z"/>
<g>
	<circle class="st1" cx="209.2" cy="59.5" r="36.9"/>
	<ellipse class="st2" cx="210.9" cy="59.5" rx="36.9" ry="36.9"/>
	<circle class="st3" cx="212.5" cy="59.6" r="36.9"/>
	<circle class="st4" cx="214.1" cy="59.6" r="36.9"/>
	<ellipse class="st5" cx="215.9" cy="59.5" rx="36.9" ry="36.9"/>
	<ellipse class="st6" cx="217.5" cy="59.5" rx="36.9" ry="36.9"/>
	<circle class="st7" cx="219" cy="59.6" r="36.9"/>
	<circle class="st8" cx="220.7" cy="59.6" r="36.9"/>
	<ellipse class="st9" cx="222.4" cy="59.5" rx="36.9" ry="36.9"/>
	<circle class="st10" cx="224" cy="59.6" r="36.9"/>
	<circle class="st11" cx="225.6" cy="59.6" r="36.9"/>
	<ellipse class="st12" cx="227.4" cy="59.5" rx="36.9" ry="36.9"/>
	<ellipse class="st13" cx="229" cy="59.5" rx="36.9" ry="36.9"/>
	<circle class="st14" cx="230.5" cy="59.6" r="36.9"/>
	<circle class="st15" cx="232.2" cy="59.6" r="36.9"/>
	<ellipse class="st16" cx="233.9" cy="59.5" rx="36.9" ry="36.9"/>
	<circle class="st17" cx="235.5" cy="59.6" r="36.9"/>
	<circle class="st18" cx="237.1" cy="59.6" r="36.9"/>
	<circle class="st19" cx="238.7" cy="59.6" r="36.9"/>
	<ellipse class="st20" cx="240.5" cy="59.5" rx="36.9" ry="36.9"/>
	
		<ellipse transform="matrix(8.247758e-02 -0.9966 0.9966 8.247758e-02 162.6313 296.0057)" class="st21" cx="242.1" cy="59.7" rx="36.9" ry="36.9"/>
	
		<ellipse transform="matrix(8.247756e-02 -0.9966 0.9966 8.247756e-02 164.1909 297.7)" class="st22" cx="243.8" cy="59.7" rx="36.9" ry="36.9"/>
	<ellipse class="st23" cx="245.4" cy="59.7" rx="36.9" ry="36.9"/>
	
		<ellipse transform="matrix(8.247758e-02 -0.9966 0.9966 8.247758e-02 167.2189 300.9886)" class="st24" cx="247.1" cy="59.7" rx="36.9" ry="36.9"/>
	
		<ellipse transform="matrix(8.247765e-02 -0.9966 0.9966 8.247765e-02 168.6867 302.5837)" class="st25" cx="248.7" cy="59.7" rx="36.9" ry="36.9"/>
	
		<ellipse transform="matrix(8.247756e-02 -0.9966 0.9966 8.247756e-02 170.155 304.1777)" class="st26" cx="250.3" cy="59.7" rx="36.9" ry="36.9"/>
	<ellipse class="st27" cx="252" cy="59.7" rx="36.9" ry="36.9"/>
	
		<ellipse transform="matrix(8.247758e-02 -0.9966 0.9966 8.247758e-02 173.1826 307.4667)" class="st28" cx="253.6" cy="59.7" rx="36.9" ry="36.9"/>
	
		<ellipse transform="matrix(8.247756e-02 -0.9966 0.9966 8.247756e-02 174.7423 309.1609)" class="st29" cx="255.3" cy="59.7" rx="36.9" ry="36.9"/>
	<ellipse class="st30" cx="256.9" cy="59.7" rx="36.9" ry="36.9"/>
	<ellipse class="st31" cx="258.5" cy="59.7" rx="36.9" ry="36.9"/>
	
		<ellipse transform="matrix(8.247765e-02 -0.9966 0.9966 8.247765e-02 179.2385 314.0445)" class="st32" cx="260.2" cy="59.7" rx="36.9" ry="36.9"/>
	
		<ellipse transform="matrix(8.247756e-02 -0.9966 0.9966 8.247756e-02 180.7068 315.6396)" class="st33" cx="261.8" cy="59.7" rx="36.9" ry="36.9"/>
	<ellipse class="st34" cx="263.5" cy="59.7" rx="36.9" ry="36.9"/>
	
		<ellipse transform="matrix(8.247758e-02 -0.9966 0.9966 8.247758e-02 183.7347 318.9285)" class="st35" cx="265.1" cy="59.7" rx="36.9" ry="36.9"/>
	
		<ellipse transform="matrix(8.247765e-02 -0.9966 0.9966 8.247765e-02 185.202 320.5227)" class="st36" cx="266.7" cy="59.7" rx="36.9" ry="36.9"/>
	<ellipse class="st37" cx="268.3" cy="59.7" rx="36.9" ry="36.9"/>
	<circle class="st38" cx="269.9" cy="59.8" r="36.9"/>
	<ellipse class="st39" cx="271.6" cy="59.7" rx="36.9" ry="36.9"/>
	<circle class="st40" cx="273.2" cy="59.8" r="36.9"/>
	<ellipse class="st41" cx="274.9" cy="59.8" rx="36.9" ry="36.9"/>
	<circle class="st42" cx="276.5" cy="59.8" r="36.9"/>
	<ellipse class="st43" cx="278.2" cy="59.7" rx="36.9" ry="36.9"/>
	<circle class="st44" cx="279.8" cy="59.8" r="36.9"/>
	<ellipse class="st45" cx="281.5" cy="59.9" rx="36.9" ry="36.9"/>
	<ellipse class="st46" cx="283.1" cy="59.8" rx="36.9" ry="36.9"/>
	<circle class="st47" cx="284.7" cy="59.8" r="36.9"/>
	<ellipse class="st48" cx="286.4" cy="59.7" rx="36.9" ry="36.9"/>
	<ellipse class="st49" cx="288" cy="59.8" rx="36.9" ry="36.9"/>
	<circle class="st50" cx="289.7" cy="59.8" r="36.9"/>
	<circle class="st51" cx="291.3" cy="59.8" r="36.9"/>
	
		<ellipse transform="matrix(0.1602 -0.9871 0.9871 0.1602 187.1338 339.4964)" class="st52" cx="293.1" cy="59.8" rx="36.9" ry="36.9"/>
	<circle class="st53" cx="294.6" cy="59.8" r="36.9"/>
	<ellipse class="st54" cx="296.2" cy="59.9" rx="36.9" ry="36.9"/>
	<circle class="st55" cx="297.9" cy="59.9" r="36.9"/>
	<ellipse class="st56" cx="299.7" cy="59.8" rx="36.9" ry="36.9"/>
	<circle class="st57" cx="301.2" cy="59.9" r="36.9"/>
	<ellipse class="st58" cx="302.8" cy="59.9" rx="36.9" ry="36.9"/>
	<ellipse class="st59" cx="304.5" cy="59.9" rx="36.9" ry="36.9"/>
	
		<ellipse transform="matrix(0.1602 -0.9871 0.9871 0.1602 197.8866 352.3327)" class="st60" cx="306" cy="59.9" rx="36.9" ry="36.9"/>
	<ellipse class="st61" cx="307.8" cy="59.9" rx="36.9" ry="36.9"/>
	<ellipse class="st62" cx="309.4" cy="59.9" rx="36.9" ry="36.9"/>
	<ellipse class="st63" cx="311.1" cy="59.9" rx="36.9" ry="36.9"/>
	<ellipse class="st64" cx="312.6" cy="60" rx="36.9" ry="36.9"/>
	<ellipse class="st65" cx="314.3" cy="59.9" rx="36.9" ry="36.9"/>
	<ellipse class="st66" cx="315.9" cy="59.9" rx="36.9" ry="36.9"/>
	<ellipse class="st67" cx="317.6" cy="59.8" rx="36.9" ry="36.9"/>
	<ellipse class="st68" cx="319.2" cy="59.9" rx="36.9" ry="36.9"/>
	<ellipse class="st69" cx="320.8" cy="60" rx="36.9" ry="36.9"/>
	<ellipse class="st70" cx="322.5" cy="59.9" rx="36.9" ry="36.9"/>
	<ellipse class="st71" cx="324.2" cy="60" rx="36.9" ry="36.9"/>
	<ellipse class="st72" cx="325.7" cy="59.9" rx="36.9" ry="36.9"/>
	<ellipse class="st73" cx="327.5" cy="60" rx="36.9" ry="36.9"/>
	<ellipse class="st74" cx="329.1" cy="59.9" rx="36.9" ry="36.9"/>
	<ellipse class="st75" cx="330.8" cy="60" rx="36.9" ry="36.9"/>
	<ellipse class="st76" cx="332.4" cy="59.9" rx="36.9" ry="36.9"/>
	<ellipse class="st77" cx="334.1" cy="60" rx="36.9" ry="36.9"/>
	<ellipse class="st78" cx="335.7" cy="59.9" rx="36.9" ry="36.9"/>
	<ellipse class="st79" cx="337.3" cy="60" rx="36.9" ry="36.9"/>
	<ellipse class="st80" cx="338.9" cy="60" rx="36.9" ry="36.9"/>
	<circle class="st81" cx="340.6" cy="60" r="36.9"/>
	<circle class="st82" cx="342.2" cy="60" r="36.9"/>
	<circle class="st83" cx="343.8" cy="60" r="36.9"/>
	<circle class="st84" cx="345.5" cy="60" r="36.9"/>
	<circle class="st85" cx="347.1" cy="60" r="36.9"/>
	<circle class="st86" cx="348.8" cy="60" r="36.9"/>
	<circle class="st87" cx="350.4" cy="60" r="36.9"/>
	<circle class="st88" cx="352" cy="60" r="36.9"/>
	<circle class="st89" cx="353.7" cy="60" r="36.9"/>
	<circle class="st90" cx="355.3" cy="60.1" r="36.9"/>
	<circle class="st91" cx="357" cy="60.1" r="36.9"/>
	<circle class="st92" cx="358.6" cy="60.1" r="36.9"/>
	<circle class="st93" cx="360.3" cy="60.1" r="36.9"/>
	<circle class="st94" cx="361.9" cy="60.1" r="36.9"/>
	<circle class="st95" cx="363.5" cy="60.1" r="36.9"/>
	<circle class="st96" cx="365.2" cy="60.1" r="36.9"/>
	<circle class="st97" cx="366.8" cy="60.1" r="36.9"/>
	<circle class="st98" cx="368.5" cy="60.1" r="36.9"/>
	<circle class="st99" cx="370.1" cy="60.1" r="36.9"/>
	<circle class="st100" cx="371.8" cy="60.1" r="36.9"/>
	<circle class="st101" cx="373.4" cy="60.1" r="36.9"/>
	<circle class="st102" cx="375" cy="60.1" r="36.9"/>
	<circle class="st103" cx="376.7" cy="60.1" r="36.9"/>
	<circle class="st104" cx="378.3" cy="60.1" r="36.9"/>
	<circle class="st105" cx="380" cy="60.1" r="36.9"/>
	<circle class="st106" cx="381.6" cy="60.1" r="36.9"/>
	<circle class="st107" cx="383.2" cy="60.2" r="36.9"/>
	<circle class="st108" cx="384.9" cy="60.2" r="36.9"/>
	<circle class="st109" cx="386.5" cy="60.2" r="36.9"/>
	<circle class="st110" cx="388.2" cy="60.2" r="36.9"/>
	<circle class="st111" cx="389.8" cy="60.2" r="36.9"/>
	<circle class="st112" cx="391.5" cy="60.2" r="36.9"/>
	<circle class="st113" cx="393.1" cy="60.2" r="36.9"/>
	<circle class="st114" cx="394.7" cy="60.2" r="36.9"/>
	<circle class="st115" cx="396.4" cy="60.2" r="36.9"/>
	<circle class="st116" cx="398" cy="60.2" r="36.9"/>
	<circle class="st117" cx="399.7" cy="60.2" r="36.9"/>
	<circle class="st118" cx="401.3" cy="60.2" r="36.9"/>
	<circle class="st119" cx="403" cy="60.2" r="36.9"/>
	<circle class="st120" cx="404.6" cy="60.2" r="36.9"/>
	<circle class="st121" cx="406.2" cy="60.2" r="36.9"/>
	<circle class="st122" cx="407.9" cy="60.2" r="36.9"/>
	<circle class="st123" cx="409.5" cy="60.2" r="36.9"/>
	<circle class="st124" cx="411.2" cy="60.2" r="36.9"/>
	<ellipse class="st125" cx="412.8" cy="60.4" rx="36.9" ry="36.9"/>
	<circle class="st126" cx="414.5" cy="60.3" r="36.9"/>
	<ellipse class="st127" cx="416.1" cy="60.4" rx="36.9" ry="36.9"/>
	<circle class="st128" cx="417.7" cy="60.3" r="36.9"/>
	<ellipse class="st129" cx="419.4" cy="60.4" rx="36.9" ry="36.9"/>
	<circle class="st130" cx="421" cy="60.3" r="36.9"/>
	<circle class="st131" cx="422.7" cy="60.3" r="36.9"/>
	<ellipse class="st132" cx="424.3" cy="60.4" rx="36.9" ry="36.9"/>
	<ellipse class="st133" cx="425.9" cy="60.4" rx="36.9" ry="36.9"/>
	<ellipse class="st134" cx="427.6" cy="60.4" rx="36.9" ry="36.9"/>
	<circle class="st135" cx="429.2" cy="60.3" r="36.9"/>
	<ellipse class="st136" cx="430.9" cy="60.4" rx="36.9" ry="36.9"/>
	
		<ellipse transform="matrix(0.539 -0.8423 0.8423 0.539 148.5912 392.1173)" class="st137" cx="432.5" cy="60.3" rx="36.9" ry="36.9"/>
	<ellipse class="st138" cx="434.1" cy="60.4" rx="36.9" ry="36.9"/>
	
		<ellipse transform="matrix(0.2298 -0.9732 0.9732 0.2298 276.8894 470.6648)" class="st139" cx="435.8" cy="60.4" rx="36.9" ry="36.9"/>
	
		<ellipse transform="matrix(0.8507 -0.5257 0.5257 0.8507 33.592 239.0072)" class="st140" cx="437.5" cy="60.4" rx="36.9" ry="36.9"/>
	
		<ellipse transform="matrix(0.9791 -0.2034 0.2034 0.9791 -3.0985 90.5852)" class="st141" cx="439.2" cy="60.4" rx="36.9" ry="36.9"/>
	
		<ellipse transform="matrix(0.2298 -0.9732 0.9732 0.2298 280.6637 475.4338)" class="st142" cx="440.7" cy="60.4" rx="36.9" ry="36.9"/>
	<ellipse class="st143" cx="442.4" cy="60.5" rx="36.9" ry="36.9"/>
	
		<ellipse transform="matrix(0.2298 -0.9732 0.9732 0.2298 283.2055 478.6455)" class="st144" cx="444" cy="60.4" rx="36.9" ry="36.9"/>
	
		<ellipse transform="matrix(0.8507 -0.5257 0.5257 0.8507 34.7631 243.345)" class="st145" cx="445.7" cy="60.5" rx="36.9" ry="36.9"/>
	<ellipse class="st146" cx="447.4" cy="60.5" rx="36.9" ry="36.9"/>
	<ellipse class="st147" cx="448.9" cy="60.5" rx="36.9" ry="36.9"/>
	
		<ellipse transform="matrix(0.8507 -0.5257 0.5257 0.8507 35.5101 245.9738)" class="st148" cx="450.7" cy="60.5" rx="36.9" ry="36.9"/>
	
		<ellipse transform="matrix(0.2298 -0.9732 0.9732 0.2298 289.4242 486.7032)" class="st149" cx="452.2" cy="60.5" rx="36.9" ry="36.9"/>
	<ellipse class="st150" cx="453.9" cy="60.5" rx="36.9" ry="36.9"/>
	
		<ellipse transform="matrix(0.2298 -0.9732 0.9732 0.2298 291.966 489.9149)" class="st151" cx="455.5" cy="60.5" rx="36.9" ry="36.9"/>
	
		<ellipse transform="matrix(0.8507 -0.5257 0.5257 0.8507 36.481 249.391)" class="st152" cx="457.2" cy="60.5" rx="36.9" ry="36.9"/>
	<ellipse class="st153" cx="458.9" cy="60.5" rx="36.9" ry="36.9"/>
	<ellipse class="st154" cx="460.4" cy="60.5" rx="36.9" ry="36.9"/>
	
		<ellipse transform="matrix(0.8507 -0.5257 0.5257 0.8507 37.2279 252.0199)" class="st155" cx="462.2" cy="60.5" rx="36.9" ry="36.9"/>
	
		<ellipse transform="matrix(0.2298 -0.9732 0.9732 0.2298 298.282 497.8955)" class="st156" cx="463.7" cy="60.5" rx="36.9" ry="36.9"/>
	
		<ellipse transform="matrix(0.8507 -0.5257 0.5257 0.8507 37.7209 253.7548)" class="st157" cx="465.5" cy="60.5" rx="36.9" ry="36.9"/>
	
		<ellipse transform="matrix(0.2298 -0.9732 0.9732 0.2298 300.8238 501.1072)" class="st158" cx="467" cy="60.5" rx="36.9" ry="36.9"/>
	
		<ellipse transform="matrix(0.8507 -0.5257 0.5257 0.8507 38.1463 255.4522)" class="st159" cx="468.7" cy="60.6" rx="36.9" ry="36.9"/>
	
		<ellipse transform="matrix(0.8507 -0.5257 0.5257 0.8507 38.4002 256.346)" class="st160" cx="470.4" cy="60.6" rx="36.9" ry="36.9"/>
	
		<ellipse transform="matrix(0.8507 -0.5257 0.5257 0.8507 38.6393 257.1872)" class="st161" cx="472" cy="60.6" rx="36.9" ry="36.9"/>
	
		<ellipse transform="matrix(0.8507 -0.5257 0.5257 0.8507 38.8933 258.0809)" class="st162" cx="473.7" cy="60.6" rx="36.9" ry="36.9"/>
	
		<ellipse transform="matrix(0.8507 -0.5257 0.5257 0.8507 39.1322 258.9221)" class="st163" cx="475.3" cy="60.6" rx="36.9" ry="36.9"/>
	
		<ellipse transform="matrix(0.8507 -0.5257 0.5257 0.8507 39.3712 259.7634)" class="st164" cx="476.9" cy="60.6" rx="36.9" ry="36.9"/>
	
		<ellipse transform="matrix(0.8507 -0.5257 0.5257 0.8507 39.6251 260.6571)" class="st165" cx="478.6" cy="60.6" rx="36.9" ry="36.9"/>
	
		<ellipse transform="matrix(0.8507 -0.5257 0.5257 0.8507 39.8642 261.4984)" class="st166" cx="480.2" cy="60.6" rx="36.9" ry="36.9"/>
	
		<ellipse transform="matrix(0.8507 -0.5257 0.5257 0.8507 40.118 262.3921)" class="st167" cx="481.9" cy="60.6" rx="36.9" ry="36.9"/>
	
		<ellipse transform="matrix(0.8507 -0.5257 0.5257 0.8507 40.3571 263.2333)" class="st168" cx="483.5" cy="60.6" rx="36.9" ry="36.9"/>
	
		<ellipse transform="matrix(0.8507 -0.5257 0.5257 0.8507 40.611 264.1271)" class="st169" cx="485.2" cy="60.6" rx="36.9" ry="36.9"/>
	
		<ellipse transform="matrix(0.7071 -0.7071 0.7071 0.7071 99.8027 361.8753)" class="st170" cx="486.7" cy="60.5" rx="36.9" ry="36.9"/>
	
		<ellipse transform="matrix(0.7071 -0.7071 0.7071 0.7071 100.2715 363.0067)" class="st171" cx="488.3" cy="60.5" rx="36.9" ry="36.9"/>
	
		<ellipse transform="matrix(0.7071 -0.7071 0.7071 0.7071 100.7696 364.2087)" class="st172" cx="490" cy="60.5" rx="36.9" ry="36.9"/>
	
		<ellipse transform="matrix(0.7071 -0.7071 0.7071 0.7071 101.2383 365.34)" class="st173" cx="491.6" cy="60.5" rx="36.9" ry="36.9"/>
	
		<ellipse transform="matrix(0.7071 -0.7071 0.7071 0.7071 101.7364 366.542)" class="st174" cx="493.3" cy="60.5" rx="36.9" ry="36.9"/>
	
		<ellipse transform="matrix(0.7071 -0.7071 0.7071 0.7071 102.2051 367.6733)" class="st175" cx="494.9" cy="60.5" rx="36.9" ry="36.9"/>
	
		<ellipse transform="matrix(0.7071 -0.7071 0.7071 0.7071 102.603 368.8339)" class="st176" cx="496.5" cy="60.6" rx="36.9" ry="36.9"/>
	
		<ellipse transform="matrix(0.7071 -0.7071 0.7071 0.7071 103.101 370.0359)" class="st177" cx="498.2" cy="60.6" rx="36.9" ry="36.9"/>
	
		<ellipse transform="matrix(0.7071 -0.7071 0.7071 0.7071 103.5698 371.1671)" class="st178" cx="499.8" cy="60.6" rx="36.9" ry="36.9"/>
	
		<ellipse transform="matrix(0.5485 -0.8362 0.8362 0.5485 175.7313 446.6842)" class="st179" cx="501.5" cy="60.6" rx="36.9" ry="36.9"/>
	
		<ellipse transform="matrix(0.5485 -0.8362 0.8362 0.5485 176.4536 448.022)" class="st180" cx="503.1" cy="60.6" rx="36.9" ry="36.9"/>
	
		<ellipse transform="matrix(0.5485 -0.8362 0.8362 0.5485 177.2212 449.4433)" class="st181" cx="504.8" cy="60.6" rx="36.9" ry="36.9"/>
	
		<ellipse transform="matrix(0.3417 -0.9398 0.9398 0.3417 276.3692 515.8015)" class="st182" cx="506.4" cy="60.6" rx="36.9" ry="36.9"/>
	
		<ellipse transform="matrix(0.3417 -0.9398 0.9398 0.3417 277.4223 517.3052)" class="st183" cx="508" cy="60.6" rx="36.9" ry="36.9"/>
	
		<ellipse transform="matrix(0.3417 -0.9398 0.9398 0.3417 278.5414 518.9028)" class="st184" cx="509.7" cy="60.6" rx="36.9" ry="36.9"/>
	<circle class="st185" cx="511.3" cy="60.6" r="36.9"/>
	<circle class="st186" cx="513" cy="60.6" r="36.9"/>
	<circle class="st187" cx="514.6" cy="60.6" r="36.9"/>
	<circle class="st188" cx="516.3" cy="60.6" r="36.9"/>
	<circle class="st189" cx="517.9" cy="60.6" r="36.9"/>
	<circle class="st190" cx="519.5" cy="60.6" r="36.9"/>
	<circle class="st191" cx="521.2" cy="60.6" r="36.9"/>
	<circle class="st192" cx="522.8" cy="60.6" r="36.9"/>
	<circle class="st193" cx="524.5" cy="60.6" r="36.9"/>
	<circle class="st194" cx="526.1" cy="60.7" r="36.9"/>
	<circle class="st195" cx="527.7" cy="60.7" r="36.9"/>
	<circle class="st196" cx="529.4" cy="60.7" r="36.9"/>
	<circle class="st197" cx="531" cy="60.7" r="36.9"/>
	<circle class="st198" cx="532.7" cy="60.7" r="36.9"/>
	<circle class="st199" cx="534.3" cy="60.7" r="36.9"/>
	<circle class="st200" cx="536" cy="60.7" r="36.9"/>
	<circle class="st201" cx="537.6" cy="60.7" r="36.9"/>
	<circle class="st202" cx="539.2" cy="60.7" r="36.9"/>
	<circle class="st203" cx="540.9" cy="60.7" r="36.9"/>
	<circle class="st204" cx="542.5" cy="60.7" r="36.9"/>
	<circle class="st205" cx="544.2" cy="60.7" r="36.9"/>
	<circle class="st206" cx="545.8" cy="60.7" r="36.9"/>
	<circle class="st207" cx="547.5" cy="60.7" r="36.9"/>
	<circle class="st208" cx="549.1" cy="60.7" r="36.9"/>
	<circle class="st209" cx="550.7" cy="60.7" r="36.9"/>
	<circle class="st210" cx="552.4" cy="60.7" r="36.9"/>
	<circle class="st211" cx="554" cy="60.8" r="36.9"/>
	<circle class="st212" cx="555.7" cy="60.8" r="36.9"/>
	<circle class="st213" cx="557.3" cy="60.8" r="36.9"/>
	<circle class="st214" cx="559" cy="60.8" r="36.9"/>
	<circle class="st215" cx="560.6" cy="60.8" r="36.9"/>
	<circle class="st216" cx="562.2" cy="60.8" r="36.9"/>
	<circle class="st217" cx="563.9" cy="60.8" r="36.9"/>
	<circle class="st218" cx="565.5" cy="60.8" r="36.9"/>
	<circle class="st219" cx="567.2" cy="60.8" r="36.9"/>
	<circle class="st220" cx="568.8" cy="60.8" r="36.9"/>
	<circle class="st221" cx="570.4" cy="60.8" r="36.9"/>
	<circle class="st222" cx="572.1" cy="60.8" r="36.9"/>
	<circle class="st223" cx="573.7" cy="60.8" r="36.9"/>
	<circle class="st224" cx="575.4" cy="60.8" r="36.9"/>
	<circle class="st225" cx="577" cy="60.8" r="36.9"/>
	<circle class="st226" cx="578.7" cy="60.8" r="36.9"/>
	
		<ellipse transform="matrix(0.4897 -0.8719 0.8719 0.4897 243.2118 537.0813)" class="st227" cx="580.4" cy="60.8" rx="36.9" ry="36.9"/>
	
		<ellipse transform="matrix(0.4897 -0.8719 0.8719 0.4897 243.9395 538.5244)" class="st228" cx="582" cy="60.9" rx="36.9" ry="36.9"/>
	
		<ellipse transform="matrix(0.4897 -0.8719 0.8719 0.4897 244.8069 540.0067)" class="st229" cx="583.7" cy="60.9" rx="36.9" ry="36.9"/>
	<circle class="st230" cx="585.2" cy="60.9" r="36.9"/>
	
		<ellipse transform="matrix(0.4897 -0.8719 0.8719 0.4897 246.4908 542.8841)" class="st231" cx="587" cy="60.9" rx="36.9" ry="36.9"/>
	<circle class="st232" cx="588.5" cy="60.9" r="36.9"/>
	<circle class="st233" cx="590.2" cy="60.9" r="36.9"/>
	
		<ellipse transform="matrix(0.4897 -0.8719 0.8719 0.4897 248.9913 547.1564)" class="st234" cx="591.9" cy="60.9" rx="36.9" ry="36.9"/>
	
		<ellipse transform="matrix(0.4897 -0.8719 0.8719 0.4897 249.8076 548.5517)" class="st235" cx="593.5" cy="60.9" rx="36.9" ry="36.9"/>
	
		<ellipse transform="matrix(0.4897 -0.8719 0.8719 0.4897 250.6752 550.034)" class="st236" cx="595.2" cy="60.9" rx="36.9" ry="36.9"/>
	<circle class="st237" cx="596.7" cy="60.9" r="36.9"/>
	
		<ellipse transform="matrix(0.4897 -0.8719 0.8719 0.4897 252.3592 552.9113)" class="st238" cx="598.5" cy="60.9" rx="36.9" ry="36.9"/>
	<circle class="st239" cx="600" cy="60.9" r="36.9"/>
	
		<ellipse transform="matrix(0.4897 -0.8719 0.8719 0.4897 253.9919 555.7015)" class="st240" cx="601.7" cy="60.9" rx="36.9" ry="36.9"/>
	
		<ellipse transform="matrix(0.4897 -0.8719 0.8719 0.4897 254.8594 557.1838)" class="st241" cx="603.4" cy="60.9" rx="36.9" ry="36.9"/>
	
		<ellipse transform="matrix(0.4897 -0.8719 0.8719 0.4897 255.676 558.579)" class="st242" cx="605" cy="60.9" rx="36.9" ry="36.9"/>
	
		<ellipse transform="matrix(0.4897 -0.8719 0.8719 0.4897 256.5433 560.0614)" class="st243" cx="606.7" cy="60.9" rx="36.9" ry="36.9"/>
	<circle class="st244" cx="608.2" cy="60.9" r="36.9"/>
	
		<ellipse transform="matrix(0.4897 -0.8719 0.8719 0.4897 258.1762 562.8513)" class="st245" cx="609.9" cy="60.9" rx="36.9" ry="36.9"/>
	<circle class="st246" cx="611.5" cy="61" r="36.9"/>
	
		<ellipse transform="matrix(0.4897 -0.8719 0.8719 0.4897 259.7728 565.7799)" class="st247" cx="613.2" cy="61" rx="36.9" ry="36.9"/>
	
		<ellipse transform="matrix(0.4897 -0.8719 0.8719 0.4897 260.6404 567.2623)" class="st248" cx="614.9" cy="61" rx="36.9" ry="36.9"/>
	
		<ellipse transform="matrix(0.4897 -0.8719 0.8719 0.4897 261.4568 568.6572)" class="st249" cx="616.5" cy="61" rx="36.9" ry="36.9"/>
	
		<ellipse transform="matrix(0.4897 -0.8719 0.8719 0.4897 262.3242 570.1395)" class="st250" cx="618.2" cy="61" rx="36.9" ry="36.9"/>
	
		<ellipse transform="matrix(0.4897 -0.8719 0.8719 0.4897 263.1407 571.5346)" class="st251" cx="619.8" cy="61" rx="36.9" ry="36.9"/>
	
		<ellipse transform="matrix(0.4897 -0.8719 0.8719 0.4897 264.0081 573.017)" class="st252" cx="621.5" cy="61" rx="36.9" ry="36.9"/>
	
		<ellipse transform="matrix(0.4897 -0.8719 0.8719 0.4897 264.8249 574.4121)" class="st253" cx="623.1" cy="61" rx="36.9" ry="36.9"/>
	
		<ellipse transform="matrix(0.4897 -0.8719 0.8719 0.4897 265.6411 575.8073)" class="st254" cx="624.7" cy="61" rx="36.9" ry="36.9"/>
	
		<ellipse transform="matrix(0.4897 -0.8719 0.8719 0.4897 266.5085 577.2895)" class="st255" cx="626.4" cy="61" rx="36.9" ry="36.9"/>
	
		<ellipse transform="matrix(0.4897 -0.8719 0.8719 0.4897 267.3249 578.6846)" class="st256" cx="628" cy="61" rx="36.9" ry="36.9"/>
</g>
<g>
	<text transform="matrix(1 0 0 1 15.4859 67.3549)" class="st257 st258">Republic</text>
	<text transform="matrix(1 0 0 1 715.6594 67.3544)" class="st257 st258">Democracy</text>
</g>
</svg>
