<?xml version="1.0" encoding="utf-8"?>
<!-- Generator: Adobe Illustrator 26.0.2, SVG Export Plug-In . SVG Version: 6.00 Build 0)  -->
<svg version="1.1" id="图层_1" xmlns="http://www.w3.org/2000/svg" xmlns:xlink="http://www.w3.org/1999/xlink" x="0px" y="0px"
	 viewBox="0 0 632.9 256.5" style="enable-background:new 0 0 632.9 256.5;" xml:space="preserve">
<style type="text/css">
	.st0{fill:#E9E8E2;}
	.st1{fill:#494949;}
	.st2{fill:#E8E7E1;}
	.st3{fill:#E7E6E0;}
	.st4{fill:#E6E5DF;}
	.st5{fill:#E5E4DE;}
	.st6{fill:#E4E3DD;}
	.st7{fill:#E3E2DC;}
	.st8{fill:#E2E1DB;}
	.st9{fill:#E1E0DA;}
	.st10{fill:#E0DFD9;}
	.st11{fill:#DFDED8;}
	.st12{fill:#DEDDD7;}
	.st13{fill:#DDDCD7;}
	.st14{fill:#DCDBD6;}
	.st15{fill:#DBDAD5;}
	.st16{fill:#DAD9D4;}
	.st17{fill:#D9D8D3;}
	.st18{fill:#D8D7D2;}
	.st19{fill:#D7D6D1;}
	.st20{fill:#D6D5D0;}
	.st21{fill:#D5D4CF;}
	.st22{fill:#D4D3CE;}
	.st23{fill:#D3D2CD;}
	.st24{fill:#D2D1CC;}
	.st25{fill:#D1D0CB;}
	.st26{fill:#D0CFCA;}
	.st27{fill:#CFCEC9;}
	.st28{fill:#CECDC8;}
	.st29{fill:#CDCCC7;}
	.st30{fill:#CCCBC6;}
	.st31{fill:#CBCAC5;}
	.st32{fill:#CAC9C4;}
	.st33{fill:#C9C8C3;}
	.st34{fill:#C8C7C2;}
	.st35{fill:#C7C6C1;}
	.st36{fill:#C6C5C1;}
	.st37{fill:#C5C4C0;}
	.st38{fill:#C4C3BF;}
	.st39{fill:#C3C2BE;}
	.st40{fill:#C2C1BD;}
	.st41{fill:#C1C0BC;}
	.st42{fill:#C0BFBB;}
	.st43{fill:#BFBEBA;}
	.st44{fill:#BEBDB9;}
	.st45{fill:#BDBCB8;}
	.st46{fill:#BCBBB7;}
	.st47{fill:#BBBAB6;}
	.st48{fill:#BAB9B5;}
	.st49{fill:#B9B8B4;}
	.st50{fill:#B8B7B3;}
	.st51{fill:#B7B6B2;}
	.st52{fill:#B6B5B1;}
	.st53{fill:#B5B4B0;}
	.st54{fill:#B4B3AF;}
	.st55{fill:#B3B2AE;}
	.st56{fill:#B2B1AD;}
	.st57{fill:#B1B0AC;}
	.st58{fill:#B0AFAB;}
	.st59{fill:#AFAEAB;}
	.st60{fill:#AEADAA;}
	.st61{fill:#ADACA9;}
	.st62{fill:#ACABA8;}
	.st63{fill:#ABAAA7;}
	.st64{fill:#AAA9A6;}
	.st65{fill:#A9A8A5;}
	.st66{fill:#A8A7A4;}
	.st67{fill:#A7A6A3;}
	.st68{fill:#A6A5A2;}
	.st69{fill:#A5A4A1;}
	.st70{fill:#A4A3A0;}
	.st71{fill:#A3A29F;}
	.st72{fill:#A2A19E;}
	.st73{fill:#A1A09D;}
	.st74{fill:#A09F9C;}
	.st75{fill:#9F9E9B;}
	.st76{fill:#9E9D9A;}
	.st77{fill:#9D9C99;}
	.st78{fill:#9C9B98;}
	.st79{fill:#9B9A97;}
	.st80{fill:#9A9996;}
	.st81{fill:#999996;}
	.st82{fill:#989895;}
	.st83{fill:#979794;}
	.st84{fill:#969693;}
	.st85{fill:#959592;}
	.st86{fill:#949491;}
	.st87{fill:#939390;}
	.st88{fill:#92928F;}
	.st89{fill:#91918E;}
	.st90{fill:#90908D;}
	.st91{fill:#8F8F8C;}
	.st92{fill:#8E8E8B;}
	.st93{fill:#8D8D8A;}
	.st94{fill:#8C8C89;}
	.st95{fill:#8B8B88;}
	.st96{fill:#8A8A87;}
	.st97{fill:#898986;}
	.st98{fill:#888885;}
	.st99{fill:#878784;}
	.st100{fill:#868683;}
	.st101{fill:#858582;}
	.st102{fill:#848481;}
	.st103{fill:#838380;}
	.st104{fill:#828280;}
	.st105{fill:#81817F;}
	.st106{fill:#80807E;}
	.st107{fill:#7F7F7D;}
	.st108{fill:#7E7E7C;}
	.st109{fill:#7D7D7B;}
	.st110{fill:#7C7C7A;}
	.st111{fill:#7B7B79;}
	.st112{fill:#7A7A78;}
	.st113{fill:#797977;}
	.st114{fill:#787876;}
	.st115{fill:#777775;}
	.st116{fill:#767674;}
	.st117{fill:#757573;}
	.st118{fill:#747472;}
	.st119{fill:#737371;}
	.st120{fill:#727270;}
	.st121{fill:#71716F;}
	.st122{fill:#70706E;}
	.st123{fill:#6F6F6D;}
	.st124{fill:#6E6E6C;}
	.st125{fill:#6D6D6B;}
	.st126{fill:#6C6C6A;}
	.st127{fill:#6B6B6A;}
	.st128{fill:#6A6A69;}
	.st129{fill:#696968;}
	.st130{fill:#686867;}
	.st131{fill:#676766;}
	.st132{fill:#666665;}
	.st133{fill:#656564;}
	.st134{fill:#646463;}
	.st135{fill:#636362;}
	.st136{fill:#626261;}
	.st137{fill:#616160;}
	.st138{fill:#60605F;}
	.st139{fill:#5F5F5E;}
	.st140{fill:#5E5E5D;}
	.st141{fill:#5D5D5C;}
	.st142{fill:#5C5C5B;}
	.st143{fill:#5B5B5A;}
	.st144{fill:#5A5A59;}
	.st145{fill:#595958;}
	.st146{fill:#585857;}
	.st147{fill:#575756;}
	.st148{fill:#565655;}
	.st149{fill:#555554;}
	.st150{fill:#545454;}
	.st151{fill:#535353;}
	.st152{fill:#525252;}
	.st153{fill:#515151;}
	.st154{fill:#505050;}
	.st155{fill:#4F4F4F;}
	.st156{fill:#4E4E4E;}
	.st157{fill:#4D4D4D;}
	.st158{fill:#4C4C4C;}
	.st159{fill:#4B4B4B;}
	.st160{fill:#4A4A4A;}
	.st161{font-family:'Montserrat-Bold';}
	.st162{font-size:48px;}
</style>
<g>
	<g>
		<g>
			<path class="st0" d="M8,254c-3.1,0-5.5-2.4-5.5-5.5V8.1C2.5,5,4.9,2.5,8,2.5h617c3.1,0,5.5,2.4,5.5,5.5v240.4
				c0,3.1-2.4,5.5-5.5,5.5H8V254z"/>
			<path class="st1" d="M624.9,5c1.7,0,3,1.3,3,3v240.4c0,1.7-1.3,3-3,3H8c-1.7,0-3-1.3-3-3V8.1C5,6.4,6.3,5,8,5H624.9 M624.9,0H8
				C3.5,0,0,3.7,0,8.1v240.3c0,4.5,3.5,8,8,8h617c4.4,0,8-3.6,8-8V8C632.9,3.6,629.4,0,624.9,0L624.9,0z"/>
		</g>
	</g>
	<ellipse transform="matrix(7.156963e-03 -1 1 7.156963e-03 3.91 200.1859)" class="st0" cx="102.8" cy="98.1" rx="35" ry="36.9"/>
	
		<ellipse transform="matrix(7.151811e-03 -1 1 7.151811e-03 6.5802 202.8757)" class="st2" cx="105.5" cy="98.1" rx="35" ry="36.9"/>
	<ellipse transform="matrix(7.155419e-03 -1 1 7.155419e-03 9.6134 205.7243)" class="st3" cx="108.4" cy="98" rx="35" ry="36.9"/>
	
		<ellipse transform="matrix(7.151130e-03 -1 1 7.151130e-03 12.2848 208.4143)" class="st4" cx="111.1" cy="98" rx="35.1" ry="36.9"/>
	
		<ellipse transform="matrix(7.158733e-03 -1 1 7.158733e-03 14.9511 211.1024)" class="st5" cx="113.8" cy="98" rx="35.1" ry="36.9"/>
	
		<ellipse transform="matrix(7.152216e-03 -1 1 7.152216e-03 17.5584 213.8608)" class="st6" cx="116.5" cy="98.1" rx="35.1" ry="36.9"/>
	
		<ellipse transform="matrix(7.158733e-03 -1 1 7.158733e-03 20.4855 216.6091)" class="st7" cx="119.3" cy="98" rx="35.1" ry="36.9"/>
	<ellipse transform="matrix(7.153303e-03 -1 1 7.153303e-03 23.0954 219.3568)" class="st8" cx="122" cy="98" rx="35.1" ry="36.9"/>
	
		<ellipse transform="matrix(7.155475e-03 -1 1 7.155475e-03 25.7629 222.0458)" class="st9" cx="124.7" cy="98" rx="35.1" ry="36.9"/>
	
		<ellipse transform="matrix(7.154389e-03 -1 1 7.154389e-03 28.4928 224.6765)" class="st10" cx="127.4" cy="98" rx="35.2" ry="36.9"/>
	
		<ellipse transform="matrix(7.154389e-03 -1 1 7.154389e-03 31.0576 227.3835)" class="st11" cx="130" cy="98.1" rx="35.2" ry="36.9"/>
	
		<ellipse transform="matrix(7.154389e-03 -1 1 7.154389e-03 33.6253 229.975)" class="st12" cx="132.6" cy="98.1" rx="35.2" ry="36.9"/>
	
		<ellipse transform="matrix(7.154389e-03 -1 1 7.154389e-03 36.4308 232.5244)" class="st13" cx="135.3" cy="97.9" rx="35.2" ry="36.9"/>
	
		<ellipse transform="matrix(7.154389e-03 -1 1 7.154389e-03 39.1972 235.3121)" class="st14" cx="138.1" cy="97.9" rx="35.2" ry="36.9"/>
	
		<ellipse transform="matrix(7.154389e-03 -1 1 7.154389e-03 41.7228 238.0608)" class="st15" cx="140.7" cy="98" rx="35.2" ry="36.9"/>
	
		<ellipse transform="matrix(7.154389e-03 -1 1 7.154389e-03 44.3923 240.7503)" class="st16" cx="143.4" cy="98" rx="35.2" ry="36.9"/>
	
		<ellipse transform="matrix(7.154389e-03 -1 1 7.154389e-03 47.1604 243.5407)" class="st17" cx="146.2" cy="98" rx="35.3" ry="37"/>
	
		<ellipse transform="matrix(7.154389e-03 -1 1 7.154389e-03 49.8715 246.1967)" class="st18" cx="148.9" cy="98" rx="35.3" ry="37"/>
	
		<ellipse transform="matrix(7.154389e-03 -1 1 7.154389e-03 52.2972 249.2465)" class="st19" cx="151.7" cy="98.3" rx="35.3" ry="37"/>
	
		<ellipse transform="matrix(7.154389e-03 -1 1 7.154389e-03 54.9652 251.9344)" class="st20" cx="154.4" cy="98.3" rx="35.3" ry="37"/>
	
		<ellipse transform="matrix(7.154389e-03 -1 1 7.154389e-03 57.7735 254.4822)" class="st21" cx="157" cy="98.1" rx="35.3" ry="37"/>
	
		<ellipse transform="matrix(7.154389e-03 -1 1 7.154389e-03 60.4415 257.1731)" class="st22" cx="159.7" cy="98.1" rx="35.3" ry="37"/>
	
		<ellipse transform="matrix(7.159260e-03 -1 1 7.159260e-03 63.2261 260.0624)" class="st23" cx="162.6" cy="98.2" rx="35.4" ry="37"/>
	
		<ellipse transform="matrix(7.155600e-03 -1 1 7.155600e-03 65.8318 262.4137)" class="st24" cx="165.1" cy="98.1" rx="35.4" ry="37"/>
	<ellipse transform="matrix(7.154389e-03 -1 1 7.154389e-03 68.5 265.1036)" class="st25" cx="167.8" cy="98.1" rx="35.4" ry="37"/>
	
		<ellipse transform="matrix(7.155614e-03 -1 1 7.155614e-03 71.2066 267.9449)" class="st26" cx="170.5" cy="98.1" rx="35.4" ry="37"/>
	
		<ellipse transform="matrix(7.154389e-03 -1 1 7.154389e-03 73.9301 270.4956)" class="st27" cx="173.2" cy="98" rx="35.4" ry="37"/>
	
		<ellipse transform="matrix(7.154389e-03 -1 1 7.154389e-03 76.5976 273.1839)" class="st28" cx="175.9" cy="98" rx="35.4" ry="37"/>
	<ellipse transform="matrix(7.154389e-03 -1 1 7.154389e-03 79.3077 275.83)" class="st29" cx="178.6" cy="98" rx="35.5" ry="37"/>
	
		<ellipse transform="matrix(7.154389e-03 -1 1 7.154389e-03 81.9352 278.5636)" class="st30" cx="181.2" cy="98" rx="35.5" ry="37"/>
	
		<ellipse transform="matrix(7.155661e-03 -1 1 7.155661e-03 84.5013 281.4693)" class="st31" cx="184" cy="98.2" rx="35.5" ry="37"/>
	
		<ellipse transform="matrix(7.153108e-03 -1 1 7.153108e-03 87.2682 284.261)" class="st32" cx="186.8" cy="98.2" rx="35.5" ry="37"/>
	
		<ellipse transform="matrix(7.153091e-03 -1 1 7.153091e-03 89.936 286.9491)" class="st33" cx="189.5" cy="98.2" rx="35.5" ry="37"/>
	
		<ellipse transform="matrix(7.154389e-03 -1 1 7.154389e-03 92.546 289.4936)" class="st34" cx="192.1" cy="98.1" rx="35.5" ry="37"/>
	
		<ellipse transform="matrix(7.153074e-03 -1 1 7.153074e-03 95.3743 292.1496)" class="st35" cx="194.8" cy="98" rx="35.6" ry="37"/>
	
		<ellipse transform="matrix(7.155713e-03 -1 1 7.155713e-03 98.043 294.838)" class="st36" cx="197.5" cy="98" rx="35.6" ry="37.1"/>
	
		<ellipse transform="matrix(7.154389e-03 -1 1 7.154389e-03 100.7119 297.5279)" class="st37" cx="200.2" cy="98" rx="35.6" ry="37.1"/>
	
		<ellipse transform="matrix(7.155729e-03 -1 1 7.155729e-03 103.4164 300.2544)" class="st38" cx="202.9" cy="98" rx="35.6" ry="37.1"/>
	
		<ellipse transform="matrix(7.154389e-03 -1 1 7.154389e-03 105.881 303.0638)" class="st39" cx="205.6" cy="98.2" rx="35.6" ry="37.1"/>
	
		<ellipse transform="matrix(7.155749e-03 -1 1 7.155749e-03 108.5498 305.7528)" class="st40" cx="208.2" cy="98.2" rx="35.6" ry="37.1"/>
	
		<ellipse transform="matrix(7.154389e-03 -1 1 7.154389e-03 111.2558 308.3994)" class="st41" cx="210.9" cy="98.2" rx="35.7" ry="37.1"/>
	
		<ellipse transform="matrix(7.154389e-03 -1 1 7.154389e-03 113.9255 311.0883)" class="st42" cx="213.6" cy="98.2" rx="35.7" ry="37.1"/>
	
		<ellipse transform="matrix(7.154389e-03 -1 1 7.154389e-03 116.8101 313.8835)" class="st43" cx="216.5" cy="98.1" rx="35.7" ry="37.1"/>
	
		<ellipse transform="matrix(7.154389e-03 -1 1 7.154389e-03 119.5252 316.5367)" class="st44" cx="219.2" cy="98.1" rx="35.7" ry="37.1"/>
	
		<ellipse transform="matrix(7.147406e-03 -1 1 7.147406e-03 122.1945 319.225)" class="st45" cx="221.9" cy="98.1" rx="35.7" ry="37.1"/>
	
		<ellipse transform="matrix(7.150273e-03 -1 1 7.150273e-03 124.902 322.2817)" class="st46" cx="224.7" cy="98.2" rx="35.7" ry="37.1"/>
	
		<ellipse transform="matrix(7.155926e-03 -1 1 7.155926e-03 127.5269 324.7324)" class="st47" cx="227.3" cy="98.1" rx="35.8" ry="37.1"/>
	
		<ellipse transform="matrix(7.167791e-03 -1 1 7.167791e-03 130.1926 327.4208)" class="st48" cx="230" cy="98.1" rx="35.8" ry="37.1"/>
	
		<ellipse transform="matrix(7.155882e-03 -1 1 7.155882e-03 132.8989 330.0688)" class="st49" cx="232.7" cy="98.1" rx="35.8" ry="37.1"/>
	
		<ellipse transform="matrix(7.164838e-03 -1 1 7.164838e-03 135.6271 332.8982)" class="st50" cx="235.5" cy="98.1" rx="35.8" ry="37.1"/>
	
		<ellipse transform="matrix(7.161852e-03 -1 1 7.161852e-03 138.4904 335.7057)" class="st51" cx="238.3" cy="98.1" rx="35.8" ry="37.1"/>
	
		<ellipse transform="matrix(7.158868e-03 -1 1 7.158868e-03 141.1592 338.3943)" class="st52" cx="241" cy="98.1" rx="35.8" ry="37.1"/>
	
		<ellipse transform="matrix(7.154389e-03 -1 1 7.154389e-03 143.7271 341.1815)" class="st53" cx="243.7" cy="98.2" rx="35.9" ry="37.1"/>
	
		<ellipse transform="matrix(7.154389e-03 -1 1 7.154389e-03 146.2363 343.6316)" class="st54" cx="246.2" cy="98.2" rx="35.9" ry="37.1"/>
	
		<ellipse transform="matrix(7.154389e-03 -1 1 7.154389e-03 149.0603 346.2799)" class="st55" cx="248.9" cy="98.1" rx="35.9" ry="37.1"/>
	
		<ellipse transform="matrix(7.154389e-03 -1 1 7.154389e-03 151.7294 348.9713)" class="st56" cx="251.6" cy="98.1" rx="35.9" ry="37.1"/>
	
		<ellipse transform="matrix(7.154389e-03 -1 1 7.154389e-03 154.4 351.6587)" class="st57" cx="254.3" cy="98.1" rx="35.9" ry="37.1"/>
	
		<ellipse transform="matrix(7.154389e-03 -1 1 7.154389e-03 157.067 354.3495)" class="st58" cx="257" cy="98.1" rx="35.9" ry="37.1"/>
	
		<ellipse transform="matrix(7.154389e-03 -1 1 7.154389e-03 159.532 357.1612)" class="st59" cx="259.6" cy="98.2" rx="36" ry="37.2"/>
	
		<ellipse transform="matrix(7.154389e-03 -1 1 7.154389e-03 162.0977 359.7542)" class="st60" cx="262.2" cy="98.2" rx="36" ry="37.2"/>
	
		<ellipse transform="matrix(7.154389e-03 -1 1 7.154389e-03 164.8656 362.541)" class="st61" cx="265" cy="98.2" rx="36" ry="37.2"/>
	
		<ellipse transform="matrix(7.154389e-03 -1 1 7.154389e-03 167.6715 365.0897)" class="st62" cx="267.7" cy="98.1" rx="36" ry="37.2"/>
	
		<ellipse transform="matrix(7.154389e-03 -1 1 7.154389e-03 170.4706 367.982)" class="st63" cx="270.5" cy="98.1" rx="36" ry="37.2"/>
	<ellipse transform="matrix(7.154389e-03 -1 1 7.154389e-03 173.0728 370.3298)" class="st64" cx="273" cy="98" rx="36" ry="37.2"/>
	
		<ellipse transform="matrix(7.154389e-03 -1 1 7.154389e-03 175.7427 373.0194)" class="st65" cx="275.7" cy="98" rx="36" ry="37.2"/>
	
		<ellipse transform="matrix(7.154389e-03 -1 1 7.154389e-03 178.4749 375.9727)" class="st66" cx="278.6" cy="98.1" rx="36.1" ry="37.2"/>
	
		<ellipse transform="matrix(7.154389e-03 -1 1 7.154389e-03 181.0795 378.7182)" class="st67" cx="281.3" cy="98.2" rx="36.1" ry="37.2"/>
	
		<ellipse transform="matrix(7.154389e-03 -1 1 7.154389e-03 183.7491 381.4039)" class="st68" cx="283.9" cy="98.2" rx="36.1" ry="37.2"/>
	
		<ellipse transform="matrix(7.154389e-03 -1 1 7.154389e-03 186.3523 384.1593)" class="st69" cx="286.6" cy="98.2" rx="36.1" ry="37.2"/>
	
		<ellipse transform="matrix(7.154389e-03 -1 1 7.154389e-03 189.3476 387.0463)" class="st70" cx="289.6" cy="98.2" rx="36.1" ry="37.2"/>
	
		<ellipse transform="matrix(7.154389e-03 -1 1 7.154389e-03 192.0145 389.7359)" class="st71" cx="292.3" cy="98.2" rx="36.1" ry="37.2"/>
	
		<ellipse transform="matrix(7.154389e-03 -1 1 7.154389e-03 194.6232 392.0878)" class="st72" cx="294.8" cy="98" rx="36.2" ry="37.2"/>
	
		<ellipse transform="matrix(7.154389e-03 -1 1 7.154389e-03 197.1898 394.8766)" class="st73" cx="297.5" cy="98.1" rx="36.2" ry="37.2"/>
	
		<ellipse transform="matrix(7.154389e-03 -1 1 7.154389e-03 200.049 397.4804)" class="st74" cx="300.2" cy="98" rx="36.2" ry="37.2"/>
	
		<ellipse transform="matrix(7.154389e-03 -1 1 7.154389e-03 202.7209 400.1677)" class="st75" cx="302.9" cy="98" rx="36.2" ry="37.2"/>
	
		<ellipse transform="matrix(7.154389e-03 -1 1 7.154389e-03 205.1492 402.9022)" class="st76" cx="305.5" cy="98.1" rx="36.2" ry="37.2"/>
	
		<ellipse transform="matrix(7.154389e-03 -1 1 7.154389e-03 207.9523 405.6538)" class="st77" cx="308.3" cy="98.1" rx="36.2" ry="37.2"/>
	
		<ellipse transform="matrix(7.154389e-03 -1 1 7.154389e-03 210.6806 408.3981)" class="st78" cx="311" cy="98.1" rx="36.3" ry="37.2"/>
	
		<ellipse transform="matrix(7.154389e-03 -1 1 7.154389e-03 213.2295 411.0932)" class="st79" cx="313.6" cy="98.2" rx="36.3" ry="37.2"/>
	
		<ellipse transform="matrix(7.154389e-03 -1 1 7.154389e-03 215.7966 413.8814)" class="st80" cx="316.3" cy="98.3" rx="36.3" ry="37.2"/>
	
		<ellipse transform="matrix(7.154389e-03 -1 1 7.154389e-03 218.5619 416.6703)" class="st81" cx="319.1" cy="98.3" rx="36.3" ry="37.3"/>
	
		<ellipse transform="matrix(7.154389e-03 -1 1 7.154389e-03 221.129 419.3791)" class="st82" cx="321.8" cy="98.3" rx="36.3" ry="37.3"/>
	
		<ellipse transform="matrix(7.154389e-03 -1 1 7.154389e-03 223.9564 422.1107)" class="st83" cx="324.5" cy="98.3" rx="36.4" ry="37.3"/>
	
		<ellipse transform="matrix(7.154389e-03 -1 1 7.154389e-03 226.6631 424.7591)" class="st84" cx="327.2" cy="98.2" rx="36.4" ry="37.3"/>
	
		<ellipse transform="matrix(7.154389e-03 -1 1 7.154389e-03 229.3319 427.4485)" class="st85" cx="329.9" cy="98.2" rx="36.4" ry="37.3"/>
	
		<ellipse transform="matrix(7.154389e-03 -1 1 7.154389e-03 231.8585 429.9994)" class="st86" cx="332.5" cy="98.2" rx="36.4" ry="37.3"/>
	
		<ellipse transform="matrix(7.154389e-03 -1 1 7.154389e-03 234.6638 432.9538)" class="st87" cx="335.4" cy="98.3" rx="36.4" ry="37.3"/>
	
		<ellipse transform="matrix(7.154389e-03 -1 1 7.154389e-03 237.3336 435.6423)" class="st88" cx="338.1" cy="98.3" rx="36.4" ry="37.3"/>
	
		<ellipse transform="matrix(7.154389e-03 -1 1 7.154389e-03 240.0398 438.2891)" class="st89" cx="340.7" cy="98.3" rx="36.5" ry="37.3"/>
	
		<ellipse transform="matrix(7.154389e-03 -1 1 7.154389e-03 242.8215 440.9833)" class="st90" cx="343.5" cy="98.2" rx="36.5" ry="37.3"/>
	
		<ellipse transform="matrix(7.154389e-03 -1 1 7.154389e-03 245.49 443.6722)" class="st91" cx="346.2" cy="98.2" rx="36.5" ry="37.3"/>
	
		<ellipse transform="matrix(7.154389e-03 -1 1 7.154389e-03 248.2039 446.324)" class="st92" cx="348.9" cy="98.2" rx="36.5" ry="37.3"/>
	
		<ellipse transform="matrix(7.154389e-03 -1 1 7.154389e-03 250.8728 449.0137)" class="st93" cx="351.6" cy="98.2" rx="36.5" ry="37.3"/>
	
		<ellipse transform="matrix(7.154389e-03 -1 1 7.154389e-03 253.4379 451.72)" class="st94" cx="354.2" cy="98.2" rx="36.5" ry="37.3"/>
	
		<ellipse transform="matrix(7.154389e-03 -1 1 7.154389e-03 256.1056 454.4116)" class="st95" cx="356.9" cy="98.2" rx="36.5" ry="37.3"/>
	
		<ellipse transform="matrix(7.154389e-03 -1 1 7.154389e-03 258.83 457.2397)" class="st96" cx="359.7" cy="98.3" rx="36.6" ry="37.3"/>
	
		<ellipse transform="matrix(7.154389e-03 -1 1 7.154389e-03 261.5417 459.888)" class="st97" cx="362.4" cy="98.2" rx="36.6" ry="37.3"/>
	
		<ellipse transform="matrix(7.154389e-03 -1 1 7.154389e-03 264.1657 462.7392)" class="st98" cx="365.1" cy="98.3" rx="36.6" ry="37.3"/>
	
		<ellipse transform="matrix(7.154389e-03 -1 1 7.154389e-03 266.9724 465.4873)" class="st99" cx="367.9" cy="98.3" rx="36.6" ry="37.3"/>
	
		<ellipse transform="matrix(7.154389e-03 -1 1 7.154389e-03 269.5402 468.2766)" class="st100" cx="370.6" cy="98.4" rx="36.6" ry="37.3"/>
	
		<ellipse transform="matrix(7.154389e-03 -1 1 7.154389e-03 272.2067 470.9649)" class="st101" cx="373.3" cy="98.4" rx="36.6" ry="37.3"/>
	
		<ellipse transform="matrix(7.154389e-03 -1 1 7.154389e-03 274.9783 473.4749)" class="st102" cx="375.9" cy="98.3" rx="36.7" ry="37.4"/>
	
		<ellipse transform="matrix(7.154389e-03 -1 1 7.154389e-03 277.7036 476.3055)" class="st103" cx="378.7" cy="98.3" rx="36.7" ry="37.4"/>
	
		<ellipse transform="matrix(7.154389e-03 -1 1 7.154389e-03 280.3723 478.9954)" class="st104" cx="381.4" cy="98.3" rx="36.7" ry="37.4"/>
	
		<ellipse transform="matrix(7.154389e-03 -1 1 7.154389e-03 282.9831 481.5439)" class="st105" cx="384" cy="98.3" rx="36.7" ry="37.4"/>
	
		<ellipse transform="matrix(7.154389e-03 -1 1 7.154389e-03 285.6073 484.1951)" class="st106" cx="386.6" cy="98.3" rx="36.7" ry="37.4"/>
	
		<ellipse transform="matrix(7.154389e-03 -1 1 7.154389e-03 288.216 486.9393)" class="st107" cx="389.3" cy="98.3" rx="36.8" ry="37.4"/>
	
		<ellipse transform="matrix(7.154389e-03 -1 1 7.154389e-03 290.8811 489.6295)" class="st108" cx="392" cy="98.3" rx="36.8" ry="37.4"/>
	
		<ellipse transform="matrix(7.154389e-03 -1 1 7.154389e-03 293.549 492.3195)" class="st109" cx="394.7" cy="98.3" rx="36.8" ry="37.4"/>
	
		<ellipse transform="matrix(7.154389e-03 -1 1 7.154389e-03 296.3745 494.9671)" class="st110" cx="397.4" cy="98.2" rx="36.8" ry="37.4"/>
	
		<ellipse transform="matrix(7.154389e-03 -1 1 7.154389e-03 299.1411 497.7593)" class="st111" cx="400.2" cy="98.2" rx="36.8" ry="37.4"/>
	
		<ellipse transform="matrix(7.154389e-03 -1 1 7.154389e-03 301.6482 500.2084)" class="st112" cx="402.7" cy="98.2" rx="36.8" ry="37.4"/>
	
		<ellipse transform="matrix(7.154389e-03 -1 1 7.154389e-03 304.317 502.8938)" class="st113" cx="405.4" cy="98.2" rx="36.9" ry="37.4"/>
	
		<ellipse transform="matrix(7.154389e-03 -1 1 7.154389e-03 307.0488 505.8476)" class="st114" cx="408.3" cy="98.3" rx="36.9" ry="37.4"/>
	
		<ellipse transform="matrix(7.154389e-03 -1 1 7.154389e-03 309.6536 508.5929)" class="st115" cx="410.9" cy="98.4" rx="36.9" ry="37.4"/>
	
		<ellipse transform="matrix(7.154389e-03 -1 1 7.154389e-03 312.2796 511.1229)" class="st116" cx="413.5" cy="98.3" rx="36.9" ry="37.4"/>
	
		<ellipse transform="matrix(7.154389e-03 -1 1 7.154389e-03 314.9931 513.9726)" class="st117" cx="416.3" cy="98.4" rx="36.9" ry="37.4"/>
	
		<ellipse transform="matrix(7.154389e-03 -1 1 7.154389e-03 317.8164 516.8235)" class="st118" cx="419.2" cy="98.4" rx="36.9" ry="37.4"/>
	
		<ellipse transform="matrix(7.154389e-03 -1 1 7.154389e-03 320.484 519.5118)" class="st119" cx="421.9" cy="98.4" rx="36.9" ry="37.4"/>
	
		<ellipse transform="matrix(7.154389e-03 -1 1 7.154389e-03 323.0331 522.2076)" class="st120" cx="424.5" cy="98.4" rx="37" ry="37.4"/>
	
		<ellipse transform="matrix(7.154389e-03 -1 1 7.154389e-03 325.7036 524.897)" class="st121" cx="427.2" cy="98.4" rx="37" ry="37.4"/>
	
		<ellipse transform="matrix(7.146047e-03 -1 1 7.146047e-03 328.4688 527.6127)" class="st122" cx="429.9" cy="98.4" rx="37" ry="37.4"/>
	
		<ellipse transform="matrix(7.154389e-03 -1 1 7.154389e-03 330.8949 530.1363)" class="st123" cx="432.4" cy="98.4" rx="37" ry="37.5"/>
	
		<ellipse transform="matrix(7.145466e-03 -1 1 7.145466e-03 333.5679 532.8284)" class="st124" cx="435.1" cy="98.4" rx="37" ry="37.5"/>
	
		<ellipse transform="matrix(7.154389e-03 -1 1 7.154389e-03 336.4705 535.6814)" class="st125" cx="438" cy="98.4" rx="37" ry="37.5"/>
	
		<ellipse transform="matrix(7.145037e-03 -1 1 7.145037e-03 339.3081 538.1327)" class="st126" cx="440.6" cy="98.2" rx="37.1" ry="37.5"/>
	
		<ellipse transform="matrix(7.154389e-03 -1 1 7.154389e-03 341.9125 540.8748)" class="st127" cx="443.3" cy="98.3" rx="37.1" ry="37.5"/>
	
		<ellipse transform="matrix(7.144556e-03 -1 1 7.144556e-03 344.476 543.6631)" class="st128" cx="446" cy="98.4" rx="37.1" ry="37.5"/>
	
		<ellipse transform="matrix(1.000350e-02 -0.9999 0.9999 1.000350e-02 346.5735 548.3381)" class="st129" cx="450.2" cy="99.1" rx="37.1" ry="37.5"/>
	
		<ellipse transform="matrix(7.165028e-03 -1 1 7.165028e-03 350.0656 549.104)" class="st130" cx="451.6" cy="98.3" rx="37.1" ry="37.5"/>
	
		<ellipse transform="matrix(7.154389e-03 -1 1 7.154389e-03 352.8364 551.6944)" class="st131" cx="454.2" cy="98.2" rx="37.1" ry="37.5"/>
	
		<ellipse transform="matrix(7.165651e-03 -1 1 7.165651e-03 355.3452 554.34)" class="st132" cx="456.8" cy="98.2" rx="37.2" ry="37.5"/>
	
		<ellipse transform="matrix(7.154389e-03 -1 1 7.154389e-03 358.1179 557.1306)" class="st133" cx="459.6" cy="98.2" rx="37.2" ry="37.5"/>
	
		<ellipse transform="matrix(7.154389e-03 -1 1 7.154389e-03 360.6435 559.6832)" class="st134" cx="462.2" cy="98.2" rx="37.2" ry="37.5"/>
	
		<ellipse transform="matrix(7.141630e-03 -1 1 7.141630e-03 363.3564 562.5297)" class="st135" cx="465" cy="98.3" rx="37.2" ry="37.5"/>
	
		<ellipse transform="matrix(7.141630e-03 -1 1 7.141630e-03 365.8859 565.1638)" class="st136" cx="467.6" cy="98.3" rx="37.2" ry="37.5"/>
	
		<ellipse transform="matrix(7.154389e-03 -1 1 7.154389e-03 368.7865 567.808)" class="st137" cx="470.3" cy="98.2" rx="37.2" ry="37.5"/>
	
		<ellipse transform="matrix(7.154389e-03 -1 1 7.154389e-03 371.6119 570.6556)" class="st138" cx="473.2" cy="98.2" rx="37.3" ry="37.5"/>
	
		<ellipse transform="matrix(7.101425e-03 -1 1 7.101425e-03 374.3051 573.3526)" class="st139" cx="475.9" cy="98.2" rx="37.3" ry="37.5"/>
	
		<ellipse transform="matrix(7.093201e-03 -1 1 7.093201e-03 376.9226 576.1091)" class="st140" cx="478.6" cy="98.3" rx="37.3" ry="37.5"/>
	
		<ellipse transform="matrix(7.154389e-03 -1 1 7.154389e-03 379.5619 578.791)" class="st141" cx="481.3" cy="98.3" rx="37.3" ry="37.5"/>
	
		<ellipse transform="matrix(7.077807e-03 -1 1 7.077807e-03 382.1218 581.5455)" class="st142" cx="483.9" cy="98.4" rx="37.3" ry="37.6"/>
	
		<ellipse transform="matrix(7.059600e-03 -1 1 7.059600e-03 384.8004 584.2393)" class="st143" cx="486.6" cy="98.4" rx="37.3" ry="37.6"/>
	
		<ellipse transform="matrix(7.039664e-03 -1 1 7.039664e-03 387.4818 586.9293)" class="st144" cx="489.3" cy="98.4" rx="37.4" ry="37.6"/>
	
		<ellipse transform="matrix(7.077920e-03 -1 1 7.077920e-03 390.2704 589.6727)" class="st145" cx="492.1" cy="98.3" rx="37.4" ry="37.6"/>
	
		<ellipse transform="matrix(7.001426e-03 -1 1 7.001426e-03 392.9319 592.531)" class="st146" cx="494.8" cy="98.4" rx="37.4" ry="37.6"/>
	
		<ellipse transform="matrix(7.135264e-03 -1 1 7.135264e-03 395.5325 595.2079)" class="st147" cx="497.5" cy="98.4" rx="37.4" ry="37.6"/>
	
		<ellipse transform="matrix(7.097016e-03 -1 1 7.097016e-03 398.3595 597.954)" class="st148" cx="500.3" cy="98.4" rx="37.4" ry="37.6"/>
	
		<ellipse transform="matrix(7.001424e-03 -1 1 7.001424e-03 400.8925 600.5599)" class="st149" cx="502.8" cy="98.4" rx="37.4" ry="37.6"/>
	
		<ellipse transform="matrix(7.268950e-03 -1 1 7.268950e-03 403.6632 603.1791)" class="st150" cx="505.6" cy="98.3" rx="37.5" ry="37.6"/>
	
		<ellipse transform="matrix(7.154389e-03 -1 1 7.154389e-03 406.3902 605.8788)" class="st151" cx="508.3" cy="98.3" rx="37.5" ry="37.6"/>
	
		<ellipse transform="matrix(6.963432e-03 -1 1 6.963432e-03 409.1576 608.5844)" class="st152" cx="511" cy="98.3" rx="37.5" ry="37.6"/>
	
		<ellipse transform="matrix(7.154389e-03 -1 1 7.154389e-03 411.7218 610.9786)" class="st153" cx="513.5" cy="98.2" rx="37.5" ry="37.6"/>
	
		<ellipse transform="matrix(7.154389e-03 -1 1 7.154389e-03 414.2893 613.7667)" class="st154" cx="516.2" cy="98.3" rx="37.5" ry="37.6"/>
	
		<ellipse transform="matrix(7.154389e-03 -1 1 7.154389e-03 416.802 616.616)" class="st155" cx="518.9" cy="98.4" rx="37.5" ry="37.6"/>
	
		<ellipse transform="matrix(7.154389e-03 -1 1 7.154389e-03 419.7257 619.2413)" class="st156" cx="521.7" cy="98.3" rx="37.5" ry="37.6"/>
	
		<ellipse transform="matrix(8.636349e-02 -0.9963 0.9963 8.636349e-02 380.8749 612.3127)" class="st157" cx="524.3" cy="98.5" rx="37.6" ry="37.6"/>
	
		<ellipse transform="matrix(8.636348e-02 -0.9963 0.9963 8.636348e-02 383.2505 614.9034)" class="st158" cx="526.9" cy="98.5" rx="37.6" ry="37.6"/>
	
		<ellipse transform="matrix(8.636349e-02 -0.9963 0.9963 8.636349e-02 385.7173 617.5932)" class="st159" cx="529.6" cy="98.5" rx="37.6" ry="37.6"/>
	
		<ellipse transform="matrix(0.3652 -0.9309 0.9309 0.3652 246.2929 558.0742)" class="st160" cx="532.3" cy="98.5" rx="37.6" ry="37.6"/>
	
		<ellipse transform="matrix(0.3652 -0.9309 0.9309 0.3652 248.1338 560.7732)" class="st1" cx="535.2" cy="98.5" rx="37.6" ry="37.6"/>
	<g>
		<text transform="matrix(1 0 0 1 67.9763 188.83)" class="st1 st161 st162">Loose</text>
		<text transform="matrix(1 0 0 1 456.3609 188.8303)" class="st1 st161 st162">Strict</text>
	</g>
</g>
</svg>
