<?xml version="1.0" encoding="utf-8"?>
<!-- Generator: Adobe Illustrator 26.0.2, SVG Export Plug-In . SVG Version: 6.00 Build 0)  -->
<svg version="1.1" id="图层_1" xmlns="http://www.w3.org/2000/svg" xmlns:xlink="http://www.w3.org/1999/xlink" x="0px" y="0px"
	 viewBox="0 0 857 185.8" style="enable-background:new 0 0 857 185.8;" xml:space="preserve">
<style type="text/css">
	.st0{fill:#E9E8E2;}
	.st1{fill:#67001F;}
	.st2{fill:#B2182B;}
	.st3{fill:#EF8A62;}
	.st4{fill:#FDDBC7;}
	.st5{fill:#FFFFFF;}
	.st6{fill:#E0E0E0;}
	.st7{fill:#BABABA;}
	.st8{fill:#4D4D4D;}
	.st9{fill:#1A1A1A;}
	.st10{font-family:'Montserrat-Bold';}
	.st11{font-size:21.0928px;}
</style>
<g>
	<path class="st0" d="M11.4,0h834.2c6.3,0,11.4,3.8,11.4,8.5v168.8c0,4.7-5.1,8.5-11.4,8.5H11.4C5.1,185.8,0,182,0,177.3V8.5
		C0,3.9,5.1,0,11.4,0z"/>
	<ellipse class="st1" cx="64.8" cy="90.8" rx="33.5" ry="33.5"/>
	<ellipse class="st2" cx="157.5" cy="90" rx="33.5" ry="33.5"/>
	<ellipse class="st3" cx="247.7" cy="90.8" rx="33.5" ry="33.5"/>
	<ellipse class="st4" cx="337.1" cy="91.7" rx="33.5" ry="33.5"/>
	
		<ellipse transform="matrix(0.1602 -0.9871 0.9871 0.1602 268.4708 497.1496)" class="st5" cx="426.4" cy="90.8" rx="33.5" ry="33.5"/>
	<ellipse class="st6" cx="516.5" cy="91.7" rx="33.5" ry="33.5"/>
	<ellipse class="st7" cx="609.3" cy="91.7" rx="33.5" ry="33.5"/>
	<ellipse class="st8" cx="700.3" cy="91.7" rx="33.5" ry="33.5"/>
	<ellipse class="st9" cx="790.5" cy="90.8" rx="33.5" ry="33.5"/>
	<text transform="matrix(1 0 0 1 30.7749 33.5742)" class="st10 st11">Male</text>
	<text transform="matrix(1 0 0 1 757 33.5742)" class="st10 st11">Female</text>
	<text transform="matrix(1 0 0 1 29.0244 157.709)" class="st10 st11">Black</text>
	<text transform="matrix(1 0 0 1 773.4463 159.4141)" class="st10 st11">Black</text>
	<text transform="matrix(1 0 0 1 124.0299 157.708)" class="st10 st11">Asian</text>
	<text transform="matrix(1 0 0 1 680.668 159.1309)" class="st10 st11">Asian</text>
	<text transform="matrix(1 0 0 1 213.6757 159.6742)" class="st10 st11">White</text>
	<text transform="matrix(1 0 0 1 588.7988 159.4141)" class="st10 st11">White</text>
	<text transform="matrix(1 0 0 1 301.2969 161.1094)" class="st10 st11">Unkown</text>
	<text transform="matrix(1 0 0 1 472.4385 161.1094)" class="st10 st11">Unkown</text>
	<text transform="matrix(1 0 0 1 382.8867 34.2285)" class="st10 st11">Unkown</text>
</g>
</svg>
