<?xml version="1.0" encoding="utf-8"?>
<!-- Generator: Adobe Illustrator 26.0.2, SVG Export Plug-In . SVG Version: 6.00 Build 0)  -->
<svg version="1.1" id="图层_1" xmlns="http://www.w3.org/2000/svg" xmlns:xlink="http://www.w3.org/1999/xlink" x="0px" y="0px"
	 viewBox="0 0 531.5 62.3" style="enable-background:new 0 0 531.5 62.3;" xml:space="preserve">
<style type="text/css">
	.st0{fill:#A52723;}
</style>
<g id="图层_1-2">
	<path class="st0" d="M66.3,11.2h-4.8l-0.8,2.2h-4.3l5.5-12.6H66l5.5,12.6h-4.4L66.3,11.2z M65.1,8.1l-1.2-3.2l-1.2,3.2H65.1z"/>
	<path class="st0" d="M71.9,0h4.1v13.4h-4.1V0z"/>
	<path class="st0" d="M77.6,0h4.1v13.4h-4.1V0z"/>
	<path class="st0" d="M96.1,8.8v4.6h-4.2V8.7l-4.8-8h4.5l2.6,4.3l2.6-4.3h4.1L96.1,8.8z"/>
	<path class="st0" d="M103.6,12.8c-2.2-1.1-3.5-3.3-3.5-5.7c0-2.4,1.3-4.7,3.5-5.8c2.3-1.1,5-1.1,7.3,0c1,0.5,1.9,1.4,2.5,2.3
		c0.6,1,0.9,2.2,0.9,3.4c0,1.2-0.3,2.4-0.9,3.4c-0.6,1-1.5,1.8-2.5,2.4C108.6,13.9,105.9,13.9,103.6,12.8z M108.7,9.8
		c0.4-0.3,0.8-0.6,1-1.1c0.3-0.5,0.4-1.1,0.4-1.7c0-0.6-0.1-1.2-0.4-1.7c-0.7-1.4-2.4-1.9-3.8-1.2c0,0-0.1,0-0.1,0.1
		c-0.4,0.3-0.8,0.7-1,1.1c-0.3,0.5-0.4,1.1-0.4,1.7c0,0.6,0.1,1.1,0.4,1.7c0.2,0.5,0.6,0.8,1,1.1c0.4,0.3,0.9,0.4,1.4,0.4
		C107.7,10.2,108.3,10.1,108.7,9.8L108.7,9.8z"/>
	<path class="st0" d="M117.2,12.1c-1.1-1.2-1.7-2.8-1.6-4.4V0.8h4.2v6.8c-0.1,0.7,0.1,1.4,0.5,2c0.7,0.8,2,0.8,2.7,0.1
		c0,0,0.1-0.1,0.1-0.1c0.4-0.6,0.5-1.3,0.5-2V0.8h4.2v6.9c0.1,1.6-0.5,3.2-1.6,4.4C123.6,14.1,119.9,14.1,117.2,12.1L117.2,12.1z"/>
	<path class="st0" d="M155.4,0.8l-4,12.6h-4.6l-2-6.7l-2.1,6.7h-4.6l-4-12.6h4.4l2.2,7.2l2.2-7.2h3.9L149,8l2.4-7.2H155.4z"/>
	<path class="st0" d="M164.3,11.2h-4.8l-0.9,2.2h-4.3l5.5-12.6h4.2l5.5,12.6h-4.4L164.3,11.2z M163.1,8.1l-1.2-3.2l-1.2,3.2H163.1z"
		/>
	<path class="st0" d="M182.4,0.8v12.6H179l-4.8-5.7v5.7H170V0.8h3.5l4.8,5.7V0.8H182.4z"/>
	<path class="st0" d="M187.1,4.1h-3.7V0.8H195v3.3h-3.7v9.3h-4.2V4.1z"/>
	<path class="st0" d="M203.9,4.1h-3.7V0.8h11.6v3.3h-3.7v9.3h-4.2V4.1z"/>
	<path class="st0" d="M215.5,12.8c-2.2-1.1-3.5-3.3-3.5-5.7c0-2.4,1.3-4.7,3.5-5.8c2.3-1.1,5-1.1,7.3,0c2.2,1.1,3.5,3.3,3.5,5.8
		c0,2.4-1.3,4.6-3.5,5.7C220.5,13.9,217.8,13.9,215.5,12.8L215.5,12.8z M220.6,9.8c0.4-0.3,0.8-0.6,1-1.1c0.3-0.5,0.4-1.1,0.4-1.6
		c0-0.6-0.1-1.2-0.4-1.7c-0.7-1.4-2.3-1.9-3.7-1.2c-0.5,0.3-0.9,0.7-1.2,1.2c-0.3,0.5-0.4,1.1-0.4,1.7c0,0.6,0.1,1.1,0.4,1.7
		c0.7,1.4,2.4,1.9,3.8,1.2C220.5,9.9,220.6,9.8,220.6,9.8L220.6,9.8z"/>
	<path class="st0" d="M238,9.2l-1,1.1v3.1h-4.2V0.8h4.2v4.6l4.2-4.6h4.6l-5,5.5l5.2,7.1h-4.9L238,9.2z"/>
	<path class="st0" d="M248.9,12.8c-2.2-1.1-3.5-3.3-3.5-5.7c0-2.4,1.3-4.7,3.5-5.8c2.3-1.1,5-1.1,7.3,0c1,0.5,1.9,1.4,2.5,2.3
		c0.6,1,0.9,2.2,0.9,3.4c0,1.2-0.3,2.4-0.9,3.4c-0.6,1-1.5,1.8-2.5,2.4C253.9,13.9,251.2,13.9,248.9,12.8z M254,9.8
		c0.4-0.3,0.8-0.6,1-1.1c0.3-0.5,0.4-1.1,0.4-1.7c0-0.6-0.1-1.1-0.4-1.7c-0.7-1.4-2.3-1.9-3.7-1.2c-0.5,0.3-0.9,0.7-1.2,1.2
		c-0.3,0.5-0.4,1.1-0.4,1.7c0,0.6,0.1,1.1,0.4,1.7c0.2,0.5,0.6,0.8,1,1.1C252,10.3,253.1,10.3,254,9.8L254,9.8z"/>
	<path class="st0" d="M281.1,0.8l-4,12.6h-4.5l-2-6.7l-2.1,6.7h-4.5l-4-12.6h4.4l2.2,7.2l2.2-7.2h3.9l2.2,7.2l2.3-7.2H281.1z"/>
	<path class="st0" d="M294.3,0.8v12.6h-3.5L286,7.6v5.7h-4.1V0.8h3.5l4.8,5.7V0.8H294.3z"/>
	<path class="st0" d="M310,11.2h-4.8l-0.9,2.2H300l5.5-12.6h4.2l5.5,12.6h-4.4L310,11.2z M308.8,8.1l-1.2-3.2l-1.2,3.2H308.8z"/>
	<path class="st0" d="M327.5,8c0.4,0.5,0.6,1.2,0.6,1.9c0,1-0.5,2-1.4,2.6c-1.2,0.7-2.6,1-4,0.9h-7.1V0.8h6.7
		c1.3-0.1,2.7,0.2,3.8,0.9c0.8,0.5,1.3,1.4,1.3,2.4c0,0.6-0.1,1.1-0.5,1.6c-0.3,0.5-0.8,0.9-1.3,1.1C326.5,7,327.1,7.4,327.5,8z
		 M319.9,3.7v1.9h2c0.9,0,1.4-0.3,1.4-0.9s-0.5-0.9-1.4-0.9L319.9,3.7z M323.9,9.4c0-0.7-0.5-1-1.4-1h-2.6v2h2.5
		C323.4,10.4,323.9,10.1,323.9,9.4L323.9,9.4z"/>
	<path class="st0" d="M332.4,12.8c-2.1-1.1-3.5-3.3-3.4-5.7c0-2.4,1.3-4.7,3.5-5.8c2.3-1.1,5-1.1,7.3,0c2.2,1.1,3.5,3.3,3.5,5.8
		c0,2.4-1.3,4.6-3.5,5.7C337.5,13.9,334.8,13.9,332.4,12.8L332.4,12.8z M337.5,9.8c0.4-0.3,0.8-0.6,1-1.1c0.3-0.5,0.4-1.1,0.4-1.7
		c0-0.6-0.1-1.2-0.4-1.7c-0.7-1.4-2.3-1.9-3.7-1.2c-0.5,0.3-0.9,0.7-1.2,1.2c-0.3,0.5-0.4,1.1-0.4,1.7c0,0.6,0.1,1.1,0.4,1.7
		c0.2,0.5,0.6,0.8,1,1.1C335.5,10.3,336.6,10.3,337.5,9.8L337.5,9.8z"/>
	<path class="st0" d="M346,12.1c-1.1-1.2-1.7-2.8-1.6-4.4V0.8h4.2v6.8c-0.1,0.7,0.1,1.4,0.5,2c0.7,0.8,2,0.8,2.7,0.1
		c0,0,0.1-0.1,0.1-0.1c0.4-0.6,0.6-1.3,0.5-2V0.8h4.2v6.9c0.1,1.6-0.5,3.2-1.6,4.4C352.4,14.1,348.7,14.1,346,12.1L346,12.1z"/>
	<path class="st0" d="M361,4.1h-3.7V0.8H369v3.3h-3.7v9.3H361V4.1z"/>
	<path class="st0" d="M74.2,32h7.4v10.6c-1.6,1.1-3.3,1.9-5.2,2.4c-1.9,0.5-3.8,0.8-5.8,0.8c-2.5,0-5-0.5-7.2-1.7
		c-2.1-1.1-3.8-2.7-5-4.7c-1.2-2.1-1.9-4.4-1.8-6.8c0-2.4,0.6-4.8,1.8-6.8c1.2-2,3-3.6,5.1-4.7c2.3-1.1,4.8-1.7,7.4-1.7
		c2.3,0,4.5,0.4,6.7,1.2c1.9,0.8,3.6,2,4.9,3.6l-5.5,4.8c-1.4-1.7-3.4-2.8-5.7-2.8c-1.7-0.1-3.3,0.5-4.5,1.7
		c-1.2,1.3-1.8,2.9-1.7,4.6c-0.1,1.7,0.5,3.3,1.6,4.6c1.1,1.2,2.7,1.8,4.4,1.7c1.1,0,2.1-0.2,3.1-0.6L74.2,32z"/>
	<path class="st0" d="M87.3,42.7c-2.2-2.1-3.3-5-3.3-8.8V20h8.5v13.6c-0.1,1.4,0.2,2.8,1,4c1.4,1.6,3.9,1.7,5.5,0.2
		c0.1-0.1,0.2-0.2,0.2-0.2c0.8-1.2,1.1-2.6,1-4V20h8.4v13.9c0,3.8-1.1,6.7-3.2,8.8c-2.2,2.1-5.2,3.1-9,3.1
		C92.5,45.8,89.4,44.8,87.3,42.7z"/>
	<path class="st0" d="M136.4,20v25.2h-7l-9.6-11.5v11.5h-8.3V20h7l9.6,11.5V20H136.4z"/>
	<path class="st0" d="M176.5,20l-10.7,25.2h-8.4L146.8,20h9.1l6,14.7l6.2-14.7H176.5z"/>
	<path class="st0" d="M176.4,20h8.5v25.2h-8.5V20z"/>
	<path class="st0" d="M194,44.1c-6.4-3.3-8.9-11-5.6-17.4c1.2-2.4,3.2-4.4,5.6-5.6c4.6-2.3,10-2.3,14.6,0c4.3,2.2,7,6.6,6.9,11.5
		c0.1,4.8-2.6,9.3-6.9,11.5C204,46.3,198.6,46.3,194,44.1L194,44.1z M204.2,38.1c0.9-0.5,1.5-1.3,2-2.2c0.5-1,0.8-2.2,0.8-3.3
		c0-1.2-0.2-2.3-0.8-3.3c-0.5-0.9-1.1-1.7-2-2.2c-1.8-1-4-1-5.7,0c-0.9,0.5-1.5,1.3-2,2.2c-1,2.1-1,4.6,0,6.7c0.5,0.9,1.1,1.7,2,2.2
		C200.2,39.1,202.4,39.1,204.2,38.1z"/>
	<path class="st0" d="M217.7,20h8.5v18.6h11.4v6.6h-19.9V20z"/>
	<path class="st0" d="M260,38.8v6.4h-21V20h20.5v6.4h-12.1v3H258v6.1h-10.6v3.3L260,38.8z"/>
	<path class="st0" d="M287.2,20v25.2h-7l-9.6-11.5v11.5h-8.3V20h7l9.6,11.5V20H287.2z"/>
	<path class="st0" d="M296.2,44.1c-2.1-1.1-3.8-2.7-5-4.7c-1.2-2.1-1.9-4.4-1.8-6.8c0-2.4,0.6-4.8,1.8-6.8c1.2-2,2.9-3.6,5-4.7
		c2.2-1.1,4.7-1.7,7.2-1.7c2.3,0,4.5,0.4,6.6,1.3c1.9,0.8,3.5,2.1,4.8,3.8l-5.4,4.8c-1.3-1.8-3.3-2.9-5.5-3
		c-1.6-0.1-3.2,0.6-4.3,1.7c-1.1,1.3-1.7,2.9-1.6,4.6c-0.1,1.7,0.5,3.3,1.6,4.6c1.1,1.2,2.7,1.8,4.3,1.7c2.2-0.1,4.3-1.2,5.5-3
		l5.4,4.8c-1.2,1.6-2.9,3-4.8,3.8c-2.1,0.9-4.3,1.3-6.5,1.3C300.9,45.9,298.5,45.3,296.2,44.1z"/>
	<path class="st0" d="M337.2,38.8v6.4h-21V20h20.5v6.4h-12.1v3h10.7v6.1h-10.7v3.3L337.2,38.8z"/>
	<path class="st0" d="M349.5,20h8.5v25.2h-8.5V20z"/>
	<path class="st0" d="M386,20v25.2h-7l-9.6-11.5v11.5h-8.2V20h7l9.6,11.5V20H386z"/>
	<path class="st0" d="M404.6,26.6h-7.4V20h23.3v6.6h-7.4v18.6h-8.5V26.6z"/>
	<path class="st0" d="M446.6,20v25.2h-8.5v-9.3h-7.9v9.3h-8.5V20h8.5v9h7.9v-9H446.6z"/>
	<path class="st0" d="M470.8,38.8v6.4h-21V20h20.5v6.4h-12.1v3h10.6v6.1h-10.6v3.3L470.8,38.8z"/>
	<path class="st0" d="M486.1,42.7c-2.2-2.1-3.2-5-3.2-8.8V20h8.5v13.6c-0.1,1.4,0.2,2.8,1,4c1.5,1.6,3.9,1.7,5.5,0.2
		c0.1-0.1,0.2-0.2,0.2-0.2c0.8-1.2,1.1-2.6,1-4V20h8.4v13.9c0,3.8-1.1,6.7-3.2,8.8c-2.2,2.1-5.2,3.1-9,3.1
		C491.3,45.8,488.2,44.8,486.1,42.7z"/>
	<path class="st0" d="M513.7,45.1c-1.7-0.4-3.4-1-4.9-1.9l2.7-6.2c1.3,0.7,2.6,1.3,4,1.7c1.4,0.4,2.8,0.6,4.3,0.6
		c0.9,0,1.7-0.1,2.5-0.3c0.4-0.1,0.7-0.5,0.8-1c0-0.5-0.3-0.9-1-1.2c-1.1-0.4-2.2-0.7-3.3-0.9c-1.6-0.3-3.3-0.8-4.8-1.4
		c-1.3-0.5-2.5-1.3-3.4-2.3c-1-1.2-1.5-2.7-1.4-4.3c0-1.5,0.5-3.1,1.3-4.3c1-1.4,2.4-2.4,4-3.1c2-0.8,4.2-1.2,6.4-1.1
		c1.7,0,3.4,0.1,5,0.5c1.5,0.3,3,0.9,4.4,1.6l-2.6,6.2c-2.2-1.2-4.6-1.8-7-1.9c-2.2,0-3.3,0.5-3.3,1.6c0,0.5,0.3,0.9,1,1.1
		c1,0.4,2.1,0.6,3.2,0.8c1.6,0.3,3.3,0.7,4.9,1.2c1.3,0.5,2.5,1.3,3.4,2.3c1,1.2,1.5,2.7,1.5,4.3c0,1.5-0.5,3-1.3,4.3
		c-1,1.4-2.4,2.4-4,3.1c-2,0.8-4.2,1.2-6.4,1.1C517.7,45.8,515.7,45.6,513.7,45.1z"/>
	<rect class="st0" width="48.7" height="45.8"/>
</g>
</svg>
