<?xml version="1.0" encoding="utf-8"?>
<!-- Generator: Adobe Illustrator 26.0.2, SVG Export Plug-In . SVG Version: 6.00 Build 0)  -->
<svg version="1.1" id="图层_1" xmlns="http://www.w3.org/2000/svg" xmlns:xlink="http://www.w3.org/1999/xlink" x="0px" y="0px"
	 viewBox="0 0 632.9 256.5" style="enable-background:new 0 0 632.9 256.5;" xml:space="preserve">
<style type="text/css">
	.st0{fill:#E9E8E2;stroke:#000000;stroke-miterlimit:10;}
	.st1{fill:#A52723;}
	.st2{fill:#F2B59D;}
	.st3{fill:#E56249;}
	.st4{fill:#CC3C31;}
	.st5{fill:#FFFFFF;}
	.st6{font-family:'MicrosoftSansSerif';}
	.st7{font-size:44.21px;}
</style>
<path class="st0" d="M9.9,0H623c5.5,0,9.9,4.4,9.9,9.9v236.7c0,5.5-4.4,9.9-9.9,9.9H9.9c-5.5,0-9.9-4.4-9.9-9.9V9.9
	C0,4.4,4.4,0,9.9,0z"/>
<ellipse class="st1" cx="520.1" cy="121.1" rx="63" ry="63"/>
<ellipse class="st2" cx="93.9" cy="123.2" rx="50" ry="50"/>
<ellipse class="st3" cx="230.4" cy="123.2" rx="50" ry="50"/>
<ellipse class="st4" cx="366.8" cy="123.2" rx="50" ry="50"/>
<text transform="matrix(0.97 0 0 1 79.2872 140.5868)" class="st5 st6 st7">5</text>
<text transform="matrix(0.97 0 0 1 204.8897 140.5868)" class="st5 st6 st7">10</text>
<text transform="matrix(0.97 0 0 1 341.6271 140.5868)" class="st5 st6 st7">20</text>
<text transform="matrix(0.97 0 0 1 486.9492 140.0474)" class="st5 st6 st7">&gt;20</text>
</svg>
