<?xml version="1.0" encoding="utf-8"?>
<!-- Generator: Adobe Illustrator 26.0.2, SVG Export Plug-In . SVG Version: 6.00 Build 0)  -->
<svg version="1.1" id="图层_1" xmlns="http://www.w3.org/2000/svg" xmlns:xlink="http://www.w3.org/1999/xlink" x="0px" y="0px"
	 viewBox="0 0 632.8 256.5" style="enable-background:new 0 0 632.8 256.5;" xml:space="preserve">
<style type="text/css">
	.st0{fill:#E9E8E2;stroke:#000000;stroke-miterlimit:10;}
	.st1{fill:#E9E8E2;}
	.st2{fill:#E8E7E1;}
	.st3{fill:#E7E6E0;}
	.st4{fill:#E6E5DF;}
	.st5{fill:#E5E4DE;}
	.st6{fill:#E4E3DD;}
	.st7{fill:#E3E2DC;}
	.st8{fill:#E2E1DB;}
	.st9{fill:#E1E0DA;}
	.st10{fill:#E0DFD9;}
	.st11{fill:#DFDED8;}
	.st12{fill:#DEDDD7;}
	.st13{fill:#DDDCD7;}
	.st14{fill:#DCDBD6;}
	.st15{fill:#DBDAD5;}
	.st16{fill:#DAD9D4;}
	.st17{fill:#D9D8D3;}
	.st18{fill:#D8D7D2;}
	.st19{fill:#D7D6D1;}
	.st20{fill:#D6D5D0;}
	.st21{fill:#D5D4CF;}
	.st22{fill:#D4D3CE;}
	.st23{fill:#D3D2CD;}
	.st24{fill:#D2D1CC;}
	.st25{fill:#D1D0CB;}
	.st26{fill:#D0CFCA;}
	.st27{fill:#CFCEC9;}
	.st28{fill:#CECDC8;}
	.st29{fill:#CDCCC7;}
	.st30{fill:#CCCBC6;}
	.st31{fill:#CBCAC5;}
	.st32{fill:#CAC9C4;}
	.st33{fill:#C9C8C3;}
	.st34{fill:#C8C7C2;}
	.st35{fill:#C7C6C1;}
	.st36{fill:#C6C5C1;}
	.st37{fill:#C5C4C0;}
	.st38{fill:#C4C3BF;}
	.st39{fill:#C3C2BE;}
	.st40{fill:#C2C1BD;}
	.st41{fill:#C1C0BC;}
	.st42{fill:#C0BFBB;}
	.st43{fill:#BFBEBA;}
	.st44{fill:#BEBDB9;}
	.st45{fill:#BDBCB8;}
	.st46{fill:#BCBBB7;}
	.st47{fill:#BBBAB6;}
	.st48{fill:#BAB9B5;}
	.st49{fill:#B9B8B4;}
	.st50{fill:#B8B7B3;}
	.st51{fill:#B7B6B2;}
	.st52{fill:#B6B5B1;}
	.st53{fill:#B5B4B0;}
	.st54{fill:#B4B3AF;}
	.st55{fill:#B3B2AE;}
	.st56{fill:#B2B1AD;}
	.st57{fill:#B1B0AC;}
	.st58{fill:#B0AFAB;}
	.st59{fill:#AFAEAB;}
	.st60{fill:#AEADAA;}
	.st61{fill:#ADACA9;}
	.st62{fill:#ACABA8;}
	.st63{fill:#ABAAA7;}
	.st64{fill:#AAA9A6;}
	.st65{fill:#A9A8A5;}
	.st66{fill:#A8A7A4;}
	.st67{fill:#A7A6A3;}
	.st68{fill:#A6A5A2;}
	.st69{fill:#A5A4A1;}
	.st70{fill:#A4A3A0;}
	.st71{fill:#A3A29F;}
	.st72{fill:#A2A19E;}
	.st73{fill:#A1A09D;}
	.st74{fill:#A09F9C;}
	.st75{fill:#9F9E9B;}
	.st76{fill:#9E9D9A;}
	.st77{fill:#9D9C99;}
	.st78{fill:#9C9B98;}
	.st79{fill:#9B9A97;}
	.st80{fill:#9A9996;}
	.st81{fill:#999996;}
	.st82{fill:#989895;}
	.st83{fill:#979794;}
	.st84{fill:#969693;}
	.st85{fill:#959592;}
	.st86{fill:#949491;}
	.st87{fill:#939390;}
	.st88{fill:#92928F;}
	.st89{fill:#91918E;}
	.st90{fill:#90908D;}
	.st91{fill:#8F8F8C;}
	.st92{fill:#8E8E8B;}
	.st93{fill:#8D8D8A;}
	.st94{fill:#8C8C89;}
	.st95{fill:#8B8B88;}
	.st96{fill:#8A8A87;}
	.st97{fill:#898986;}
	.st98{fill:#888885;}
	.st99{fill:#878784;}
	.st100{fill:#868683;}
	.st101{fill:#858582;}
	.st102{fill:#848481;}
	.st103{fill:#838380;}
	.st104{fill:#828280;}
	.st105{fill:#81817F;}
	.st106{fill:#80807E;}
	.st107{fill:#7F7F7D;}
	.st108{fill:#7E7E7C;}
	.st109{fill:#7D7D7B;}
	.st110{fill:#7C7C7A;}
	.st111{fill:#7B7B79;}
	.st112{fill:#7A7A78;}
	.st113{fill:#797977;}
	.st114{fill:#787876;}
	.st115{fill:#777775;}
	.st116{fill:#767674;}
	.st117{fill:#757573;}
	.st118{fill:#747472;}
	.st119{fill:#737371;}
	.st120{fill:#727270;}
	.st121{fill:#71716F;}
	.st122{fill:#70706E;}
	.st123{fill:#6F6F6D;}
	.st124{fill:#6E6E6C;}
	.st125{fill:#6D6D6B;}
	.st126{fill:#6C6C6A;}
	.st127{fill:#6B6B6A;}
	.st128{fill:#6A6A69;}
	.st129{fill:#696968;}
	.st130{fill:#686867;}
	.st131{fill:#676766;}
	.st132{fill:#666665;}
	.st133{fill:#656564;}
	.st134{fill:#646463;}
	.st135{fill:#636362;}
	.st136{fill:#626261;}
	.st137{fill:#616160;}
	.st138{fill:#60605F;}
	.st139{fill:#5F5F5E;}
	.st140{fill:#5E5E5D;}
	.st141{fill:#5D5D5C;}
	.st142{fill:#5C5C5B;}
	.st143{fill:#5B5B5A;}
	.st144{fill:#5A5A59;}
	.st145{fill:#595958;}
	.st146{fill:#585857;}
	.st147{fill:#575756;}
	.st148{fill:#565655;}
	.st149{fill:#555554;}
	.st150{fill:#545454;}
	.st151{fill:#535353;}
	.st152{fill:#525252;}
	.st153{fill:#515151;}
	.st154{fill:#505050;}
	.st155{fill:#4F4F4F;}
	.st156{fill:#4E4E4E;}
	.st157{fill:#4D4D4D;}
	.st158{fill:#4C4C4C;}
	.st159{fill:#4B4B4B;}
	.st160{fill:#4A4A4A;}
	.st161{fill:#494949;}
	.st162{font-family:'MicrosoftSansSerif';}
	.st163{font-size:48px;}
</style>
<g>
	<path class="st0" d="M9.9,0h613c5.5,0,9.9,4.4,9.9,9.9v236.7c0,5.5-4.4,9.9-9.9,9.9H9.9c-5.5,0-9.9-4.4-9.9-9.9V10
		C0,4.5,4.5,0,9.9,0z"/>
	<g>
		
			<ellipse transform="matrix(7.156334e-03 -1 1 7.156334e-03 5.4576 198.9659)" class="st1" cx="102.9" cy="96.7" rx="35" ry="36.9"/>
		
			<ellipse transform="matrix(7.154272e-03 -1 1 7.154272e-03 8.1416 201.6655)" class="st2" cx="105.6" cy="96.7" rx="35" ry="36.9"/>
		
			<ellipse transform="matrix(7.155819e-03 -1 1 7.155819e-03 10.8833 204.464)" class="st3" cx="108.4" cy="96.8" rx="35" ry="36.9"/>
		
			<ellipse transform="matrix(7.154760e-03 -1 1 7.154760e-03 13.567 207.1641)" class="st4" cx="111.1" cy="96.7" rx="35.1" ry="36.9"/>
		
			<ellipse transform="matrix(7.156390e-03 -1 1 7.156390e-03 16.1527 209.7636)" class="st5" cx="113.7" cy="96.7" rx="35.1" ry="36.9"/>
		
			<ellipse transform="matrix(7.154760e-03 -1 1 7.154760e-03 19.0327 212.6228)" class="st6" cx="116.6" cy="96.7" rx="35.1" ry="36.9"/>
		
			<ellipse transform="matrix(7.156390e-03 -1 1 7.156390e-03 21.6769 215.3213)" class="st7" cx="119.3" cy="96.7" rx="35.1" ry="36.9"/>
		
			<ellipse transform="matrix(7.155304e-03 -1 1 7.155304e-03 24.2604 218.0806)" class="st8" cx="122" cy="96.8" rx="35.1" ry="36.9"/>
		
			<ellipse transform="matrix(7.155304e-03 -1 1 7.155304e-03 26.9444 220.7803)" class="st9" cx="124.7" cy="96.8" rx="35.1" ry="36.9"/>
		
			<ellipse transform="matrix(7.155304e-03 -1 1 7.155304e-03 29.7282 223.421)" class="st10" cx="127.4" cy="96.7" rx="35.2" ry="36.9"/>
		
			<ellipse transform="matrix(7.155304e-03 -1 1 7.155304e-03 32.2722 226.1788)" class="st11" cx="130" cy="96.8" rx="35.2" ry="36.9"/>
		
			<ellipse transform="matrix(7.155304e-03 -1 1 7.155304e-03 34.9558 228.879)" class="st12" cx="132.7" cy="96.8" rx="35.2" ry="36.9"/>
		
			<ellipse transform="matrix(7.155304e-03 -1 1 7.155304e-03 37.64 231.5392)" class="st13" cx="135.4" cy="96.8" rx="35.2" ry="36.9"/>
		
			<ellipse transform="matrix(7.155304e-03 -1 1 7.155304e-03 40.3239 234.2388)" class="st14" cx="138.1" cy="96.8" rx="35.2" ry="36.9"/>
		
			<ellipse transform="matrix(7.155304e-03 -1 1 7.155304e-03 42.9681 236.9378)" class="st15" cx="140.8" cy="96.8" rx="35.2" ry="36.9"/>
		
			<ellipse transform="matrix(7.155304e-03 -1 1 7.155304e-03 45.6514 239.6376)" class="st16" cx="143.5" cy="96.8" rx="35.2" ry="36.9"/>
		
			<ellipse transform="matrix(7.155304e-03 -1 1 7.155304e-03 48.3352 242.3374)" class="st17" cx="146.2" cy="96.8" rx="35.3" ry="37"/>
		
			<ellipse transform="matrix(7.155304e-03 -1 1 7.155304e-03 51.0195 244.9977)" class="st18" cx="148.9" cy="96.8" rx="35.3" ry="37"/>
		
			<ellipse transform="matrix(7.155304e-03 -1 1 7.155304e-03 53.6637 247.6967)" class="st19" cx="151.6" cy="96.8" rx="35.3" ry="37"/>
		
			<ellipse transform="matrix(7.155304e-03 -1 1 7.155304e-03 56.3474 250.3962)" class="st20" cx="154.3" cy="96.8" rx="35.3" ry="37"/>
		
			<ellipse transform="matrix(7.155304e-03 -1 1 7.155304e-03 59.0317 253.0569)" class="st21" cx="157" cy="96.8" rx="35.3" ry="37"/>
		
			<ellipse transform="matrix(7.155304e-03 -1 1 7.155304e-03 61.7152 255.7566)" class="st22" cx="159.7" cy="96.8" rx="35.3" ry="37"/>
		
			<ellipse transform="matrix(7.156522e-03 -1 1 7.156522e-03 64.3587 258.4948)" class="st23" cx="162.4" cy="96.8" rx="35.4" ry="37"/>
		
			<ellipse transform="matrix(7.156515e-03 -1 1 7.156515e-03 67.0429 261.1551)" class="st24" cx="165" cy="96.8" rx="35.4" ry="37"/>
		
			<ellipse transform="matrix(7.155304e-03 -1 1 7.155304e-03 69.727 263.8548)" class="st25" cx="167.7" cy="96.8" rx="35.4" ry="37"/>
		
			<ellipse transform="matrix(7.156529e-03 -1 1 7.156529e-03 72.4109 266.5152)" class="st26" cx="170.4" cy="96.8" rx="35.4" ry="37"/>
		
			<ellipse transform="matrix(7.155304e-03 -1 1 7.155304e-03 75.2517 269.4149)" class="st27" cx="173.3" cy="96.8" rx="35.4" ry="37"/>
		
			<ellipse transform="matrix(7.155304e-03 -1 1 7.155304e-03 77.9355 272.1145)" class="st28" cx="176" cy="96.8" rx="35.4" ry="37"/>
		
			<ellipse transform="matrix(7.155304e-03 -1 1 7.155304e-03 80.5189 274.8737)" class="st29" cx="178.7" cy="96.9" rx="35.5" ry="37"/>
		
			<ellipse transform="matrix(7.154006e-03 -1 1 7.154006e-03 83.303 277.5142)" class="st30" cx="181.4" cy="96.8" rx="35.5" ry="37"/>
		
			<ellipse transform="matrix(7.156576e-03 -1 1 7.156576e-03 85.8464 280.2721)" class="st31" cx="184.1" cy="96.9" rx="35.5" ry="37"/>
		
			<ellipse transform="matrix(7.154023e-03 -1 1 7.154023e-03 88.5307 282.9722)" class="st32" cx="186.8" cy="96.9" rx="35.5" ry="37"/>
		
			<ellipse transform="matrix(7.155304e-03 -1 1 7.155304e-03 91.2143 285.6719)" class="st33" cx="189.5" cy="96.9" rx="35.5" ry="37"/>
		
			<ellipse transform="matrix(7.155304e-03 -1 1 7.155304e-03 93.8985 288.3322)" class="st34" cx="192.2" cy="96.9" rx="35.5" ry="37"/>
		
			<ellipse transform="matrix(7.153989e-03 -1 1 7.153989e-03 96.543 291.0312)" class="st35" cx="194.8" cy="96.9" rx="35.6" ry="37"/>
		
			<ellipse transform="matrix(7.156628e-03 -1 1 7.156628e-03 99.226 293.7306)" class="st36" cx="197.5" cy="96.9" rx="35.6" ry="37.1"/>
		
			<ellipse transform="matrix(7.155304e-03 -1 1 7.155304e-03 101.9099 296.4307)" class="st37" cx="200.2" cy="96.9" rx="35.6" ry="37.1"/>
		
			<ellipse transform="matrix(7.156644e-03 -1 1 7.156644e-03 104.6327 299.1306)" class="st38" cx="203" cy="96.9" rx="35.6" ry="37.1"/>
		
			<ellipse transform="matrix(7.155304e-03 -1 1 7.155304e-03 107.2778 301.7905)" class="st39" cx="205.6" cy="96.9" rx="35.6" ry="37.1"/>
		
			<ellipse transform="matrix(7.156664e-03 -1 1 7.156664e-03 109.9612 304.4901)" class="st40" cx="208.3" cy="96.9" rx="35.6" ry="37.1"/>
		
			<ellipse transform="matrix(7.153915e-03 -1 1 7.153915e-03 112.6461 307.1507)" class="st41" cx="211" cy="96.8" rx="35.7" ry="37.1"/>
		
			<ellipse transform="matrix(7.153915e-03 -1 1 7.153915e-03 115.3299 309.8506)" class="st42" cx="213.7" cy="96.8" rx="35.7" ry="37.1"/>
		
			<ellipse transform="matrix(7.153915e-03 -1 1 7.153915e-03 117.9729 312.5887)" class="st43" cx="216.4" cy="96.9" rx="35.7" ry="37.1"/>
		
			<ellipse transform="matrix(7.153915e-03 -1 1 7.153915e-03 120.6574 315.2491)" class="st44" cx="219.1" cy="96.9" rx="35.7" ry="37.1"/>
		
			<ellipse transform="matrix(7.152487e-03 -1 1 7.152487e-03 123.3417 317.9489)" class="st45" cx="221.8" cy="96.9" rx="35.7" ry="37.1"/>
		
			<ellipse transform="matrix(7.152577e-03 -1 1 7.152577e-03 126.1236 320.708)" class="st46" cx="224.6" cy="96.8" rx="35.7" ry="37.1"/>
		
			<ellipse transform="matrix(7.155349e-03 -1 1 7.155349e-03 128.7673 323.4066)" class="st47" cx="227.2" cy="96.9" rx="35.8" ry="37.1"/>
		
			<ellipse transform="matrix(7.161243e-03 -1 1 7.161243e-03 131.4495 326.1059)" class="st48" cx="229.9" cy="96.9" rx="35.8" ry="37.1"/>
		
			<ellipse transform="matrix(7.156797e-03 -1 1 7.156797e-03 134.0343 328.8651)" class="st49" cx="232.6" cy="96.9" rx="35.8" ry="37.1"/>
		
			<ellipse transform="matrix(7.158290e-03 -1 1 7.158290e-03 136.8176 331.5055)" class="st50" cx="235.4" cy="96.9" rx="35.8" ry="37.1"/>
		
			<ellipse transform="matrix(7.158290e-03 -1 1 7.158290e-03 139.4596 334.3636)" class="st51" cx="238.1" cy="97" rx="35.8" ry="37.1"/>
		
			<ellipse transform="matrix(7.155304e-03 -1 1 7.155304e-03 142.046 336.9639)" class="st52" cx="240.7" cy="96.9" rx="35.8" ry="37.1"/>
		
			<ellipse transform="matrix(7.155304e-03 -1 1 7.155304e-03 144.7294 339.6633)" class="st53" cx="243.4" cy="96.9" rx="35.9" ry="37.1"/>
		
			<ellipse transform="matrix(7.155304e-03 -1 1 7.155304e-03 147.5121 342.4237)" class="st54" cx="246.2" cy="96.9" rx="35.9" ry="37.1"/>
		
			<ellipse transform="matrix(7.155304e-03 -1 1 7.155304e-03 150.1562 345.1227)" class="st55" cx="248.9" cy="96.9" rx="35.9" ry="37.1"/>
		
			<ellipse transform="matrix(7.155304e-03 -1 1 7.155304e-03 152.8396 347.8223)" class="st56" cx="251.6" cy="96.9" rx="35.9" ry="37.1"/>
		
			<ellipse transform="matrix(7.155304e-03 -1 1 7.155304e-03 155.5233 350.5225)" class="st57" cx="254.3" cy="96.9" rx="35.9" ry="37.1"/>
		
			<ellipse transform="matrix(7.155304e-03 -1 1 7.155304e-03 158.2069 353.222)" class="st58" cx="257" cy="96.9" rx="35.9" ry="37.1"/>
		
			<ellipse transform="matrix(7.155304e-03 -1 1 7.155304e-03 161.049 355.8845)" class="st59" cx="259.7" cy="96.8" rx="36" ry="37.2"/>
		
			<ellipse transform="matrix(7.155304e-03 -1 1 7.155304e-03 163.634 358.4833)" class="st60" cx="262.3" cy="96.8" rx="36" ry="37.2"/>
		
			<ellipse transform="matrix(7.155304e-03 -1 1 7.155304e-03 166.3177 361.1832)" class="st61" cx="265" cy="96.8" rx="36" ry="37.2"/>
		
			<ellipse transform="matrix(7.155304e-03 -1 1 7.155304e-03 169.002 363.8437)" class="st62" cx="267.7" cy="96.8" rx="36" ry="37.2"/>
		
			<ellipse transform="matrix(7.155304e-03 -1 1 7.155304e-03 171.7438 366.6825)" class="st63" cx="270.5" cy="96.9" rx="36" ry="37.2"/>
		
			<ellipse transform="matrix(7.155304e-03 -1 1 7.155304e-03 174.4281 369.3427)" class="st64" cx="273.2" cy="96.8" rx="36" ry="37.2"/>
		
			<ellipse transform="matrix(7.155304e-03 -1 1 7.155304e-03 177.1122 372.0427)" class="st65" cx="275.9" cy="96.8" rx="36" ry="37.2"/>
		
			<ellipse transform="matrix(7.155304e-03 -1 1 7.155304e-03 179.7565 374.7417)" class="st66" cx="278.6" cy="96.8" rx="36.1" ry="37.2"/>
		
			<ellipse transform="matrix(7.155304e-03 -1 1 7.155304e-03 182.4408 377.4017)" class="st67" cx="281.3" cy="96.8" rx="36.1" ry="37.2"/>
		
			<ellipse transform="matrix(7.155304e-03 -1 1 7.155304e-03 185.1242 380.1016)" class="st68" cx="284" cy="96.8" rx="36.1" ry="37.2"/>
		
			<ellipse transform="matrix(7.155304e-03 -1 1 7.155304e-03 187.7081 382.8606)" class="st69" cx="286.7" cy="96.9" rx="36.1" ry="37.2"/>
		
			<ellipse transform="matrix(7.155304e-03 -1 1 7.155304e-03 190.4519 385.5002)" class="st70" cx="289.4" cy="96.8" rx="36.1" ry="37.2"/>
		
			<ellipse transform="matrix(7.155304e-03 -1 1 7.155304e-03 193.1354 388.1997)" class="st71" cx="292.1" cy="96.8" rx="36.1" ry="37.2"/>
		
			<ellipse transform="matrix(7.155304e-03 -1 1 7.155304e-03 195.7195 390.9593)" class="st72" cx="294.7" cy="96.9" rx="36.2" ry="37.2"/>
		
			<ellipse transform="matrix(7.155304e-03 -1 1 7.155304e-03 198.4029 393.6589)" class="st73" cx="297.4" cy="96.9" rx="36.2" ry="37.2"/>
		
			<ellipse transform="matrix(7.155304e-03 -1 1 7.155304e-03 201.1457 396.4183)" class="st74" cx="300.2" cy="96.9" rx="36.2" ry="37.2"/>
		
			<ellipse transform="matrix(7.155304e-03 -1 1 7.155304e-03 203.8292 399.1181)" class="st75" cx="302.9" cy="96.9" rx="36.2" ry="37.2"/>
		
			<ellipse transform="matrix(7.155304e-03 -1 1 7.155304e-03 206.4144 401.7571)" class="st76" cx="305.5" cy="96.9" rx="36.2" ry="37.2"/>
		
			<ellipse transform="matrix(7.155304e-03 -1 1 7.155304e-03 209.1963 404.5173)" class="st77" cx="308.3" cy="96.9" rx="36.2" ry="37.2"/>
		
			<ellipse transform="matrix(7.155304e-03 -1 1 7.155304e-03 211.8409 407.2163)" class="st78" cx="311" cy="96.9" rx="36.3" ry="37.2"/>
		
			<ellipse transform="matrix(7.155304e-03 -1 1 7.155304e-03 214.4647 409.9754)" class="st79" cx="313.7" cy="97" rx="36.3" ry="37.2"/>
		
			<ellipse transform="matrix(7.155304e-03 -1 1 7.155304e-03 217.1481 412.6749)" class="st80" cx="316.4" cy="97" rx="36.3" ry="37.2"/>
		
			<ellipse transform="matrix(7.155304e-03 -1 1 7.155304e-03 219.8321 415.3747)" class="st81" cx="319.1" cy="97" rx="36.3" ry="37.3"/>
		
			<ellipse transform="matrix(7.155304e-03 -1 1 7.155304e-03 222.4767 418.034)" class="st82" cx="321.8" cy="97" rx="36.3" ry="37.3"/>
		
			<ellipse transform="matrix(7.155304e-03 -1 1 7.155304e-03 225.2594 420.6758)" class="st83" cx="324.5" cy="96.9" rx="36.4" ry="37.3"/>
		
			<ellipse transform="matrix(7.155304e-03 -1 1 7.155304e-03 227.8436 423.4338)" class="st84" cx="327.2" cy="97" rx="36.4" ry="37.3"/>
		
			<ellipse transform="matrix(7.155304e-03 -1 1 7.155304e-03 230.5276 426.1335)" class="st85" cx="329.9" cy="97" rx="36.4" ry="37.3"/>
		
			<ellipse transform="matrix(7.155304e-03 -1 1 7.155304e-03 233.272 428.7347)" class="st86" cx="332.5" cy="96.9" rx="36.4" ry="37.3"/>
		
			<ellipse transform="matrix(7.155304e-03 -1 1 7.155304e-03 235.8533 431.69)" class="st87" cx="335.3" cy="97.1" rx="36.4" ry="37.3"/>
		
			<ellipse transform="matrix(7.155304e-03 -1 1 7.155304e-03 238.5369 434.3898)" class="st88" cx="338" cy="97.1" rx="36.4" ry="37.3"/>
		
			<ellipse transform="matrix(7.155304e-03 -1 1 7.155304e-03 241.2213 437.0501)" class="st89" cx="340.7" cy="97" rx="36.5" ry="37.3"/>
		
			<ellipse transform="matrix(7.155304e-03 -1 1 7.155304e-03 243.8646 439.7884)" class="st90" cx="343.4" cy="97.1" rx="36.5" ry="37.3"/>
		
			<ellipse transform="matrix(7.155304e-03 -1 1 7.155304e-03 246.5487 442.4882)" class="st91" cx="346.1" cy="97.1" rx="36.5" ry="37.3"/>
		
			<ellipse transform="matrix(7.155304e-03 -1 1 7.155304e-03 249.2326 445.1486)" class="st92" cx="348.8" cy="97.1" rx="36.5" ry="37.3"/>
		
			<ellipse transform="matrix(7.155304e-03 -1 1 7.155304e-03 251.9163 447.8484)" class="st93" cx="351.5" cy="97.1" rx="36.5" ry="37.3"/>
		
			<ellipse transform="matrix(7.155304e-03 -1 1 7.155304e-03 254.6598 450.6085)" class="st94" cx="354.3" cy="97.1" rx="36.5" ry="37.3"/>
		
			<ellipse transform="matrix(7.155304e-03 -1 1 7.155304e-03 257.3435 453.3082)" class="st95" cx="357" cy="97.1" rx="36.5" ry="37.3"/>
		
			<ellipse transform="matrix(7.155304e-03 -1 1 7.155304e-03 260.0264 456.0473)" class="st96" cx="359.7" cy="97.1" rx="36.6" ry="37.3"/>
		
			<ellipse transform="matrix(7.155304e-03 -1 1 7.155304e-03 262.7105 458.7075)" class="st97" cx="362.4" cy="97.1" rx="36.6" ry="37.3"/>
		
			<ellipse transform="matrix(7.155304e-03 -1 1 7.155304e-03 265.3551 461.4071)" class="st98" cx="365" cy="97.1" rx="36.6" ry="37.3"/>
		
			<ellipse transform="matrix(7.155304e-03 -1 1 7.155304e-03 268.0393 464.067)" class="st99" cx="367.7" cy="97.1" rx="36.6" ry="37.3"/>
		
			<ellipse transform="matrix(7.155304e-03 -1 1 7.155304e-03 270.723 466.7669)" class="st100" cx="370.4" cy="97" rx="36.6" ry="37.3"/>
		
			<ellipse transform="matrix(7.155304e-03 -1 1 7.155304e-03 273.4068 469.4664)" class="st101" cx="373.1" cy="97" rx="36.6" ry="37.3"/>
		
			<ellipse transform="matrix(7.155304e-03 -1 1 7.155304e-03 276.1494 472.2263)" class="st102" cx="375.9" cy="97" rx="36.7" ry="37.4"/>
		
			<ellipse transform="matrix(7.155304e-03 -1 1 7.155304e-03 278.8319 474.9655)" class="st103" cx="378.6" cy="97.1" rx="36.7" ry="37.4"/>
		
			<ellipse transform="matrix(7.155304e-03 -1 1 7.155304e-03 281.5159 477.6649)" class="st104" cx="381.3" cy="97.1" rx="36.7" ry="37.4"/>
		
			<ellipse transform="matrix(7.155304e-03 -1 1 7.155304e-03 284.2002 480.3253)" class="st105" cx="384" cy="97" rx="36.7" ry="37.4"/>
		
			<ellipse transform="matrix(7.155304e-03 -1 1 7.155304e-03 286.8444 483.0245)" class="st106" cx="386.7" cy="97.1" rx="36.7" ry="37.4"/>
		
			<ellipse transform="matrix(7.155304e-03 -1 1 7.155304e-03 289.4281 485.7831)" class="st107" cx="389.3" cy="97.1" rx="36.8" ry="37.4"/>
		
			<ellipse transform="matrix(7.155304e-03 -1 1 7.155304e-03 292.1118 488.4829)" class="st108" cx="392.1" cy="97.1" rx="36.8" ry="37.4"/>
		
			<ellipse transform="matrix(7.155304e-03 -1 1 7.155304e-03 294.7954 491.1826)" class="st109" cx="394.8" cy="97.1" rx="36.8" ry="37.4"/>
		
			<ellipse transform="matrix(7.155304e-03 -1 1 7.155304e-03 297.4394 493.8818)" class="st110" cx="397.4" cy="97.2" rx="36.8" ry="37.4"/>
		
			<ellipse transform="matrix(7.155304e-03 -1 1 7.155304e-03 300.1232 496.5815)" class="st111" cx="400.1" cy="97.2" rx="36.8" ry="37.4"/>
		
			<ellipse transform="matrix(7.155304e-03 -1 1 7.155304e-03 302.8075 499.2416)" class="st112" cx="402.8" cy="97.1" rx="36.8" ry="37.4"/>
		
			<ellipse transform="matrix(7.155304e-03 -1 1 7.155304e-03 305.4911 501.9417)" class="st113" cx="405.5" cy="97.1" rx="36.9" ry="37.4"/>
		
			<ellipse transform="matrix(7.155304e-03 -1 1 7.155304e-03 308.1356 504.6405)" class="st114" cx="408.2" cy="97.1" rx="36.9" ry="37.4"/>
		
			<ellipse transform="matrix(7.155304e-03 -1 1 7.155304e-03 310.8197 507.3008)" class="st115" cx="410.9" cy="97.1" rx="36.9" ry="37.4"/>
		
			<ellipse transform="matrix(7.155304e-03 -1 1 7.155304e-03 313.5028 510.0399)" class="st116" cx="413.6" cy="97.1" rx="36.9" ry="37.4"/>
		
			<ellipse transform="matrix(7.147624e-03 -1 1 7.147624e-03 316.1897 512.701)" class="st117" cx="416.3" cy="97.1" rx="36.9" ry="37.4"/>
		
			<ellipse transform="matrix(7.147624e-03 -1 1 7.147624e-03 318.9329 515.3022)" class="st118" cx="419" cy="97" rx="36.9" ry="37.4"/>
		
			<ellipse transform="matrix(7.147624e-03 -1 1 7.147624e-03 321.6167 518.0018)" class="st119" cx="421.7" cy="97" rx="36.9" ry="37.4"/>
		
			<ellipse transform="matrix(7.155304e-03 -1 1 7.155304e-03 324.2383 520.7597)" class="st120" cx="424.4" cy="97.1" rx="37" ry="37.4"/>
		
			<ellipse transform="matrix(7.155304e-03 -1 1 7.155304e-03 326.9222 523.4598)" class="st121" cx="427.1" cy="97.1" rx="37" ry="37.4"/>
		
			<ellipse transform="matrix(7.146962e-03 -1 1 7.146962e-03 329.7671 526.1207)" class="st122" cx="429.8" cy="97" rx="37" ry="37.4"/>
		
			<ellipse transform="matrix(7.155304e-03 -1 1 7.155304e-03 332.3485 528.7604)" class="st123" cx="432.5" cy="97" rx="37" ry="37.5"/>
		
			<ellipse transform="matrix(7.146381e-03 -1 1 7.146381e-03 335.0358 531.4609)" class="st124" cx="435.2" cy="97" rx="37" ry="37.5"/>
		
			<ellipse transform="matrix(7.147624e-03 -1 1 7.147624e-03 337.8175 534.2198)" class="st125" cx="437.9" cy="97" rx="37" ry="37.5"/>
		
			<ellipse transform="matrix(7.145952e-03 -1 1 7.145952e-03 340.6588 537.1198)" class="st126" cx="440.8" cy="97" rx="37.1" ry="37.5"/>
		
			<ellipse transform="matrix(7.164889e-03 -1 1 7.164889e-03 343.2346 539.877)" class="st127" cx="443.5" cy="97.1" rx="37.1" ry="37.5"/>
		
			<ellipse transform="matrix(7.155059e-03 -1 1 7.155059e-03 345.8237 542.4767)" class="st128" cx="446.1" cy="97.1" rx="37.1" ry="37.5"/>
		
			<ellipse transform="matrix(1.000100e-02 -0.9999 0.9999 1.000100e-02 347.9505 546.7514)" class="st129" cx="450.1" cy="97.7" rx="37.1" ry="37.5"/>
		
			<ellipse transform="matrix(7.165948e-03 -1 1 7.165948e-03 351.2455 547.9752)" class="st130" cx="451.6" cy="97.1" rx="37.1" ry="37.5"/>
		
			<ellipse transform="matrix(7.164889e-03 -1 1 7.164889e-03 353.9295 550.6747)" class="st131" cx="454.3" cy="97.1" rx="37.1" ry="37.5"/>
		
			<ellipse transform="matrix(7.166571e-03 -1 1 7.166571e-03 356.6129 553.3353)" class="st132" cx="457" cy="97.1" rx="37.2" ry="37.5"/>
		
			<ellipse transform="matrix(7.155304e-03 -1 1 7.155304e-03 359.3019 556.0361)" class="st133" cx="459.7" cy="97.1" rx="37.2" ry="37.5"/>
		
			<ellipse transform="matrix(7.155304e-03 -1 1 7.155304e-03 361.9459 558.7351)" class="st134" cx="462.3" cy="97.1" rx="37.2" ry="37.5"/>
		
			<ellipse transform="matrix(7.142540e-03 -1 1 7.142540e-03 364.6359 561.3964)" class="st135" cx="465" cy="97.1" rx="37.2" ry="37.5"/>
		
			<ellipse transform="matrix(7.142540e-03 -1 1 7.142540e-03 367.3186 564.1355)" class="st136" cx="467.7" cy="97.1" rx="37.2" ry="37.5"/>
		
			<ellipse transform="matrix(7.155304e-03 -1 1 7.155304e-03 369.9969 566.7948)" class="st137" cx="470.4" cy="97.1" rx="37.2" ry="37.5"/>
		
			<ellipse transform="matrix(7.155304e-03 -1 1 7.155304e-03 372.6416 569.4937)" class="st138" cx="473.1" cy="97.1" rx="37.3" ry="37.5"/>
		
			<ellipse transform="matrix(7.140584e-03 -1 1 7.140584e-03 375.3321 572.1947)" class="st139" cx="475.8" cy="97.1" rx="37.3" ry="37.5"/>
		
			<ellipse transform="matrix(7.170610e-03 -1 1 7.170610e-03 378.0025 574.8524)" class="st140" cx="478.5" cy="97.1" rx="37.3" ry="37.5"/>
		
			<ellipse transform="matrix(7.155304e-03 -1 1 7.155304e-03 380.6931 577.5536)" class="st141" cx="481.2" cy="97.1" rx="37.3" ry="37.5"/>
		
			<ellipse transform="matrix(7.129771e-03 -1 1 7.129771e-03 383.3501 580.2553)" class="st142" cx="483.9" cy="97.1" rx="37.3" ry="37.6"/>
		
			<ellipse transform="matrix(7.111559e-03 -1 1 7.111559e-03 386.0421 582.9564)" class="st143" cx="486.6" cy="97.1" rx="37.3" ry="37.6"/>
		
			<ellipse transform="matrix(7.117054e-03 -1 1 7.117054e-03 388.7231 585.6561)" class="st144" cx="489.3" cy="97.1" rx="37.4" ry="37.6"/>
		
			<ellipse transform="matrix(7.117054e-03 -1 1 7.117054e-03 391.4076 588.3162)" class="st145" cx="492" cy="97.1" rx="37.4" ry="37.6"/>
		
			<ellipse transform="matrix(7.117054e-03 -1 1 7.117054e-03 394.0521 591.0151)" class="st146" cx="494.6" cy="97.1" rx="37.4" ry="37.6"/>
		
			<ellipse transform="matrix(7.155304e-03 -1 1 7.155304e-03 396.7167 593.7109)" class="st147" cx="497.3" cy="97.1" rx="37.4" ry="37.6"/>
		
			<ellipse transform="matrix(7.136178e-03 -1 1 7.136178e-03 399.31 596.4719)" class="st148" cx="500" cy="97.2" rx="37.4" ry="37.6"/>
		
			<ellipse transform="matrix(7.117054e-03 -1 1 7.117054e-03 402.064 599.1138)" class="st149" cx="502.7" cy="97.1" rx="37.4" ry="37.6"/>
		
			<ellipse transform="matrix(7.155304e-03 -1 1 7.155304e-03 404.726 601.9686)" class="st150" cx="505.5" cy="97.2" rx="37.5" ry="37.6"/>
		
			<ellipse transform="matrix(7.155304e-03 -1 1 7.155304e-03 407.41 604.6685)" class="st151" cx="508.2" cy="97.2" rx="37.5" ry="37.6"/>
		
			<ellipse transform="matrix(7.078888e-03 -1 1 7.078888e-03 410.1322 607.376)" class="st152" cx="510.9" cy="97.2" rx="37.5" ry="37.6"/>
		
			<ellipse transform="matrix(7.155304e-03 -1 1 7.155304e-03 412.8367 610.1283)" class="st153" cx="513.7" cy="97.2" rx="37.5" ry="37.6"/>
		
			<ellipse transform="matrix(7.155304e-03 -1 1 7.155304e-03 415.5205 612.8279)" class="st154" cx="516.4" cy="97.2" rx="37.5" ry="37.6"/>
		
			<ellipse transform="matrix(7.155304e-03 -1 1 7.155304e-03 418.1066 615.3879)" class="st155" cx="519" cy="97.1" rx="37.5" ry="37.6"/>
		
			<ellipse transform="matrix(7.155304e-03 -1 1 7.155304e-03 420.7896 618.1271)" class="st156" cx="521.7" cy="97.2" rx="37.5" ry="37.6"/>
		
			<ellipse transform="matrix(0.7071 -0.7071 0.7071 0.7071 84.8686 399.3153)" class="st157" cx="524.5" cy="97.2" rx="37.6" ry="37.6"/>
		
			<ellipse transform="matrix(0.7071 -0.7071 0.7071 0.7071 85.6699 401.2115)" class="st158" cx="527.1" cy="97.2" rx="37.6" ry="37.6"/>
		
			<ellipse transform="matrix(0.7071 -0.7071 0.7071 0.7071 86.4616 403.1213)" class="st159" cx="529.8" cy="97.2" rx="37.6" ry="37.6"/>
		
			<ellipse transform="matrix(0.7071 -0.7071 0.7071 0.7071 87.263 405.0173)" class="st160" cx="532.5" cy="97.2" rx="37.6" ry="37.6"/>
		
			<ellipse transform="matrix(0.7071 -0.7071 0.7071 0.7071 88.0342 406.9187)" class="st161" cx="535.2" cy="97.2" rx="37.6" ry="37.6"/>
		<text transform="matrix(1 0 0 1 66.0252 187.1372)" class="st162 st163">Low</text>
		<text transform="matrix(1 0 0 1 470.6089 187.1369)" class="st162 st163">High</text>
	</g>
</g>
</svg>
