<?xml version="1.0" encoding="utf-8"?>
<!-- Generator: Adobe Illustrator 26.0.2, SVG Export Plug-In . SVG Version: 6.00 Build 0)  -->
<svg version="1.1" id="图层_1" xmlns="http://www.w3.org/2000/svg" xmlns:xlink="http://www.w3.org/1999/xlink" x="0px" y="0px"
	 viewBox="0 0 963 256.5" style="enable-background:new 0 0 963 256.5;" xml:space="preserve">
<style type="text/css">
	.st0{fill:#E9E8E2;stroke:#000000;stroke-miterlimit:10;}
	.st1{fill:#FF0000;}
	.st2{fill:#FE0001;}
	.st3{fill:#FD0002;}
	.st4{fill:#FC0003;}
	.st5{fill:#FB0004;}
	.st6{fill:#FA0005;}
	.st7{fill:#F90006;}
	.st8{fill:#F80007;}
	.st9{fill:#F70008;}
	.st10{fill:#F60009;}
	.st11{fill:#F5000A;}
	.st12{fill:#F4000B;}
	.st13{fill:#F3000C;}
	.st14{fill:#F2000D;}
	.st15{fill:#F1000E;}
	.st16{fill:#F0000F;}
	.st17{fill:#EF0010;}
	.st18{fill:#EE0011;}
	.st19{fill:#ED0012;}
	.st20{fill:#EC0013;}
	.st21{fill:#EB0014;}
	.st22{fill:#EA0015;}
	.st23{fill:#E90016;}
	.st24{fill:#E80017;}
	.st25{fill:#E70018;}
	.st26{fill:#E60019;}
	.st27{fill:#E5001A;}
	.st28{fill:#E4001B;}
	.st29{fill:#E3001C;}
	.st30{fill:#E2001D;}
	.st31{fill:#E1001E;}
	.st32{fill:#E0001F;}
	.st33{fill:#DF0020;}
	.st34{fill:#DE0021;}
	.st35{fill:#DD0022;}
	.st36{fill:#DC0023;}
	.st37{fill:#DB0024;}
	.st38{fill:#DA0025;}
	.st39{fill:#D90026;}
	.st40{fill:#D80027;}
	.st41{fill:#D70028;}
	.st42{fill:#D60029;}
	.st43{fill:#D5002A;}
	.st44{fill:#D4002B;}
	.st45{fill:#D3002C;}
	.st46{fill:#D2002D;}
	.st47{fill:#D1002E;}
	.st48{fill:#D0002F;}
	.st49{fill:#CF0030;}
	.st50{fill:#CE0031;}
	.st51{fill:#CD0032;}
	.st52{fill:#CC0033;}
	.st53{fill:#CB0034;}
	.st54{fill:#CA0035;}
	.st55{fill:#C90036;}
	.st56{fill:#C80037;}
	.st57{fill:#C70038;}
	.st58{fill:#C60039;}
	.st59{fill:#C5003A;}
	.st60{fill:#C4003B;}
	.st61{fill:#C3003C;}
	.st62{fill:#C2003D;}
	.st63{fill:#C1003E;}
	.st64{fill:#C0003F;}
	.st65{fill:#BF0040;}
	.st66{fill:#BE0041;}
	.st67{fill:#BD0042;}
	.st68{fill:#BC0043;}
	.st69{fill:#BB0044;}
	.st70{fill:#BA0045;}
	.st71{fill:#B90046;}
	.st72{fill:#B80047;}
	.st73{fill:#B70048;}
	.st74{fill:#B60049;}
	.st75{fill:#B5004A;}
	.st76{fill:#B4004B;}
	.st77{fill:#B3004C;}
	.st78{fill:#B2004D;}
	.st79{fill:#B1004E;}
	.st80{fill:#B0004F;}
	.st81{fill:#AF0050;}
	.st82{fill:#AE0051;}
	.st83{fill:#AD0052;}
	.st84{fill:#AC0053;}
	.st85{fill:#AB0054;}
	.st86{fill:#AA0055;}
	.st87{fill:#A90056;}
	.st88{fill:#A80057;}
	.st89{fill:#A70058;}
	.st90{fill:#A60059;}
	.st91{fill:#A5005A;}
	.st92{fill:#A4005B;}
	.st93{fill:#A3005C;}
	.st94{fill:#A2005D;}
	.st95{fill:#A1005E;}
	.st96{fill:#A0005F;}
	.st97{fill:#9F0060;}
	.st98{fill:#9E0061;}
	.st99{fill:#9D0062;}
	.st100{fill:#9C0063;}
	.st101{fill:#9B0064;}
	.st102{fill:#9A0065;}
	.st103{fill:#990066;}
	.st104{fill:#980067;}
	.st105{fill:#970068;}
	.st106{fill:#960069;}
	.st107{fill:#95006A;}
	.st108{fill:#94006B;}
	.st109{fill:#93006C;}
	.st110{fill:#92006D;}
	.st111{fill:#91006E;}
	.st112{fill:#90006F;}
	.st113{fill:#8F0070;}
	.st114{fill:#8E0071;}
	.st115{fill:#8D0072;}
	.st116{fill:#8C0073;}
	.st117{fill:#8B0074;}
	.st118{fill:#8A0075;}
	.st119{fill:#890076;}
	.st120{fill:#880077;}
	.st121{fill:#870078;}
	.st122{fill:#860079;}
	.st123{fill:#85007A;}
	.st124{fill:#84007B;}
	.st125{fill:#83007C;}
	.st126{fill:#82007D;}
	.st127{fill:#81007E;}
	.st128{fill:#80007F;}
	.st129{fill:#7F0080;}
	.st130{fill:#7E0081;}
	.st131{fill:#7D0082;}
	.st132{fill:#7C0083;}
	.st133{fill:#7B0084;}
	.st134{fill:#7A0085;}
	.st135{fill:#790086;}
	.st136{fill:#780087;}
	.st137{fill:#770088;}
	.st138{fill:#760089;}
	.st139{fill:#75008A;}
	.st140{fill:#74008B;}
	.st141{fill:#73008C;}
	.st142{fill:#72008D;}
	.st143{fill:#71008E;}
	.st144{fill:#70008F;}
	.st145{fill:#6F0090;}
	.st146{fill:#6E0091;}
	.st147{fill:#6D0092;}
	.st148{fill:#6C0093;}
	.st149{fill:#6B0094;}
	.st150{fill:#6A0095;}
	.st151{fill:#690096;}
	.st152{fill:#680097;}
	.st153{fill:#670098;}
	.st154{fill:#660099;}
	.st155{fill:#65009A;}
	.st156{fill:#64009B;}
	.st157{fill:#63009C;}
	.st158{fill:#62009D;}
	.st159{fill:#61009E;}
	.st160{fill:#60009F;}
	.st161{fill:#5F00A0;}
	.st162{fill:#5E00A1;}
	.st163{fill:#5D00A2;}
	.st164{fill:#5C00A3;}
	.st165{fill:#5B00A4;}
	.st166{fill:#5A00A5;}
	.st167{fill:#5900A6;}
	.st168{fill:#5800A7;}
	.st169{fill:#5700A8;}
	.st170{fill:#5600A9;}
	.st171{fill:#5500AA;}
	.st172{fill:#5400AB;}
	.st173{fill:#5300AC;}
	.st174{fill:#5200AD;}
	.st175{fill:#5100AE;}
	.st176{fill:#5000AF;}
	.st177{fill:#4F00B0;}
	.st178{fill:#4E00B1;}
	.st179{fill:#4D00B2;}
	.st180{fill:#4C00B3;}
	.st181{fill:#4B00B4;}
	.st182{fill:#4A00B5;}
	.st183{fill:#4900B6;}
	.st184{fill:#4800B7;}
	.st185{fill:#4700B8;}
	.st186{fill:#4600B9;}
	.st187{fill:#4500BA;}
	.st188{fill:#4400BB;}
	.st189{fill:#4300BC;}
	.st190{fill:#4200BD;}
	.st191{fill:#4100BE;}
	.st192{fill:#4000BF;}
	.st193{fill:#3F00C0;}
	.st194{fill:#3E00C1;}
	.st195{fill:#3D00C2;}
	.st196{fill:#3C00C3;}
	.st197{fill:#3B00C4;}
	.st198{fill:#3A00C5;}
	.st199{fill:#3900C6;}
	.st200{fill:#3800C7;}
	.st201{fill:#3700C8;}
	.st202{fill:#3600C9;}
	.st203{fill:#3500CA;}
	.st204{fill:#3400CB;}
	.st205{fill:#3300CC;}
	.st206{fill:#3200CD;}
	.st207{fill:#3100CE;}
	.st208{fill:#3000CF;}
	.st209{fill:#2F00D0;}
	.st210{fill:#2E00D1;}
	.st211{fill:#2D00D2;}
	.st212{fill:#2C00D3;}
	.st213{fill:#2B00D4;}
	.st214{fill:#2A00D5;}
	.st215{fill:#2900D6;}
	.st216{fill:#2800D7;}
	.st217{fill:#2700D8;}
	.st218{fill:#2600D9;}
	.st219{fill:#2500DA;}
	.st220{fill:#2400DB;}
	.st221{fill:#2300DC;}
	.st222{fill:#2200DD;}
	.st223{fill:#2100DE;}
	.st224{fill:#2000DF;}
	.st225{fill:#1F00E0;}
	.st226{fill:#1E00E1;}
	.st227{fill:#1D00E2;}
	.st228{fill:#1C00E3;}
	.st229{fill:#1B00E4;}
	.st230{fill:#1A00E5;}
	.st231{fill:#1900E6;}
	.st232{fill:#1800E7;}
	.st233{fill:#1700E8;}
	.st234{fill:#1600E9;}
	.st235{fill:#1500EA;}
	.st236{fill:#1400EB;}
	.st237{fill:#1300EC;}
	.st238{fill:#1200ED;}
	.st239{fill:#1100EE;}
	.st240{fill:#1000EF;}
	.st241{fill:#0F00F0;}
	.st242{fill:#0E00F1;}
	.st243{fill:#0D00F2;}
	.st244{fill:#0C00F3;}
	.st245{fill:#0B00F4;}
	.st246{fill:#0A00F5;}
	.st247{fill:#0900F6;}
	.st248{fill:#0800F7;}
	.st249{fill:#0700F8;}
	.st250{fill:#0600F9;}
	.st251{fill:#0500FA;}
	.st252{fill:#0400FB;}
	.st253{fill:#0300FC;}
	.st254{fill:#0200FD;}
	.st255{fill:#0100FE;}
	.st256{fill:#0000FF;}
	.st257{font-family:'MicrosoftSansSerif';}
	.st258{font-size:36px;}
</style>
<path class="st0" d="M15.1,0h932.9c8.4,0,15.1,4.4,15.1,9.9v236.7c0,5.5-6.7,9.9-15.1,9.9H15.1c-8.4,0-15.1-4.4-15.1-9.9V9.9
	C0,4.4,6.7,0,15.1,0z"/>
<g>
	<circle class="st1" cx="272.1" cy="127.5" r="36.9"/>
	
		<ellipse transform="matrix(8.248051e-02 -0.9966 0.9966 8.248051e-02 124.1161 389.7897)" class="st2" cx="273.7" cy="127.5" rx="36.9" ry="36.9"/>
	<circle class="st3" cx="275.4" cy="127.6" r="36.9"/>
	<circle class="st4" cx="277" cy="127.6" r="36.9"/>
	
		<ellipse transform="matrix(0.1644 -0.9864 0.9864 0.1644 107.0724 381.57)" class="st5" cx="278.8" cy="127.6" rx="36.9" ry="36.9"/>
	
		<ellipse transform="matrix(0.1644 -0.9864 0.9864 0.1644 108.4093 383.1483)" class="st6" cx="280.4" cy="127.6" rx="36.9" ry="36.9"/>
	<circle class="st7" cx="281.9" cy="127.6" r="36.9"/>
	<circle class="st8" cx="283.6" cy="127.6" r="36.9"/>
	
		<ellipse transform="matrix(0.1644 -0.9864 0.9864 0.1644 112.5038 387.9816)" class="st9" cx="285.3" cy="127.6" rx="36.9" ry="36.9"/>
	<circle class="st10" cx="286.9" cy="127.6" r="36.9"/>
	<circle class="st11" cx="288.5" cy="127.6" r="36.9"/>
	
		<ellipse transform="matrix(0.1644 -0.9864 0.9864 0.1644 116.6819 392.9135)" class="st12" cx="290.3" cy="127.6" rx="36.9" ry="36.9"/>
	
		<ellipse transform="matrix(0.1644 -0.9864 0.9864 0.1644 118.0189 394.4918)" class="st13" cx="291.9" cy="127.6" rx="36.9" ry="36.9"/>
	<circle class="st14" cx="293.4" cy="127.6" r="36.9"/>
	<circle class="st15" cx="295.1" cy="127.6" r="36.9"/>
	
		<ellipse transform="matrix(0.1644 -0.9864 0.9864 0.1644 122.1134 399.3251)" class="st16" cx="296.8" cy="127.6" rx="36.9" ry="36.9"/>
	<circle class="st17" cx="298.4" cy="127.6" r="36.9"/>
	<circle class="st18" cx="300" cy="127.6" r="36.9"/>
	<circle class="st19" cx="301.6" cy="127.6" r="36.9"/>
	
		<ellipse transform="matrix(0.1644 -0.9864 0.9864 0.1644 127.6284 405.8352)" class="st20" cx="303.4" cy="127.6" rx="36.9" ry="36.9"/>
	
		<ellipse transform="matrix(8.248055e-02 -0.9966 0.9966 8.248055e-02 152.5434 421.0669)" class="st21" cx="304.9" cy="127.7" rx="36.9" ry="36.9"/>
	
		<ellipse transform="matrix(8.248055e-02 -0.9966 0.9966 8.248055e-02 154.1032 422.7611)" class="st22" cx="306.6" cy="127.7" rx="36.9" ry="36.9"/>
	<ellipse class="st23" cx="308.3" cy="127.7" rx="36.9" ry="36.9"/>
	
		<ellipse transform="matrix(8.248055e-02 -0.9966 0.9966 8.248055e-02 157.131 426.0499)" class="st24" cx="309.9" cy="127.7" rx="36.9" ry="36.9"/>
	
		<ellipse transform="matrix(8.248055e-02 -0.9966 0.9966 8.248055e-02 158.599 427.6444)" class="st25" cx="311.5" cy="127.7" rx="36.9" ry="36.9"/>
	
		<ellipse transform="matrix(8.248055e-02 -0.9966 0.9966 8.248055e-02 160.0671 429.239)" class="st26" cx="313.1" cy="127.7" rx="36.9" ry="36.9"/>
	<ellipse class="st27" cx="314.9" cy="127.7" rx="36.9" ry="36.9"/>
	
		<ellipse transform="matrix(8.248055e-02 -0.9966 0.9966 8.248055e-02 163.0949 432.5277)" class="st28" cx="316.4" cy="127.7" rx="36.9" ry="36.9"/>
	
		<ellipse transform="matrix(8.248055e-02 -0.9966 0.9966 8.248055e-02 164.6547 434.222)" class="st29" cx="318.1" cy="127.7" rx="36.9" ry="36.9"/>
	<ellipse class="st30" cx="319.8" cy="127.7" rx="36.9" ry="36.9"/>
	<ellipse class="st31" cx="321.4" cy="127.7" rx="36.9" ry="36.9"/>
	
		<ellipse transform="matrix(8.248055e-02 -0.9966 0.9966 8.248055e-02 169.1505 439.1053)" class="st32" cx="323" cy="127.7" rx="36.9" ry="36.9"/>
	
		<ellipse transform="matrix(8.248055e-02 -0.9966 0.9966 8.248055e-02 170.6185 440.6998)" class="st33" cx="324.6" cy="127.7" rx="36.9" ry="36.9"/>
	<ellipse class="st34" cx="326.4" cy="127.7" rx="36.9" ry="36.9"/>
	
		<ellipse transform="matrix(8.248055e-02 -0.9966 0.9966 8.248055e-02 173.6463 443.9886)" class="st35" cx="327.9" cy="127.7" rx="36.9" ry="36.9"/>
	
		<ellipse transform="matrix(8.248055e-02 -0.9966 0.9966 8.248055e-02 175.1144 445.5831)" class="st36" cx="329.5" cy="127.7" rx="36.9" ry="36.9"/>
	<ellipse class="st37" cx="331.2" cy="127.7" rx="36.9" ry="36.9"/>
	<circle class="st38" cx="332.8" cy="127.8" r="36.9"/>
	<ellipse class="st39" cx="334.5" cy="127.7" rx="36.9" ry="36.9"/>
	<circle class="st40" cx="336.1" cy="127.8" r="36.9"/>
	<ellipse class="st41" cx="337.8" cy="127.8" rx="36.9" ry="36.9"/>
	<circle class="st42" cx="339.4" cy="127.8" r="36.9"/>
	<ellipse class="st43" cx="341.1" cy="127.7" rx="36.9" ry="36.9"/>
	<circle class="st44" cx="342.7" cy="127.8" r="36.9"/>
	<ellipse class="st45" cx="344.4" cy="127.9" rx="36.9" ry="36.9"/>
	<ellipse class="st46" cx="346" cy="127.8" rx="36.9" ry="36.9"/>
	<circle class="st47" cx="347.6" cy="127.8" r="36.9"/>
	<ellipse class="st48" cx="349.3" cy="127.7" rx="36.9" ry="36.9"/>
	<ellipse class="st49" cx="350.9" cy="127.8" rx="36.9" ry="36.9"/>
	<circle class="st50" cx="352.6" cy="127.8" r="36.9"/>
	<circle class="st51" cx="354.2" cy="127.8" r="36.9"/>
	
		<ellipse transform="matrix(0.1602 -0.9871 0.9871 0.1602 172.6662 458.6797)" class="st52" cx="355.9" cy="127.9" rx="36.9" ry="36.9"/>
	<circle class="st53" cx="357.5" cy="127.8" r="36.9"/>
	<ellipse class="st54" cx="359.1" cy="127.9" rx="36.9" ry="36.9"/>
	<circle class="st55" cx="360.8" cy="127.9" r="36.9"/>
	<ellipse class="st56" cx="362.6" cy="127.8" rx="36.9" ry="36.9"/>
	<circle class="st57" cx="364.1" cy="127.9" r="36.9"/>
	<ellipse class="st58" cx="365.7" cy="127.9" rx="36.9" ry="36.9"/>
	<ellipse class="st59" cx="367.4" cy="127.9" rx="36.9" ry="36.9"/>
	
		<ellipse transform="matrix(0.1602 -0.9871 0.9871 0.1602 183.717 471.6045)" class="st60" cx="369" cy="127.8" rx="36.9" ry="36.9"/>
	<ellipse class="st61" cx="370.7" cy="127.9" rx="36.9" ry="36.9"/>
	<ellipse class="st62" cx="372.3" cy="127.9" rx="36.9" ry="36.9"/>
	<ellipse class="st63" cx="374" cy="127.9" rx="36.9" ry="36.9"/>
	<ellipse class="st64" cx="375.5" cy="128" rx="36.9" ry="36.9"/>
	<ellipse class="st65" cx="377.2" cy="127.9" rx="36.9" ry="36.9"/>
	<ellipse class="st66" cx="378.8" cy="127.9" rx="36.9" ry="36.9"/>
	<ellipse class="st67" cx="380.5" cy="127.8" rx="36.9" ry="36.9"/>
	<ellipse class="st68" cx="382.1" cy="127.9" rx="36.9" ry="36.9"/>
	<ellipse class="st69" cx="383.7" cy="128" rx="36.9" ry="36.9"/>
	<ellipse class="st70" cx="385.4" cy="127.9" rx="36.9" ry="36.9"/>
	<ellipse class="st71" cx="387.1" cy="128" rx="36.9" ry="36.9"/>
	<ellipse class="st72" cx="388.6" cy="127.9" rx="36.9" ry="36.9"/>
	<ellipse class="st73" cx="390.4" cy="128" rx="36.9" ry="36.9"/>
	<ellipse class="st74" cx="392" cy="127.9" rx="36.9" ry="36.9"/>
	<ellipse class="st75" cx="393.7" cy="128" rx="36.9" ry="36.9"/>
	<ellipse class="st76" cx="395.3" cy="127.9" rx="36.9" ry="36.9"/>
	<ellipse class="st77" cx="397" cy="128" rx="36.9" ry="36.9"/>
	<ellipse class="st78" cx="398.6" cy="127.9" rx="36.9" ry="36.9"/>
	<ellipse class="st79" cx="400.2" cy="128" rx="36.9" ry="36.9"/>
	<ellipse class="st80" cx="401.8" cy="128" rx="36.9" ry="36.9"/>
	<circle class="st81" cx="403.5" cy="128" r="36.9"/>
	<circle class="st82" cx="405.1" cy="128" r="36.9"/>
	<circle class="st83" cx="406.7" cy="128" r="36.9"/>
	<circle class="st84" cx="408.4" cy="128" r="36.9"/>
	<circle class="st85" cx="410" cy="128" r="36.9"/>
	<circle class="st86" cx="411.7" cy="128" r="36.9"/>
	<circle class="st87" cx="413.3" cy="128" r="36.9"/>
	<circle class="st88" cx="414.9" cy="128" r="36.9"/>
	<circle class="st89" cx="416.6" cy="128" r="36.9"/>
	<circle class="st90" cx="418.2" cy="128.1" r="36.9"/>
	<circle class="st91" cx="419.9" cy="128.1" r="36.9"/>
	<circle class="st92" cx="421.5" cy="128.1" r="36.9"/>
	<circle class="st93" cx="423.2" cy="128.1" r="36.9"/>
	<circle class="st94" cx="424.8" cy="128.1" r="36.9"/>
	<circle class="st95" cx="426.4" cy="128.1" r="36.9"/>
	<circle class="st96" cx="428.1" cy="128.1" r="36.9"/>
	<circle class="st97" cx="429.7" cy="128.1" r="36.9"/>
	<circle class="st98" cx="431.4" cy="128.1" r="36.9"/>
	<circle class="st99" cx="433" cy="128.1" r="36.9"/>
	<circle class="st100" cx="434.7" cy="128.1" r="36.9"/>
	<circle class="st101" cx="436.3" cy="128.1" r="36.9"/>
	<circle class="st102" cx="437.9" cy="128.1" r="36.9"/>
	<circle class="st103" cx="439.6" cy="128.1" r="36.9"/>
	<circle class="st104" cx="441.2" cy="128.1" r="36.9"/>
	<circle class="st105" cx="442.9" cy="128.1" r="36.9"/>
	<circle class="st106" cx="444.5" cy="128.1" r="36.9"/>
	<circle class="st107" cx="446.1" cy="128.2" r="36.9"/>
	<circle class="st108" cx="447.8" cy="128.2" r="36.9"/>
	<circle class="st109" cx="449.4" cy="128.2" r="36.9"/>
	<circle class="st110" cx="451.1" cy="128.2" r="36.9"/>
	<circle class="st111" cx="452.7" cy="128.2" r="36.9"/>
	<circle class="st112" cx="454.4" cy="128.2" r="36.9"/>
	<circle class="st113" cx="456" cy="128.2" r="36.9"/>
	<circle class="st114" cx="457.6" cy="128.2" r="36.9"/>
	<circle class="st115" cx="459.3" cy="128.2" r="36.9"/>
	<circle class="st116" cx="460.9" cy="128.2" r="36.9"/>
	<circle class="st117" cx="462.6" cy="128.2" r="36.9"/>
	<circle class="st118" cx="464.2" cy="128.2" r="36.9"/>
	<circle class="st119" cx="465.9" cy="128.2" r="36.9"/>
	<circle class="st120" cx="467.5" cy="128.2" r="36.9"/>
	<circle class="st121" cx="469.1" cy="128.2" r="36.9"/>
	<circle class="st122" cx="470.8" cy="128.2" r="36.9"/>
	<circle class="st123" cx="472.4" cy="128.2" r="36.9"/>
	<circle class="st124" cx="474.1" cy="128.2" r="36.9"/>
	<circle class="st125" cx="475.7" cy="128.3" r="36.9"/>
	<circle class="st126" cx="477.4" cy="128.3" r="36.9"/>
	<circle class="st127" cx="479" cy="128.3" r="36.9"/>
	<circle class="st128" cx="480.6" cy="128.3" r="36.9"/>
	<circle class="st129" cx="482.3" cy="128.3" r="36.9"/>
	<circle class="st130" cx="483.9" cy="128.3" r="36.9"/>
	<circle class="st131" cx="485.6" cy="128.3" r="36.9"/>
	<circle class="st132" cx="487.2" cy="128.3" r="36.9"/>
	<circle class="st133" cx="488.8" cy="128.3" r="36.9"/>
	<circle class="st134" cx="490.5" cy="128.3" r="36.9"/>
	<circle class="st135" cx="492.1" cy="128.3" r="36.9"/>
	<circle class="st136" cx="493.8" cy="128.3" r="36.9"/>
	<circle class="st137" cx="495.4" cy="128.3" r="36.9"/>
	<circle class="st138" cx="497" cy="128.3" r="36.9"/>
	<circle class="st139" cx="498.7" cy="128.3" r="36.9"/>
	<circle class="st140" cx="500.3" cy="128.3" r="36.9"/>
	<circle class="st141" cx="502" cy="128.3" r="36.9"/>
	<circle class="st142" cx="503.6" cy="128.4" r="36.9"/>
	<circle class="st143" cx="505.3" cy="128.4" r="36.9"/>
	<circle class="st144" cx="506.9" cy="128.4" r="36.9"/>
	<circle class="st145" cx="508.5" cy="128.4" r="36.9"/>
	<circle class="st146" cx="510.2" cy="128.4" r="36.9"/>
	<circle class="st147" cx="511.8" cy="128.4" r="36.9"/>
	<circle class="st148" cx="513.5" cy="128.4" r="36.9"/>
	<circle class="st149" cx="515.1" cy="128.4" r="36.9"/>
	<circle class="st150" cx="516.8" cy="128.4" r="36.9"/>
	<circle class="st151" cx="518.4" cy="128.4" r="36.9"/>
	<circle class="st152" cx="520" cy="128.4" r="36.9"/>
	<circle class="st153" cx="521.7" cy="128.4" r="36.9"/>
	<circle class="st154" cx="523.3" cy="128.4" r="36.9"/>
	<circle class="st155" cx="525" cy="128.4" r="36.9"/>
	<circle class="st156" cx="526.6" cy="128.4" r="36.9"/>
	<circle class="st157" cx="528.3" cy="128.4" r="36.9"/>
	<circle class="st158" cx="529.9" cy="128.4" r="36.9"/>
	<circle class="st159" cx="531.5" cy="128.5" r="36.9"/>
	<circle class="st160" cx="533.2" cy="128.5" r="36.9"/>
	<circle class="st161" cx="534.8" cy="128.5" r="36.9"/>
	<circle class="st162" cx="536.5" cy="128.5" r="36.9"/>
	<circle class="st163" cx="538.1" cy="128.5" r="36.9"/>
	<circle class="st164" cx="539.7" cy="128.5" r="36.9"/>
	<circle class="st165" cx="541.4" cy="128.5" r="36.9"/>
	<circle class="st166" cx="543" cy="128.5" r="36.9"/>
	<circle class="st167" cx="544.7" cy="128.5" r="36.9"/>
	<circle class="st168" cx="546.3" cy="128.5" r="36.9"/>
	<circle class="st169" cx="548" cy="128.5" r="36.9"/>
	<circle class="st170" cx="549.6" cy="128.5" r="36.9"/>
	<circle class="st171" cx="551.2" cy="128.5" r="36.9"/>
	<circle class="st172" cx="552.9" cy="128.5" r="36.9"/>
	<circle class="st173" cx="554.5" cy="128.5" r="36.9"/>
	<circle class="st174" cx="556.2" cy="128.5" r="36.9"/>
	<circle class="st175" cx="557.8" cy="128.5" r="36.9"/>
	<circle class="st176" cx="559.4" cy="128.6" r="36.9"/>
	<circle class="st177" cx="561.1" cy="128.6" r="36.9"/>
	<circle class="st178" cx="562.7" cy="128.6" r="36.9"/>
	<circle class="st179" cx="564.4" cy="128.6" r="36.9"/>
	<circle class="st180" cx="566" cy="128.6" r="36.9"/>
	<circle class="st181" cx="567.7" cy="128.6" r="36.9"/>
	<circle class="st182" cx="569.3" cy="128.6" r="36.9"/>
	<circle class="st183" cx="570.9" cy="128.6" r="36.9"/>
	<circle class="st184" cx="572.6" cy="128.6" r="36.9"/>
	<circle class="st185" cx="574.2" cy="128.6" r="36.9"/>
	<circle class="st186" cx="575.9" cy="128.6" r="36.9"/>
	<circle class="st187" cx="577.5" cy="128.6" r="36.9"/>
	<circle class="st188" cx="579.2" cy="128.6" r="36.9"/>
	<circle class="st189" cx="580.8" cy="128.6" r="36.9"/>
	<circle class="st190" cx="582.4" cy="128.6" r="36.9"/>
	<circle class="st191" cx="584.1" cy="128.6" r="36.9"/>
	<circle class="st192" cx="585.7" cy="128.6" r="36.9"/>
	<circle class="st193" cx="587.4" cy="128.6" r="36.9"/>
	<circle class="st194" cx="589" cy="128.7" r="36.9"/>
	<circle class="st195" cx="590.6" cy="128.7" r="36.9"/>
	<circle class="st196" cx="592.3" cy="128.7" r="36.9"/>
	<circle class="st197" cx="593.9" cy="128.7" r="36.9"/>
	<circle class="st198" cx="595.6" cy="128.7" r="36.9"/>
	<circle class="st199" cx="597.2" cy="128.7" r="36.9"/>
	<circle class="st200" cx="598.9" cy="128.7" r="36.9"/>
	<circle class="st201" cx="600.5" cy="128.7" r="36.9"/>
	<circle class="st202" cx="602.1" cy="128.7" r="36.9"/>
	<circle class="st203" cx="603.8" cy="128.7" r="36.9"/>
	<circle class="st204" cx="605.4" cy="128.7" r="36.9"/>
	<circle class="st205" cx="607.1" cy="128.7" r="36.9"/>
	<circle class="st206" cx="608.7" cy="128.7" r="36.9"/>
	<circle class="st207" cx="610.4" cy="128.7" r="36.9"/>
	<circle class="st208" cx="612" cy="128.7" r="36.9"/>
	<circle class="st209" cx="613.6" cy="128.7" r="36.9"/>
	<circle class="st210" cx="615.3" cy="128.7" r="36.9"/>
	<circle class="st211" cx="616.9" cy="128.8" r="36.9"/>
	<circle class="st212" cx="618.6" cy="128.8" r="36.9"/>
	<circle class="st213" cx="620.2" cy="128.8" r="36.9"/>
	<circle class="st214" cx="621.9" cy="128.8" r="36.9"/>
	<circle class="st215" cx="623.5" cy="128.8" r="36.9"/>
	<circle class="st216" cx="625.1" cy="128.8" r="36.9"/>
	<circle class="st217" cx="626.8" cy="128.8" r="36.9"/>
	<circle class="st218" cx="628.4" cy="128.8" r="36.9"/>
	<circle class="st219" cx="630.1" cy="128.8" r="36.9"/>
	<circle class="st220" cx="631.7" cy="128.8" r="36.9"/>
	<circle class="st221" cx="633.3" cy="128.8" r="36.9"/>
	<circle class="st222" cx="635" cy="128.8" r="36.9"/>
	<circle class="st223" cx="636.6" cy="128.8" r="36.9"/>
	<circle class="st224" cx="638.3" cy="128.8" r="36.9"/>
	<circle class="st225" cx="639.9" cy="128.8" r="36.9"/>
	<circle class="st226" cx="641.6" cy="128.8" r="36.9"/>
	
		<ellipse transform="matrix(0.4897 -0.8719 0.8719 0.4897 215.9374 626.5612)" class="st227" cx="643.2" cy="128.8" rx="36.9" ry="36.9"/>
	
		<ellipse transform="matrix(0.4897 -0.8719 0.8719 0.4897 216.6686 628.0047)" class="st228" cx="644.8" cy="128.9" rx="36.9" ry="36.9"/>
	
		<ellipse transform="matrix(0.4897 -0.8719 0.8719 0.4897 217.5361 629.4869)" class="st229" cx="646.5" cy="128.9" rx="36.9" ry="36.9"/>
	<circle class="st230" cx="648.1" cy="128.9" r="36.9"/>
	
		<ellipse transform="matrix(0.4897 -0.8719 0.8719 0.4897 219.22 632.3641)" class="st231" cx="649.8" cy="128.9" rx="36.9" ry="36.9"/>
	<circle class="st232" cx="651.4" cy="128.9" r="36.9"/>
	<circle class="st233" cx="653.1" cy="128.9" r="36.9"/>
	
		<ellipse transform="matrix(0.4897 -0.8719 0.8719 0.4897 221.7203 636.6364)" class="st234" cx="654.7" cy="128.9" rx="36.9" ry="36.9"/>
	
		<ellipse transform="matrix(0.4897 -0.8719 0.8719 0.4897 222.5366 638.0314)" class="st235" cx="656.3" cy="128.9" rx="36.9" ry="36.9"/>
	
		<ellipse transform="matrix(0.4897 -0.8719 0.8719 0.4897 223.404 639.5137)" class="st236" cx="658" cy="128.9" rx="36.9" ry="36.9"/>
	<circle class="st237" cx="659.6" cy="128.9" r="36.9"/>
	
		<ellipse transform="matrix(0.4897 -0.8719 0.8719 0.4897 225.088 642.3909)" class="st238" cx="661.3" cy="128.9" rx="36.9" ry="36.9"/>
	<circle class="st239" cx="662.9" cy="128.9" r="36.9"/>
	
		<ellipse transform="matrix(0.4897 -0.8719 0.8719 0.4897 226.7208 645.1809)" class="st240" cx="664.5" cy="128.9" rx="36.9" ry="36.9"/>
	
		<ellipse transform="matrix(0.4897 -0.8719 0.8719 0.4897 227.5882 646.6632)" class="st241" cx="666.2" cy="128.9" rx="36.9" ry="36.9"/>
	
		<ellipse transform="matrix(0.4897 -0.8719 0.8719 0.4897 228.4046 648.0583)" class="st242" cx="667.8" cy="128.9" rx="36.9" ry="36.9"/>
	
		<ellipse transform="matrix(0.4897 -0.8719 0.8719 0.4897 229.2721 649.5405)" class="st243" cx="669.5" cy="128.9" rx="36.9" ry="36.9"/>
	<circle class="st244" cx="671.1" cy="128.9" r="36.9"/>
	
		<ellipse transform="matrix(0.4897 -0.8719 0.8719 0.4897 230.9049 652.3304)" class="st245" cx="672.7" cy="128.9" rx="36.9" ry="36.9"/>
	<circle class="st246" cx="674.4" cy="129" r="36.9"/>
	
		<ellipse transform="matrix(0.4897 -0.8719 0.8719 0.4897 232.5015 655.2587)" class="st247" cx="676" cy="129" rx="36.9" ry="36.9"/>
	
		<ellipse transform="matrix(0.4897 -0.8719 0.8719 0.4897 233.3689 656.741)" class="st248" cx="677.7" cy="129" rx="36.9" ry="36.9"/>
	
		<ellipse transform="matrix(0.4897 -0.8719 0.8719 0.4897 234.1855 658.1359)" class="st249" cx="679.3" cy="129" rx="36.9" ry="36.9"/>
	
		<ellipse transform="matrix(0.4897 -0.8719 0.8719 0.4897 235.0529 659.6182)" class="st250" cx="681" cy="129" rx="36.9" ry="36.9"/>
	
		<ellipse transform="matrix(0.4897 -0.8719 0.8719 0.4897 235.8693 661.0132)" class="st251" cx="682.6" cy="129" rx="36.9" ry="36.9"/>
	
		<ellipse transform="matrix(0.4897 -0.8719 0.8719 0.4897 236.7367 662.4955)" class="st252" cx="684.3" cy="129" rx="36.9" ry="36.9"/>
	
		<ellipse transform="matrix(0.4897 -0.8719 0.8719 0.4897 237.5531 663.8906)" class="st253" cx="685.9" cy="129" rx="36.9" ry="36.9"/>
	
		<ellipse transform="matrix(0.4897 -0.8719 0.8719 0.4897 238.3695 665.2855)" class="st254" cx="687.5" cy="129" rx="36.9" ry="36.9"/>
	
		<ellipse transform="matrix(0.4897 -0.8719 0.8719 0.4897 239.237 666.7677)" class="st255" cx="689.2" cy="129" rx="36.9" ry="36.9"/>
	
		<ellipse transform="matrix(0.4897 -0.8719 0.8719 0.4897 240.0534 668.1627)" class="st256" cx="690.8" cy="129" rx="36.9" ry="36.9"/>
</g>
<text transform="matrix(1 0 0 1 67.9039 143.4125)" class="st257 st258">Republic</text>
<text transform="matrix(1 0 0 1 744.2745 143.412)" class="st257 st258">Democracy</text>
</svg>
