<?xml version="1.0" encoding="utf-8"?>
<!-- Generator: Adobe Illustrator 26.0.2, SVG Export Plug-In . SVG Version: 6.00 Build 0)  -->
<svg version="1.1" id="图层_1" xmlns="http://www.w3.org/2000/svg" xmlns:xlink="http://www.w3.org/1999/xlink" x="0px" y="0px"
	 viewBox="0 0 632.9 256.5" style="enable-background:new 0 0 632.9 256.5;" xml:space="preserve">
<style type="text/css">
	.st0{fill:#E9E8E2;stroke:#000000;stroke-miterlimit:10;}
	.st1{fill:#E9E8E2;}
	.st2{fill:#E8E7E1;}
	.st3{fill:#E7E6E0;}
	.st4{fill:#E6E5DF;}
	.st5{fill:#E5E4DE;}
	.st6{fill:#E4E3DD;}
	.st7{fill:#E3E2DC;}
	.st8{fill:#E2E1DB;}
	.st9{fill:#E1E0DA;}
	.st10{fill:#E0DFD9;}
	.st11{fill:#DFDED8;}
	.st12{fill:#DEDDD7;}
	.st13{fill:#DDDCD7;}
	.st14{fill:#DCDBD6;}
	.st15{fill:#DBDAD5;}
	.st16{fill:#DAD9D4;}
	.st17{fill:#D9D8D3;}
	.st18{fill:#D8D7D2;}
	.st19{fill:#D7D6D1;}
	.st20{fill:#D6D5D0;}
	.st21{fill:#D5D4CF;}
	.st22{fill:#D4D3CE;}
	.st23{fill:#D3D2CD;}
	.st24{fill:#D2D1CC;}
	.st25{fill:#D1D0CB;}
	.st26{fill:#D0CFCA;}
	.st27{fill:#CFCEC9;}
	.st28{fill:#CECDC8;}
	.st29{fill:#CDCCC7;}
	.st30{fill:#CCCBC6;}
	.st31{fill:#CBCAC5;}
	.st32{fill:#CAC9C4;}
	.st33{fill:#C9C8C3;}
	.st34{fill:#C8C7C2;}
	.st35{fill:#C7C6C1;}
	.st36{fill:#C6C5C1;}
	.st37{fill:#C5C4C0;}
	.st38{fill:#C4C3BF;}
	.st39{fill:#C3C2BE;}
	.st40{fill:#C2C1BD;}
	.st41{fill:#C1C0BC;}
	.st42{fill:#C0BFBB;}
	.st43{fill:#BFBEBA;}
	.st44{fill:#BEBDB9;}
	.st45{fill:#BDBCB8;}
	.st46{fill:#BCBBB7;}
	.st47{fill:#BBBAB6;}
	.st48{fill:#BAB9B5;}
	.st49{fill:#B9B8B4;}
	.st50{fill:#B8B7B3;}
	.st51{fill:#B7B6B2;}
	.st52{fill:#B6B5B1;}
	.st53{fill:#B5B4B0;}
	.st54{fill:#B4B3AF;}
	.st55{fill:#B3B2AE;}
	.st56{fill:#B2B1AD;}
	.st57{fill:#B1B0AC;}
	.st58{fill:#B0AFAB;}
	.st59{fill:#AFAEAB;}
	.st60{fill:#AEADAA;}
	.st61{fill:#ADACA9;}
	.st62{fill:#ACABA8;}
	.st63{fill:#ABAAA7;}
	.st64{fill:#AAA9A6;}
	.st65{fill:#A9A8A5;}
	.st66{fill:#A8A7A4;}
	.st67{fill:#A7A6A3;}
	.st68{fill:#A6A5A2;}
	.st69{fill:#A5A4A1;}
	.st70{fill:#A4A3A0;}
	.st71{fill:#A3A29F;}
	.st72{fill:#A2A19E;}
	.st73{fill:#A1A09D;}
	.st74{fill:#A09F9C;}
	.st75{fill:#9F9E9B;}
	.st76{fill:#9E9D9A;}
	.st77{fill:#9D9C99;}
	.st78{fill:#9C9B98;}
	.st79{fill:#9B9A97;}
	.st80{fill:#9A9996;}
	.st81{fill:#999996;}
	.st82{fill:#989895;}
	.st83{fill:#979794;}
	.st84{fill:#969693;}
	.st85{fill:#959592;}
	.st86{fill:#949491;}
	.st87{fill:#939390;}
	.st88{fill:#92928F;}
	.st89{fill:#91918E;}
	.st90{fill:#90908D;}
	.st91{fill:#8F8F8C;}
	.st92{fill:#8E8E8B;}
	.st93{fill:#8D8D8A;}
	.st94{fill:#8C8C89;}
	.st95{fill:#8B8B88;}
	.st96{fill:#8A8A87;}
	.st97{fill:#898986;}
	.st98{fill:#888885;}
	.st99{fill:#878784;}
	.st100{fill:#868683;}
	.st101{fill:#858582;}
	.st102{fill:#848481;}
	.st103{fill:#838380;}
	.st104{fill:#828280;}
	.st105{fill:#81817F;}
	.st106{fill:#80807E;}
	.st107{fill:#7F7F7D;}
	.st108{fill:#7E7E7C;}
	.st109{fill:#7D7D7B;}
	.st110{fill:#7C7C7A;}
	.st111{fill:#7B7B79;}
	.st112{fill:#7A7A78;}
	.st113{fill:#797977;}
	.st114{fill:#787876;}
	.st115{fill:#777775;}
	.st116{fill:#767674;}
	.st117{fill:#757573;}
	.st118{fill:#747472;}
	.st119{fill:#737371;}
	.st120{fill:#727270;}
	.st121{fill:#71716F;}
	.st122{fill:#70706E;}
	.st123{fill:#6F6F6D;}
	.st124{fill:#6E6E6C;}
	.st125{fill:#6D6D6B;}
	.st126{fill:#6C6C6A;}
	.st127{fill:#6B6B6A;}
	.st128{fill:#6A6A69;}
	.st129{fill:#696968;}
	.st130{fill:#686867;}
	.st131{fill:#676766;}
	.st132{fill:#666665;}
	.st133{fill:#656564;}
	.st134{fill:#646463;}
	.st135{fill:#636362;}
	.st136{fill:#626261;}
	.st137{fill:#616160;}
	.st138{fill:#60605F;}
	.st139{fill:#5F5F5E;}
	.st140{fill:#5E5E5D;}
	.st141{fill:#5D5D5C;}
	.st142{fill:#5C5C5B;}
	.st143{fill:#5B5B5A;}
	.st144{fill:#5A5A59;}
	.st145{fill:#595958;}
	.st146{fill:#585857;}
	.st147{fill:#575756;}
	.st148{fill:#565655;}
	.st149{fill:#555554;}
	.st150{fill:#545454;}
	.st151{fill:#535353;}
	.st152{fill:#525252;}
	.st153{fill:#515151;}
	.st154{fill:#505050;}
	.st155{fill:#4F4F4F;}
	.st156{fill:#4E4E4E;}
	.st157{fill:#4D4D4D;}
	.st158{fill:#4C4C4C;}
	.st159{fill:#4B4B4B;}
	.st160{fill:#4A4A4A;}
	.st161{fill:#494949;}
	.st162{font-family:'MicrosoftSansSerif';}
	.st163{font-size:48px;}
</style>
<g>
	<path class="st0" d="M9.9,0H623c5.5,0,9.9,4.4,9.9,9.9v236.7c0,5.5-4.4,9.9-9.9,9.9H9.9c-5.5,0-9.9-4.4-9.9-9.9V10
		C0,4.5,4.4,0,9.9,0z"/>
	
		<ellipse transform="matrix(7.156849e-03 -1 1 7.156849e-03 4.0252 200.3452)" class="st1" cx="102.9" cy="98.1" rx="35" ry="36.9"/>
	<ellipse transform="matrix(7.153756e-03 -1 1 7.153756e-03 6.709 203.0454)" class="st2" cx="105.6" cy="98.1" rx="35" ry="36.9"/>
	
		<ellipse transform="matrix(7.155819e-03 -1 1 7.155819e-03 9.4517 205.6462)" class="st3" cx="108.3" cy="98.1" rx="35" ry="36.9"/>
	
		<ellipse transform="matrix(7.154217e-03 -1 1 7.154217e-03 12.1353 208.3464)" class="st4" cx="111" cy="98.1" rx="35.1" ry="36.9"/>
	
		<ellipse transform="matrix(7.156933e-03 -1 1 7.156933e-03 14.8188 211.0457)" class="st5" cx="113.7" cy="98.1" rx="35.1" ry="36.9"/>
	
		<ellipse transform="matrix(7.153674e-03 -1 1 7.153674e-03 17.6012 213.805)" class="st6" cx="116.5" cy="98" rx="35.1" ry="36.9"/>
	
		<ellipse transform="matrix(7.156933e-03 -1 1 7.156933e-03 20.3436 216.6041)" class="st7" cx="119.3" cy="98.1" rx="35.1" ry="36.9"/>
	
		<ellipse transform="matrix(7.155304e-03 -1 1 7.155304e-03 23.0281 219.2648)" class="st8" cx="121.9" cy="98" rx="35.1" ry="36.9"/>
	
		<ellipse transform="matrix(7.155304e-03 -1 1 7.155304e-03 25.7119 221.9645)" class="st9" cx="124.6" cy="98" rx="35.1" ry="36.9"/>
	
		<ellipse transform="matrix(7.155304e-03 -1 1 7.155304e-03 28.3948 224.7038)" class="st10" cx="127.4" cy="98.1" rx="35.2" ry="36.9"/>
	
		<ellipse transform="matrix(7.155304e-03 -1 1 7.155304e-03 31.0397 227.3633)" class="st11" cx="130" cy="98.1" rx="35.2" ry="36.9"/>
	
		<ellipse transform="matrix(7.155304e-03 -1 1 7.155304e-03 33.7232 230.0632)" class="st12" cx="132.7" cy="98" rx="35.2" ry="36.9"/>
	
		<ellipse transform="matrix(7.155304e-03 -1 1 7.155304e-03 36.4075 232.7232)" class="st13" cx="135.4" cy="98" rx="35.2" ry="36.9"/>
	
		<ellipse transform="matrix(7.155304e-03 -1 1 7.155304e-03 39.0914 235.4232)" class="st14" cx="138.1" cy="98" rx="35.2" ry="36.9"/>
	
		<ellipse transform="matrix(7.155304e-03 -1 1 7.155304e-03 41.7356 238.122)" class="st15" cx="140.8" cy="98" rx="35.2" ry="36.9"/>
	
		<ellipse transform="matrix(7.155304e-03 -1 1 7.155304e-03 44.4191 240.8218)" class="st16" cx="143.5" cy="98" rx="35.2" ry="36.9"/>
	
		<ellipse transform="matrix(7.155304e-03 -1 1 7.155304e-03 47.1026 243.5217)" class="st17" cx="146.2" cy="98" rx="35.3" ry="37"/>
	<ellipse transform="matrix(7.155304e-03 -1 1 7.155304e-03 49.784 246.3804)" class="st18" cx="149" cy="98.1" rx="35.3" ry="37"/>
	
		<ellipse transform="matrix(7.155304e-03 -1 1 7.155304e-03 52.4283 249.0792)" class="st19" cx="151.6" cy="98.1" rx="35.3" ry="37"/>
	
		<ellipse transform="matrix(7.155304e-03 -1 1 7.155304e-03 55.1122 251.779)" class="st20" cx="154.3" cy="98.1" rx="35.3" ry="37"/>
	
		<ellipse transform="matrix(7.155304e-03 -1 1 7.155304e-03 57.7963 254.4396)" class="st21" cx="157" cy="98.1" rx="35.3" ry="37"/>
	
		<ellipse transform="matrix(7.155304e-03 -1 1 7.155304e-03 60.4799 257.1391)" class="st22" cx="159.7" cy="98.1" rx="35.3" ry="37"/>
	
		<ellipse transform="matrix(7.157131e-03 -1 1 7.157131e-03 63.1229 259.8775)" class="st23" cx="162.4" cy="98.2" rx="35.4" ry="37"/>
	
		<ellipse transform="matrix(7.156515e-03 -1 1 7.156515e-03 65.8076 262.5378)" class="st24" cx="165.1" cy="98.1" rx="35.4" ry="37"/>
	
		<ellipse transform="matrix(7.155304e-03 -1 1 7.155304e-03 68.4915 265.2376)" class="st25" cx="167.8" cy="98.1" rx="35.4" ry="37"/>
	
		<ellipse transform="matrix(7.156529e-03 -1 1 7.156529e-03 71.1756 267.8977)" class="st26" cx="170.5" cy="98.1" rx="35.4" ry="37"/>
	
		<ellipse transform="matrix(7.155304e-03 -1 1 7.155304e-03 73.8199 270.5971)" class="st27" cx="173.2" cy="98.1" rx="35.4" ry="37"/>
	
		<ellipse transform="matrix(7.155304e-03 -1 1 7.155304e-03 76.5038 273.2968)" class="st28" cx="175.9" cy="98.1" rx="35.4" ry="37"/>
	
		<ellipse transform="matrix(7.155304e-03 -1 1 7.155304e-03 79.1879 275.957)" class="st29" cx="178.6" cy="98.1" rx="35.5" ry="37"/>
	
		<ellipse transform="matrix(7.155304e-03 -1 1 7.155304e-03 81.871 278.6962)" class="st30" cx="181.3" cy="98.1" rx="35.5" ry="37"/>
	
		<ellipse transform="matrix(7.156576e-03 -1 1 7.156576e-03 84.5156 281.3557)" class="st31" cx="183.9" cy="98.1" rx="35.5" ry="37"/>
	
		<ellipse transform="matrix(7.154023e-03 -1 1 7.154023e-03 87.1996 284.0555)" class="st32" cx="186.6" cy="98.1" rx="35.5" ry="37"/>
	
		<ellipse transform="matrix(7.154006e-03 -1 1 7.154006e-03 89.8835 286.7553)" class="st33" cx="189.3" cy="98.1" rx="35.5" ry="37"/>
	
		<ellipse transform="matrix(7.155304e-03 -1 1 7.155304e-03 92.5676 289.4156)" class="st34" cx="192" cy="98.1" rx="35.5" ry="37"/>
	
		<ellipse transform="matrix(7.153989e-03 -1 1 7.153989e-03 95.3102 292.2152)" class="st35" cx="194.8" cy="98.1" rx="35.6" ry="37"/>
	
		<ellipse transform="matrix(7.156628e-03 -1 1 7.156628e-03 97.9933 294.9149)" class="st36" cx="197.5" cy="98.1" rx="35.6" ry="37.1"/>
	
		<ellipse transform="matrix(7.155304e-03 -1 1 7.155304e-03 100.6772 297.6147)" class="st37" cx="200.2" cy="98.1" rx="35.6" ry="37.1"/>
	
		<ellipse transform="matrix(7.156644e-03 -1 1 7.156644e-03 103.3016 300.2143)" class="st38" cx="202.8" cy="98.1" rx="35.6" ry="37.1"/>
	
		<ellipse transform="matrix(7.155304e-03 -1 1 7.155304e-03 105.846 302.9724)" class="st39" cx="205.5" cy="98.2" rx="35.6" ry="37.1"/>
	
		<ellipse transform="matrix(7.156664e-03 -1 1 7.156664e-03 108.5294 305.6721)" class="st40" cx="208.2" cy="98.2" rx="35.6" ry="37.1"/>
	
		<ellipse transform="matrix(7.155304e-03 -1 1 7.155304e-03 111.214 308.3324)" class="st41" cx="210.9" cy="98.2" rx="35.7" ry="37.1"/>
	
		<ellipse transform="matrix(7.155304e-03 -1 1 7.155304e-03 113.8976 311.0323)" class="st42" cx="213.6" cy="98.2" rx="35.7" ry="37.1"/>
	
		<ellipse transform="matrix(7.155304e-03 -1 1 7.155304e-03 116.6398 313.8711)" class="st43" cx="216.4" cy="98.2" rx="35.7" ry="37.1"/>
	
		<ellipse transform="matrix(7.155304e-03 -1 1 7.155304e-03 119.4218 316.6316)" class="st44" cx="219.2" cy="98.2" rx="35.7" ry="37.1"/>
	
		<ellipse transform="matrix(7.153875e-03 -1 1 7.153875e-03 122.1061 319.3316)" class="st45" cx="221.9" cy="98.2" rx="35.7" ry="37.1"/>
	
		<ellipse transform="matrix(7.152577e-03 -1 1 7.152577e-03 124.8884 322.0903)" class="st46" cx="224.6" cy="98.2" rx="35.7" ry="37.1"/>
	
		<ellipse transform="matrix(7.153855e-03 -1 1 7.153855e-03 127.5322 324.7895)" class="st47" cx="227.3" cy="98.2" rx="35.8" ry="37.1"/>
	
		<ellipse transform="matrix(7.161243e-03 -1 1 7.161243e-03 130.2142 327.4885)" class="st48" cx="230" cy="98.2" rx="35.8" ry="37.1"/>
	
		<ellipse transform="matrix(7.156797e-03 -1 1 7.156797e-03 132.8996 330.1489)" class="st49" cx="232.7" cy="98.1" rx="35.8" ry="37.1"/>
	
		<ellipse transform="matrix(7.158290e-03 -1 1 7.158290e-03 135.5822 332.8882)" class="st50" cx="235.4" cy="98.2" rx="35.8" ry="37.1"/>
	
		<ellipse transform="matrix(7.159783e-03 -1 1 7.159783e-03 138.2266 335.5475)" class="st51" cx="238.1" cy="98.2" rx="35.8" ry="37.1"/>
	
		<ellipse transform="matrix(7.155304e-03 -1 1 7.155304e-03 140.9115 338.2477)" class="st52" cx="240.8" cy="98.2" rx="35.8" ry="37.1"/>
	
		<ellipse transform="matrix(7.155304e-03 -1 1 7.155304e-03 143.5954 340.9475)" class="st53" cx="243.5" cy="98.2" rx="35.9" ry="37.1"/>
	
		<ellipse transform="matrix(7.155304e-03 -1 1 7.155304e-03 146.2796 343.6079)" class="st54" cx="246.2" cy="98.1" rx="35.9" ry="37.1"/>
	
		<ellipse transform="matrix(7.155304e-03 -1 1 7.155304e-03 148.9238 346.3069)" class="st55" cx="248.9" cy="98.2" rx="35.9" ry="37.1"/>
	
		<ellipse transform="matrix(7.155304e-03 -1 1 7.155304e-03 151.6071 349.0065)" class="st56" cx="251.6" cy="98.2" rx="35.9" ry="37.1"/>
	
		<ellipse transform="matrix(7.155304e-03 -1 1 7.155304e-03 154.2908 351.7067)" class="st57" cx="254.3" cy="98.2" rx="35.9" ry="37.1"/>
	
		<ellipse transform="matrix(7.155304e-03 -1 1 7.155304e-03 156.9744 354.4061)" class="st58" cx="257" cy="98.2" rx="35.9" ry="37.1"/>
	
		<ellipse transform="matrix(7.155304e-03 -1 1 7.155304e-03 159.5186 357.1642)" class="st59" cx="259.6" cy="98.3" rx="36" ry="37.2"/>
	
		<ellipse transform="matrix(7.155304e-03 -1 1 7.155304e-03 162.2022 359.8637)" class="st60" cx="262.3" cy="98.2" rx="36" ry="37.2"/>
	<ellipse transform="matrix(7.155304e-03 -1 1 7.155304e-03 164.886 362.564)" class="st61" cx="265" cy="98.2" rx="36" ry="37.2"/>
	
		<ellipse transform="matrix(7.155304e-03 -1 1 7.155304e-03 167.5704 365.2241)" class="st62" cx="267.7" cy="98.2" rx="36" ry="37.2"/>
	
		<ellipse transform="matrix(7.155304e-03 -1 1 7.155304e-03 170.3121 367.8645)" class="st63" cx="270.4" cy="98.2" rx="36" ry="37.2"/>
	
		<ellipse transform="matrix(7.155304e-03 -1 1 7.155304e-03 172.9968 370.5246)" class="st64" cx="273.1" cy="98.1" rx="36" ry="37.2"/>
	
		<ellipse transform="matrix(7.155304e-03 -1 1 7.155304e-03 175.6803 373.2245)" class="st65" cx="275.8" cy="98.1" rx="36" ry="37.2"/>
	
		<ellipse transform="matrix(7.155304e-03 -1 1 7.155304e-03 178.4224 376.0236)" class="st66" cx="278.6" cy="98.2" rx="36.1" ry="37.2"/>
	
		<ellipse transform="matrix(7.155304e-03 -1 1 7.155304e-03 181.1066 378.6836)" class="st67" cx="281.3" cy="98.1" rx="36.1" ry="37.2"/>
	
		<ellipse transform="matrix(7.155304e-03 -1 1 7.155304e-03 183.7905 381.3839)" class="st68" cx="284" cy="98.1" rx="36.1" ry="37.2"/>
	
		<ellipse transform="matrix(7.155304e-03 -1 1 7.155304e-03 186.3749 384.1419)" class="st69" cx="286.6" cy="98.2" rx="36.1" ry="37.2"/>
	
		<ellipse transform="matrix(7.155304e-03 -1 1 7.155304e-03 189.2166 386.8831)" class="st70" cx="289.4" cy="98.2" rx="36.1" ry="37.2"/>
	
		<ellipse transform="matrix(7.155304e-03 -1 1 7.155304e-03 191.9004 389.5826)" class="st71" cx="292.1" cy="98.2" rx="36.1" ry="37.2"/>
	
		<ellipse transform="matrix(7.155304e-03 -1 1 7.155304e-03 194.5845 392.2432)" class="st72" cx="294.8" cy="98.1" rx="36.2" ry="37.2"/>
	
		<ellipse transform="matrix(7.155304e-03 -1 1 7.155304e-03 197.2682 394.9427)" class="st73" cx="297.5" cy="98.1" rx="36.2" ry="37.2"/>
	
		<ellipse transform="matrix(7.155304e-03 -1 1 7.155304e-03 199.9134 397.6021)" class="st74" cx="300.2" cy="98.1" rx="36.2" ry="37.2"/>
	
		<ellipse transform="matrix(7.155304e-03 -1 1 7.155304e-03 202.5969 400.3025)" class="st75" cx="302.9" cy="98.1" rx="36.2" ry="37.2"/>
	
		<ellipse transform="matrix(7.155304e-03 -1 1 7.155304e-03 205.2801 403.0413)" class="st76" cx="305.6" cy="98.1" rx="36.2" ry="37.2"/>
	
		<ellipse transform="matrix(7.155304e-03 -1 1 7.155304e-03 207.8639 405.7995)" class="st77" cx="308.3" cy="98.2" rx="36.2" ry="37.2"/>
	
		<ellipse transform="matrix(7.155304e-03 -1 1 7.155304e-03 210.6084 408.4005)" class="st78" cx="311" cy="98.1" rx="36.3" ry="37.2"/>
	
		<ellipse transform="matrix(7.155304e-03 -1 1 7.155304e-03 213.1312 411.258)" class="st79" cx="313.7" cy="98.3" rx="36.3" ry="37.2"/>
	
		<ellipse transform="matrix(7.155304e-03 -1 1 7.155304e-03 215.8149 413.9576)" class="st80" cx="316.4" cy="98.3" rx="36.3" ry="37.2"/>
	
		<ellipse transform="matrix(7.155304e-03 -1 1 7.155304e-03 218.4987 416.6573)" class="st81" cx="319.1" cy="98.3" rx="36.3" ry="37.3"/>
	
		<ellipse transform="matrix(7.155304e-03 -1 1 7.155304e-03 221.1436 419.3168)" class="st82" cx="321.7" cy="98.3" rx="36.3" ry="37.3"/>
	
		<ellipse transform="matrix(7.155304e-03 -1 1 7.155304e-03 223.8262 422.0563)" class="st83" cx="324.5" cy="98.3" rx="36.4" ry="37.3"/>
	
		<ellipse transform="matrix(7.155304e-03 -1 1 7.155304e-03 226.5108 424.7165)" class="st84" cx="327.1" cy="98.3" rx="36.4" ry="37.3"/>
	
		<ellipse transform="matrix(7.155304e-03 -1 1 7.155304e-03 229.1944 427.4163)" class="st85" cx="329.8" cy="98.3" rx="36.4" ry="37.3"/>
	
		<ellipse transform="matrix(7.155304e-03 -1 1 7.155304e-03 231.8387 430.1153)" class="st86" cx="332.5" cy="98.3" rx="36.4" ry="37.3"/>
	
		<ellipse transform="matrix(7.155304e-03 -1 1 7.155304e-03 234.6207 432.8739)" class="st87" cx="335.3" cy="98.3" rx="36.4" ry="37.3"/>
	
		<ellipse transform="matrix(7.155304e-03 -1 1 7.155304e-03 237.3044 435.5739)" class="st88" cx="338" cy="98.3" rx="36.4" ry="37.3"/>
	
		<ellipse transform="matrix(7.155304e-03 -1 1 7.155304e-03 239.9887 438.234)" class="st89" cx="340.7" cy="98.3" rx="36.5" ry="37.3"/>
	
		<ellipse transform="matrix(7.155304e-03 -1 1 7.155304e-03 242.6322 440.9725)" class="st90" cx="343.4" cy="98.3" rx="36.5" ry="37.3"/>
	
		<ellipse transform="matrix(7.155304e-03 -1 1 7.155304e-03 245.3159 443.6723)" class="st91" cx="346.1" cy="98.3" rx="36.5" ry="37.3"/>
	
		<ellipse transform="matrix(7.155304e-03 -1 1 7.155304e-03 248.0982 446.4328)" class="st92" cx="348.9" cy="98.3" rx="36.5" ry="37.3"/>
	
		<ellipse transform="matrix(7.155304e-03 -1 1 7.155304e-03 250.7818 449.1325)" class="st93" cx="351.6" cy="98.3" rx="36.5" ry="37.3"/>
	
		<ellipse transform="matrix(7.155304e-03 -1 1 7.155304e-03 253.4267 451.7921)" class="st94" cx="354.2" cy="98.3" rx="36.5" ry="37.3"/>
	
		<ellipse transform="matrix(7.155304e-03 -1 1 7.155304e-03 256.1102 454.4915)" class="st95" cx="356.9" cy="98.3" rx="36.5" ry="37.3"/>
	
		<ellipse transform="matrix(7.155304e-03 -1 1 7.155304e-03 258.7935 457.231)" class="st96" cx="359.7" cy="98.3" rx="36.6" ry="37.3"/>
	
		<ellipse transform="matrix(7.155304e-03 -1 1 7.155304e-03 261.4774 459.8912)" class="st97" cx="362.3" cy="98.3" rx="36.6" ry="37.3"/>
	
		<ellipse transform="matrix(7.155304e-03 -1 1 7.155304e-03 264.1216 462.59)" class="st98" cx="365" cy="98.3" rx="36.6" ry="37.3"/>
	
		<ellipse transform="matrix(7.155304e-03 -1 1 7.155304e-03 266.7054 465.3492)" class="st99" cx="367.7" cy="98.4" rx="36.6" ry="37.3"/>
	
		<ellipse transform="matrix(7.155304e-03 -1 1 7.155304e-03 269.3889 468.0488)" class="st100" cx="370.4" cy="98.4" rx="36.6" ry="37.3"/>
	
		<ellipse transform="matrix(7.155304e-03 -1 1 7.155304e-03 272.0729 470.7484)" class="st101" cx="373.1" cy="98.4" rx="36.6" ry="37.3"/>
	
		<ellipse transform="matrix(7.155304e-03 -1 1 7.155304e-03 274.8159 473.5089)" class="st102" cx="375.9" cy="98.4" rx="36.7" ry="37.4"/>
	
		<ellipse transform="matrix(7.155304e-03 -1 1 7.155304e-03 277.4991 476.248)" class="st103" cx="378.6" cy="98.4" rx="36.7" ry="37.4"/>
	
		<ellipse transform="matrix(7.155304e-03 -1 1 7.155304e-03 280.1827 478.9477)" class="st104" cx="381.3" cy="98.4" rx="36.7" ry="37.4"/>
	
		<ellipse transform="matrix(7.155304e-03 -1 1 7.155304e-03 282.8668 481.6079)" class="st105" cx="384" cy="98.4" rx="36.7" ry="37.4"/>
	
		<ellipse transform="matrix(7.155304e-03 -1 1 7.155304e-03 285.5113 484.3071)" class="st106" cx="386.6" cy="98.4" rx="36.7" ry="37.4"/>
	
		<ellipse transform="matrix(7.155304e-03 -1 1 7.155304e-03 288.1955 486.9672)" class="st107" cx="389.3" cy="98.4" rx="36.8" ry="37.4"/>
	
		<ellipse transform="matrix(7.155304e-03 -1 1 7.155304e-03 290.8793 489.6673)" class="st108" cx="392" cy="98.3" rx="36.8" ry="37.4"/>
	
		<ellipse transform="matrix(7.155304e-03 -1 1 7.155304e-03 293.563 492.3669)" class="st109" cx="394.7" cy="98.3" rx="36.8" ry="37.4"/>
	
		<ellipse transform="matrix(7.155304e-03 -1 1 7.155304e-03 296.207 495.0661)" class="st110" cx="397.4" cy="98.4" rx="36.8" ry="37.4"/>
	
		<ellipse transform="matrix(7.155304e-03 -1 1 7.155304e-03 298.8906 497.7655)" class="st111" cx="400.1" cy="98.4" rx="36.8" ry="37.4"/>
	
		<ellipse transform="matrix(7.155304e-03 -1 1 7.155304e-03 301.5747 500.4256)" class="st112" cx="402.8" cy="98.3" rx="36.8" ry="37.4"/>
	
		<ellipse transform="matrix(7.155304e-03 -1 1 7.155304e-03 304.2588 503.1259)" class="st113" cx="405.5" cy="98.3" rx="36.9" ry="37.4"/>
	
		<ellipse transform="matrix(7.155304e-03 -1 1 7.155304e-03 307.0009 505.9249)" class="st114" cx="408.3" cy="98.4" rx="36.9" ry="37.4"/>
	
		<ellipse transform="matrix(7.155304e-03 -1 1 7.155304e-03 309.6851 508.585)" class="st115" cx="411" cy="98.3" rx="36.9" ry="37.4"/>
	
		<ellipse transform="matrix(7.155304e-03 -1 1 7.155304e-03 312.2702 511.2239)" class="st116" cx="413.6" cy="98.4" rx="36.9" ry="37.4"/>
	
		<ellipse transform="matrix(7.155304e-03 -1 1 7.155304e-03 315.0519 513.9846)" class="st117" cx="416.4" cy="98.3" rx="36.9" ry="37.4"/>
	
		<ellipse transform="matrix(7.155304e-03 -1 1 7.155304e-03 317.6963 516.6833)" class="st118" cx="419" cy="98.4" rx="36.9" ry="37.4"/>
	
		<ellipse transform="matrix(7.155304e-03 -1 1 7.155304e-03 320.3802 519.3832)" class="st119" cx="421.7" cy="98.4" rx="36.9" ry="37.4"/>
	
		<ellipse transform="matrix(7.155304e-03 -1 1 7.155304e-03 323.0032 522.1423)" class="st120" cx="424.4" cy="98.4" rx="37" ry="37.4"/>
	
		<ellipse transform="matrix(7.155304e-03 -1 1 7.155304e-03 325.6867 524.8423)" class="st121" cx="427.1" cy="98.4" rx="37" ry="37.4"/>
	
		<ellipse transform="matrix(7.146962e-03 -1 1 7.146962e-03 328.4331 527.6014)" class="st122" cx="429.9" cy="98.4" rx="37" ry="37.4"/>
	
		<ellipse transform="matrix(7.155304e-03 -1 1 7.155304e-03 331.0147 530.2411)" class="st123" cx="432.5" cy="98.4" rx="37" ry="37.5"/>
	
		<ellipse transform="matrix(7.146381e-03 -1 1 7.146381e-03 333.7019 532.9415)" class="st124" cx="435.2" cy="98.4" rx="37" ry="37.5"/>
	
		<ellipse transform="matrix(7.155304e-03 -1 1 7.155304e-03 336.4803 535.6996)" class="st125" cx="438" cy="98.4" rx="37" ry="37.5"/>
	
		<ellipse transform="matrix(7.145952e-03 -1 1 7.145952e-03 339.2273 538.3018)" class="st126" cx="440.7" cy="98.3" rx="37.1" ry="37.5"/>
	
		<ellipse transform="matrix(7.155304e-03 -1 1 7.155304e-03 341.9076 540.9611)" class="st127" cx="443.4" cy="98.3" rx="37.1" ry="37.5"/>
	
		<ellipse transform="matrix(7.145471e-03 -1 1 7.145471e-03 344.497 543.7601)" class="st128" cx="446.1" cy="98.4" rx="37.1" ry="37.5"/>
	
		<ellipse transform="matrix(1.000100e-02 -0.9999 0.9999 1.000100e-02 346.7263 548.1484)" class="st129" cx="450.2" cy="99" rx="37.1" ry="37.5"/>
	
		<ellipse transform="matrix(7.165948e-03 -1 1 7.165948e-03 349.9143 549.0584)" class="st130" cx="451.5" cy="98.3" rx="37.1" ry="37.5"/>
	
		<ellipse transform="matrix(7.155304e-03 -1 1 7.155304e-03 352.6028 551.7594)" class="st131" cx="454.2" cy="98.3" rx="37.1" ry="37.5"/>
	
		<ellipse transform="matrix(7.166571e-03 -1 1 7.166571e-03 355.2818 554.4188)" class="st132" cx="456.8" cy="98.3" rx="37.2" ry="37.5"/>
	
		<ellipse transform="matrix(7.155304e-03 -1 1 7.155304e-03 357.9706 557.1198)" class="st133" cx="459.5" cy="98.3" rx="37.2" ry="37.5"/>
	
		<ellipse transform="matrix(7.155304e-03 -1 1 7.155304e-03 360.6149 559.8186)" class="st134" cx="462.2" cy="98.3" rx="37.2" ry="37.5"/>
	
		<ellipse transform="matrix(7.142540e-03 -1 1 7.142540e-03 363.3046 562.4797)" class="st135" cx="464.9" cy="98.3" rx="37.2" ry="37.5"/>
	
		<ellipse transform="matrix(7.142540e-03 -1 1 7.142540e-03 365.9878 565.2191)" class="st136" cx="467.6" cy="98.3" rx="37.2" ry="37.5"/>
	
		<ellipse transform="matrix(7.155304e-03 -1 1 7.155304e-03 368.6661 567.8782)" class="st137" cx="470.3" cy="98.3" rx="37.2" ry="37.5"/>
	
		<ellipse transform="matrix(7.155304e-03 -1 1 7.155304e-03 371.4092 570.6779)" class="st138" cx="473.1" cy="98.3" rx="37.3" ry="37.5"/>
	
		<ellipse transform="matrix(7.140584e-03 -1 1 7.140584e-03 374.0995 573.3787)" class="st139" cx="475.8" cy="98.3" rx="37.3" ry="37.5"/>
	
		<ellipse transform="matrix(7.170610e-03 -1 1 7.170610e-03 376.767 576.235)" class="st140" cx="478.6" cy="98.4" rx="37.3" ry="37.5"/>
	
		<ellipse transform="matrix(7.155304e-03 -1 1 7.155304e-03 379.4582 578.9363)" class="st141" cx="481.3" cy="98.4" rx="37.3" ry="37.5"/>
	
		<ellipse transform="matrix(7.117006e-03 -1 1 7.117006e-03 382.1208 581.6392)" class="st142" cx="484" cy="98.4" rx="37.3" ry="37.6"/>
	
		<ellipse transform="matrix(7.098793e-03 -1 1 7.098793e-03 384.8129 584.3405)" class="st143" cx="486.7" cy="98.4" rx="37.3" ry="37.6"/>
	
		<ellipse transform="matrix(7.097932e-03 -1 1 7.097932e-03 387.4969 587.0409)" class="st144" cx="489.4" cy="98.4" rx="37.4" ry="37.6"/>
	
		<ellipse transform="matrix(7.097932e-03 -1 1 7.097932e-03 390.1815 589.7009)" class="st145" cx="492" cy="98.4" rx="37.4" ry="37.6"/>
	
		<ellipse transform="matrix(7.097932e-03 -1 1 7.097932e-03 392.826 592.3998)" class="st146" cx="494.7" cy="98.4" rx="37.4" ry="37.6"/>
	
		<ellipse transform="matrix(7.155304e-03 -1 1 7.155304e-03 395.4817 595.0934)" class="st147" cx="497.4" cy="98.4" rx="37.4" ry="37.6"/>
	
		<ellipse transform="matrix(7.155304e-03 -1 1 7.155304e-03 398.1659 597.7543)" class="st148" cx="500.1" cy="98.4" rx="37.4" ry="37.6"/>
	
		<ellipse transform="matrix(7.097932e-03 -1 1 7.097932e-03 400.8377 600.4982)" class="st149" cx="502.8" cy="98.4" rx="37.4" ry="37.6"/>
	
		<ellipse transform="matrix(7.155304e-03 -1 1 7.155304e-03 403.4936 603.1525)" class="st150" cx="505.5" cy="98.4" rx="37.5" ry="37.6"/>
	
		<ellipse transform="matrix(7.155304e-03 -1 1 7.155304e-03 406.1773 605.8527)" class="st151" cx="508.2" cy="98.4" rx="37.5" ry="37.6"/>
	
		<ellipse transform="matrix(7.040698e-03 -1 1 7.040698e-03 408.9189 608.5642)" class="st152" cx="510.9" cy="98.4" rx="37.5" ry="37.6"/>
	
		<ellipse transform="matrix(7.155304e-03 -1 1 7.155304e-03 411.5056 611.2117)" class="st153" cx="513.6" cy="98.4" rx="37.5" ry="37.6"/>
	
		<ellipse transform="matrix(7.155304e-03 -1 1 7.155304e-03 414.1894 613.9114)" class="st154" cx="516.3" cy="98.4" rx="37.5" ry="37.6"/>
	
		<ellipse transform="matrix(7.155304e-03 -1 1 7.155304e-03 416.7732 616.6706)" class="st155" cx="518.9" cy="98.5" rx="37.5" ry="37.6"/>
	
		<ellipse transform="matrix(7.155304e-03 -1 1 7.155304e-03 419.557 619.3115)" class="st156" cx="521.7" cy="98.4" rx="37.5" ry="37.6"/>
	
		<ellipse transform="matrix(0.7071 -0.7071 0.7071 0.7071 83.9139 399.549)" class="st157" cx="524.3" cy="98.5" rx="37.6" ry="37.6"/>
	
		<ellipse transform="matrix(0.7071 -0.7071 0.7071 0.7071 84.7153 401.4467)" class="st158" cx="526.9" cy="98.5" rx="37.6" ry="37.6"/>
	
		<ellipse transform="matrix(0.7071 -0.7071 0.7071 0.7071 85.5069 403.3564)" class="st159" cx="529.6" cy="98.5" rx="37.6" ry="37.6"/>
	
		<ellipse transform="matrix(0.7071 -0.7071 0.7071 0.7071 86.3082 405.2542)" class="st160" cx="532.3" cy="98.4" rx="37.6" ry="37.6"/>
	
		<ellipse transform="matrix(0.7071 -0.7071 0.7071 0.7071 87.161 407.256)" class="st161" cx="535.2" cy="98.4" rx="37.6" ry="37.6"/>
	<text transform="matrix(1 0 0 1 71.4249 188.83)" class="st162 st163">Loose</text>
	<text transform="matrix(1 0 0 1 459.8095 188.8303)" class="st162 st163">Strict</text>
</g>
</svg>
