<?xml version="1.0" encoding="utf-8"?>
<!-- Generator: Adobe Illustrator 26.0.2, SVG Export Plug-In . SVG Version: 6.00 Build 0)  -->
<svg version="1.1" id="图层_1" xmlns="http://www.w3.org/2000/svg" xmlns:xlink="http://www.w3.org/1999/xlink" x="0px" y="0px"
	 viewBox="0 0 963 279.8" style="enable-background:new 0 0 963 279.8;" xml:space="preserve">
<style type="text/css">
	.st0{fill:#E9E8E2;stroke:#000000;stroke-miterlimit:10;}
	.st1{fill:#67001F;}
	.st2{fill:#B2182B;}
	.st3{fill:#EF8A62;}
	.st4{fill:#FDDBC7;}
	.st5{fill:#FFFFFF;}
	.st6{fill:#E0E0E0;}
	.st7{fill:#BABABA;}
	.st8{fill:#4D4D4D;}
	.st9{fill:#1A1A1A;}
	.st10{font-family:'MicrosoftSansSerif';}
	.st11{font-size:23.23px;}
</style>
<g>
	<path class="st0" d="M12.8,0h937.4c7.1,0,12.8,5.7,12.8,12.8V267c0,7.1-5.7,12.8-12.8,12.8H12.8C5.7,279.8,0,274.1,0,267V12.8
		C0,5.8,5.7,0,12.8,0z"/>
	<ellipse class="st1" cx="67.1" cy="137.8" rx="40.7" ry="38.6"/>
	<ellipse class="st2" cx="172.6" cy="136.9" rx="40.7" ry="38.6"/>
	<ellipse class="st3" cx="275.2" cy="137.8" rx="40.7" ry="38.6"/>
	<ellipse class="st4" cx="376.9" cy="138.8" rx="40.7" ry="38.6"/>
	<ellipse class="st5" cx="478.5" cy="137.8" rx="40.7" ry="38.6"/>
	<ellipse class="st6" cx="581.1" cy="138.8" rx="40.7" ry="38.6"/>
	<ellipse class="st7" cx="686.6" cy="138.8" rx="40.7" ry="38.6"/>
	<ellipse class="st8" cx="790.2" cy="138.8" rx="40.7" ry="38.6"/>
	<ellipse class="st9" cx="892.8" cy="137.8" rx="40.7" ry="38.6"/>
	<text transform="matrix(1 0 0 1 194.92 73.39)" class="st10 st11">Male</text>
	<text transform="matrix(1 0 0 1 700.2 75.32)" class="st10 st11">Female</text>
	<text transform="matrix(1 0 0 1 34.26 213.89)" class="st10 st11">Black</text>
	<text transform="matrix(1 0 0 1 865.78 215.8306)" class="st10 st11">Black</text>
	<text transform="matrix(1 0 0 1 140.78 214.86)" class="st10 st11">Asian</text>
	<text transform="matrix(1 0 0 1 763.16 215.8309)" class="st10 st11">Asian</text>
	<text transform="matrix(1 0 0 1 241.43 215.83)" class="st10 st11">White</text>
	<text transform="matrix(1 0 0 1 657.8297 215.83)" class="st10 st11">White</text>
	<text transform="matrix(1 0 0 1 333.83 217.76)" class="st10 st11">Unkown</text>
	<text transform="matrix(1 0 0 1 540.3999 217.76)" class="st10 st11">Unkown</text>
	<text transform="matrix(1 0 0 1 433.2858 73.6731)" class="st10 st11">Unkown</text>
</g>
</svg>
