<?xml version="1.0" encoding="utf-8"?>
<!-- Generator: Adobe Illustrator 26.0.2, SVG Export Plug-In . SVG Version: 6.00 Build 0)  -->
<svg version="1.1" id="图层_1" xmlns="http://www.w3.org/2000/svg" xmlns:xlink="http://www.w3.org/1999/xlink" x="0px" y="0px"
	 viewBox="0 0 750 367" style="enable-background:new 0 0 750 367;" xml:space="preserve">
<style type="text/css">
	.st0{fill:#E9E8E2;stroke:#000000;stroke-miterlimit:10;}
	.st1{fill:#E9E8E2;}
	.st2{fill:#E8E7E1;}
	.st3{fill:#E7E6E0;}
	.st4{fill:#E6E5DF;}
	.st5{fill:#E5E4DE;}
	.st6{fill:#E4E3DD;}
	.st7{fill:#E3E2DC;}
	.st8{fill:#E2E1DB;}
	.st9{fill:#E1E0DA;}
	.st10{fill:#E0DFD9;}
	.st11{fill:#DFDED8;}
	.st12{fill:#DEDDD7;}
	.st13{fill:#DDDCD7;}
	.st14{fill:#DCDBD6;}
	.st15{fill:#DBDAD5;}
	.st16{fill:#DAD9D4;}
	.st17{fill:#D9D8D3;}
	.st18{fill:#D8D7D2;}
	.st19{fill:#D7D6D1;}
	.st20{fill:#D6D5D0;}
	.st21{fill:#D5D4CF;}
	.st22{fill:#D4D3CE;}
	.st23{fill:#D3D2CD;}
	.st24{fill:#D2D1CC;}
	.st25{fill:#D1D0CB;}
	.st26{fill:#D0CFCA;}
	.st27{fill:#CFCEC9;}
	.st28{fill:#CECDC8;}
	.st29{fill:#CDCCC7;}
	.st30{fill:#CCCBC6;}
	.st31{fill:#CBCAC5;}
	.st32{fill:#CAC9C4;}
	.st33{fill:#C9C8C3;}
	.st34{fill:#C8C7C2;}
	.st35{fill:#C7C6C1;}
	.st36{fill:#C6C5C1;}
	.st37{fill:#C5C4C0;}
	.st38{fill:#C4C3BF;}
	.st39{fill:#C3C2BE;}
	.st40{fill:#C2C1BD;}
	.st41{fill:#C1C0BC;}
	.st42{fill:#C0BFBB;}
	.st43{fill:#BFBEBA;}
	.st44{fill:#BEBDB9;}
	.st45{fill:#BDBCB8;}
	.st46{fill:#BCBBB7;}
	.st47{fill:#BBBAB6;}
	.st48{fill:#BAB9B5;}
	.st49{fill:#B9B8B4;}
	.st50{fill:#B8B7B3;}
	.st51{fill:#B7B6B2;}
	.st52{fill:#B6B5B1;}
	.st53{fill:#B5B4B0;}
	.st54{fill:#B4B3AF;}
	.st55{fill:#B3B2AE;}
	.st56{fill:#B2B1AD;}
	.st57{fill:#B1B0AC;}
	.st58{fill:#B0AFAB;}
	.st59{fill:#AFAEAB;}
	.st60{fill:#AEADAA;}
	.st61{fill:#ADACA9;}
	.st62{fill:#ACABA8;}
	.st63{fill:#ABAAA7;}
	.st64{fill:#AAA9A6;}
	.st65{fill:#A9A8A5;}
	.st66{fill:#A8A7A4;}
	.st67{fill:#A7A6A3;}
	.st68{fill:#A6A5A2;}
	.st69{fill:#A5A4A1;}
	.st70{fill:#A4A3A0;}
	.st71{fill:#A3A29F;}
	.st72{fill:#A2A19E;}
	.st73{fill:#A1A09D;}
	.st74{fill:#A09F9C;}
	.st75{fill:#9F9E9B;}
	.st76{fill:#9E9D9A;}
	.st77{fill:#9D9C99;}
	.st78{fill:#9C9B98;}
	.st79{fill:#9B9A97;}
	.st80{fill:#9A9996;}
	.st81{fill:#999996;}
	.st82{fill:#989895;}
	.st83{fill:#979794;}
	.st84{fill:#969693;}
	.st85{fill:#959592;}
	.st86{fill:#949491;}
	.st87{fill:#939390;}
	.st88{fill:#92928F;}
	.st89{fill:#91918E;}
	.st90{fill:#90908D;}
	.st91{fill:#8F8F8C;}
	.st92{fill:#8E8E8B;}
	.st93{fill:#8D8D8A;}
	.st94{fill:#8C8C89;}
	.st95{fill:#8B8B88;}
	.st96{fill:#8A8A87;}
	.st97{fill:#898986;}
	.st98{fill:#888885;}
	.st99{fill:#878784;}
	.st100{fill:#868683;}
	.st101{fill:#858582;}
	.st102{fill:#848481;}
	.st103{fill:#838380;}
	.st104{fill:#828280;}
	.st105{fill:#81817F;}
	.st106{fill:#80807E;}
	.st107{fill:#7F7F7D;}
	.st108{fill:#7E7E7C;}
	.st109{fill:#7D7D7B;}
	.st110{fill:#7C7C7A;}
	.st111{fill:#7B7B79;}
	.st112{fill:#7A7A78;}
	.st113{fill:#797977;}
	.st114{fill:#787876;}
	.st115{fill:#777775;}
	.st116{fill:#767674;}
	.st117{fill:#757573;}
	.st118{fill:#747472;}
	.st119{fill:#737371;}
	.st120{fill:#727270;}
	.st121{fill:#71716F;}
	.st122{fill:#70706E;}
	.st123{fill:#6F6F6D;}
	.st124{fill:#6E6E6C;}
	.st125{fill:#6D6D6B;}
	.st126{fill:#6C6C6A;}
	.st127{fill:#6B6B6A;}
	.st128{fill:#6A6A69;}
	.st129{fill:#696968;}
	.st130{fill:#686867;}
	.st131{fill:#676766;}
	.st132{fill:#666665;}
	.st133{fill:#656564;}
	.st134{fill:#646463;}
	.st135{fill:#636362;}
	.st136{fill:#626261;}
	.st137{fill:#616160;}
	.st138{fill:#60605F;}
	.st139{fill:#5F5F5E;}
	.st140{fill:#5E5E5D;}
	.st141{fill:#5D5D5C;}
	.st142{fill:#5C5C5B;}
	.st143{fill:#5B5B5A;}
	.st144{fill:#5A5A59;}
	.st145{fill:#595958;}
	.st146{fill:#585857;}
	.st147{fill:#575756;}
	.st148{fill:#565655;}
	.st149{fill:#555554;}
	.st150{fill:#545454;}
	.st151{fill:#535353;}
	.st152{fill:#525252;}
	.st153{fill:#515151;}
	.st154{fill:#505050;}
	.st155{fill:#4F4F4F;}
	.st156{fill:#4E4E4E;}
	.st157{fill:#4D4D4D;}
	.st158{fill:#4C4C4C;}
	.st159{fill:#4B4B4B;}
	.st160{fill:#4A4A4A;}
	.st161{fill:#494949;}
	.st162{font-family:'MicrosoftSansSerif';}
	.st163{font-size:21.51px;}
</style>
<path class="st0" d="M70.3,54.7h613c5.5,0,9.9,4.4,9.9,9.9v236.7c0,5.5-4.4,9.9-9.9,9.9h-613c-5.5,0-9.9-4.4-9.9-9.9V64.7
	C60.4,59.2,64.9,54.7,70.3,54.7z"/>
<ellipse transform="matrix(7.155853e-03 -1 1 7.155853e-03 -15.0524 339.3242)" class="st1" cx="163.4" cy="177.2" rx="35" ry="36.9"/>
<ellipse transform="matrix(7.155853e-03 -1 1 7.155853e-03 -12.3725 342.0236)" class="st2" cx="166.1" cy="177.2" rx="35" ry="36.9"/>
<ellipse transform="matrix(7.155853e-03 -1 1 7.155853e-03 -9.6827 344.7331)" class="st3" cx="168.8" cy="177.2" rx="35" ry="36.9"/>
<ellipse transform="matrix(7.155853e-03 -1 1 7.155853e-03 -7.0027 347.4324)" class="st4" cx="171.5" cy="177.2" rx="35.1" ry="36.9"/>
<ellipse transform="matrix(7.155853e-03 -1 1 7.155853e-03 -4.3228 350.1317)" class="st5" cx="174.2" cy="177.2" rx="35.1" ry="36.9"/>
<ellipse transform="matrix(7.155853e-03 -1 1 7.155853e-03 -1.6528 352.8409)" class="st6" cx="176.9" cy="177.3" rx="35.1" ry="36.9"/>
<ellipse transform="matrix(7.155853e-03 -1 1 7.155853e-03 1.0369 355.5504)" class="st7" cx="179.6" cy="177.3" rx="35.1" ry="36.9"/>
<ellipse transform="matrix(7.155853e-03 -1 1 7.155853e-03 3.7069 358.2596)" class="st8" cx="182.3" cy="177.3" rx="35.1" ry="36.9"/>
<ellipse transform="matrix(7.155853e-03 -1 1 7.155853e-03 6.3868 360.9589)" class="st9" cx="185" cy="177.3" rx="35.1" ry="36.9"/>
<ellipse transform="matrix(7.155853e-03 -1 1 7.155853e-03 9.0768 363.6483)" class="st10" cx="187.7" cy="177.3" rx="35.2" ry="36.9"/>
<ellipse transform="matrix(7.155853e-03 -1 1 7.155853e-03 11.7566 366.3677)" class="st11" cx="190.4" cy="177.3" rx="35.2" ry="36.9"/>
<ellipse transform="matrix(7.155853e-03 -1 1 7.155853e-03 14.4366 369.067)" class="st12" cx="193.1" cy="177.3" rx="35.2" ry="36.9"/>
<ellipse transform="matrix(7.155853e-03 -1 1 7.155853e-03 17.1065 371.7762)" class="st13" cx="195.8" cy="177.3" rx="35.2" ry="36.9"/>
<ellipse transform="matrix(7.155853e-03 -1 1 7.155853e-03 19.7864 374.4756)" class="st14" cx="198.5" cy="177.3" rx="35.2" ry="36.9"/>
<ellipse transform="matrix(7.155853e-03 -1 1 7.155853e-03 22.4762 377.185)" class="st15" cx="201.2" cy="177.3" rx="35.2" ry="36.9"/>
<ellipse transform="matrix(7.155853e-03 -1 1 7.155853e-03 25.1562 379.8844)" class="st16" cx="203.9" cy="177.3" rx="35.2" ry="36.9"/>
<ellipse transform="matrix(7.155853e-03 -1 1 7.155853e-03 27.8362 382.5837)" class="st17" cx="206.6" cy="177.3" rx="35.3" ry="37"/>
<ellipse transform="matrix(7.155853e-03 -1 1 7.155853e-03 30.5061 385.2929)" class="st18" cx="209.3" cy="177.3" rx="35.3" ry="37"/>
<ellipse transform="matrix(7.155853e-03 -1 1 7.155853e-03 33.1959 388.0023)" class="st19" cx="212" cy="177.3" rx="35.3" ry="37"/>
<ellipse transform="matrix(7.155853e-03 -1 1 7.155853e-03 35.8758 390.7017)" class="st20" cx="214.7" cy="177.3" rx="35.3" ry="37"/>
<ellipse transform="matrix(7.155853e-03 -1 1 7.155853e-03 38.5458 393.4109)" class="st21" cx="217.4" cy="177.3" rx="35.3" ry="37"/>
<ellipse transform="matrix(7.155853e-03 -1 1 7.155853e-03 41.2257 396.1102)" class="st22" cx="220.1" cy="177.3" rx="35.3" ry="37"/>
<ellipse transform="matrix(7.155853e-03 -1 1 7.155853e-03 43.9256 398.8097)" class="st23" cx="222.8" cy="177.3" rx="35.4" ry="37"/>
<ellipse transform="matrix(7.157064e-03 -1 1 7.157064e-03 46.5952 401.5188)" class="st24" cx="225.5" cy="177.3" rx="35.4" ry="37"/>
<ellipse transform="matrix(7.155853e-03 -1 1 7.155853e-03 49.2754 404.2183)" class="st25" cx="228.2" cy="177.3" rx="35.4" ry="37"/>
<ellipse transform="matrix(7.157079e-03 -1 1 7.157079e-03 51.9451 406.9273)" class="st26" cx="230.9" cy="177.3" rx="35.4" ry="37"/>
<ellipse transform="matrix(7.155853e-03 -1 1 7.155853e-03 54.6352 409.637)" class="st27" cx="233.6" cy="177.3" rx="35.4" ry="37"/>
<ellipse transform="matrix(7.155853e-03 -1 1 7.155853e-03 57.3151 412.3363)" class="st28" cx="236.3" cy="177.3" rx="35.4" ry="37"/>
<ellipse transform="matrix(7.155853e-03 -1 1 7.155853e-03 59.9851 415.0455)" class="st29" cx="239" cy="177.3" rx="35.5" ry="37"/>
<ellipse transform="matrix(7.155853e-03 -1 1 7.155853e-03 62.675 417.735)" class="st30" cx="241.7" cy="177.3" rx="35.5" ry="37"/>
<ellipse transform="matrix(7.157126e-03 -1 1 7.157126e-03 65.3545 420.4541)" class="st31" cx="244.4" cy="177.3" rx="35.5" ry="37"/>
<ellipse transform="matrix(7.154572e-03 -1 1 7.154572e-03 68.0351 423.1538)" class="st32" cx="247.1" cy="177.3" rx="35.5" ry="37"/>
<ellipse transform="matrix(7.154555e-03 -1 1 7.154555e-03 70.715 425.8531)" class="st33" cx="249.8" cy="177.3" rx="35.5" ry="37"/>
<ellipse transform="matrix(7.155853e-03 -1 1 7.155853e-03 73.3847 428.5622)" class="st34" cx="252.5" cy="177.3" rx="35.5" ry="37"/>
<ellipse transform="matrix(7.154538e-03 -1 1 7.154538e-03 76.0748 431.2718)" class="st35" cx="255.2" cy="177.3" rx="35.6" ry="37"/>
<ellipse transform="matrix(7.157177e-03 -1 1 7.157177e-03 78.7541 433.9707)" class="st36" cx="257.9" cy="177.3" rx="35.6" ry="37.1"/>
<ellipse transform="matrix(7.155853e-03 -1 1 7.155853e-03 81.4344 436.6703)" class="st37" cx="260.6" cy="177.3" rx="35.6" ry="37.1"/>
<ellipse transform="matrix(7.157195e-03 -1 1 7.157195e-03 84.104 439.3594)" class="st38" cx="263.3" cy="177.3" rx="35.6" ry="37.1"/>
<ellipse transform="matrix(7.155853e-03 -1 1 7.155853e-03 86.7842 442.0789)" class="st39" cx="266" cy="177.3" rx="35.6" ry="37.1"/>
<ellipse transform="matrix(7.157213e-03 -1 1 7.157213e-03 89.4638 444.778)" class="st40" cx="268.7" cy="177.3" rx="35.6" ry="37.1"/>
<ellipse transform="matrix(7.155853e-03 -1 1 7.155853e-03 92.134 447.4875)" class="st41" cx="271.4" cy="177.3" rx="35.7" ry="37.1"/>
<ellipse transform="matrix(7.155853e-03 -1 1 7.155853e-03 94.814 450.1868)" class="st42" cx="274.1" cy="177.3" rx="35.7" ry="37.1"/>
<ellipse transform="matrix(7.155853e-03 -1 1 7.155853e-03 97.5139 452.8864)" class="st43" cx="276.8" cy="177.3" rx="35.7" ry="37.1"/>
<ellipse transform="matrix(7.155853e-03 -1 1 7.155853e-03 100.1838 455.5956)" class="st44" cx="279.5" cy="177.3" rx="35.7" ry="37.1"/>
<ellipse transform="matrix(7.154424e-03 -1 1 7.154424e-03 102.8641 458.2952)" class="st45" cx="282.2" cy="177.3" rx="35.7" ry="37.1"/>
<ellipse transform="matrix(7.157292e-03 -1 1 7.157292e-03 105.5333 461.0039)" class="st46" cx="284.9" cy="177.4" rx="35.7" ry="37.1"/>
<ellipse transform="matrix(7.154404e-03 -1 1 7.154404e-03 108.2239 463.7138)" class="st47" cx="287.6" cy="177.4" rx="35.8" ry="37.1"/>
<ellipse transform="matrix(7.157313e-03 -1 1 7.157313e-03 110.903 466.4126)" class="st48" cx="290.3" cy="177.4" rx="35.8" ry="37.1"/>
<ellipse transform="matrix(7.155853e-03 -1 1 7.155853e-03 113.5733 469.1221)" class="st49" cx="293" cy="177.4" rx="35.8" ry="37.1"/>
<ellipse transform="matrix(7.155853e-03 -1 1 7.155853e-03 116.2633 471.8116)" class="st50" cx="295.7" cy="177.4" rx="35.8" ry="37.1"/>
<ellipse transform="matrix(7.155853e-03 -1 1 7.155853e-03 118.9431 474.5309)" class="st51" cx="298.4" cy="177.4" rx="35.8" ry="37.1"/>
<ellipse transform="matrix(7.155853e-03 -1 1 7.155853e-03 121.6231 477.2302)" class="st52" cx="301.1" cy="177.4" rx="35.8" ry="37.1"/>
<ellipse transform="matrix(7.155853e-03 -1 1 7.155853e-03 124.303 479.9296)" class="st53" cx="303.8" cy="177.4" rx="35.9" ry="37.1"/>
<ellipse transform="matrix(7.155853e-03 -1 1 7.155853e-03 126.9729 482.6388)" class="st54" cx="306.5" cy="177.4" rx="35.9" ry="37.1"/>
<ellipse transform="matrix(7.155853e-03 -1 1 7.155853e-03 129.6627 485.3482)" class="st55" cx="309.2" cy="177.4" rx="35.9" ry="37.1"/>
<ellipse transform="matrix(7.155853e-03 -1 1 7.155853e-03 132.3427 488.0476)" class="st56" cx="311.9" cy="177.4" rx="35.9" ry="37.1"/>
<ellipse transform="matrix(7.155853e-03 -1 1 7.155853e-03 135.0227 490.7469)" class="st57" cx="314.6" cy="177.4" rx="35.9" ry="37.1"/>
<ellipse transform="matrix(7.155853e-03 -1 1 7.155853e-03 137.7026 493.4462)" class="st58" cx="317.3" cy="177.4" rx="35.9" ry="37.1"/>
<ellipse transform="matrix(7.155853e-03 -1 1 7.155853e-03 140.3824 496.1655)" class="st59" cx="320.1" cy="177.4" rx="36" ry="37.2"/>
<ellipse transform="matrix(7.155853e-03 -1 1 7.155853e-03 143.0623 498.8649)" class="st60" cx="322.8" cy="177.4" rx="36" ry="37.2"/>
<ellipse transform="matrix(7.155853e-03 -1 1 7.155853e-03 145.7423 501.5642)" class="st61" cx="325.5" cy="177.4" rx="36" ry="37.2"/>
<ellipse transform="matrix(7.155853e-03 -1 1 7.155853e-03 148.4122 504.2734)" class="st62" cx="328.2" cy="177.4" rx="36" ry="37.2"/>
<ellipse transform="matrix(7.155853e-03 -1 1 7.155853e-03 151.1121 506.973)" class="st63" cx="330.9" cy="177.4" rx="36" ry="37.2"/>
<ellipse transform="matrix(7.155853e-03 -1 1 7.155853e-03 153.782 509.6823)" class="st64" cx="333.6" cy="177.4" rx="36" ry="37.2"/>
<ellipse transform="matrix(7.155853e-03 -1 1 7.155853e-03 156.4619 512.3815)" class="st65" cx="336.3" cy="177.4" rx="36" ry="37.2"/>
<ellipse transform="matrix(7.155853e-03 -1 1 7.155853e-03 159.1517 515.0909)" class="st66" cx="339" cy="177.4" rx="36.1" ry="37.2"/>
<ellipse transform="matrix(7.155853e-03 -1 1 7.155853e-03 161.8216 517.8002)" class="st67" cx="341.7" cy="177.4" rx="36.1" ry="37.2"/>
<ellipse transform="matrix(7.155853e-03 -1 1 7.155853e-03 164.5016 520.4995)" class="st68" cx="344.4" cy="177.4" rx="36.1" ry="37.2"/>
<ellipse transform="matrix(7.155853e-03 -1 1 7.155853e-03 167.1715 523.2087)" class="st69" cx="347.1" cy="177.4" rx="36.1" ry="37.2"/>
<ellipse transform="matrix(7.155853e-03 -1 1 7.155853e-03 169.8714 525.9083)" class="st70" cx="349.8" cy="177.4" rx="36.1" ry="37.2"/>
<ellipse transform="matrix(7.155853e-03 -1 1 7.155853e-03 172.5513 528.6077)" class="st71" cx="352.5" cy="177.4" rx="36.1" ry="37.2"/>
<ellipse transform="matrix(7.155853e-03 -1 1 7.155853e-03 175.2213 531.3168)" class="st72" cx="355.2" cy="177.4" rx="36.2" ry="37.2"/>
<ellipse transform="matrix(7.155853e-03 -1 1 7.155853e-03 177.9012 534.0162)" class="st73" cx="357.9" cy="177.4" rx="36.2" ry="37.2"/>
<ellipse transform="matrix(7.155853e-03 -1 1 7.155853e-03 180.581 536.7355)" class="st74" cx="360.6" cy="177.4" rx="36.2" ry="37.2"/>
<ellipse transform="matrix(7.155853e-03 -1 1 7.155853e-03 183.261 539.4348)" class="st75" cx="363.3" cy="177.4" rx="36.2" ry="37.2"/>
<ellipse transform="matrix(7.155853e-03 -1 1 7.155853e-03 185.9509 542.1243)" class="st76" cx="366" cy="177.4" rx="36.2" ry="37.2"/>
<ellipse transform="matrix(7.155853e-03 -1 1 7.155853e-03 188.6209 544.8336)" class="st77" cx="368.7" cy="177.4" rx="36.2" ry="37.2"/>
<ellipse transform="matrix(7.155853e-03 -1 1 7.155853e-03 191.3106 547.5429)" class="st78" cx="371.4" cy="177.4" rx="36.3" ry="37.2"/>
<ellipse transform="matrix(7.155853e-03 -1 1 7.155853e-03 193.9707 550.2421)" class="st79" cx="374.1" cy="177.4" rx="36.3" ry="37.2"/>
<ellipse transform="matrix(7.155853e-03 -1 1 7.155853e-03 196.6506 552.9415)" class="st80" cx="376.8" cy="177.4" rx="36.3" ry="37.2"/>
<ellipse transform="matrix(7.155853e-03 -1 1 7.155853e-03 199.3305 555.6408)" class="st81" cx="379.5" cy="177.4" rx="36.3" ry="37.3"/>
<ellipse transform="matrix(7.155853e-03 -1 1 7.155853e-03 202.0103 558.3602)" class="st82" cx="382.2" cy="177.4" rx="36.3" ry="37.3"/>
<ellipse transform="matrix(7.155853e-03 -1 1 7.155853e-03 204.7004 561.0496)" class="st83" cx="384.9" cy="177.4" rx="36.4" ry="37.3"/>
<ellipse transform="matrix(7.155853e-03 -1 1 7.155853e-03 207.3703 563.7589)" class="st84" cx="387.6" cy="177.4" rx="36.4" ry="37.3"/>
<ellipse transform="matrix(7.155853e-03 -1 1 7.155853e-03 210.0502 566.4582)" class="st85" cx="390.3" cy="177.4" rx="36.4" ry="37.3"/>
<ellipse transform="matrix(7.155853e-03 -1 1 7.155853e-03 212.74 569.1675)" class="st86" cx="393" cy="177.4" rx="36.4" ry="37.3"/>
<ellipse transform="matrix(7.155853e-03 -1 1 7.155853e-03 215.4099 571.8768)" class="st87" cx="395.7" cy="177.5" rx="36.4" ry="37.3"/>
<ellipse transform="matrix(7.155853e-03 -1 1 7.155853e-03 218.0899 574.5761)" class="st88" cx="398.4" cy="177.5" rx="36.4" ry="37.3"/>
<ellipse transform="matrix(7.155853e-03 -1 1 7.155853e-03 220.7598 577.2854)" class="st89" cx="401.1" cy="177.5" rx="36.5" ry="37.3"/>
<ellipse transform="matrix(7.155853e-03 -1 1 7.155853e-03 223.4597 579.9849)" class="st90" cx="403.8" cy="177.5" rx="36.5" ry="37.3"/>
<ellipse transform="matrix(7.155853e-03 -1 1 7.155853e-03 226.1396 582.6842)" class="st91" cx="406.5" cy="177.5" rx="36.5" ry="37.3"/>
<ellipse transform="matrix(7.155853e-03 -1 1 7.155853e-03 228.8096 585.3935)" class="st92" cx="409.2" cy="177.5" rx="36.5" ry="37.3"/>
<ellipse transform="matrix(7.155853e-03 -1 1 7.155853e-03 231.4895 588.0928)" class="st93" cx="411.9" cy="177.5" rx="36.5" ry="37.3"/>
<ellipse transform="matrix(7.155853e-03 -1 1 7.155853e-03 234.1693 590.8121)" class="st94" cx="414.6" cy="177.5" rx="36.5" ry="37.3"/>
<ellipse transform="matrix(7.155853e-03 -1 1 7.155853e-03 236.8492 593.5114)" class="st95" cx="417.3" cy="177.5" rx="36.5" ry="37.3"/>
<ellipse transform="matrix(7.155853e-03 -1 1 7.155853e-03 239.5392 596.2009)" class="st96" cx="420" cy="177.5" rx="36.6" ry="37.3"/>
<ellipse transform="matrix(7.155853e-03 -1 1 7.155853e-03 242.2091 598.9102)" class="st97" cx="422.7" cy="177.5" rx="36.6" ry="37.3"/>
<ellipse transform="matrix(7.155853e-03 -1 1 7.155853e-03 244.899 601.6195)" class="st98" cx="425.4" cy="177.5" rx="36.6" ry="37.3"/>
<ellipse transform="matrix(7.155853e-03 -1 1 7.155853e-03 247.5689 604.3288)" class="st99" cx="428.1" cy="177.5" rx="36.6" ry="37.3"/>
<ellipse transform="matrix(7.155853e-03 -1 1 7.155853e-03 250.2488 607.0281)" class="st100" cx="430.8" cy="177.5" rx="36.6" ry="37.3"/>
<ellipse transform="matrix(7.155853e-03 -1 1 7.155853e-03 252.9287 609.7275)" class="st101" cx="433.5" cy="177.5" rx="36.6" ry="37.3"/>
<ellipse transform="matrix(7.155853e-03 -1 1 7.155853e-03 255.6086 612.4467)" class="st102" cx="436.2" cy="177.5" rx="36.7" ry="37.4"/>
<ellipse transform="matrix(7.155853e-03 -1 1 7.155853e-03 258.2986 615.1362)" class="st103" cx="438.9" cy="177.5" rx="36.7" ry="37.4"/>
<ellipse transform="matrix(7.155853e-03 -1 1 7.155853e-03 260.9785 617.8356)" class="st104" cx="441.6" cy="177.5" rx="36.7" ry="37.4"/>
<ellipse transform="matrix(7.155853e-03 -1 1 7.155853e-03 263.6484 620.5448)" class="st105" cx="444.3" cy="177.5" rx="36.7" ry="37.4"/>
<ellipse transform="matrix(7.155853e-03 -1 1 7.155853e-03 266.3383 623.2542)" class="st106" cx="447" cy="177.5" rx="36.7" ry="37.4"/>
<ellipse transform="matrix(7.155853e-03 -1 1 7.155853e-03 269.0081 625.9634)" class="st107" cx="449.7" cy="177.5" rx="36.8" ry="37.4"/>
<ellipse transform="matrix(7.155853e-03 -1 1 7.155853e-03 271.6881 628.6628)" class="st108" cx="452.4" cy="177.5" rx="36.8" ry="37.4"/>
<ellipse transform="matrix(7.155853e-03 -1 1 7.155853e-03 274.368 631.3621)" class="st109" cx="455.1" cy="177.5" rx="36.8" ry="37.4"/>
<ellipse transform="matrix(7.155853e-03 -1 1 7.155853e-03 277.0579 634.0715)" class="st110" cx="457.8" cy="177.5" rx="36.8" ry="37.4"/>
<ellipse transform="matrix(7.155853e-03 -1 1 7.155853e-03 279.7378 636.7708)" class="st111" cx="460.5" cy="177.5" rx="36.8" ry="37.4"/>
<ellipse transform="matrix(7.155853e-03 -1 1 7.155853e-03 282.4077 639.4801)" class="st112" cx="463.2" cy="177.5" rx="36.8" ry="37.4"/>
<ellipse transform="matrix(7.155853e-03 -1 1 7.155853e-03 285.0877 642.1794)" class="st113" cx="465.9" cy="177.5" rx="36.9" ry="37.4"/>
<ellipse transform="matrix(7.155853e-03 -1 1 7.155853e-03 287.7775 644.8888)" class="st114" cx="468.6" cy="177.5" rx="36.9" ry="37.4"/>
<ellipse transform="matrix(7.155853e-03 -1 1 7.155853e-03 290.4474 647.598)" class="st115" cx="471.3" cy="177.5" rx="36.9" ry="37.4"/>
<ellipse transform="matrix(7.155853e-03 -1 1 7.155853e-03 293.1374 650.2875)" class="st116" cx="474" cy="177.5" rx="36.9" ry="37.4"/>
<ellipse transform="matrix(7.155853e-03 -1 1 7.155853e-03 295.8074 652.9968)" class="st117" cx="476.7" cy="177.5" rx="36.9" ry="37.4"/>
<ellipse transform="matrix(7.155853e-03 -1 1 7.155853e-03 298.4972 655.7062)" class="st118" cx="479.5" cy="177.5" rx="36.9" ry="37.4"/>
<ellipse transform="matrix(7.155853e-03 -1 1 7.155853e-03 301.1771 658.4055)" class="st119" cx="482.2" cy="177.5" rx="36.9" ry="37.4"/>
<ellipse transform="matrix(7.155853e-03 -1 1 7.155853e-03 303.8371 661.1048)" class="st120" cx="484.8" cy="177.5" rx="37" ry="37.4"/>
<ellipse transform="matrix(7.155853e-03 -1 1 7.155853e-03 306.5171 663.804)" class="st121" cx="487.5" cy="177.5" rx="37" ry="37.4"/>
<ellipse transform="matrix(7.147509e-03 -1 1 7.147509e-03 309.2009 666.5248)" class="st122" cx="490.3" cy="177.6" rx="37" ry="37.4"/>
<ellipse transform="matrix(7.155853e-03 -1 1 7.155853e-03 311.8868 669.2128)" class="st123" cx="493" cy="177.5" rx="37" ry="37.5"/>
<ellipse transform="matrix(7.146930e-03 -1 1 7.146930e-03 314.5712 671.9138)" class="st124" cx="495.7" cy="177.5" rx="37" ry="37.5"/>
<ellipse transform="matrix(7.155853e-03 -1 1 7.155853e-03 317.2367 674.6214)" class="st125" cx="498.4" cy="177.6" rx="37" ry="37.5"/>
<ellipse transform="matrix(7.146498e-03 -1 1 7.146498e-03 319.9312 677.3325)" class="st126" cx="501.1" cy="177.6" rx="37.1" ry="37.5"/>
<ellipse transform="matrix(7.155853e-03 -1 1 7.155853e-03 322.5964 680.04)" class="st127" cx="503.8" cy="177.6" rx="37.1" ry="37.5"/>
<ellipse transform="matrix(7.146020e-03 -1 1 7.146020e-03 325.2814 682.7411)" class="st128" cx="506.5" cy="177.6" rx="37.1" ry="37.5"/>
<ellipse transform="matrix(9.999500e-03 -0.9999 0.9999 9.999500e-03 327.4691 686.8511)" class="st129" cx="510.6" cy="178" rx="37.1" ry="37.5"/>
<ellipse transform="matrix(7.166500e-03 -1 1 7.166500e-03 330.6407 688.1462)" class="st130" cx="511.9" cy="177.6" rx="37.1" ry="37.5"/>
<ellipse transform="matrix(7.155853e-03 -1 1 7.155853e-03 333.326 690.8475)" class="st131" cx="514.6" cy="177.6" rx="37.1" ry="37.5"/>
<ellipse transform="matrix(7.167123e-03 -1 1 7.167123e-03 335.9902 693.5547)" class="st132" cx="517.3" cy="177.6" rx="37.2" ry="37.5"/>
<ellipse transform="matrix(7.155853e-03 -1 1 7.155853e-03 338.676 696.256)" class="st133" cx="520" cy="177.6" rx="37.2" ry="37.5"/>
<ellipse transform="matrix(7.155853e-03 -1 1 7.155853e-03 341.3658 698.9654)" class="st134" cx="522.7" cy="177.6" rx="37.2" ry="37.5"/>
<ellipse transform="matrix(7.143086e-03 -1 1 7.143086e-03 344.0424 701.677)" class="st135" cx="525.4" cy="177.6" rx="37.2" ry="37.5"/>
<ellipse transform="matrix(7.143086e-03 -1 1 7.143086e-03 346.7325 704.3665)" class="st136" cx="528.1" cy="177.6" rx="37.2" ry="37.5"/>
<ellipse transform="matrix(7.155853e-03 -1 1 7.155853e-03 349.3957 707.0734)" class="st137" cx="530.8" cy="177.6" rx="37.2" ry="37.5"/>
<ellipse transform="matrix(7.155853e-03 -1 1 7.155853e-03 352.0854 709.7828)" class="st138" cx="533.5" cy="177.6" rx="37.3" ry="37.5"/>
<ellipse transform="matrix(7.141130e-03 -1 1 7.141130e-03 354.7732 712.4848)" class="st139" cx="536.2" cy="177.6" rx="37.3" ry="37.5"/>
<ellipse transform="matrix(7.171162e-03 -1 1 7.171162e-03 357.4271 715.1886)" class="st140" cx="538.9" cy="177.6" rx="37.3" ry="37.5"/>
<ellipse transform="matrix(7.155853e-03 -1 1 7.155853e-03 360.1153 717.8907)" class="st141" cx="541.6" cy="177.6" rx="37.3" ry="37.5"/>
<ellipse transform="matrix(7.155853e-03 -1 1 7.155853e-03 362.805 720.6)" class="st142" cx="544.3" cy="177.6" rx="37.3" ry="37.6"/>
<ellipse transform="matrix(7.137636e-03 -1 1 7.137636e-03 365.4949 723.3028)" class="st143" cx="547" cy="177.6" rx="37.3" ry="37.6"/>
<ellipse transform="matrix(7.155853e-03 -1 1 7.155853e-03 368.165 725.9988)" class="st144" cx="549.7" cy="177.6" rx="37.4" ry="37.6"/>
<ellipse transform="matrix(7.155853e-03 -1 1 7.155853e-03 370.8349 728.708)" class="st145" cx="552.4" cy="177.6" rx="37.4" ry="37.6"/>
<ellipse transform="matrix(7.155853e-03 -1 1 7.155853e-03 373.5247 731.4174)" class="st146" cx="555.1" cy="177.6" rx="37.4" ry="37.6"/>
<ellipse transform="matrix(7.155853e-03 -1 1 7.155853e-03 376.2046 734.1168)" class="st147" cx="557.8" cy="177.6" rx="37.4" ry="37.6"/>
<ellipse transform="matrix(7.155853e-03 -1 1 7.155853e-03 378.8746 736.826)" class="st148" cx="560.5" cy="177.6" rx="37.4" ry="37.6"/>
<ellipse transform="matrix(7.155853e-03 -1 1 7.155853e-03 381.5744 739.5255)" class="st149" cx="563.2" cy="177.6" rx="37.4" ry="37.6"/>
<ellipse transform="matrix(7.155853e-03 -1 1 7.155853e-03 384.2444 742.2348)" class="st150" cx="565.9" cy="177.6" rx="37.5" ry="37.6"/>
<ellipse transform="matrix(7.155853e-03 -1 1 7.155853e-03 386.9243 744.934)" class="st151" cx="568.6" cy="177.6" rx="37.5" ry="37.6"/>
<ellipse transform="matrix(7.155853e-03 -1 1 7.155853e-03 389.6043 747.6334)" class="st152" cx="571.3" cy="177.6" rx="37.5" ry="37.6"/>
<ellipse transform="matrix(7.155853e-03 -1 1 7.155853e-03 392.284 750.3528)" class="st153" cx="574" cy="177.6" rx="37.5" ry="37.6"/>
<ellipse transform="matrix(7.155853e-03 -1 1 7.155853e-03 394.964 753.0521)" class="st154" cx="576.7" cy="177.6" rx="37.5" ry="37.6"/>
<ellipse transform="matrix(7.155853e-03 -1 1 7.155853e-03 397.6339 755.7612)" class="st155" cx="579.4" cy="177.6" rx="37.5" ry="37.6"/>
<ellipse transform="matrix(7.155853e-03 -1 1 7.155853e-03 400.3239 758.4507)" class="st156" cx="582.1" cy="177.6" rx="37.5" ry="37.6"/>
<ellipse transform="matrix(7.155853e-03 -1 1 7.155853e-03 403.0137 761.1602)" class="st157" cx="584.8" cy="177.6" rx="37.6" ry="37.6"/>
<ellipse transform="matrix(7.155853e-03 -1 1 7.155853e-03 405.6836 763.8694)" class="st158" cx="587.5" cy="177.6" rx="37.6" ry="37.6"/>
<ellipse transform="matrix(7.155853e-03 -1 1 7.155853e-03 408.3636 766.5687)" class="st159" cx="590.2" cy="177.6" rx="37.6" ry="37.6"/>
<ellipse transform="matrix(7.155853e-03 -1 1 7.155853e-03 411.0335 769.278)" class="st160" cx="592.9" cy="177.6" rx="37.6" ry="37.6"/>
<circle class="st161" cx="595.6" cy="177.6" r="37.6"/>
<text transform="matrix(1 0 0 1 124.08 243.53)" class="st162 st163">Low</text>
<text transform="matrix(1 0 0 1 570.63 246.92)" class="st162 st163">High</text>
</svg>
