<svg id="图层_1" data-name="图层 1" xmlns="http://www.w3.org/2000/svg" viewBox="0 0 753 307"><defs><style>.cls-1{fill:#e9e8e2;stroke:#000;stroke-miterlimit:10;}.cls-2{fill:red;}.cls-3{fill:#fe0001;}.cls-4{fill:#fd0002;}.cls-5{fill:#fc0003;}.cls-6{fill:#fb0004;}.cls-7{fill:#fa0005;}.cls-8{fill:#f90006;}.cls-9{fill:#f80007;}.cls-10{fill:#f70008;}.cls-11{fill:#f60009;}.cls-12{fill:#f5000a;}.cls-13{fill:#f4000b;}.cls-14{fill:#f3000c;}.cls-15{fill:#f2000d;}.cls-16{fill:#f1000e;}.cls-17{fill:#f0000f;}.cls-18{fill:#ef0010;}.cls-19{fill:#e01;}.cls-20{fill:#ed0012;}.cls-21{fill:#ec0013;}.cls-22{fill:#eb0014;}.cls-23{fill:#ea0015;}.cls-24{fill:#e90016;}.cls-25{fill:#e80017;}.cls-26{fill:#e70018;}.cls-27{fill:#e60019;}.cls-28{fill:#e5001a;}.cls-29{fill:#e4001b;}.cls-30{fill:#e3001c;}.cls-31{fill:#e2001d;}.cls-32{fill:#e1001e;}.cls-33{fill:#e0001f;}.cls-34{fill:#df0020;}.cls-35{fill:#de0021;}.cls-36{fill:#d02;}.cls-37{fill:#dc0023;}.cls-38{fill:#db0024;}.cls-39{fill:#da0025;}.cls-40{fill:#d90026;}.cls-41{fill:#d80027;}.cls-42{fill:#d70028;}.cls-43{fill:#d60029;}.cls-44{fill:#d5002a;}.cls-45{fill:#d4002b;}.cls-46{fill:#d3002c;}.cls-47{fill:#d2002d;}.cls-48{fill:#d1002e;}.cls-49{fill:#d0002f;}.cls-50{fill:#cf0030;}.cls-51{fill:#ce0031;}.cls-52{fill:#cd0032;}.cls-53{fill:#c03;}.cls-54{fill:#cb0034;}.cls-55{fill:#ca0035;}.cls-56{fill:#c90036;}.cls-57{fill:#c80037;}.cls-58{fill:#c70038;}.cls-59{fill:#c60039;}.cls-60{fill:#c5003a;}.cls-61{fill:#c4003b;}.cls-62{fill:#c3003c;}.cls-63{fill:#c2003d;}.cls-64{fill:#c1003e;}.cls-65{fill:#c0003f;}.cls-66{fill:#bf0040;}.cls-67{fill:#be0041;}.cls-68{fill:#bd0042;}.cls-69{fill:#bc0043;}.cls-70{fill:#b04;}.cls-71{fill:#ba0045;}.cls-72{fill:#b90046;}.cls-73{fill:#b80047;}.cls-74{fill:#b70048;}.cls-75{fill:#b60049;}.cls-76{fill:#b5004a;}.cls-77{fill:#b4004b;}.cls-78{fill:#b3004c;}.cls-79{fill:#b2004d;}.cls-80{fill:#b1004e;}.cls-81{fill:#b0004f;}.cls-82{fill:#af0050;}.cls-83{fill:#ae0051;}.cls-84{fill:#ad0052;}.cls-85{fill:#ac0053;}.cls-86{fill:#ab0054;}.cls-87{fill:#a05;}.cls-88{fill:#a90056;}.cls-89{fill:#a80057;}.cls-90{fill:#a70058;}.cls-91{fill:#a60059;}.cls-92{fill:#a5005a;}.cls-93{fill:#a4005b;}.cls-94{fill:#a3005c;}.cls-95{fill:#a2005d;}.cls-96{fill:#a1005e;}.cls-97{fill:#a0005f;}.cls-98{fill:#9f0060;}.cls-99{fill:#9e0061;}.cls-100{fill:#9d0062;}.cls-101{fill:#9c0063;}.cls-102{fill:#9b0064;}.cls-103{fill:#9a0065;}.cls-104{fill:#906;}.cls-105{fill:#980067;}.cls-106{fill:#970068;}.cls-107{fill:#960069;}.cls-108{fill:#95006a;}.cls-109{fill:#94006b;}.cls-110{fill:#93006c;}.cls-111{fill:#92006d;}.cls-112{fill:#91006e;}.cls-113{fill:#90006f;}.cls-114{fill:#8f0070;}.cls-115{fill:#8e0071;}.cls-116{fill:#8d0072;}.cls-117{fill:#8c0073;}.cls-118{fill:#8b0074;}.cls-119{fill:#8a0075;}.cls-120{fill:#890076;}.cls-121{fill:#807;}.cls-122{fill:#870078;}.cls-123{fill:#860079;}.cls-124{fill:#85007a;}.cls-125{fill:#84007b;}.cls-126{fill:#83007c;}.cls-127{fill:#82007d;}.cls-128{fill:#81007e;}.cls-129{fill:#80007f;}.cls-130{fill:#7f0080;}.cls-131{fill:#7e0081;}.cls-132{fill:#7d0082;}.cls-133{fill:#7c0083;}.cls-134{fill:#7b0084;}.cls-135{fill:#7a0085;}.cls-136{fill:#790086;}.cls-137{fill:#780087;}.cls-138{fill:#708;}.cls-139{fill:#760089;}.cls-140{fill:#75008a;}.cls-141{fill:#74008b;}.cls-142{fill:#73008c;}.cls-143{fill:#72008d;}.cls-144{fill:#71008e;}.cls-145{fill:#70008f;}.cls-146{fill:#6f0090;}.cls-147{fill:#6e0091;}.cls-148{fill:#6d0092;}.cls-149{fill:#6c0093;}.cls-150{fill:#6b0094;}.cls-151{fill:#6a0095;}.cls-152{fill:#690096;}.cls-153{fill:#680097;}.cls-154{fill:#670098;}.cls-155{fill:#609;}.cls-156{fill:#65009a;}.cls-157{fill:#64009b;}.cls-158{fill:#63009c;}.cls-159{fill:#62009d;}.cls-160{fill:#61009e;}.cls-161{fill:#60009f;}.cls-162{fill:#5f00a0;}.cls-163{fill:#5e00a1;}.cls-164{fill:#5d00a2;}.cls-165{fill:#5c00a3;}.cls-166{fill:#5b00a4;}.cls-167{fill:#5a00a5;}.cls-168{fill:#5900a6;}.cls-169{fill:#5800a7;}.cls-170{fill:#5700a8;}.cls-171{fill:#5600a9;}.cls-172{fill:#50a;}.cls-173{fill:#5400ab;}.cls-174{fill:#5300ac;}.cls-175{fill:#5200ad;}.cls-176{fill:#5100ae;}.cls-177{fill:#5000af;}.cls-178{fill:#4f00b0;}.cls-179{fill:#4e00b1;}.cls-180{fill:#4d00b2;}.cls-181{fill:#4c00b3;}.cls-182{fill:#4b00b4;}.cls-183{fill:#4a00b5;}.cls-184{fill:#4900b6;}.cls-185{fill:#4800b7;}.cls-186{fill:#4700b8;}.cls-187{fill:#4600b9;}.cls-188{fill:#4500ba;}.cls-189{fill:#40b;}.cls-190{fill:#4300bc;}.cls-191{fill:#4200bd;}.cls-192{fill:#4100be;}.cls-193{fill:#4000bf;}.cls-194{fill:#3f00c0;}.cls-195{fill:#3e00c1;}.cls-196{fill:#3d00c2;}.cls-197{fill:#3c00c3;}.cls-198{fill:#3b00c4;}.cls-199{fill:#3a00c5;}.cls-200{fill:#3900c6;}.cls-201{fill:#3800c7;}.cls-202{fill:#3700c8;}.cls-203{fill:#3600c9;}.cls-204{fill:#3500ca;}.cls-205{fill:#3400cb;}.cls-206{fill:#30c;}.cls-207{fill:#3200cd;}.cls-208{fill:#3100ce;}.cls-209{fill:#3000cf;}.cls-210{fill:#2f00d0;}.cls-211{fill:#2e00d1;}.cls-212{fill:#2d00d2;}.cls-213{fill:#2c00d3;}.cls-214{fill:#2b00d4;}.cls-215{fill:#2a00d5;}.cls-216{fill:#2900d6;}.cls-217{fill:#2800d7;}.cls-218{fill:#2700d8;}.cls-219{fill:#2600d9;}.cls-220{fill:#2500da;}.cls-221{fill:#2400db;}.cls-222{fill:#2300dc;}.cls-223{fill:#20d;}.cls-224{fill:#2100de;}.cls-225{fill:#2000df;}.cls-226{fill:#1f00e0;}.cls-227{fill:#1e00e1;}.cls-228{fill:#1d00e2;}.cls-229{fill:#1c00e3;}.cls-230{fill:#1b00e4;}.cls-231{fill:#1a00e5;}.cls-232{fill:#1900e6;}.cls-233{fill:#1800e7;}.cls-234{fill:#1700e8;}.cls-235{fill:#1600e9;}.cls-236{fill:#1500ea;}.cls-237{fill:#1400eb;}.cls-238{fill:#1300ec;}.cls-239{fill:#1200ed;}.cls-240{fill:#10e;}.cls-241{fill:#1000ef;}.cls-242{fill:#0f00f0;}.cls-243{fill:#0e00f1;}.cls-244{fill:#0d00f2;}.cls-245{fill:#0c00f3;}.cls-246{fill:#0b00f4;}.cls-247{fill:#0a00f5;}.cls-248{fill:#0900f6;}.cls-249{fill:#0800f7;}.cls-250{fill:#0700f8;}.cls-251{fill:#0600f9;}.cls-252{fill:#0500fa;}.cls-253{fill:#0400fb;}.cls-254{fill:#0300fc;}.cls-255{fill:#0200fd;}.cls-256{fill:#0100fe;}.cls-257{fill:blue;}.cls-258{font-size:21.07px;font-family:MicrosoftYaHei-Bold, Microsoft YaHei;font-weight:700;}.cls-259{letter-spacing:-0.03em;}</style></defs><title>图例</title><rect class="cls-1" x="56.41" y="31.74" width="632.89" height="256.5" rx="9.92"/><circle class="cls-2" cx="162" cy="164.82" r="36.86"/><circle class="cls-3" cx="163.65" cy="164.83" r="36.86"/><circle class="cls-4" cx="165.29" cy="164.84" r="36.86"/><circle class="cls-5" cx="166.93" cy="164.84" r="36.86"/><circle class="cls-6" cx="168.57" cy="164.85" r="36.86"/><circle class="cls-7" cx="170.21" cy="164.85" r="36.86"/><circle class="cls-8" cx="171.86" cy="164.86" r="36.86"/><circle class="cls-9" cx="173.5" cy="164.86" r="36.86"/><circle class="cls-10" cx="175.14" cy="164.87" r="36.86"/><circle class="cls-11" cx="176.78" cy="164.88" r="36.86"/><circle class="cls-12" cx="178.42" cy="164.88" r="36.86"/><circle class="cls-13" cx="180.07" cy="164.89" r="36.86"/><circle class="cls-14" cx="181.71" cy="164.89" r="36.86"/><circle class="cls-15" cx="183.35" cy="164.9" r="36.86"/><circle class="cls-16" cx="184.99" cy="164.9" r="36.86"/><circle class="cls-17" cx="186.63" cy="164.91" r="36.86"/><circle class="cls-18" cx="188.28" cy="164.92" r="36.86"/><circle class="cls-19" cx="189.92" cy="164.92" r="36.86"/><circle class="cls-20" cx="191.56" cy="164.93" r="36.86"/><circle class="cls-21" cx="193.2" cy="164.93" r="36.86"/><circle class="cls-22" cx="194.84" cy="164.94" r="36.86"/><circle class="cls-23" cx="196.49" cy="164.94" r="36.86"/><circle class="cls-24" cx="198.13" cy="164.95" r="36.86"/><circle class="cls-25" cx="199.77" cy="164.96" r="36.86"/><circle class="cls-26" cx="201.41" cy="164.96" r="36.86"/><circle class="cls-27" cx="203.05" cy="164.97" r="36.86"/><circle class="cls-28" cx="204.7" cy="164.97" r="36.86"/><circle class="cls-29" cx="206.34" cy="164.98" r="36.86"/><circle class="cls-30" cx="207.98" cy="164.99" r="36.86"/><circle class="cls-31" cx="209.62" cy="164.99" r="36.86"/><circle class="cls-32" cx="211.26" cy="165" r="36.86"/><circle class="cls-33" cx="212.91" cy="165" r="36.86"/><circle class="cls-34" cx="214.55" cy="165.01" r="36.86"/><circle class="cls-35" cx="216.19" cy="165.01" r="36.86"/><circle class="cls-36" cx="217.83" cy="165.02" r="36.86"/><circle class="cls-37" cx="219.47" cy="165.03" r="36.86"/><circle class="cls-38" cx="221.12" cy="165.03" r="36.86"/><circle class="cls-39" cx="222.76" cy="165.04" r="36.86"/><circle class="cls-40" cx="224.4" cy="165.04" r="36.86"/><circle class="cls-41" cx="226.04" cy="165.05" r="36.86"/><circle class="cls-42" cx="227.69" cy="165.05" r="36.86"/><circle class="cls-43" cx="229.33" cy="165.06" r="36.86"/><circle class="cls-44" cx="230.97" cy="165.07" r="36.86"/><circle class="cls-45" cx="232.61" cy="165.07" r="36.86"/><circle class="cls-46" cx="234.25" cy="165.08" r="36.86"/><circle class="cls-47" cx="235.9" cy="165.08" r="36.86"/><circle class="cls-48" cx="237.54" cy="165.09" r="36.86"/><circle class="cls-49" cx="239.18" cy="165.1" r="36.86"/><circle class="cls-50" cx="240.82" cy="165.1" r="36.86"/><circle class="cls-51" cx="242.46" cy="165.11" r="36.86"/><circle class="cls-52" cx="244.11" cy="165.11" r="36.86"/><circle class="cls-53" cx="245.75" cy="165.12" r="36.86"/><circle class="cls-54" cx="247.39" cy="165.12" r="36.86"/><circle class="cls-55" cx="249.03" cy="165.13" r="36.86"/><circle class="cls-56" cx="250.67" cy="165.14" r="36.86"/><circle class="cls-57" cx="252.32" cy="165.14" r="36.86"/><circle class="cls-58" cx="253.96" cy="165.15" r="36.86"/><circle class="cls-59" cx="255.6" cy="165.15" r="36.86"/><circle class="cls-60" cx="257.24" cy="165.16" r="36.86"/><circle class="cls-61" cx="258.88" cy="165.16" r="36.86"/><circle class="cls-62" cx="260.53" cy="165.17" r="36.86"/><circle class="cls-63" cx="262.17" cy="165.18" r="36.86"/><circle class="cls-64" cx="263.81" cy="165.18" r="36.86"/><circle class="cls-65" cx="265.45" cy="165.19" r="36.86"/><circle class="cls-66" cx="267.09" cy="165.19" r="36.86"/><circle class="cls-67" cx="268.74" cy="165.2" r="36.86"/><circle class="cls-68" cx="270.38" cy="165.21" r="36.86"/><circle class="cls-69" cx="272.02" cy="165.21" r="36.86"/><circle class="cls-70" cx="273.66" cy="165.22" r="36.86"/><circle class="cls-71" cx="275.3" cy="165.22" r="36.86"/><circle class="cls-72" cx="276.95" cy="165.23" r="36.86"/><circle class="cls-73" cx="278.59" cy="165.23" r="36.86"/><circle class="cls-74" cx="280.23" cy="165.24" r="36.86"/><circle class="cls-75" cx="281.87" cy="165.25" r="36.86"/><circle class="cls-76" cx="283.51" cy="165.25" r="36.86"/><circle class="cls-77" cx="285.16" cy="165.26" r="36.86"/><circle class="cls-78" cx="286.8" cy="165.26" r="36.86"/><circle class="cls-79" cx="288.44" cy="165.27" r="36.86"/><circle class="cls-80" cx="290.08" cy="165.27" r="36.86"/><circle class="cls-81" cx="291.72" cy="165.28" r="36.86"/><circle class="cls-82" cx="293.37" cy="165.29" r="36.86"/><circle class="cls-83" cx="295.01" cy="165.29" r="36.86"/><circle class="cls-84" cx="296.65" cy="165.3" r="36.86"/><circle class="cls-85" cx="298.29" cy="165.3" r="36.86"/><circle class="cls-86" cx="299.93" cy="165.31" r="36.86"/><circle class="cls-87" cx="301.58" cy="165.32" r="36.86"/><circle class="cls-88" cx="303.22" cy="165.32" r="36.86"/><circle class="cls-89" cx="304.86" cy="165.33" r="36.86"/><circle class="cls-90" cx="306.5" cy="165.33" r="36.86"/><circle class="cls-91" cx="308.15" cy="165.34" r="36.86"/><circle class="cls-92" cx="309.79" cy="165.34" r="36.86"/><circle class="cls-93" cx="311.43" cy="165.35" r="36.86"/><circle class="cls-94" cx="313.07" cy="165.36" r="36.86"/><circle class="cls-95" cx="314.71" cy="165.36" r="36.86"/><circle class="cls-96" cx="316.36" cy="165.37" r="36.86"/><circle class="cls-97" cx="318" cy="165.37" r="36.86"/><circle class="cls-98" cx="319.64" cy="165.38" r="36.86"/><circle class="cls-99" cx="321.28" cy="165.38" r="36.86"/><circle class="cls-100" cx="322.92" cy="165.39" r="36.86"/><circle class="cls-101" cx="324.57" cy="165.4" r="36.86"/><circle class="cls-102" cx="326.21" cy="165.4" r="36.86"/><circle class="cls-103" cx="327.85" cy="165.41" r="36.86"/><circle class="cls-104" cx="329.49" cy="165.41" r="36.86"/><circle class="cls-105" cx="331.13" cy="165.42" r="36.86"/><circle class="cls-106" cx="332.78" cy="165.42" r="36.86"/><circle class="cls-107" cx="334.42" cy="165.43" r="36.86"/><circle class="cls-108" cx="336.06" cy="165.44" r="36.86"/><circle class="cls-109" cx="337.7" cy="165.44" r="36.86"/><circle class="cls-110" cx="339.34" cy="165.45" r="36.86"/><circle class="cls-111" cx="340.99" cy="165.45" r="36.86"/><circle class="cls-112" cx="342.63" cy="165.46" r="36.86"/><circle class="cls-113" cx="344.27" cy="165.47" r="36.86"/><circle class="cls-114" cx="345.91" cy="165.47" r="36.86"/><circle class="cls-115" cx="347.55" cy="165.48" r="36.86"/><circle class="cls-116" cx="349.2" cy="165.48" r="36.86"/><circle class="cls-117" cx="350.84" cy="165.49" r="36.86"/><circle class="cls-118" cx="352.48" cy="165.49" r="36.86"/><circle class="cls-119" cx="354.12" cy="165.5" r="36.86"/><circle class="cls-120" cx="355.76" cy="165.51" r="36.86"/><circle class="cls-121" cx="357.41" cy="165.51" r="36.86"/><circle class="cls-122" cx="359.05" cy="165.52" r="36.86"/><circle class="cls-123" cx="360.69" cy="165.52" r="36.86"/><circle class="cls-124" cx="362.33" cy="165.53" r="36.86"/><circle class="cls-125" cx="363.97" cy="165.53" r="36.86"/><circle class="cls-126" cx="365.62" cy="165.54" r="36.86"/><circle class="cls-127" cx="367.26" cy="165.55" r="36.86"/><circle class="cls-128" cx="368.9" cy="165.55" r="36.86"/><circle class="cls-129" cx="370.54" cy="165.56" r="36.86"/><circle class="cls-130" cx="372.18" cy="165.56" r="36.86"/><circle class="cls-131" cx="373.83" cy="165.57" r="36.86"/><circle class="cls-132" cx="375.47" cy="165.58" r="36.86"/><circle class="cls-133" cx="377.11" cy="165.58" r="36.86"/><circle class="cls-134" cx="378.75" cy="165.59" r="36.86"/><circle class="cls-135" cx="380.39" cy="165.59" r="36.86"/><circle class="cls-136" cx="382.04" cy="165.6" r="36.86"/><circle class="cls-137" cx="383.68" cy="165.6" r="36.86"/><circle class="cls-138" cx="385.32" cy="165.61" r="36.86"/><circle class="cls-139" cx="386.96" cy="165.62" r="36.86"/><circle class="cls-140" cx="388.61" cy="165.62" r="36.86"/><circle class="cls-141" cx="390.25" cy="165.63" r="36.86"/><circle class="cls-142" cx="391.89" cy="165.63" r="36.86"/><circle class="cls-143" cx="393.53" cy="165.64" r="36.86"/><circle class="cls-144" cx="395.17" cy="165.64" r="36.86"/><circle class="cls-145" cx="396.82" cy="165.65" r="36.86"/><circle class="cls-146" cx="398.46" cy="165.66" r="36.86"/><circle class="cls-147" cx="400.1" cy="165.66" r="36.86"/><circle class="cls-148" cx="401.74" cy="165.67" r="36.86"/><circle class="cls-149" cx="403.38" cy="165.67" r="36.86"/><circle class="cls-150" cx="405.03" cy="165.68" r="36.86"/><circle class="cls-151" cx="406.67" cy="165.69" r="36.86"/><circle class="cls-152" cx="408.31" cy="165.69" r="36.86"/><circle class="cls-153" cx="409.95" cy="165.7" r="36.86"/><circle class="cls-154" cx="411.59" cy="165.7" r="36.86"/><circle class="cls-155" cx="413.24" cy="165.71" r="36.86"/><circle class="cls-156" cx="414.88" cy="165.71" r="36.86"/><circle class="cls-157" cx="416.52" cy="165.72" r="36.86"/><circle class="cls-158" cx="418.16" cy="165.73" r="36.86"/><circle class="cls-159" cx="419.8" cy="165.73" r="36.86"/><circle class="cls-160" cx="421.45" cy="165.74" r="36.86"/><circle class="cls-161" cx="423.09" cy="165.74" r="36.86"/><circle class="cls-162" cx="424.73" cy="165.75" r="36.86"/><circle class="cls-163" cx="426.37" cy="165.75" r="36.86"/><circle class="cls-164" cx="428.01" cy="165.76" r="36.86"/><circle class="cls-165" cx="429.66" cy="165.77" r="36.86"/><circle class="cls-166" cx="431.3" cy="165.77" r="36.86"/><circle class="cls-167" cx="432.94" cy="165.78" r="36.86"/><circle class="cls-168" cx="434.58" cy="165.78" r="36.86"/><circle class="cls-169" cx="436.22" cy="165.79" r="36.86"/><circle class="cls-170" cx="437.87" cy="165.79" r="36.86"/><circle class="cls-171" cx="439.51" cy="165.8" r="36.86"/><circle class="cls-172" cx="441.15" cy="165.81" r="36.86"/><circle class="cls-173" cx="442.79" cy="165.81" r="36.86"/><circle class="cls-174" cx="444.43" cy="165.82" r="36.86"/><circle class="cls-175" cx="446.08" cy="165.82" r="36.86"/><circle class="cls-176" cx="447.72" cy="165.83" r="36.86"/><circle class="cls-177" cx="449.36" cy="165.84" r="36.86"/><circle class="cls-178" cx="451" cy="165.84" r="36.86"/><circle class="cls-179" cx="452.64" cy="165.85" r="36.86"/><circle class="cls-180" cx="454.29" cy="165.85" r="36.86"/><circle class="cls-181" cx="455.93" cy="165.86" r="36.86"/><circle class="cls-182" cx="457.57" cy="165.86" r="36.86"/><circle class="cls-183" cx="459.21" cy="165.87" r="36.86"/><circle class="cls-184" cx="460.85" cy="165.88" r="36.86"/><circle class="cls-185" cx="462.5" cy="165.88" r="36.86"/><circle class="cls-186" cx="464.14" cy="165.89" r="36.86"/><circle class="cls-187" cx="465.78" cy="165.89" r="36.86"/><circle class="cls-188" cx="467.42" cy="165.9" r="36.86"/><circle class="cls-189" cx="469.07" cy="165.9" r="36.86"/><circle class="cls-190" cx="470.71" cy="165.91" r="36.86"/><circle class="cls-191" cx="472.35" cy="165.92" r="36.86"/><circle class="cls-192" cx="473.99" cy="165.92" r="36.86"/><circle class="cls-193" cx="475.63" cy="165.93" r="36.86"/><circle class="cls-194" cx="477.28" cy="165.93" r="36.86"/><circle class="cls-195" cx="478.92" cy="165.94" r="36.86"/><circle class="cls-196" cx="480.56" cy="165.95" r="36.86"/><circle class="cls-197" cx="482.2" cy="165.95" r="36.86"/><circle class="cls-198" cx="483.84" cy="165.96" r="36.86"/><circle class="cls-199" cx="485.49" cy="165.96" r="36.86"/><circle class="cls-200" cx="487.13" cy="165.97" r="36.86"/><circle class="cls-201" cx="488.77" cy="165.97" r="36.86"/><circle class="cls-202" cx="490.41" cy="165.98" r="36.86"/><circle class="cls-203" cx="492.05" cy="165.99" r="36.86"/><circle class="cls-204" cx="493.7" cy="165.99" r="36.86"/><circle class="cls-205" cx="495.34" cy="166" r="36.86"/><circle class="cls-206" cx="496.98" cy="166" r="36.86"/><circle class="cls-207" cx="498.62" cy="166.01" r="36.86"/><circle class="cls-208" cx="500.26" cy="166.01" r="36.86"/><circle class="cls-209" cx="501.91" cy="166.02" r="36.86"/><circle class="cls-210" cx="503.55" cy="166.03" r="36.86"/><circle class="cls-211" cx="505.19" cy="166.03" r="36.86"/><circle class="cls-212" cx="506.83" cy="166.04" r="36.86"/><circle class="cls-213" cx="508.47" cy="166.04" r="36.86"/><circle class="cls-214" cx="510.12" cy="166.05" r="36.86"/><circle class="cls-215" cx="511.76" cy="166.06" r="36.86"/><circle class="cls-216" cx="513.4" cy="166.06" r="36.86"/><circle class="cls-217" cx="515.04" cy="166.07" r="36.86"/><circle class="cls-218" cx="516.68" cy="166.07" r="36.86"/><circle class="cls-219" cx="518.33" cy="166.08" r="36.86"/><circle class="cls-220" cx="519.97" cy="166.08" r="36.86"/><circle class="cls-221" cx="521.61" cy="166.09" r="36.86"/><circle class="cls-222" cx="523.25" cy="166.1" r="36.86"/><circle class="cls-223" cx="524.89" cy="166.1" r="36.86"/><circle class="cls-224" cx="526.54" cy="166.11" r="36.86"/><circle class="cls-225" cx="528.18" cy="166.11" r="36.86"/><circle class="cls-226" cx="529.82" cy="166.12" r="36.86"/><circle class="cls-227" cx="531.46" cy="166.12" r="36.86"/><circle class="cls-228" cx="533.1" cy="166.13" r="36.86"/><circle class="cls-229" cx="534.75" cy="166.14" r="36.86"/><circle class="cls-230" cx="536.39" cy="166.14" r="36.86"/><circle class="cls-231" cx="538.03" cy="166.15" r="36.86"/><circle class="cls-232" cx="539.67" cy="166.15" r="36.86"/><circle class="cls-233" cx="541.31" cy="166.16" r="36.86"/><circle class="cls-234" cx="542.96" cy="166.16" r="36.86"/><circle class="cls-235" cx="544.6" cy="166.17" r="36.86"/><circle class="cls-236" cx="546.24" cy="166.18" r="36.86"/><circle class="cls-237" cx="547.88" cy="166.18" r="36.86"/><circle class="cls-238" cx="549.53" cy="166.19" r="36.86"/><circle class="cls-239" cx="551.17" cy="166.19" r="36.86"/><circle class="cls-240" cx="552.81" cy="166.2" r="36.86"/><circle class="cls-241" cx="554.45" cy="166.21" r="36.86"/><circle class="cls-242" cx="556.09" cy="166.21" r="36.86"/><circle class="cls-243" cx="557.74" cy="166.22" r="36.86"/><circle class="cls-244" cx="559.38" cy="166.22" r="36.86"/><circle class="cls-245" cx="561.02" cy="166.23" r="36.86"/><circle class="cls-246" cx="562.66" cy="166.23" r="36.86"/><circle class="cls-247" cx="564.3" cy="166.24" r="36.86"/><circle class="cls-248" cx="565.95" cy="166.25" r="36.86"/><circle class="cls-249" cx="567.59" cy="166.25" r="36.86"/><circle class="cls-250" cx="569.23" cy="166.26" r="36.86"/><circle class="cls-251" cx="570.87" cy="166.26" r="36.86"/><circle class="cls-252" cx="572.51" cy="166.27" r="36.86"/><circle class="cls-253" cx="574.16" cy="166.27" r="36.86"/><circle class="cls-254" cx="575.8" cy="166.28" r="36.86"/><circle class="cls-255" cx="577.44" cy="166.29" r="36.86"/><circle class="cls-256" cx="579.08" cy="166.29" r="36.86"/><circle class="cls-257" cx="580.72" cy="166.3" r="36.86"/><text class="cls-258" transform="translate(121.32 234.74)"><tspan class="cls-259">R</tspan><tspan x="14.14" y="0">epublic</tspan></text><text class="cls-258" transform="translate(509.5 233.67)">Democracy</text></svg>