<svg id="图层_1" data-name="图层 1" xmlns="http://www.w3.org/2000/svg" viewBox="0 0 750 367"><defs><style>.cls-1,.cls-2{fill:#e9e8e2;}.cls-1{stroke:#000;stroke-miterlimit:10;}.cls-3{fill:#e8e7e1;}.cls-4{fill:#e7e6e0;}.cls-5{fill:#e6e5df;}.cls-6{fill:#e5e4de;}.cls-7{fill:#e4e3dd;}.cls-8{fill:#e3e2dc;}.cls-9{fill:#e2e1db;}.cls-10{fill:#e1e0da;}.cls-11{fill:#e0dfd9;}.cls-12{fill:#dfded8;}.cls-13{fill:#deddd7;}.cls-14{fill:#dddcd7;}.cls-15{fill:#dcdbd6;}.cls-16{fill:#dbdad5;}.cls-17{fill:#dad9d4;}.cls-18{fill:#d9d8d3;}.cls-19{fill:#d8d7d2;}.cls-20{fill:#d7d6d1;}.cls-21{fill:#d6d5d0;}.cls-22{fill:#d5d4cf;}.cls-23{fill:#d4d3ce;}.cls-24{fill:#d3d2cd;}.cls-25{fill:#d2d1cc;}.cls-26{fill:#d1d0cb;}.cls-27{fill:#d0cfca;}.cls-28{fill:#cfcec9;}.cls-29{fill:#cecdc8;}.cls-30{fill:#cdccc7;}.cls-31{fill:#cccbc6;}.cls-32{fill:#cbcac5;}.cls-33{fill:#cac9c4;}.cls-34{fill:#c9c8c3;}.cls-35{fill:#c8c7c2;}.cls-36{fill:#c7c6c1;}.cls-37{fill:#c6c5c1;}.cls-38{fill:#c5c4c0;}.cls-39{fill:#c4c3bf;}.cls-40{fill:#c3c2be;}.cls-41{fill:#c2c1bd;}.cls-42{fill:#c1c0bc;}.cls-43{fill:#c0bfbb;}.cls-44{fill:#bfbeba;}.cls-45{fill:#bebdb9;}.cls-46{fill:#bdbcb8;}.cls-47{fill:#bcbbb7;}.cls-48{fill:#bbbab6;}.cls-49{fill:#bab9b5;}.cls-50{fill:#b9b8b4;}.cls-51{fill:#b8b7b3;}.cls-52{fill:#b7b6b2;}.cls-53{fill:#b6b5b1;}.cls-54{fill:#b5b4b0;}.cls-55{fill:#b4b3af;}.cls-56{fill:#b3b2ae;}.cls-57{fill:#b2b1ad;}.cls-58{fill:#b1b0ac;}.cls-59{fill:#b0afab;}.cls-60{fill:#afaeab;}.cls-61{fill:#aeadaa;}.cls-62{fill:#adaca9;}.cls-63{fill:#acaba8;}.cls-64{fill:#abaaa7;}.cls-65{fill:#aaa9a6;}.cls-66{fill:#a9a8a5;}.cls-67{fill:#a8a7a4;}.cls-68{fill:#a7a6a3;}.cls-69{fill:#a6a5a2;}.cls-70{fill:#a5a4a1;}.cls-71{fill:#a4a3a0;}.cls-72{fill:#a3a29f;}.cls-73{fill:#a2a19e;}.cls-74{fill:#a1a09d;}.cls-75{fill:#a09f9c;}.cls-76{fill:#9f9e9b;}.cls-77{fill:#9e9d9a;}.cls-78{fill:#9d9c99;}.cls-79{fill:#9c9b98;}.cls-80{fill:#9b9a97;}.cls-81{fill:#9a9996;}.cls-82{fill:#999996;}.cls-83{fill:#989895;}.cls-84{fill:#979794;}.cls-85{fill:#969693;}.cls-86{fill:#959592;}.cls-87{fill:#949491;}.cls-88{fill:#939390;}.cls-89{fill:#92928f;}.cls-90{fill:#91918e;}.cls-91{fill:#90908d;}.cls-92{fill:#8f8f8c;}.cls-93{fill:#8e8e8b;}.cls-94{fill:#8d8d8a;}.cls-95{fill:#8c8c89;}.cls-96{fill:#8b8b88;}.cls-97{fill:#8a8a87;}.cls-98{fill:#898986;}.cls-99{fill:#888885;}.cls-100{fill:#878784;}.cls-101{fill:#868683;}.cls-102{fill:#858582;}.cls-103{fill:#848481;}.cls-104{fill:#838380;}.cls-105{fill:#828280;}.cls-106{fill:#81817f;}.cls-107{fill:#80807e;}.cls-108{fill:#7f7f7d;}.cls-109{fill:#7e7e7c;}.cls-110{fill:#7d7d7b;}.cls-111{fill:#7c7c7a;}.cls-112{fill:#7b7b79;}.cls-113{fill:#7a7a78;}.cls-114{fill:#797977;}.cls-115{fill:#787876;}.cls-116{fill:#777775;}.cls-117{fill:#767674;}.cls-118{fill:#757573;}.cls-119{fill:#747472;}.cls-120{fill:#737371;}.cls-121{fill:#727270;}.cls-122{fill:#71716f;}.cls-123{fill:#70706e;}.cls-124{fill:#6f6f6d;}.cls-125{fill:#6e6e6c;}.cls-126{fill:#6d6d6b;}.cls-127{fill:#6c6c6a;}.cls-128{fill:#6b6b6a;}.cls-129{fill:#6a6a69;}.cls-130{fill:#696968;}.cls-131{fill:#686867;}.cls-132{fill:#676766;}.cls-133{fill:#666665;}.cls-134{fill:#656564;}.cls-135{fill:#646463;}.cls-136{fill:#636362;}.cls-137{fill:#626261;}.cls-138{fill:#616160;}.cls-139{fill:#60605f;}.cls-140{fill:#5f5f5e;}.cls-141{fill:#5e5e5d;}.cls-142{fill:#5d5d5c;}.cls-143{fill:#5c5c5b;}.cls-144{fill:#5b5b5a;}.cls-145{fill:#5a5a59;}.cls-146{fill:#595958;}.cls-147{fill:#585857;}.cls-148{fill:#575756;}.cls-149{fill:#565655;}.cls-150{fill:#555554;}.cls-151{fill:#545454;}.cls-152{fill:#535353;}.cls-153{fill:#525252;}.cls-154{fill:#515151;}.cls-155{fill:#505050;}.cls-156{fill:#4f4f4f;}.cls-157{fill:#4e4e4e;}.cls-158{fill:#4d4d4d;}.cls-159{fill:#4c4c4c;}.cls-160{fill:#4b4b4b;}.cls-161{fill:#4a4a4a;}.cls-162{fill:#494949;}.cls-163{font-size:21.51px;font-family:MicrosoftYaHei-Bold, Microsoft YaHei;font-weight:700;}.cls-164{letter-spacing:-0.03em;}.cls-165{letter-spacing:0em;}</style></defs><title>图例</title><rect class="cls-1" x="60.41" y="54.74" width="632.89" height="256.5" rx="9.92"/><ellipse class="cls-2" cx="163.35" cy="177.23" rx="35" ry="36.88" transform="translate(-15.04 339.32) rotate(-89.59)"/><ellipse class="cls-3" cx="166.05" cy="177.23" rx="35.02" ry="36.89" transform="translate(-12.36 342.02) rotate(-89.59)"/><ellipse class="cls-4" cx="168.76" cy="177.24" rx="35.03" ry="36.89" transform="translate(-9.68 344.73) rotate(-89.59)"/><ellipse class="cls-5" cx="171.46" cy="177.24" rx="35.05" ry="36.9" transform="translate(-7 347.43) rotate(-89.59)"/><ellipse class="cls-6" cx="174.16" cy="177.24" rx="35.07" ry="36.9" transform="translate(-4.32 350.13) rotate(-89.59)"/><ellipse class="cls-7" cx="176.86" cy="177.24" rx="35.08" ry="36.91" transform="translate(-1.64 352.84) rotate(-89.59)"/><ellipse class="cls-8" cx="179.56" cy="177.25" rx="35.1" ry="36.91" transform="translate(1.04 355.54) rotate(-89.59)"/><ellipse class="cls-9" cx="182.26" cy="177.25" rx="35.12" ry="36.92" transform="translate(3.72 358.25) rotate(-89.59)"/><ellipse class="cls-10" cx="184.96" cy="177.25" rx="35.13" ry="36.92" transform="translate(6.4 360.95) rotate(-89.59)"/><ellipse class="cls-11" cx="187.67" cy="177.25" rx="35.15" ry="36.93" transform="translate(9.08 363.65) rotate(-89.59)"/><ellipse class="cls-12" cx="190.37" cy="177.26" rx="35.17" ry="36.93" transform="translate(11.76 366.36) rotate(-89.59)"/><ellipse class="cls-13" cx="193.07" cy="177.26" rx="35.18" ry="36.93" transform="translate(14.44 369.06) rotate(-89.59)"/><ellipse class="cls-14" cx="195.77" cy="177.26" rx="35.2" ry="36.94" transform="translate(17.12 371.77) rotate(-89.59)"/><ellipse class="cls-15" cx="198.47" cy="177.26" rx="35.22" ry="36.94" transform="translate(19.8 374.47) rotate(-89.59)"/><ellipse class="cls-16" cx="201.17" cy="177.27" rx="35.23" ry="36.95" transform="translate(22.48 377.17) rotate(-89.59)"/><ellipse class="cls-17" cx="203.88" cy="177.27" rx="35.25" ry="36.95" transform="translate(25.16 379.88) rotate(-89.59)"/><ellipse class="cls-18" cx="206.58" cy="177.27" rx="35.26" ry="36.96" transform="translate(27.84 382.58) rotate(-89.59)"/><ellipse class="cls-19" cx="209.28" cy="177.27" rx="35.28" ry="36.96" transform="translate(30.52 385.29) rotate(-89.59)"/><ellipse class="cls-20" cx="211.98" cy="177.28" rx="35.3" ry="36.97" transform="translate(33.2 387.99) rotate(-89.59)"/><ellipse class="cls-21" cx="214.68" cy="177.28" rx="35.31" ry="36.97" transform="translate(35.88 390.69) rotate(-89.59)"/><ellipse class="cls-22" cx="217.38" cy="177.28" rx="35.33" ry="36.98" transform="translate(38.56 393.4) rotate(-89.59)"/><ellipse class="cls-23" cx="220.08" cy="177.28" rx="35.35" ry="36.98" transform="translate(41.24 396.1) rotate(-89.59)"/><ellipse class="cls-24" cx="222.79" cy="177.29" rx="35.36" ry="36.99" transform="translate(43.92 398.8) rotate(-89.59)"/><ellipse class="cls-25" cx="225.49" cy="177.29" rx="35.38" ry="36.99" transform="translate(46.6 401.51) rotate(-89.59)"/><ellipse class="cls-26" cx="228.19" cy="177.29" rx="35.4" ry="37" transform="translate(49.28 404.21) rotate(-89.59)"/><ellipse class="cls-27" cx="230.89" cy="177.29" rx="35.41" ry="37" transform="translate(51.96 406.92) rotate(-89.59)"/><ellipse class="cls-28" cx="233.59" cy="177.3" rx="35.43" ry="37.01" transform="translate(54.64 409.62) rotate(-89.59)"/><ellipse class="cls-29" cx="236.29" cy="177.3" rx="35.45" ry="37.01" transform="translate(57.32 412.32) rotate(-89.59)"/><ellipse class="cls-30" cx="238.99" cy="177.3" rx="35.46" ry="37.01" transform="translate(60 415.03) rotate(-89.59)"/><ellipse class="cls-31" cx="241.7" cy="177.3" rx="35.48" ry="37.02" transform="translate(62.68 417.73) rotate(-89.59)"/><ellipse class="cls-32" cx="244.4" cy="177.31" rx="35.49" ry="37.02" transform="translate(65.36 420.44) rotate(-89.59)"/><ellipse class="cls-33" cx="247.1" cy="177.31" rx="35.51" ry="37.03" transform="translate(68.04 423.14) rotate(-89.59)"/><ellipse class="cls-34" cx="249.8" cy="177.31" rx="35.53" ry="37.03" transform="translate(70.72 425.84) rotate(-89.59)"/><ellipse class="cls-35" cx="252.5" cy="177.31" rx="35.54" ry="37.04" transform="translate(73.4 428.55) rotate(-89.59)"/><ellipse class="cls-36" cx="255.2" cy="177.32" rx="35.56" ry="37.04" transform="translate(76.08 431.25) rotate(-89.59)"/><ellipse class="cls-37" cx="257.91" cy="177.32" rx="35.58" ry="37.05" transform="translate(78.76 433.96) rotate(-89.59)"/><ellipse class="cls-38" cx="260.61" cy="177.32" rx="35.59" ry="37.05" transform="translate(81.44 436.66) rotate(-89.59)"/><ellipse class="cls-39" cx="263.31" cy="177.32" rx="35.61" ry="37.06" transform="translate(84.11 439.36) rotate(-89.59)"/><ellipse class="cls-40" cx="266.01" cy="177.33" rx="35.63" ry="37.06" transform="translate(86.79 442.07) rotate(-89.59)"/><ellipse class="cls-41" cx="268.71" cy="177.33" rx="35.64" ry="37.07" transform="translate(89.47 444.77) rotate(-89.59)"/><ellipse class="cls-42" cx="271.41" cy="177.33" rx="35.66" ry="37.07" transform="translate(92.15 447.48) rotate(-89.59)"/><ellipse class="cls-43" cx="274.11" cy="177.33" rx="35.68" ry="37.08" transform="translate(94.83 450.18) rotate(-89.59)"/><ellipse class="cls-44" cx="276.82" cy="177.34" rx="35.69" ry="37.08" transform="translate(97.51 452.88) rotate(-89.59)"/><ellipse class="cls-45" cx="279.52" cy="177.34" rx="35.71" ry="37.09" transform="translate(100.19 455.59) rotate(-89.59)"/><ellipse class="cls-46" cx="282.22" cy="177.34" rx="35.73" ry="37.09" transform="translate(102.87 458.29) rotate(-89.59)"/><ellipse class="cls-47" cx="284.92" cy="177.34" rx="35.74" ry="37.09" transform="translate(105.55 461) rotate(-89.59)"/><ellipse class="cls-48" cx="287.62" cy="177.35" rx="35.76" ry="37.1" transform="translate(108.23 463.7) rotate(-89.59)"/><ellipse class="cls-49" cx="290.32" cy="177.35" rx="35.77" ry="37.1" transform="translate(110.91 466.4) rotate(-89.59)"/><ellipse class="cls-50" cx="293.02" cy="177.35" rx="35.79" ry="37.11" transform="translate(113.59 469.11) rotate(-89.59)"/><ellipse class="cls-51" cx="295.73" cy="177.35" rx="35.81" ry="37.11" transform="translate(116.27 471.81) rotate(-89.59)"/><ellipse class="cls-52" cx="298.43" cy="177.36" rx="35.82" ry="37.12" transform="translate(118.95 474.52) rotate(-89.59)"/><ellipse class="cls-53" cx="301.13" cy="177.36" rx="35.84" ry="37.12" transform="translate(121.63 477.22) rotate(-89.59)"/><ellipse class="cls-54" cx="303.83" cy="177.36" rx="35.86" ry="37.13" transform="translate(124.31 479.92) rotate(-89.59)"/><ellipse class="cls-55" cx="306.53" cy="177.36" rx="35.87" ry="37.13" transform="translate(126.99 482.63) rotate(-89.59)"/><ellipse class="cls-56" cx="309.23" cy="177.37" rx="35.89" ry="37.14" transform="translate(129.67 485.33) rotate(-89.59)"/><ellipse class="cls-57" cx="311.94" cy="177.37" rx="35.91" ry="37.14" transform="translate(132.35 488.04) rotate(-89.59)"/><ellipse class="cls-58" cx="314.64" cy="177.37" rx="35.92" ry="37.15" transform="translate(135.03 490.74) rotate(-89.59)"/><ellipse class="cls-59" cx="317.34" cy="177.37" rx="35.94" ry="37.15" transform="translate(137.71 493.44) rotate(-89.59)"/><ellipse class="cls-60" cx="320.04" cy="177.38" rx="35.96" ry="37.16" transform="translate(140.39 496.15) rotate(-89.59)"/><ellipse class="cls-61" cx="322.74" cy="177.38" rx="35.97" ry="37.16" transform="translate(143.07 498.85) rotate(-89.59)"/><ellipse class="cls-62" cx="325.44" cy="177.38" rx="35.99" ry="37.17" transform="translate(145.75 501.55) rotate(-89.59)"/><ellipse class="cls-63" cx="328.14" cy="177.38" rx="36.01" ry="37.17" transform="translate(148.43 504.26) rotate(-89.59)"/><ellipse class="cls-64" cx="330.85" cy="177.39" rx="36.02" ry="37.17" transform="translate(151.11 506.96) rotate(-89.59)"/><ellipse class="cls-65" cx="333.55" cy="177.39" rx="36.04" ry="37.18" transform="translate(153.79 509.67) rotate(-89.59)"/><ellipse class="cls-66" cx="336.25" cy="177.39" rx="36.05" ry="37.18" transform="translate(156.47 512.37) rotate(-89.59)"/><ellipse class="cls-67" cx="338.95" cy="177.4" rx="36.07" ry="37.19" transform="translate(159.15 515.07) rotate(-89.59)"/><ellipse class="cls-68" cx="341.65" cy="177.4" rx="36.09" ry="37.19" transform="translate(161.83 517.78) rotate(-89.59)"/><ellipse class="cls-69" cx="344.35" cy="177.4" rx="36.1" ry="37.2" transform="translate(164.51 520.48) rotate(-89.59)"/><ellipse class="cls-70" cx="347.05" cy="177.4" rx="36.12" ry="37.2" transform="translate(167.19 523.19) rotate(-89.59)"/><ellipse class="cls-71" cx="349.76" cy="177.41" rx="36.14" ry="37.21" transform="translate(169.87 525.89) rotate(-89.59)"/><ellipse class="cls-72" cx="352.46" cy="177.41" rx="36.15" ry="37.21" transform="translate(172.55 528.59) rotate(-89.59)"/><ellipse class="cls-73" cx="355.16" cy="177.41" rx="36.17" ry="37.22" transform="translate(175.23 531.3) rotate(-89.59)"/><ellipse class="cls-74" cx="357.86" cy="177.41" rx="36.19" ry="37.22" transform="translate(177.91 534) rotate(-89.59)"/><ellipse class="cls-75" cx="360.56" cy="177.42" rx="36.2" ry="37.23" transform="translate(180.59 536.71) rotate(-89.59)"/><ellipse class="cls-76" cx="363.26" cy="177.42" rx="36.22" ry="37.23" transform="translate(183.27 539.41) rotate(-89.59)"/><ellipse class="cls-77" cx="365.97" cy="177.42" rx="36.24" ry="37.24" transform="translate(185.95 542.11) rotate(-89.59)"/><ellipse class="cls-78" cx="368.67" cy="177.42" rx="36.25" ry="37.24" transform="translate(188.63 544.82) rotate(-89.59)"/><ellipse class="cls-79" cx="371.37" cy="177.43" rx="36.27" ry="37.24" transform="translate(191.31 547.52) rotate(-89.59)"/><ellipse class="cls-80" cx="374.07" cy="177.43" rx="36.29" ry="37.25" transform="translate(193.98 550.23) rotate(-89.59)"/><ellipse class="cls-81" cx="376.77" cy="177.43" rx="36.3" ry="37.25" transform="translate(196.66 552.93) rotate(-89.59)"/><ellipse class="cls-82" cx="379.47" cy="177.43" rx="36.32" ry="37.26" transform="translate(199.34 555.63) rotate(-89.59)"/><ellipse class="cls-83" cx="382.17" cy="177.44" rx="36.33" ry="37.26" transform="translate(202.02 558.34) rotate(-89.59)"/><ellipse class="cls-84" cx="384.88" cy="177.44" rx="36.35" ry="37.27" transform="translate(204.7 561.04) rotate(-89.59)"/><ellipse class="cls-85" cx="387.58" cy="177.44" rx="36.37" ry="37.27" transform="translate(207.38 563.75) rotate(-89.59)"/><ellipse class="cls-86" cx="390.28" cy="177.44" rx="36.38" ry="37.28" transform="translate(210.06 566.45) rotate(-89.59)"/><ellipse class="cls-87" cx="392.98" cy="177.45" rx="36.4" ry="37.28" transform="translate(212.74 569.15) rotate(-89.59)"/><ellipse class="cls-88" cx="395.68" cy="177.45" rx="36.42" ry="37.29" transform="translate(215.42 571.86) rotate(-89.59)"/><ellipse class="cls-89" cx="398.38" cy="177.45" rx="36.43" ry="37.29" transform="translate(218.1 574.56) rotate(-89.59)"/><ellipse class="cls-90" cx="401.08" cy="177.45" rx="36.45" ry="37.3" transform="translate(220.78 577.27) rotate(-89.59)"/><ellipse class="cls-91" cx="403.79" cy="177.46" rx="36.47" ry="37.3" transform="translate(223.46 579.97) rotate(-89.59)"/><ellipse class="cls-92" cx="406.49" cy="177.46" rx="36.48" ry="37.31" transform="translate(226.14 582.67) rotate(-89.59)"/><ellipse class="cls-93" cx="409.19" cy="177.46" rx="36.5" ry="37.31" transform="translate(228.82 585.38) rotate(-89.59)"/><ellipse class="cls-94" cx="411.89" cy="177.46" rx="36.52" ry="37.32" transform="translate(231.5 588.08) rotate(-89.59)"/><ellipse class="cls-95" cx="414.59" cy="177.47" rx="36.53" ry="37.32" transform="translate(234.18 590.79) rotate(-89.59)"/><ellipse class="cls-96" cx="417.29" cy="177.47" rx="36.55" ry="37.32" transform="translate(236.86 593.49) rotate(-89.59)"/><ellipse class="cls-97" cx="420" cy="177.47" rx="36.57" ry="37.33" transform="translate(239.54 596.19) rotate(-89.59)"/><ellipse class="cls-98" cx="422.7" cy="177.47" rx="36.58" ry="37.33" transform="translate(242.22 598.9) rotate(-89.59)"/><ellipse class="cls-99" cx="425.4" cy="177.48" rx="36.6" ry="37.34" transform="translate(244.9 601.6) rotate(-89.59)"/><ellipse class="cls-100" cx="428.1" cy="177.48" rx="36.61" ry="37.34" transform="translate(247.58 604.31) rotate(-89.59)"/><ellipse class="cls-101" cx="430.8" cy="177.48" rx="36.63" ry="37.35" transform="translate(250.26 607.01) rotate(-89.59)"/><ellipse class="cls-102" cx="433.5" cy="177.48" rx="36.65" ry="37.35" transform="translate(252.94 609.71) rotate(-89.59)"/><ellipse class="cls-103" cx="436.2" cy="177.49" rx="36.66" ry="37.36" transform="translate(255.62 612.42) rotate(-89.59)"/><ellipse class="cls-104" cx="438.91" cy="177.49" rx="36.68" ry="37.36" transform="translate(258.3 615.12) rotate(-89.59)"/><ellipse class="cls-105" cx="441.61" cy="177.49" rx="36.7" ry="37.37" transform="translate(260.98 617.82) rotate(-89.59)"/><ellipse class="cls-106" cx="444.31" cy="177.49" rx="36.71" ry="37.37" transform="translate(263.66 620.53) rotate(-89.59)"/><ellipse class="cls-107" cx="447.01" cy="177.5" rx="36.73" ry="37.38" transform="translate(266.34 623.23) rotate(-89.59)"/><ellipse class="cls-108" cx="449.71" cy="177.5" rx="36.75" ry="37.38" transform="translate(269.02 625.94) rotate(-89.59)"/><ellipse class="cls-109" cx="452.41" cy="177.5" rx="36.76" ry="37.39" transform="translate(271.7 628.64) rotate(-89.59)"/><ellipse class="cls-110" cx="455.11" cy="177.5" rx="36.78" ry="37.39" transform="translate(274.38 631.34) rotate(-89.59)"/><ellipse class="cls-111" cx="457.82" cy="177.51" rx="36.8" ry="37.4" transform="translate(277.06 634.05) rotate(-89.59)"/><ellipse class="cls-112" cx="460.52" cy="177.51" rx="36.81" ry="37.4" transform="translate(279.74 636.75) rotate(-89.59)"/><ellipse class="cls-113" cx="463.22" cy="177.51" rx="36.83" ry="37.4" transform="translate(282.42 639.46) rotate(-89.59)"/><ellipse class="cls-114" cx="465.92" cy="177.51" rx="36.85" ry="37.41" transform="translate(285.1 642.16) rotate(-89.59)"/><ellipse class="cls-115" cx="468.62" cy="177.52" rx="36.86" ry="37.41" transform="translate(287.78 644.86) rotate(-89.59)"/><ellipse class="cls-116" cx="471.32" cy="177.52" rx="36.88" ry="37.42" transform="translate(290.46 647.57) rotate(-89.59)"/><ellipse class="cls-117" cx="474.03" cy="177.52" rx="36.89" ry="37.42" transform="translate(293.14 650.27) rotate(-89.59)"/><ellipse class="cls-118" cx="476.73" cy="177.52" rx="36.91" ry="37.43" transform="translate(295.82 652.98) rotate(-89.59)"/><ellipse class="cls-119" cx="479.43" cy="177.53" rx="36.93" ry="37.43" transform="translate(298.5 655.68) rotate(-89.59)"/><ellipse class="cls-120" cx="482.13" cy="177.53" rx="36.94" ry="37.44" transform="translate(301.18 658.38) rotate(-89.59)"/><ellipse class="cls-121" cx="484.83" cy="177.53" rx="36.96" ry="37.44" transform="translate(303.85 661.09) rotate(-89.59)"/><ellipse class="cls-122" cx="487.53" cy="177.53" rx="36.98" ry="37.45" transform="translate(306.53 663.79) rotate(-89.59)"/><ellipse class="cls-123" cx="490.23" cy="177.54" rx="36.99" ry="37.45" transform="translate(309.21 666.5) rotate(-89.59)"/><ellipse class="cls-124" cx="492.94" cy="177.54" rx="37.01" ry="37.46" transform="translate(311.89 669.2) rotate(-89.59)"/><ellipse class="cls-125" cx="495.64" cy="177.54" rx="37.03" ry="37.46" transform="translate(314.57 671.9) rotate(-89.59)"/><ellipse class="cls-126" cx="498.34" cy="177.54" rx="37.04" ry="37.47" transform="translate(317.25 674.61) rotate(-89.59)"/><ellipse class="cls-127" cx="501.04" cy="177.55" rx="37.06" ry="37.47" transform="translate(319.93 677.31) rotate(-89.59)"/><ellipse class="cls-128" cx="503.74" cy="177.55" rx="37.08" ry="37.48" transform="translate(322.61 680.02) rotate(-89.59)"/><ellipse class="cls-129" cx="506.44" cy="177.55" rx="37.09" ry="37.48" transform="translate(325.29 682.72) rotate(-89.59)"/><ellipse class="cls-130" cx="509.15" cy="177.55" rx="37.11" ry="37.48" transform="matrix(0.01, -1, 1, 0.01, 327.97, 685.42)"/><ellipse class="cls-131" cx="511.85" cy="177.56" rx="37.13" ry="37.49" transform="translate(330.65 688.13) rotate(-89.59)"/><ellipse class="cls-132" cx="514.55" cy="177.56" rx="37.14" ry="37.49" transform="translate(333.33 690.83) rotate(-89.59)"/><ellipse class="cls-133" cx="517.25" cy="177.56" rx="37.16" ry="37.5" transform="translate(336.01 693.54) rotate(-89.59)"/><ellipse class="cls-134" cx="519.95" cy="177.56" rx="37.17" ry="37.5" transform="translate(338.69 696.24) rotate(-89.59)"/><ellipse class="cls-135" cx="522.65" cy="177.57" rx="37.19" ry="37.51" transform="translate(341.37 698.94) rotate(-89.59)"/><ellipse class="cls-136" cx="525.35" cy="177.57" rx="37.21" ry="37.51" transform="translate(344.05 701.65) rotate(-89.59)"/><ellipse class="cls-137" cx="528.06" cy="177.57" rx="37.22" ry="37.52" transform="translate(346.73 704.35) rotate(-89.59)"/><ellipse class="cls-138" cx="530.76" cy="177.57" rx="37.24" ry="37.52" transform="translate(349.41 707.06) rotate(-89.59)"/><ellipse class="cls-139" cx="533.46" cy="177.58" rx="37.26" ry="37.53" transform="translate(352.09 709.76) rotate(-89.59)"/><ellipse class="cls-140" cx="536.16" cy="177.58" rx="37.27" ry="37.53" transform="translate(354.77 712.46) rotate(-89.59)"/><ellipse class="cls-141" cx="538.86" cy="177.58" rx="37.29" ry="37.54" transform="translate(357.45 715.17) rotate(-89.59)"/><ellipse class="cls-142" cx="541.56" cy="177.58" rx="37.31" ry="37.54" transform="translate(360.13 717.87) rotate(-89.59)"/><ellipse class="cls-143" cx="544.26" cy="177.59" rx="37.32" ry="37.55" transform="translate(362.81 720.57) rotate(-89.59)"/><ellipse class="cls-144" cx="546.97" cy="177.59" rx="37.34" ry="37.55" transform="translate(365.49 723.28) rotate(-89.59)"/><ellipse class="cls-145" cx="549.67" cy="177.59" rx="37.36" ry="37.56" transform="translate(368.17 725.98) rotate(-89.59)"/><ellipse class="cls-146" cx="552.37" cy="177.59" rx="37.37" ry="37.56" transform="translate(370.85 728.69) rotate(-89.59)"/><ellipse class="cls-147" cx="555.07" cy="177.6" rx="37.39" ry="37.56" transform="translate(373.53 731.39) rotate(-89.59)"/><ellipse class="cls-148" cx="557.77" cy="177.6" rx="37.4" ry="37.57" transform="translate(376.21 734.09) rotate(-89.59)"/><ellipse class="cls-149" cx="560.47" cy="177.6" rx="37.42" ry="37.57" transform="translate(378.89 736.8) rotate(-89.59)"/><ellipse class="cls-150" cx="563.18" cy="177.61" rx="37.44" ry="37.58" transform="translate(381.57 739.5) rotate(-89.59)"/><ellipse class="cls-151" cx="565.88" cy="177.61" rx="37.45" ry="37.58" transform="translate(384.25 742.21) rotate(-89.59)"/><ellipse class="cls-152" cx="568.58" cy="177.61" rx="37.47" ry="37.59" transform="translate(386.93 744.91) rotate(-89.59)"/><ellipse class="cls-153" cx="571.28" cy="177.61" rx="37.49" ry="37.59" transform="translate(389.61 747.61) rotate(-89.59)"/><ellipse class="cls-154" cx="573.98" cy="177.62" rx="37.5" ry="37.6" transform="translate(392.29 750.32) rotate(-89.59)"/><ellipse class="cls-155" cx="576.68" cy="177.62" rx="37.52" ry="37.6" transform="translate(394.97 753.02) rotate(-89.59)"/><ellipse class="cls-156" cx="579.38" cy="177.62" rx="37.54" ry="37.61" transform="translate(397.65 755.73) rotate(-89.59)"/><ellipse class="cls-157" cx="582.09" cy="177.62" rx="37.55" ry="37.61" transform="translate(400.33 758.43) rotate(-89.59)"/><ellipse class="cls-158" cx="584.79" cy="177.63" rx="37.57" ry="37.62" transform="translate(403.01 761.13) rotate(-89.59)"/><ellipse class="cls-159" cx="587.49" cy="177.63" rx="37.59" ry="37.62" transform="translate(405.69 763.84) rotate(-89.59)"/><ellipse class="cls-160" cx="590.19" cy="177.63" rx="37.6" ry="37.63" transform="translate(408.37 766.54) rotate(-89.59)"/><ellipse class="cls-161" cx="592.89" cy="177.63" rx="37.62" ry="37.63" transform="translate(411.05 769.25) rotate(-89.59)"/><circle class="cls-162" cx="595.59" cy="177.64" r="37.64"/><text class="cls-163" transform="translate(124.08 243.53)">Loose</text><text class="cls-163" transform="translate(570.63 246.92)"><tspan class="cls-164">S</tspan><tspan x="12.34" y="0">t</tspan><tspan class="cls-165" x="21.25" y="0">r</tspan><tspan x="30.44" y="0">ict</tspan></text></svg>