<svg id="图层_1" data-name="图层 1" xmlns="http://www.w3.org/2000/svg" viewBox="0 0 994 362"><defs><style>.cls-1{fill:#e9e8e2;stroke:#000;stroke-miterlimit:10;}.cls-2{fill:#67001f;}.cls-3{fill:#b2182b;}.cls-4{fill:#ef8a62;}.cls-5{fill:#fddbc7;}.cls-6{fill:#fff;}.cls-7{fill:#e0e0e0;}.cls-8{fill:#bababa;}.cls-9{fill:#4d4d4d;}.cls-10{fill:#1a1a1a;}.cls-11{font-size:23.23px;font-family:MicrosoftYaHei-Bold, Microsoft YaHei;font-weight:700;}.cls-12{letter-spacing:0em;}.cls-13{letter-spacing:-0.02em;}</style></defs><title>图例</title><rect class="cls-1" x="17.5" y="44.64" width="963" height="279.74" rx="12.78"/><ellipse class="cls-2" cx="84.61" cy="182.45" rx="40.72" ry="38.64"/><ellipse class="cls-3" cx="190.12" cy="181.48" rx="40.72" ry="38.64"/><ellipse class="cls-4" cx="292.72" cy="182.45" rx="40.72" ry="38.64"/><ellipse class="cls-5" cx="394.36" cy="183.41" rx="40.72" ry="38.64"/><ellipse class="cls-6" cx="495.99" cy="182.45" rx="40.72" ry="38.64"/><ellipse class="cls-7" cx="598.6" cy="183.41" rx="40.72" ry="38.64"/><ellipse class="cls-8" cx="704.1" cy="183.41" rx="40.72" ry="38.64"/><ellipse class="cls-9" cx="807.68" cy="183.41" rx="40.72" ry="38.64"/><ellipse class="cls-10" cx="910.28" cy="182.45" rx="40.72" ry="38.64"/><text class="cls-11" transform="translate(212.42 118)">Male</text><text class="cls-11" transform="translate(717.7 119.93)">Female</text><text class="cls-11" transform="translate(51.76 258.5)">Black</text><text class="cls-11" transform="translate(883.28 254.63)">Black</text><text class="cls-11" transform="translate(158.28 259.47)">Asian</text><text class="cls-11" transform="translate(780.66 256.56)">Asian</text><text class="cls-11" transform="translate(258.93 260.44)">Whi<tspan class="cls-12" x="46.87" y="0">t</tspan><tspan x="56.39" y="0">e</tspan></text><text class="cls-11" transform="translate(674.63 258.5)">Whi<tspan class="cls-12" x="46.87" y="0">t</tspan><tspan x="56.39" y="0">e</tspan></text><text class="cls-11" transform="translate(351.33 262.37)">Un<tspan class="cls-13" x="33.09" y="0">k</tspan><tspan x="46.58" y="0">own</tspan></text><text class="cls-11" transform="translate(557.41 259.47)">Un<tspan class="cls-13" x="33.09" y="0">k</tspan><tspan x="46.58" y="0">own</tspan></text><text class="cls-11" transform="translate(453.84 119.11)">Un<tspan class="cls-13" x="33.09" y="0">k</tspan><tspan x="46.58" y="0">own</tspan></text></svg>