<?xml version="1.0" encoding="utf-8"?>
<!-- Generator: Adobe Illustrator 26.0.2, SVG Export Plug-In . SVG Version: 6.00 Build 0)  -->
<svg version="1.1" id="图层_1" xmlns="http://www.w3.org/2000/svg" xmlns:xlink="http://www.w3.org/1999/xlink" x="0px" y="0px"
	 viewBox="0 0 632.8 256.5" style="enable-background:new 0 0 632.8 256.5;" xml:space="preserve">
<style type="text/css">
	.st0{fill:#E9E8E2;}
	.st1{fill:#494949;}
	.st2{fill:#E8E7E1;}
	.st3{fill:#E7E6E0;}
	.st4{fill:#E6E5DF;}
	.st5{fill:#E5E4DE;}
	.st6{fill:#E4E3DD;}
	.st7{fill:#E3E2DC;}
	.st8{fill:#E2E1DB;}
	.st9{fill:#E1E0DA;}
	.st10{fill:#E0DFD9;}
	.st11{fill:#DFDED8;}
	.st12{fill:#DEDDD7;}
	.st13{fill:#DDDCD7;}
	.st14{fill:#DCDBD6;}
	.st15{fill:#DBDAD5;}
	.st16{fill:#DAD9D4;}
	.st17{fill:#D9D8D3;}
	.st18{fill:#D8D7D2;}
	.st19{fill:#D7D6D1;}
	.st20{fill:#D6D5D0;}
	.st21{fill:#D5D4CF;}
	.st22{fill:#D4D3CE;}
	.st23{fill:#D3D2CD;}
	.st24{fill:#D2D1CC;}
	.st25{fill:#D1D0CB;}
	.st26{fill:#D0CFCA;}
	.st27{fill:#CFCEC9;}
	.st28{fill:#CECDC8;}
	.st29{fill:#CDCCC7;}
	.st30{fill:#CCCBC6;}
	.st31{fill:#CBCAC5;}
	.st32{fill:#CAC9C4;}
	.st33{fill:#C9C8C3;}
	.st34{fill:#C8C7C2;}
	.st35{fill:#C7C6C1;}
	.st36{fill:#C6C5C1;}
	.st37{fill:#C5C4C0;}
	.st38{fill:#C4C3BF;}
	.st39{fill:#C3C2BE;}
	.st40{fill:#C2C1BD;}
	.st41{fill:#C1C0BC;}
	.st42{fill:#C0BFBB;}
	.st43{fill:#BFBEBA;}
	.st44{fill:#BEBDB9;}
	.st45{fill:#BDBCB8;}
	.st46{fill:#BCBBB7;}
	.st47{fill:#BBBAB6;}
	.st48{fill:#BAB9B5;}
	.st49{fill:#B9B8B4;}
	.st50{fill:#B8B7B3;}
	.st51{fill:#B7B6B2;}
	.st52{fill:#B6B5B1;}
	.st53{fill:#B5B4B0;}
	.st54{fill:#B4B3AF;}
	.st55{fill:#B3B2AE;}
	.st56{fill:#B2B1AD;}
	.st57{fill:#B1B0AC;}
	.st58{fill:#B0AFAB;}
	.st59{fill:#AFAEAB;}
	.st60{fill:#AEADAA;}
	.st61{fill:#ADACA9;}
	.st62{fill:#ACABA8;}
	.st63{fill:#ABAAA7;}
	.st64{fill:#AAA9A6;}
	.st65{fill:#A9A8A5;}
	.st66{fill:#A8A7A4;}
	.st67{fill:#A7A6A3;}
	.st68{fill:#A6A5A2;}
	.st69{fill:#A5A4A1;}
	.st70{fill:#A4A3A0;}
	.st71{fill:#A3A29F;}
	.st72{fill:#A2A19E;}
	.st73{fill:#A1A09D;}
	.st74{fill:#A09F9C;}
	.st75{fill:#9F9E9B;}
	.st76{fill:#9E9D9A;}
	.st77{fill:#9D9C99;}
	.st78{fill:#9C9B98;}
	.st79{fill:#9B9A97;}
	.st80{fill:#9A9996;}
	.st81{fill:#999996;}
	.st82{fill:#989895;}
	.st83{fill:#979794;}
	.st84{fill:#969693;}
	.st85{fill:#959592;}
	.st86{fill:#949491;}
	.st87{fill:#939390;}
	.st88{fill:#92928F;}
	.st89{fill:#91918E;}
	.st90{fill:#90908D;}
	.st91{fill:#8F8F8C;}
	.st92{fill:#8E8E8B;}
	.st93{fill:#8D8D8A;}
	.st94{fill:#8C8C89;}
	.st95{fill:#8B8B88;}
	.st96{fill:#8A8A87;}
	.st97{fill:#898986;}
	.st98{fill:#888885;}
	.st99{fill:#878784;}
	.st100{fill:#868683;}
	.st101{fill:#858582;}
	.st102{fill:#848481;}
	.st103{fill:#838380;}
	.st104{fill:#828280;}
	.st105{fill:#81817F;}
	.st106{fill:#80807E;}
	.st107{fill:#7F7F7D;}
	.st108{fill:#7E7E7C;}
	.st109{fill:#7D7D7B;}
	.st110{fill:#7C7C7A;}
	.st111{fill:#7B7B79;}
	.st112{fill:#7A7A78;}
	.st113{fill:#797977;}
	.st114{fill:#787876;}
	.st115{fill:#777775;}
	.st116{fill:#767674;}
	.st117{fill:#757573;}
	.st118{fill:#747472;}
	.st119{fill:#737371;}
	.st120{fill:#727270;}
	.st121{fill:#71716F;}
	.st122{fill:#70706E;}
	.st123{fill:#6F6F6D;}
	.st124{fill:#6E6E6C;}
	.st125{fill:#6D6D6B;}
	.st126{fill:#6C6C6A;}
	.st127{fill:#6B6B6A;}
	.st128{fill:#6A6A69;}
	.st129{fill:#696968;}
	.st130{fill:#686867;}
	.st131{fill:#676766;}
	.st132{fill:#666665;}
	.st133{fill:#656564;}
	.st134{fill:#646463;}
	.st135{fill:#636362;}
	.st136{fill:#626261;}
	.st137{fill:#616160;}
	.st138{fill:#60605F;}
	.st139{fill:#5F5F5E;}
	.st140{fill:#5E5E5D;}
	.st141{fill:#5D5D5C;}
	.st142{fill:#5C5C5B;}
	.st143{fill:#5B5B5A;}
	.st144{fill:#5A5A59;}
	.st145{fill:#595958;}
	.st146{fill:#585857;}
	.st147{fill:#575756;}
	.st148{fill:#565655;}
	.st149{fill:#555554;}
	.st150{fill:#545454;}
	.st151{fill:#535353;}
	.st152{fill:#525252;}
	.st153{fill:#515151;}
	.st154{fill:#505050;}
	.st155{fill:#4F4F4F;}
	.st156{fill:#4E4E4E;}
	.st157{fill:#4D4D4D;}
	.st158{fill:#4C4C4C;}
	.st159{fill:#4B4B4B;}
	.st160{fill:#4A4A4A;}
	.st161{font-family:'Futura-Medium';}
	.st162{font-size:48px;}
</style>
<g>
	<g>
		<path class="st0" d="M9.9,254c-4.1,0-7.4-3.3-7.4-7.4V10c0-4.1,3.4-7.5,7.4-7.5h613c4.1,0,7.4,3.3,7.4,7.4v236.7
			c0,4.1-3.2,7.4-7.4,7.4H9.9z"/>
		<path class="st1" d="M622.9,5c2.7,0,4.9,2.2,4.9,4.9v236.7c0,2.7-2.2,4.9-4.9,4.9H9.9c-2.7,0-4.9-2.2-4.9-4.9V10
			c0-2.7,2.2-5,4.9-5H622.9 M622.9,0H9.9C4.5,0,0,4.5,0,10v236.6c0,5.5,4.4,9.9,9.9,9.9h613c5.5,0,9.9-4.4,9.9-9.9V9.9
			C632.8,4.4,628.4,0,622.9,0L622.9,0z"/>
	</g>
	<g>
		
			<ellipse transform="matrix(7.157330e-03 -1 1 7.157330e-03 5.3721 198.9811)" class="st0" cx="102.9" cy="96.8" rx="35" ry="36.9"/>
		
			<ellipse transform="matrix(7.152177e-03 -1 1 7.152177e-03 8.1472 201.7895)" class="st2" cx="105.7" cy="96.8" rx="35" ry="36.9"/>
		
			<ellipse transform="matrix(7.155785e-03 -1 1 7.155785e-03 11.005 204.5149)" class="st3" cx="108.5" cy="96.7" rx="35" ry="36.9"/>
		
			<ellipse transform="matrix(7.154211e-03 -1 1 7.154211e-03 13.5823 207.1221)" class="st4" cx="111.1" cy="96.7" rx="35.1" ry="36.9"/>
		
			<ellipse transform="matrix(7.157470e-03 -1 1 7.157470e-03 16.1554 209.7312)" class="st5" cx="113.7" cy="96.7" rx="35.1" ry="36.9"/>
		
			<ellipse transform="matrix(7.154211e-03 -1 1 7.154211e-03 19.117 212.5157)" class="st6" cx="116.6" cy="96.6" rx="35.1" ry="36.9"/>
		
			<ellipse transform="matrix(7.157470e-03 -1 1 7.157470e-03 21.5734 215.2425)" class="st7" cx="119.2" cy="96.8" rx="35.1" ry="36.9"/>
		
			<ellipse transform="matrix(7.153668e-03 -1 1 7.153668e-03 24.3286 218.0289)" class="st8" cx="122" cy="96.8" rx="35.1" ry="36.9"/>
		
			<ellipse transform="matrix(7.155841e-03 -1 1 7.155841e-03 27.0033 220.7357)" class="st9" cx="124.7" cy="96.8" rx="35.1" ry="36.9"/>
		
			<ellipse transform="matrix(7.154755e-03 -1 1 7.154755e-03 29.5989 223.3611)" class="st10" cx="127.3" cy="96.8" rx="35.2" ry="36.9"/>
		
			<ellipse transform="matrix(7.154755e-03 -1 1 7.154755e-03 32.2357 226.2694)" class="st11" cx="130.1" cy="96.9" rx="35.2" ry="36.9"/>
		
			<ellipse transform="matrix(7.154755e-03 -1 1 7.154755e-03 34.9105 228.9744)" class="st12" cx="132.8" cy="96.9" rx="35.2" ry="36.9"/>
		
			<ellipse transform="matrix(7.154755e-03 -1 1 7.154755e-03 37.5664 231.4615)" class="st13" cx="135.3" cy="96.8" rx="35.2" ry="36.9"/>
		
			<ellipse transform="matrix(7.154755e-03 -1 1 7.154755e-03 40.2418 234.1685)" class="st14" cx="138" cy="96.8" rx="35.2" ry="36.9"/>
		
			<ellipse transform="matrix(7.154755e-03 -1 1 7.154755e-03 42.8969 236.8975)" class="st15" cx="140.7" cy="96.8" rx="35.2" ry="36.9"/>
		
			<ellipse transform="matrix(7.154755e-03 -1 1 7.154755e-03 45.6737 239.5044)" class="st16" cx="143.4" cy="96.8" rx="35.2" ry="36.9"/>
		
			<ellipse transform="matrix(7.154755e-03 -1 1 7.154755e-03 48.3486 242.2107)" class="st17" cx="146.1" cy="96.8" rx="35.3" ry="37"/>
		
			<ellipse transform="matrix(7.154755e-03 -1 1 7.154755e-03 51.1 244.9971)" class="st18" cx="148.9" cy="96.8" rx="35.3" ry="37"/>
		
			<ellipse transform="matrix(7.154755e-03 -1 1 7.154755e-03 53.6572 247.6247)" class="st19" cx="151.5" cy="96.8" rx="35.3" ry="37"/>
		
			<ellipse transform="matrix(7.154755e-03 -1 1 7.154755e-03 56.433 250.2336)" class="st20" cx="154.2" cy="96.7" rx="35.3" ry="37"/>
		
			<ellipse transform="matrix(7.154755e-03 -1 1 7.154755e-03 59.0859 252.9192)" class="st21" cx="156.9" cy="96.7" rx="35.3" ry="37"/>
		
			<ellipse transform="matrix(7.154755e-03 -1 1 7.154755e-03 61.7616 255.6252)" class="st22" cx="159.6" cy="96.7" rx="35.3" ry="37"/>
		
			<ellipse transform="matrix(7.155363e-03 -1 1 7.155363e-03 64.3386 258.4723)" class="st23" cx="162.3" cy="96.8" rx="35.4" ry="37"/>
		
			<ellipse transform="matrix(7.155966e-03 -1 1 7.155966e-03 66.9943 261.1579)" class="st24" cx="165" cy="96.8" rx="35.4" ry="37"/>
		
			<ellipse transform="matrix(7.154755e-03 -1 1 7.154755e-03 69.6697 263.865)" class="st25" cx="167.7" cy="96.8" rx="35.4" ry="37"/>
		
			<ellipse transform="matrix(7.155980e-03 -1 1 7.155980e-03 72.3223 266.5495)" class="st26" cx="170.4" cy="96.9" rx="35.4" ry="37"/>
		
			<ellipse transform="matrix(7.154755e-03 -1 1 7.154755e-03 75.2802 269.3749)" class="st27" cx="173.3" cy="96.8" rx="35.4" ry="37"/>
		
			<ellipse transform="matrix(7.154755e-03 -1 1 7.154755e-03 77.9555 272.0815)" class="st28" cx="176" cy="96.8" rx="35.4" ry="37"/>
		
			<ellipse transform="matrix(7.154755e-03 -1 1 7.154755e-03 80.6094 274.9662)" class="st29" cx="178.8" cy="96.9" rx="35.5" ry="37"/>
		
			<ellipse transform="matrix(7.153457e-03 -1 1 7.153457e-03 83.3064 277.4938)" class="st30" cx="181.4" cy="96.8" rx="35.5" ry="37"/>
		
			<ellipse transform="matrix(7.156027e-03 -1 1 7.156027e-03 85.9426 280.2022)" class="st31" cx="184.1" cy="96.8" rx="35.5" ry="37"/>
		
			<ellipse transform="matrix(7.153474e-03 -1 1 7.153474e-03 88.6178 282.9088)" class="st32" cx="186.8" cy="96.8" rx="35.5" ry="37"/>
		
			<ellipse transform="matrix(7.154755e-03 -1 1 7.154755e-03 91.2926 285.6151)" class="st33" cx="189.5" cy="96.8" rx="35.5" ry="37"/>
		
			<ellipse transform="matrix(7.154755e-03 -1 1 7.154755e-03 94.0468 288.2025)" class="st34" cx="192.2" cy="96.7" rx="35.5" ry="37"/>
		
			<ellipse transform="matrix(7.153440e-03 -1 1 7.153440e-03 96.5038 291.1278)" class="st35" cx="194.9" cy="97" rx="35.6" ry="37"/>
		
			<ellipse transform="matrix(7.156079e-03 -1 1 7.156079e-03 99.1793 293.8337)" class="st36" cx="197.6" cy="97" rx="35.6" ry="37.1"/>
		
			<ellipse transform="matrix(7.154755e-03 -1 1 7.154755e-03 101.8546 296.5396)" class="st37" cx="200.3" cy="97" rx="35.6" ry="37.1"/>
		
			<ellipse transform="matrix(7.156095e-03 -1 1 7.156095e-03 104.7494 299.0278)" class="st38" cx="203" cy="96.8" rx="35.6" ry="37.1"/>
		
			<ellipse transform="matrix(7.154755e-03 -1 1 7.154755e-03 107.2841 301.8331)" class="st39" cx="205.6" cy="96.9" rx="35.6" ry="37.1"/>
		
			<ellipse transform="matrix(7.156115e-03 -1 1 7.156115e-03 110.0592 304.4415)" class="st40" cx="208.3" cy="96.8" rx="35.6" ry="37.1"/>
		
			<ellipse transform="matrix(7.153366e-03 -1 1 7.153366e-03 112.6153 307.0295)" class="st41" cx="210.9" cy="96.8" rx="35.7" ry="37.1"/>
		
			<ellipse transform="matrix(7.153366e-03 -1 1 7.153366e-03 115.2902 309.7356)" class="st42" cx="213.6" cy="96.8" rx="35.7" ry="37.1"/>
		
			<ellipse transform="matrix(7.153366e-03 -1 1 7.153366e-03 117.9668 312.6805)" class="st43" cx="216.4" cy="96.9" rx="35.7" ry="37.1"/>
		
			<ellipse transform="matrix(7.153366e-03 -1 1 7.153366e-03 120.7204 315.2686)" class="st44" cx="219.1" cy="96.8" rx="35.7" ry="37.1"/>
		
			<ellipse transform="matrix(7.151938e-03 -1 1 7.151938e-03 123.3957 317.9757)" class="st45" cx="221.8" cy="96.8" rx="35.7" ry="37.1"/>
		
			<ellipse transform="matrix(7.147862e-03 -1 1 7.147862e-03 126.0564 320.6624)" class="st46" cx="224.5" cy="96.9" rx="35.7" ry="37.1"/>
		
			<ellipse transform="matrix(7.154800e-03 -1 1 7.154800e-03 128.81 323.489)" class="st47" cx="227.3" cy="96.9" rx="35.8" ry="37.1"/>
		
			<ellipse transform="matrix(7.165172e-03 -1 1 7.165172e-03 131.4831 326.1938)" class="st48" cx="230" cy="96.9" rx="35.8" ry="37.1"/>
		
			<ellipse transform="matrix(7.160727e-03 -1 1 7.160727e-03 134.0401 328.9818)" class="st49" cx="232.7" cy="97" rx="35.8" ry="37.1"/>
		
			<ellipse transform="matrix(7.162220e-03 -1 1 7.162220e-03 136.9334 331.5091)" class="st50" cx="235.4" cy="96.8" rx="35.8" ry="37.1"/>
		
			<ellipse transform="matrix(7.159234e-03 -1 1 7.159234e-03 139.5737 334.4138)" class="st51" cx="238.2" cy="96.9" rx="35.8" ry="37.1"/>
		
			<ellipse transform="matrix(7.154755e-03 -1 1 7.154755e-03 142.0497 336.924)" class="st52" cx="240.7" cy="96.9" rx="35.8" ry="37.1"/>
		
			<ellipse transform="matrix(7.154755e-03 -1 1 7.154755e-03 144.7263 339.6304)" class="st53" cx="243.4" cy="96.9" rx="35.9" ry="37.1"/>
		
			<ellipse transform="matrix(7.154755e-03 -1 1 7.154755e-03 147.5813 342.3162)" class="st54" cx="246.2" cy="96.8" rx="35.9" ry="37.1"/>
		
			<ellipse transform="matrix(7.154755e-03 -1 1 7.154755e-03 150.0381 345.0421)" class="st55" cx="248.8" cy="97" rx="35.9" ry="37.1"/>
		
			<ellipse transform="matrix(7.154755e-03 -1 1 7.154755e-03 152.7144 347.7482)" class="st56" cx="251.5" cy="97" rx="35.9" ry="37.1"/>
		
			<ellipse transform="matrix(7.154755e-03 -1 1 7.154755e-03 155.4873 350.5543)" class="st57" cx="254.3" cy="97" rx="35.9" ry="37.1"/>
		
			<ellipse transform="matrix(7.154755e-03 -1 1 7.154755e-03 158.1635 353.2609)" class="st58" cx="257" cy="97" rx="35.9" ry="37.1"/>
		
			<ellipse transform="matrix(7.154755e-03 -1 1 7.154755e-03 160.9971 355.961)" class="st59" cx="259.8" cy="96.9" rx="36" ry="37.2"/>
		
			<ellipse transform="matrix(7.154755e-03 -1 1 7.154755e-03 163.5736 358.5702)" class="st60" cx="262.4" cy="96.9" rx="36" ry="37.2"/>
		
			<ellipse transform="matrix(7.154755e-03 -1 1 7.154755e-03 166.2487 361.2761)" class="st61" cx="265.1" cy="96.9" rx="36" ry="37.2"/>
		
			<ellipse transform="matrix(7.154755e-03 -1 1 7.154755e-03 168.904 363.7628)" class="st62" cx="267.6" cy="96.8" rx="36" ry="37.2"/>
		
			<ellipse transform="matrix(7.154755e-03 -1 1 7.154755e-03 171.7796 366.7075)" class="st63" cx="270.6" cy="96.8" rx="36" ry="37.2"/>
		
			<ellipse transform="matrix(7.154755e-03 -1 1 7.154755e-03 174.4362 369.1969)" class="st64" cx="273.1" cy="96.8" rx="36" ry="37.2"/>
		
			<ellipse transform="matrix(7.154755e-03 -1 1 7.154755e-03 177.11 371.9035)" class="st65" cx="275.8" cy="96.8" rx="36" ry="37.2"/>
		
			<ellipse transform="matrix(7.154755e-03 -1 1 7.154755e-03 179.6651 374.7306)" class="st66" cx="278.5" cy="96.9" rx="36.1" ry="37.2"/>
		
			<ellipse transform="matrix(7.154755e-03 -1 1 7.154755e-03 182.5192 377.2203)" class="st67" cx="281.2" cy="96.7" rx="36.1" ry="37.2"/>
		
			<ellipse transform="matrix(7.154755e-03 -1 1 7.154755e-03 185.1948 379.9258)" class="st68" cx="283.9" cy="96.7" rx="36.1" ry="37.2"/>
		
			<ellipse transform="matrix(7.154755e-03 -1 1 7.154755e-03 187.8481 382.8117)" class="st69" cx="286.7" cy="96.8" rx="36.1" ry="37.2"/>
		
			<ellipse transform="matrix(7.154755e-03 -1 1 7.154755e-03 190.4259 385.4587)" class="st70" cx="289.3" cy="96.8" rx="36.1" ry="37.2"/>
		
			<ellipse transform="matrix(7.154755e-03 -1 1 7.154755e-03 193.1021 388.1652)" class="st71" cx="292" cy="96.8" rx="36.1" ry="37.2"/>
		
			<ellipse transform="matrix(7.154755e-03 -1 1 7.154755e-03 195.7558 391.0498)" class="st72" cx="294.8" cy="96.9" rx="36.2" ry="37.2"/>
		
			<ellipse transform="matrix(7.154755e-03 -1 1 7.154755e-03 198.4323 393.7558)" class="st73" cx="297.5" cy="96.9" rx="36.2" ry="37.2"/>
		
			<ellipse transform="matrix(7.154755e-03 -1 1 7.154755e-03 201.1697 396.3632)" class="st74" cx="300.2" cy="96.9" rx="36.2" ry="37.2"/>
		
			<ellipse transform="matrix(7.154755e-03 -1 1 7.154755e-03 203.8454 399.0692)" class="st75" cx="302.9" cy="96.9" rx="36.2" ry="37.2"/>
		
			<ellipse transform="matrix(7.154755e-03 -1 1 7.154755e-03 206.4408 401.6984)" class="st76" cx="305.5" cy="96.9" rx="36.2" ry="37.2"/>
		
			<ellipse transform="matrix(7.154755e-03 -1 1 7.154755e-03 209.1971 404.4817)" class="st77" cx="308.3" cy="96.9" rx="36.2" ry="37.2"/>
		
			<ellipse transform="matrix(7.154755e-03 -1 1 7.154755e-03 211.9523 407.1128)" class="st78" cx="311" cy="96.8" rx="36.3" ry="37.2"/>
		
			<ellipse transform="matrix(7.154755e-03 -1 1 7.154755e-03 214.5256 410.0769)" class="st79" cx="313.8" cy="97" rx="36.3" ry="37.2"/>
		
			<ellipse transform="matrix(7.154755e-03 -1 1 7.154755e-03 217.2019 412.783)" class="st80" cx="316.5" cy="97" rx="36.3" ry="37.2"/>
		
			<ellipse transform="matrix(7.154755e-03 -1 1 7.154755e-03 219.8767 415.4897)" class="st81" cx="319.2" cy="97" rx="36.3" ry="37.3"/>
		
			<ellipse transform="matrix(7.154755e-03 -1 1 7.154755e-03 222.6135 417.9011)" class="st82" cx="321.8" cy="96.8" rx="36.3" ry="37.3"/>
		
			<ellipse transform="matrix(7.154755e-03 -1 1 7.154755e-03 225.3072 420.6221)" class="st83" cx="324.5" cy="96.8" rx="36.4" ry="37.3"/>
		
			<ellipse transform="matrix(7.154755e-03 -1 1 7.154755e-03 227.9647 423.312)" class="st84" cx="327.2" cy="96.9" rx="36.4" ry="37.3"/>
		
			<ellipse transform="matrix(7.154755e-03 -1 1 7.154755e-03 230.6396 426.019)" class="st85" cx="329.9" cy="96.9" rx="36.4" ry="37.3"/>
		
			<ellipse transform="matrix(7.154755e-03 -1 1 7.154755e-03 233.2927 428.7441)" class="st86" cx="332.6" cy="96.9" rx="36.4" ry="37.3"/>
		
			<ellipse transform="matrix(7.154755e-03 -1 1 7.154755e-03 235.9571 431.6325)" class="st87" cx="335.3" cy="97" rx="36.4" ry="37.3"/>
		
			<ellipse transform="matrix(7.154755e-03 -1 1 7.154755e-03 238.6325 434.3385)" class="st88" cx="338" cy="97" rx="36.4" ry="37.3"/>
		
			<ellipse transform="matrix(7.154755e-03 -1 1 7.154755e-03 241.1879 436.9265)" class="st89" cx="340.6" cy="97" rx="36.5" ry="37.3"/>
		
			<ellipse transform="matrix(7.154755e-03 -1 1 7.154755e-03 243.8637 439.8714)" class="st90" cx="343.4" cy="97.1" rx="36.5" ry="37.3"/>
		
			<ellipse transform="matrix(7.154755e-03 -1 1 7.154755e-03 246.5382 442.5785)" class="st91" cx="346.1" cy="97.1" rx="36.5" ry="37.3"/>
		
			<ellipse transform="matrix(7.154755e-03 -1 1 7.154755e-03 249.2928 445.1654)" class="st92" cx="348.8" cy="97" rx="36.5" ry="37.3"/>
		
			<ellipse transform="matrix(7.154755e-03 -1 1 7.154755e-03 251.9682 447.8716)" class="st93" cx="351.5" cy="97" rx="36.5" ry="37.3"/>
		
			<ellipse transform="matrix(7.154755e-03 -1 1 7.154755e-03 254.8007 450.5789)" class="st94" cx="354.3" cy="97" rx="36.5" ry="37.3"/>
		
			<ellipse transform="matrix(7.154755e-03 -1 1 7.154755e-03 257.4763 453.2853)" class="st95" cx="357" cy="97" rx="36.5" ry="37.3"/>
		
			<ellipse transform="matrix(7.154755e-03 -1 1 7.154755e-03 260.0761 455.9115)" class="st96" cx="359.6" cy="97" rx="36.6" ry="37.3"/>
		
			<ellipse transform="matrix(7.154755e-03 -1 1 7.154755e-03 262.828 458.6976)" class="st97" cx="362.4" cy="97" rx="36.6" ry="37.3"/>
		
			<ellipse transform="matrix(7.154755e-03 -1 1 7.154755e-03 265.4834 461.4254)" class="st98" cx="365.1" cy="97" rx="36.6" ry="37.3"/>
		
			<ellipse transform="matrix(7.154755e-03 -1 1 7.154755e-03 268.1371 464.1117)" class="st99" cx="367.8" cy="97" rx="36.6" ry="37.3"/>
		
			<ellipse transform="matrix(7.154755e-03 -1 1 7.154755e-03 270.7144 466.7191)" class="st100" cx="370.4" cy="97" rx="36.6" ry="37.3"/>
		
			<ellipse transform="matrix(7.154755e-03 -1 1 7.154755e-03 273.39 469.4261)" class="st101" cx="373.1" cy="97" rx="36.6" ry="37.3"/>
		
			<ellipse transform="matrix(7.154755e-03 -1 1 7.154755e-03 276.0269 472.13)" class="st102" cx="375.8" cy="97.1" rx="36.7" ry="37.4"/>
		
			<ellipse transform="matrix(7.154755e-03 -1 1 7.154755e-03 278.9218 475.0544)" class="st103" cx="378.7" cy="97.1" rx="36.7" ry="37.4"/>
		
			<ellipse transform="matrix(7.154755e-03 -1 1 7.154755e-03 281.5973 477.7621)" class="st104" cx="381.4" cy="97.1" rx="36.7" ry="37.4"/>
		
			<ellipse transform="matrix(7.154755e-03 -1 1 7.154755e-03 284.1525 480.3497)" class="st105" cx="384" cy="97.1" rx="36.7" ry="37.4"/>
		
			<ellipse transform="matrix(7.154755e-03 -1 1 7.154755e-03 286.9071 482.9775)" class="st106" cx="386.7" cy="97" rx="36.7" ry="37.4"/>
		
			<ellipse transform="matrix(7.154755e-03 -1 1 7.154755e-03 289.3652 485.8633)" class="st107" cx="389.4" cy="97.2" rx="36.8" ry="37.4"/>
		
			<ellipse transform="matrix(7.154755e-03 -1 1 7.154755e-03 292.1392 488.4714)" class="st108" cx="392.1" cy="97.1" rx="36.8" ry="37.4"/>
		
			<ellipse transform="matrix(7.154755e-03 -1 1 7.154755e-03 294.8148 491.1778)" class="st109" cx="394.8" cy="97.1" rx="36.8" ry="37.4"/>
		
			<ellipse transform="matrix(7.154755e-03 -1 1 7.154755e-03 297.5699 494.0039)" class="st110" cx="397.6" cy="97.1" rx="36.8" ry="37.4"/>
		
			<ellipse transform="matrix(7.154755e-03 -1 1 7.154755e-03 300.2451 496.7103)" class="st111" cx="400.3" cy="97.2" rx="36.8" ry="37.4"/>
		
			<ellipse transform="matrix(7.154755e-03 -1 1 7.154755e-03 302.8032 499.0992)" class="st112" cx="402.7" cy="97.1" rx="36.8" ry="37.4"/>
		
			<ellipse transform="matrix(7.154755e-03 -1 1 7.154755e-03 305.4782 501.8046)" class="st113" cx="405.4" cy="97.1" rx="36.9" ry="37.4"/>
		
			<ellipse transform="matrix(7.154755e-03 -1 1 7.154755e-03 308.133 504.5346)" class="st114" cx="408.1" cy="97.1" rx="36.9" ry="37.4"/>
		
			<ellipse transform="matrix(7.154755e-03 -1 1 7.154755e-03 310.8866 507.1215)" class="st115" cx="410.8" cy="97" rx="36.9" ry="37.4"/>
		
			<ellipse transform="matrix(7.154755e-03 -1 1 7.154755e-03 313.4843 509.9471)" class="st116" cx="413.5" cy="97.1" rx="36.9" ry="37.4"/>
		
			<ellipse transform="matrix(7.147077e-03 -1 1 7.147077e-03 316.2417 512.5338)" class="st117" cx="416.2" cy="97" rx="36.9" ry="37.4"/>
		
			<ellipse transform="matrix(7.147077e-03 -1 1 7.147077e-03 318.8962 515.2563)" class="st118" cx="418.9" cy="97" rx="36.9" ry="37.4"/>
		
			<ellipse transform="matrix(7.147077e-03 -1 1 7.147077e-03 321.5719 517.963)" class="st119" cx="421.6" cy="97" rx="36.9" ry="37.4"/>
		
			<ellipse transform="matrix(7.154755e-03 -1 1 7.154755e-03 324.3413 520.7326)" class="st120" cx="424.4" cy="97" rx="37" ry="37.4"/>
		
			<ellipse transform="matrix(7.154755e-03 -1 1 7.154755e-03 327.0157 523.4387)" class="st121" cx="427.1" cy="97" rx="37" ry="37.4"/>
		
			<ellipse transform="matrix(7.146413e-03 -1 1 7.146413e-03 329.6608 526.1406)" class="st122" cx="429.8" cy="97.1" rx="37" ry="37.4"/>
		
			<ellipse transform="matrix(7.154755e-03 -1 1 7.154755e-03 332.4478 528.7684)" class="st123" cx="432.5" cy="97" rx="37" ry="37.5"/>
		
			<ellipse transform="matrix(7.145832e-03 -1 1 7.145832e-03 335.1279 531.4753)" class="st124" cx="435.2" cy="97" rx="37" ry="37.5"/>
		
			<ellipse transform="matrix(7.147077e-03 -1 1 7.147077e-03 337.6881 534.2586)" class="st125" cx="437.9" cy="97.1" rx="37" ry="37.5"/>
		
			<ellipse transform="matrix(7.145403e-03 -1 1 7.145403e-03 340.646 537.0831)" class="st126" cx="440.8" cy="97" rx="37.1" ry="37.5"/>
		
			<ellipse transform="matrix(7.164337e-03 -1 1 7.164337e-03 343.2904 539.9677)" class="st127" cx="443.6" cy="97.1" rx="37.1" ry="37.5"/>
		
			<ellipse transform="matrix(7.154510e-03 -1 1 7.154510e-03 345.872 542.5778)" class="st128" cx="446.2" cy="97.1" rx="37.1" ry="37.5"/>
		
			<ellipse transform="matrix(1.000250e-02 -0.9999 0.9999 1.000250e-02 347.8991 546.8443)" class="st129" cx="450.1" cy="97.7" rx="37.1" ry="37.5"/>
		
			<ellipse transform="matrix(7.165396e-03 -1 1 7.165396e-03 351.2986 547.9101)" class="st130" cx="451.6" cy="97" rx="37.1" ry="37.5"/>
		
			<ellipse transform="matrix(7.164337e-03 -1 1 7.164337e-03 353.9752 550.6169)" class="st131" cx="454.3" cy="97" rx="37.1" ry="37.5"/>
		
			<ellipse transform="matrix(7.166019e-03 -1 1 7.166019e-03 356.7282 553.2034)" class="st132" cx="457" cy="97" rx="37.2" ry="37.5"/>
		
			<ellipse transform="matrix(7.154755e-03 -1 1 7.154755e-03 359.4084 555.9111)" class="st133" cx="459.7" cy="97" rx="37.2" ry="37.5"/>
		
			<ellipse transform="matrix(7.154755e-03 -1 1 7.154755e-03 361.9649 558.7377)" class="st134" cx="462.4" cy="97.1" rx="37.2" ry="37.5"/>
		
			<ellipse transform="matrix(7.141994e-03 -1 1 7.141994e-03 364.7254 561.326)" class="st135" cx="465" cy="97" rx="37.2" ry="37.5"/>
		
			<ellipse transform="matrix(7.141994e-03 -1 1 7.141994e-03 367.3234 564.1509)" class="st136" cx="467.8" cy="97.1" rx="37.2" ry="37.5"/>
		
			<ellipse transform="matrix(7.154755e-03 -1 1 7.154755e-03 370.0709 566.736)" class="st137" cx="470.4" cy="97" rx="37.2" ry="37.5"/>
		
			<ellipse transform="matrix(7.154755e-03 -1 1 7.154755e-03 372.6251 569.5641)" class="st138" cx="473.1" cy="97.1" rx="37.3" ry="37.5"/>
		
			<ellipse transform="matrix(7.140038e-03 -1 1 7.140038e-03 375.3079 572.272)" class="st139" cx="475.8" cy="97.1" rx="37.3" ry="37.5"/>
		
			<ellipse transform="matrix(7.170057e-03 -1 1 7.170057e-03 378.0469 574.8569)" class="st140" cx="478.5" cy="97" rx="37.3" ry="37.5"/>
		
			<ellipse transform="matrix(7.154755e-03 -1 1 7.154755e-03 380.7303 577.564)" class="st141" cx="481.2" cy="97" rx="37.3" ry="37.5"/>
		
			<ellipse transform="matrix(7.090930e-03 -1 1 7.090930e-03 383.4165 580.1005)" class="st142" cx="483.8" cy="97" rx="37.3" ry="37.6"/>
		
			<ellipse transform="matrix(7.072723e-03 -1 1 7.072723e-03 386.1026 582.8084)" class="st143" cx="486.5" cy="97" rx="37.3" ry="37.6"/>
		
			<ellipse transform="matrix(7.059142e-03 -1 1 7.059142e-03 388.784 585.5148)" class="st144" cx="489.2" cy="97" rx="37.4" ry="37.6"/>
		
			<ellipse transform="matrix(7.059142e-03 -1 1 7.059142e-03 391.5359 588.3016)" class="st145" cx="492" cy="97" rx="37.4" ry="37.6"/>
		
			<ellipse transform="matrix(7.078263e-03 -1 1 7.078263e-03 394.1842 591.0287)" class="st146" cx="494.7" cy="97" rx="37.4" ry="37.6"/>
		
			<ellipse transform="matrix(7.135632e-03 -1 1 7.135632e-03 396.8323 593.7293)" class="st147" cx="497.4" cy="97" rx="37.4" ry="37.6"/>
		
			<ellipse transform="matrix(7.116510e-03 -1 1 7.116510e-03 399.3964 596.5157)" class="st148" cx="500.1" cy="97.1" rx="37.4" ry="37.6"/>
		
			<ellipse transform="matrix(7.059141e-03 -1 1 7.059141e-03 402.001 599.1691)" class="st149" cx="502.7" cy="97.2" rx="37.4" ry="37.6"/>
		
			<ellipse transform="matrix(7.192946e-03 -1 1 7.192946e-03 404.7923 602.04)" class="st150" cx="505.6" cy="97.2" rx="37.5" ry="37.6"/>
		
			<ellipse transform="matrix(7.154755e-03 -1 1 7.154755e-03 407.4862 604.7503)" class="st151" cx="508.3" cy="97.2" rx="37.5" ry="37.6"/>
		
			<ellipse transform="matrix(7.001947e-03 -1 1 7.001947e-03 410.2386 607.4706)" class="st152" cx="511" cy="97.2" rx="37.5" ry="37.6"/>
		
			<ellipse transform="matrix(7.154755e-03 -1 1 7.154755e-03 412.8975 610.0633)" class="st153" cx="513.7" cy="97.1" rx="37.5" ry="37.6"/>
		
			<ellipse transform="matrix(7.154755e-03 -1 1 7.154755e-03 415.5731 612.7702)" class="st154" cx="516.4" cy="97.1" rx="37.5" ry="37.6"/>
		
			<ellipse transform="matrix(7.154755e-03 -1 1 7.154755e-03 418.1256 615.3606)" class="st155" cx="519" cy="97.1" rx="37.5" ry="37.6"/>
		
			<ellipse transform="matrix(7.154755e-03 -1 1 7.154755e-03 420.8231 618.0853)" class="st156" cx="521.7" cy="97.1" rx="37.5" ry="37.6"/>
		
			<ellipse transform="matrix(0.2248 -0.9744 0.9744 0.2248 311.8572 586.4496)" class="st157" cx="524.5" cy="97.2" rx="37.6" ry="37.6"/>
		
			<ellipse transform="matrix(0.2248 -0.9744 0.9744 0.2248 313.8728 588.9789)" class="st158" cx="527.1" cy="97.2" rx="37.6" ry="37.6"/>
		
			<ellipse transform="matrix(0.2248 -0.9744 0.9744 0.2248 315.9657 591.6099)" class="st159" cx="529.8" cy="97.2" rx="37.6" ry="37.6"/>
		
			<ellipse transform="matrix(0.2248 -0.9744 0.9744 0.2248 318.0576 594.2413)" class="st160" cx="532.5" cy="97.2" rx="37.6" ry="37.6"/>
		
			<ellipse transform="matrix(0.2248 -0.9744 0.9744 0.2248 320.1513 596.8734)" class="st1" cx="535.2" cy="97.2" rx="37.6" ry="37.6"/>
		<g>
			<text transform="matrix(1 0 0 1 63.0027 187.1372)" class="st1 st161 st162">Low</text>
			<text transform="matrix(1 0 0 1 467.5864 187.1369)" class="st1 st161 st162">High</text>
		</g>
	</g>
</g>
</svg>
