<?xml version="1.0" encoding="utf-8"?>
<!-- Generator: Adobe Illustrator 26.0.2, SVG Export Plug-In . SVG Version: 6.00 Build 0)  -->
<svg version="1.1" id="图层_1" xmlns="http://www.w3.org/2000/svg" xmlns:xlink="http://www.w3.org/1999/xlink" x="0px" y="0px"
	 viewBox="0 0 963 256.5" style="enable-background:new 0 0 963 256.5;" xml:space="preserve">
<style type="text/css">
	.st0{fill:#E9E8E2;stroke:#000000;stroke-miterlimit:10;}
	.st1{fill:#FF0000;}
	.st2{fill:#FE0001;}
	.st3{fill:#FD0002;}
	.st4{fill:#FC0003;}
	.st5{fill:#FB0004;}
	.st6{fill:#FA0005;}
	.st7{fill:#F90006;}
	.st8{fill:#F80007;}
	.st9{fill:#F70008;}
	.st10{fill:#F60009;}
	.st11{fill:#F5000A;}
	.st12{fill:#F4000B;}
	.st13{fill:#F3000C;}
	.st14{fill:#F2000D;}
	.st15{fill:#F1000E;}
	.st16{fill:#F0000F;}
	.st17{fill:#EF0010;}
	.st18{fill:#EE0011;}
	.st19{fill:#ED0012;}
	.st20{fill:#EC0013;}
	.st21{fill:#EB0014;}
	.st22{fill:#EA0015;}
	.st23{fill:#E90016;}
	.st24{fill:#E80017;}
	.st25{fill:#E70018;}
	.st26{fill:#E60019;}
	.st27{fill:#E5001A;}
	.st28{fill:#E4001B;}
	.st29{fill:#E3001C;}
	.st30{fill:#E2001D;}
	.st31{fill:#E1001E;}
	.st32{fill:#E0001F;}
	.st33{fill:#DF0020;}
	.st34{fill:#DE0021;}
	.st35{fill:#DD0022;}
	.st36{fill:#DC0023;}
	.st37{fill:#DB0024;}
	.st38{fill:#DA0025;}
	.st39{fill:#D90026;}
	.st40{fill:#D80027;}
	.st41{fill:#D70028;}
	.st42{fill:#D60029;}
	.st43{fill:#D5002A;}
	.st44{fill:#D4002B;}
	.st45{fill:#D3002C;}
	.st46{fill:#D2002D;}
	.st47{fill:#D1002E;}
	.st48{fill:#D0002F;}
	.st49{fill:#CF0030;}
	.st50{fill:#CE0031;}
	.st51{fill:#CD0032;}
	.st52{fill:#CC0033;}
	.st53{fill:#CB0034;}
	.st54{fill:#CA0035;}
	.st55{fill:#C90036;}
	.st56{fill:#C80037;}
	.st57{fill:#C70038;}
	.st58{fill:#C60039;}
	.st59{fill:#C5003A;}
	.st60{fill:#C4003B;}
	.st61{fill:#C3003C;}
	.st62{fill:#C2003D;}
	.st63{fill:#C1003E;}
	.st64{fill:#C0003F;}
	.st65{fill:#BF0040;}
	.st66{fill:#BE0041;}
	.st67{fill:#BD0042;}
	.st68{fill:#BC0043;}
	.st69{fill:#BB0044;}
	.st70{fill:#BA0045;}
	.st71{fill:#B90046;}
	.st72{fill:#B80047;}
	.st73{fill:#B70048;}
	.st74{fill:#B60049;}
	.st75{fill:#B5004A;}
	.st76{fill:#B4004B;}
	.st77{fill:#B3004C;}
	.st78{fill:#B2004D;}
	.st79{fill:#B1004E;}
	.st80{fill:#B0004F;}
	.st81{fill:#AF0050;}
	.st82{fill:#AE0051;}
	.st83{fill:#AD0052;}
	.st84{fill:#AC0053;}
	.st85{fill:#AB0054;}
	.st86{fill:#AA0055;}
	.st87{fill:#A90056;}
	.st88{fill:#A80057;}
	.st89{fill:#A70058;}
	.st90{fill:#A60059;}
	.st91{fill:#A5005A;}
	.st92{fill:#A4005B;}
	.st93{fill:#A3005C;}
	.st94{fill:#A2005D;}
	.st95{fill:#A1005E;}
	.st96{fill:#A0005F;}
	.st97{fill:#9F0060;}
	.st98{fill:#9E0061;}
	.st99{fill:#9D0062;}
	.st100{fill:#9C0063;}
	.st101{fill:#9B0064;}
	.st102{fill:#9A0065;}
	.st103{fill:#990066;}
	.st104{fill:#980067;}
	.st105{fill:#970068;}
	.st106{fill:#960069;}
	.st107{fill:#95006A;}
	.st108{fill:#94006B;}
	.st109{fill:#93006C;}
	.st110{fill:#92006D;}
	.st111{fill:#91006E;}
	.st112{fill:#90006F;}
	.st113{fill:#8F0070;}
	.st114{fill:#8E0071;}
	.st115{fill:#8D0072;}
	.st116{fill:#8C0073;}
	.st117{fill:#8B0074;}
	.st118{fill:#8A0075;}
	.st119{fill:#890076;}
	.st120{fill:#880077;}
	.st121{fill:#870078;}
	.st122{fill:#860079;}
	.st123{fill:#85007A;}
	.st124{fill:#84007B;}
	.st125{fill:#83007C;}
	.st126{fill:#82007D;}
	.st127{fill:#81007E;}
	.st128{fill:#80007F;}
	.st129{fill:#7F0080;}
	.st130{fill:#7E0081;}
	.st131{fill:#7D0082;}
	.st132{fill:#7C0083;}
	.st133{fill:#7B0084;}
	.st134{fill:#7A0085;}
	.st135{fill:#790086;}
	.st136{fill:#780087;}
	.st137{fill:#770088;}
	.st138{fill:#760089;}
	.st139{fill:#75008A;}
	.st140{fill:#74008B;}
	.st141{fill:#73008C;}
	.st142{fill:#72008D;}
	.st143{fill:#71008E;}
	.st144{fill:#70008F;}
	.st145{fill:#6F0090;}
	.st146{fill:#6E0091;}
	.st147{fill:#6D0092;}
	.st148{fill:#6C0093;}
	.st149{fill:#6B0094;}
	.st150{fill:#6A0095;}
	.st151{fill:#690096;}
	.st152{fill:#680097;}
	.st153{fill:#670098;}
	.st154{fill:#660099;}
	.st155{fill:#65009A;}
	.st156{fill:#64009B;}
	.st157{fill:#63009C;}
	.st158{fill:#62009D;}
	.st159{fill:#61009E;}
	.st160{fill:#60009F;}
	.st161{fill:#5F00A0;}
	.st162{fill:#5E00A1;}
	.st163{fill:#5D00A2;}
	.st164{fill:#5C00A3;}
	.st165{fill:#5B00A4;}
	.st166{fill:#5A00A5;}
	.st167{fill:#5900A6;}
	.st168{fill:#5800A7;}
	.st169{fill:#5700A8;}
	.st170{fill:#5600A9;}
	.st171{fill:#5500AA;}
	.st172{fill:#5400AB;}
	.st173{fill:#5300AC;}
	.st174{fill:#5200AD;}
	.st175{fill:#5100AE;}
	.st176{fill:#5000AF;}
	.st177{fill:#4F00B0;}
	.st178{fill:#4E00B1;}
	.st179{fill:#4D00B2;}
	.st180{fill:#4C00B3;}
	.st181{fill:#4B00B4;}
	.st182{fill:#4A00B5;}
	.st183{fill:#4900B6;}
	.st184{fill:#4800B7;}
	.st185{fill:#4700B8;}
	.st186{fill:#4600B9;}
	.st187{fill:#4500BA;}
	.st188{fill:#4400BB;}
	.st189{fill:#4300BC;}
	.st190{fill:#4200BD;}
	.st191{fill:#4100BE;}
	.st192{fill:#4000BF;}
	.st193{fill:#3F00C0;}
	.st194{fill:#3E00C1;}
	.st195{fill:#3D00C2;}
	.st196{fill:#3C00C3;}
	.st197{fill:#3B00C4;}
	.st198{fill:#3A00C5;}
	.st199{fill:#3900C6;}
	.st200{fill:#3800C7;}
	.st201{fill:#3700C8;}
	.st202{fill:#3600C9;}
	.st203{fill:#3500CA;}
	.st204{fill:#3400CB;}
	.st205{fill:#3300CC;}
	.st206{fill:#3200CD;}
	.st207{fill:#3100CE;}
	.st208{fill:#3000CF;}
	.st209{fill:#2F00D0;}
	.st210{fill:#2E00D1;}
	.st211{fill:#2D00D2;}
	.st212{fill:#2C00D3;}
	.st213{fill:#2B00D4;}
	.st214{fill:#2A00D5;}
	.st215{fill:#2900D6;}
	.st216{fill:#2800D7;}
	.st217{fill:#2700D8;}
	.st218{fill:#2600D9;}
	.st219{fill:#2500DA;}
	.st220{fill:#2400DB;}
	.st221{fill:#2300DC;}
	.st222{fill:#2200DD;}
	.st223{fill:#2100DE;}
	.st224{fill:#2000DF;}
	.st225{fill:#1F00E0;}
	.st226{fill:#1E00E1;}
	.st227{fill:#1D00E2;}
	.st228{fill:#1C00E3;}
	.st229{fill:#1B00E4;}
	.st230{fill:#1A00E5;}
	.st231{fill:#1900E6;}
	.st232{fill:#1800E7;}
	.st233{fill:#1700E8;}
	.st234{fill:#1600E9;}
	.st235{fill:#1500EA;}
	.st236{fill:#1400EB;}
	.st237{fill:#1300EC;}
	.st238{fill:#1200ED;}
	.st239{fill:#1100EE;}
	.st240{fill:#1000EF;}
	.st241{fill:#0F00F0;}
	.st242{fill:#0E00F1;}
	.st243{fill:#0D00F2;}
	.st244{fill:#0C00F3;}
	.st245{fill:#0B00F4;}
	.st246{fill:#0A00F5;}
	.st247{fill:#0900F6;}
	.st248{fill:#0800F7;}
	.st249{fill:#0700F8;}
	.st250{fill:#0600F9;}
	.st251{fill:#0500FA;}
	.st252{fill:#0400FB;}
	.st253{fill:#0300FC;}
	.st254{fill:#0200FD;}
	.st255{fill:#0100FE;}
	.st256{fill:#0000FF;}
	.st257{font-family:'Futura-Medium';}
	.st258{font-size:24px;}
</style>
<path class="st0" d="M15.1,0H948c8.4,0,15.1,4.4,15.1,9.9v236.7c0,5.5-6.7,9.9-15.1,9.9H15.1c-8.4,0-15.1-4.4-15.1-9.9V9.9
	C0,4.4,6.7,0,15.1,0z"/>
<g>
	<circle class="st1" cx="247.6" cy="127.5" r="36.9"/>
	<ellipse class="st2" cx="249.3" cy="127.5" rx="36.9" ry="36.9"/>
	<circle class="st3" cx="250.9" cy="127.6" r="36.9"/>
	<circle class="st4" cx="252.5" cy="127.6" r="36.9"/>
	<ellipse class="st5" cx="254.3" cy="127.5" rx="36.9" ry="36.9"/>
	<ellipse class="st6" cx="255.9" cy="127.5" rx="36.9" ry="36.9"/>
	<circle class="st7" cx="257.4" cy="127.6" r="36.9"/>
	<circle class="st8" cx="259.1" cy="127.6" r="36.9"/>
	<ellipse class="st9" cx="260.8" cy="127.5" rx="36.9" ry="36.9"/>
	<circle class="st10" cx="262.4" cy="127.6" r="36.9"/>
	<circle class="st11" cx="264" cy="127.6" r="36.9"/>
	<ellipse class="st12" cx="265.8" cy="127.5" rx="36.9" ry="36.9"/>
	<ellipse class="st13" cx="267.4" cy="127.5" rx="36.9" ry="36.9"/>
	<circle class="st14" cx="268.9" cy="127.6" r="36.9"/>
	<circle class="st15" cx="270.6" cy="127.6" r="36.9"/>
	<ellipse class="st16" cx="272.3" cy="127.5" rx="36.9" ry="36.9"/>
	<circle class="st17" cx="273.9" cy="127.6" r="36.9"/>
	<circle class="st18" cx="275.5" cy="127.6" r="36.9"/>
	<circle class="st19" cx="277.1" cy="127.6" r="36.9"/>
	<ellipse class="st20" cx="278.9" cy="127.5" rx="36.9" ry="36.9"/>
	
		<ellipse transform="matrix(8.247876e-02 -0.9966 0.9966 8.247876e-02 130.0562 396.6198)" class="st21" cx="280.4" cy="127.7" rx="36.9" ry="36.9"/>
	
		<ellipse transform="matrix(8.247878e-02 -0.9966 0.9966 8.247878e-02 131.6161 398.3141)" class="st22" cx="282.1" cy="127.7" rx="36.9" ry="36.9"/>
	<ellipse class="st23" cx="283.8" cy="127.7" rx="36.9" ry="36.9"/>
	
		<ellipse transform="matrix(8.247876e-02 -0.9966 0.9966 8.247876e-02 134.6438 401.6028)" class="st24" cx="285.4" cy="127.7" rx="36.9" ry="36.9"/>
	
		<ellipse transform="matrix(8.247881e-02 -0.9966 0.9966 8.247881e-02 136.1122 403.1975)" class="st25" cx="287" cy="127.7" rx="36.9" ry="36.9"/>
	
		<ellipse transform="matrix(8.247878e-02 -0.9966 0.9966 8.247878e-02 137.5799 404.7919)" class="st26" cx="288.6" cy="127.7" rx="36.9" ry="36.9"/>
	<ellipse class="st27" cx="290.4" cy="127.7" rx="36.9" ry="36.9"/>
	
		<ellipse transform="matrix(8.247876e-02 -0.9966 0.9966 8.247876e-02 140.6079 408.0809)" class="st28" cx="291.9" cy="127.7" rx="36.9" ry="36.9"/>
	
		<ellipse transform="matrix(8.247878e-02 -0.9966 0.9966 8.247878e-02 142.1677 409.7751)" class="st29" cx="293.6" cy="127.7" rx="36.9" ry="36.9"/>
	<ellipse class="st30" cx="295.3" cy="127.7" rx="36.9" ry="36.9"/>
	<ellipse class="st31" cx="296.9" cy="127.7" rx="36.9" ry="36.9"/>
	
		<ellipse transform="matrix(8.247881e-02 -0.9966 0.9966 8.247881e-02 146.6637 414.6583)" class="st32" cx="298.5" cy="127.7" rx="36.9" ry="36.9"/>
	
		<ellipse transform="matrix(8.247878e-02 -0.9966 0.9966 8.247878e-02 148.132 416.2527)" class="st33" cx="300.1" cy="127.7" rx="36.9" ry="36.9"/>
	<ellipse class="st34" cx="301.9" cy="127.7" rx="36.9" ry="36.9"/>
	
		<ellipse transform="matrix(8.247876e-02 -0.9966 0.9966 8.247876e-02 151.1599 419.5414)" class="st35" cx="303.4" cy="127.7" rx="36.9" ry="36.9"/>
	
		<ellipse transform="matrix(8.247881e-02 -0.9966 0.9966 8.247881e-02 152.6278 421.1364)" class="st36" cx="305" cy="127.7" rx="36.9" ry="36.9"/>
	<ellipse class="st37" cx="306.7" cy="127.7" rx="36.9" ry="36.9"/>
	<circle class="st38" cx="308.3" cy="127.8" r="36.9"/>
	<ellipse class="st39" cx="310" cy="127.7" rx="36.9" ry="36.9"/>
	<circle class="st40" cx="311.6" cy="127.8" r="36.9"/>
	<ellipse class="st41" cx="313.3" cy="127.8" rx="36.9" ry="36.9"/>
	<circle class="st42" cx="314.9" cy="127.8" r="36.9"/>
	<ellipse class="st43" cx="316.6" cy="127.7" rx="36.9" ry="36.9"/>
	<circle class="st44" cx="318.2" cy="127.8" r="36.9"/>
	<ellipse class="st45" cx="319.9" cy="127.9" rx="36.9" ry="36.9"/>
	<ellipse class="st46" cx="321.5" cy="127.8" rx="36.9" ry="36.9"/>
	<circle class="st47" cx="323.1" cy="127.8" r="36.9"/>
	<ellipse class="st48" cx="324.8" cy="127.7" rx="36.9" ry="36.9"/>
	<ellipse class="st49" cx="326.4" cy="127.8" rx="36.9" ry="36.9"/>
	<circle class="st50" cx="328.1" cy="127.8" r="36.9"/>
	<circle class="st51" cx="329.7" cy="127.8" r="36.9"/>
	
		<ellipse transform="matrix(0.1602 -0.9871 0.9871 0.1602 152.1929 434.5484)" class="st52" cx="331.5" cy="127.8" rx="36.9" ry="36.9"/>
	<circle class="st53" cx="333" cy="127.8" r="36.9"/>
	<ellipse class="st54" cx="334.6" cy="127.9" rx="36.9" ry="36.9"/>
	<circle class="st55" cx="336.3" cy="127.9" r="36.9"/>
	<ellipse class="st56" cx="338.1" cy="127.8" rx="36.9" ry="36.9"/>
	<circle class="st57" cx="339.6" cy="127.9" r="36.9"/>
	<ellipse class="st58" cx="341.2" cy="127.9" rx="36.9" ry="36.9"/>
	<ellipse class="st59" cx="342.9" cy="127.9" rx="36.9" ry="36.9"/>
	
		<ellipse transform="matrix(0.1602 -0.9871 0.9871 0.1602 163.0946 447.3197)" class="st60" cx="344.4" cy="127.8" rx="36.9" ry="36.9"/>
	<ellipse class="st61" cx="346.2" cy="127.9" rx="36.9" ry="36.9"/>
	<ellipse class="st62" cx="347.8" cy="127.9" rx="36.9" ry="36.9"/>
	<ellipse class="st63" cx="349.5" cy="127.9" rx="36.9" ry="36.9"/>
	<ellipse class="st64" cx="351" cy="128" rx="36.9" ry="36.9"/>
	<ellipse class="st65" cx="352.7" cy="127.9" rx="36.9" ry="36.9"/>
	<ellipse class="st66" cx="354.3" cy="127.9" rx="36.9" ry="36.9"/>
	<ellipse class="st67" cx="356" cy="127.8" rx="36.9" ry="36.9"/>
	<ellipse class="st68" cx="357.6" cy="127.9" rx="36.9" ry="36.9"/>
	<ellipse class="st69" cx="359.2" cy="128" rx="36.9" ry="36.9"/>
	<ellipse class="st70" cx="360.9" cy="127.9" rx="36.9" ry="36.9"/>
	<ellipse class="st71" cx="362.6" cy="128" rx="36.9" ry="36.9"/>
	<ellipse class="st72" cx="364.1" cy="127.9" rx="36.9" ry="36.9"/>
	<ellipse class="st73" cx="365.9" cy="128" rx="36.9" ry="36.9"/>
	<ellipse class="st74" cx="367.5" cy="127.9" rx="36.9" ry="36.9"/>
	<ellipse class="st75" cx="369.2" cy="128" rx="36.9" ry="36.9"/>
	<ellipse class="st76" cx="370.8" cy="127.9" rx="36.9" ry="36.9"/>
	<ellipse class="st77" cx="372.5" cy="128" rx="36.9" ry="36.9"/>
	<ellipse class="st78" cx="374.1" cy="127.9" rx="36.9" ry="36.9"/>
	<ellipse class="st79" cx="375.7" cy="128" rx="36.9" ry="36.9"/>
	<ellipse class="st80" cx="377.3" cy="128" rx="36.9" ry="36.9"/>
	<circle class="st81" cx="379" cy="128" r="36.9"/>
	<circle class="st82" cx="380.6" cy="128" r="36.9"/>
	<circle class="st83" cx="382.2" cy="128" r="36.9"/>
	<circle class="st84" cx="383.9" cy="128" r="36.9"/>
	<circle class="st85" cx="385.5" cy="128" r="36.9"/>
	<circle class="st86" cx="387.2" cy="128" r="36.9"/>
	<circle class="st87" cx="388.8" cy="128" r="36.9"/>
	<circle class="st88" cx="390.4" cy="128" r="36.9"/>
	<circle class="st89" cx="392.1" cy="128" r="36.9"/>
	<circle class="st90" cx="393.7" cy="128.1" r="36.9"/>
	<circle class="st91" cx="395.4" cy="128.1" r="36.9"/>
	<circle class="st92" cx="397" cy="128.1" r="36.9"/>
	<circle class="st93" cx="398.7" cy="128.1" r="36.9"/>
	<circle class="st94" cx="400.3" cy="128.1" r="36.9"/>
	<circle class="st95" cx="401.9" cy="128.1" r="36.9"/>
	<circle class="st96" cx="403.6" cy="128.1" r="36.9"/>
	<circle class="st97" cx="405.2" cy="128.1" r="36.9"/>
	<circle class="st98" cx="406.9" cy="128.1" r="36.9"/>
	<circle class="st99" cx="408.5" cy="128.1" r="36.9"/>
	<circle class="st100" cx="410.2" cy="128.1" r="36.9"/>
	<circle class="st101" cx="411.8" cy="128.1" r="36.9"/>
	<circle class="st102" cx="413.4" cy="128.1" r="36.9"/>
	<circle class="st103" cx="415.1" cy="128.1" r="36.9"/>
	<circle class="st104" cx="416.7" cy="128.1" r="36.9"/>
	<circle class="st105" cx="418.4" cy="128.1" r="36.9"/>
	<circle class="st106" cx="420" cy="128.1" r="36.9"/>
	<circle class="st107" cx="421.6" cy="128.2" r="36.9"/>
	<circle class="st108" cx="423.3" cy="128.2" r="36.9"/>
	<circle class="st109" cx="424.9" cy="128.2" r="36.9"/>
	<circle class="st110" cx="426.6" cy="128.2" r="36.9"/>
	<circle class="st111" cx="428.2" cy="128.2" r="36.9"/>
	<circle class="st112" cx="429.9" cy="128.2" r="36.9"/>
	<circle class="st113" cx="431.5" cy="128.2" r="36.9"/>
	<circle class="st114" cx="433.1" cy="128.2" r="36.9"/>
	<circle class="st115" cx="434.8" cy="128.2" r="36.9"/>
	<circle class="st116" cx="436.4" cy="128.2" r="36.9"/>
	<circle class="st117" cx="438.1" cy="128.2" r="36.9"/>
	<circle class="st118" cx="439.7" cy="128.2" r="36.9"/>
	<circle class="st119" cx="441.4" cy="128.2" r="36.9"/>
	<circle class="st120" cx="443" cy="128.2" r="36.9"/>
	<circle class="st121" cx="444.6" cy="128.2" r="36.9"/>
	<circle class="st122" cx="446.3" cy="128.2" r="36.9"/>
	<circle class="st123" cx="447.9" cy="128.2" r="36.9"/>
	<circle class="st124" cx="449.6" cy="128.2" r="36.9"/>
	<ellipse class="st125" cx="451.2" cy="128.4" rx="36.9" ry="36.9"/>
	<circle class="st126" cx="452.9" cy="128.3" r="36.9"/>
	<ellipse class="st127" cx="454.5" cy="128.4" rx="36.9" ry="36.9"/>
	<circle class="st128" cx="456.1" cy="128.3" r="36.9"/>
	<ellipse class="st129" cx="457.8" cy="128.4" rx="36.9" ry="36.9"/>
	<circle class="st130" cx="459.4" cy="128.3" r="36.9"/>
	<circle class="st131" cx="461.1" cy="128.3" r="36.9"/>
	<ellipse class="st132" cx="462.7" cy="128.4" rx="36.9" ry="36.9"/>
	<ellipse class="st133" cx="464.3" cy="128.4" rx="36.9" ry="36.9"/>
	<ellipse class="st134" cx="466" cy="128.4" rx="36.9" ry="36.9"/>
	<circle class="st135" cx="467.6" cy="128.3" r="36.9"/>
	<ellipse class="st136" cx="469.3" cy="128.4" rx="36.9" ry="36.9"/>
	
		<ellipse transform="matrix(0.331 -0.9436 0.9436 0.331 193.9484 530.1745)" class="st137" cx="470.9" cy="128.3" rx="36.9" ry="36.9"/>
	<ellipse class="st138" cx="472.5" cy="128.4" rx="36.9" ry="36.9"/>
	<ellipse class="st139" cx="474.2" cy="128.4" rx="36.9" ry="36.9"/>
	
		<ellipse transform="matrix(0.4897 -0.8719 0.8719 0.4897 130.8783 480.3968)" class="st140" cx="475.8" cy="128.4" rx="36.9" ry="36.9"/>
	
		<ellipse transform="matrix(0.8191 -0.5737 0.5737 0.8191 12.7415 297.1904)" class="st141" cx="477.5" cy="128.4" rx="36.9" ry="36.9"/>
	<circle class="st142" cx="479.1" cy="128.4" r="36.9"/>
	
		<ellipse transform="matrix(0.1735 -0.9848 0.9848 0.1735 270.8287 579.7128)" class="st143" cx="480.8" cy="128.5" rx="36.9" ry="36.9"/>
	<ellipse class="st144" cx="482.4" cy="128.4" rx="36.9" ry="36.9"/>
	
		<ellipse transform="matrix(0.4996 -0.8663 0.8663 0.4996 130.923 483.5941)" class="st145" cx="484" cy="128.5" rx="36.9" ry="36.9"/>
	
		<ellipse transform="matrix(0.4996 -0.8663 0.8663 0.4996 131.7734 485.0667)" class="st146" cx="485.7" cy="128.5" rx="36.9" ry="36.9"/>
	
		<ellipse transform="matrix(0.1735 -0.9848 0.9848 0.1735 276.2009 586.1141)" class="st147" cx="487.3" cy="128.5" rx="36.9" ry="36.9"/>
	
		<ellipse transform="matrix(0.4996 -0.8663 0.8663 0.4996 133.4248 487.925)" class="st148" cx="489" cy="128.5" rx="36.9" ry="36.9"/>
	<ellipse class="st149" cx="490.6" cy="128.5" rx="36.9" ry="36.9"/>
	
		<ellipse transform="matrix(0.1735 -0.9848 0.9848 0.1735 280.3334 591.0383)" class="st150" cx="492.3" cy="128.5" rx="36.9" ry="36.9"/>
	<ellipse class="st151" cx="493.9" cy="128.5" rx="36.9" ry="36.9"/>
	
		<ellipse transform="matrix(0.4996 -0.8663 0.8663 0.4996 136.677 493.5555)" class="st152" cx="495.5" cy="128.5" rx="36.9" ry="36.9"/>
	
		<ellipse transform="matrix(0.4996 -0.8663 0.8663 0.4996 137.5277 495.028)" class="st153" cx="497.2" cy="128.5" rx="36.9" ry="36.9"/>
	
		<ellipse transform="matrix(0.1735 -0.9848 0.9848 0.1735 285.7056 597.4398)" class="st154" cx="498.8" cy="128.5" rx="36.9" ry="36.9"/>
	
		<ellipse transform="matrix(0.4996 -0.8663 0.8663 0.4996 139.179 497.8865)" class="st155" cx="500.5" cy="128.5" rx="36.9" ry="36.9"/>
	<ellipse class="st156" cx="502.1" cy="128.5" rx="36.9" ry="36.9"/>
	
		<ellipse transform="matrix(0.4996 -0.8663 0.8663 0.4996 140.8302 500.7449)" class="st157" cx="503.8" cy="128.5" rx="36.9" ry="36.9"/>
	<ellipse class="st158" cx="505.4" cy="128.5" rx="36.9" ry="36.9"/>
	
		<ellipse transform="matrix(0.4996 -0.8663 0.8663 0.4996 142.3447 503.5669)" class="st159" cx="507" cy="128.6" rx="36.9" ry="36.9"/>
	
		<ellipse transform="matrix(0.4996 -0.8663 0.8663 0.4996 143.1954 505.0394)" class="st160" cx="508.7" cy="128.6" rx="36.9" ry="36.9"/>
	
		<ellipse transform="matrix(0.4996 -0.8663 0.8663 0.4996 143.996 506.4253)" class="st161" cx="510.3" cy="128.6" rx="36.9" ry="36.9"/>
	
		<ellipse transform="matrix(0.4996 -0.8663 0.8663 0.4996 144.8465 507.8978)" class="st162" cx="512" cy="128.6" rx="36.9" ry="36.9"/>
	
		<ellipse transform="matrix(0.4996 -0.8663 0.8663 0.4996 145.6472 509.2839)" class="st163" cx="513.6" cy="128.6" rx="36.9" ry="36.9"/>
	
		<ellipse transform="matrix(0.4996 -0.8663 0.8663 0.4996 146.4479 510.6698)" class="st164" cx="515.2" cy="128.6" rx="36.9" ry="36.9"/>
	
		<ellipse transform="matrix(0.4996 -0.8663 0.8663 0.4996 147.2985 512.1423)" class="st165" cx="516.9" cy="128.6" rx="36.9" ry="36.9"/>
	
		<ellipse transform="matrix(0.4996 -0.8663 0.8663 0.4996 148.099 513.5281)" class="st166" cx="518.5" cy="128.6" rx="36.9" ry="36.9"/>
	
		<ellipse transform="matrix(0.4996 -0.8663 0.8663 0.4996 148.9497 515.0008)" class="st167" cx="520.2" cy="128.6" rx="36.9" ry="36.9"/>
	
		<ellipse transform="matrix(0.4996 -0.8663 0.8663 0.4996 149.7502 516.3867)" class="st168" cx="521.8" cy="128.6" rx="36.9" ry="36.9"/>
	
		<ellipse transform="matrix(0.4996 -0.8663 0.8663 0.4996 150.6008 517.8593)" class="st169" cx="523.5" cy="128.6" rx="36.9" ry="36.9"/>
	
		<ellipse transform="matrix(0.3417 -0.9398 0.9398 0.3417 224.8699 578.062)" class="st170" cx="525.1" cy="128.5" rx="36.9" ry="36.9"/>
	
		<ellipse transform="matrix(0.3417 -0.9398 0.9398 0.3417 225.9231 579.5656)" class="st171" cx="526.7" cy="128.5" rx="36.9" ry="36.9"/>
	
		<ellipse transform="matrix(0.3417 -0.9398 0.9398 0.3417 227.0421 581.1633)" class="st172" cx="528.4" cy="128.5" rx="36.9" ry="36.9"/>
	
		<ellipse transform="matrix(0.3417 -0.9398 0.9398 0.3417 228.0953 582.6669)" class="st173" cx="530" cy="128.5" rx="36.9" ry="36.9"/>
	
		<ellipse transform="matrix(0.3417 -0.9398 0.9398 0.3417 229.2142 584.2646)" class="st174" cx="531.7" cy="128.5" rx="36.9" ry="36.9"/>
	
		<ellipse transform="matrix(0.3417 -0.9398 0.9398 0.3417 230.2674 585.7683)" class="st175" cx="533.3" cy="128.5" rx="36.9" ry="36.9"/>
	
		<ellipse transform="matrix(0.3417 -0.9398 0.9398 0.3417 231.2265 587.3379)" class="st176" cx="534.9" cy="128.6" rx="36.9" ry="36.9"/>
	
		<ellipse transform="matrix(0.3417 -0.9398 0.9398 0.3417 232.3455 588.9356)" class="st177" cx="536.6" cy="128.6" rx="36.9" ry="36.9"/>
	
		<ellipse transform="matrix(0.3417 -0.9398 0.9398 0.3417 233.3986 590.4393)" class="st178" cx="538.2" cy="128.6" rx="36.9" ry="36.9"/>
	
		<ellipse transform="matrix(0.1735 -0.9848 0.9848 0.1735 319.5762 637.9991)" class="st179" cx="539.9" cy="128.6" rx="36.9" ry="36.9"/>
	
		<ellipse transform="matrix(0.1735 -0.9848 0.9848 0.1735 320.8986 639.5748)" class="st180" cx="541.5" cy="128.6" rx="36.9" ry="36.9"/>
	
		<ellipse transform="matrix(0.1735 -0.9848 0.9848 0.1735 322.3036 641.249)" class="st181" cx="543.2" cy="128.6" rx="36.9" ry="36.9"/>
	
		<ellipse transform="matrix(0.1735 -0.9848 0.9848 0.1735 323.626 642.8247)" class="st182" cx="544.8" cy="128.6" rx="36.9" ry="36.9"/>
	
		<ellipse transform="matrix(0.1735 -0.9848 0.9848 0.1735 324.9485 644.4005)" class="st183" cx="546.4" cy="128.6" rx="36.9" ry="36.9"/>
	
		<ellipse transform="matrix(0.1735 -0.9848 0.9848 0.1735 326.3535 646.0746)" class="st184" cx="548.1" cy="128.6" rx="36.9" ry="36.9"/>
	<circle class="st185" cx="549.7" cy="128.6" r="36.9"/>
	<circle class="st186" cx="551.4" cy="128.6" r="36.9"/>
	<circle class="st187" cx="553" cy="128.6" r="36.9"/>
	<circle class="st188" cx="554.7" cy="128.6" r="36.9"/>
	<circle class="st189" cx="556.3" cy="128.6" r="36.9"/>
	<circle class="st190" cx="557.9" cy="128.6" r="36.9"/>
	<circle class="st191" cx="559.6" cy="128.6" r="36.9"/>
	<circle class="st192" cx="561.2" cy="128.6" r="36.9"/>
	<circle class="st193" cx="562.9" cy="128.6" r="36.9"/>
	<circle class="st194" cx="564.5" cy="128.7" r="36.9"/>
	<circle class="st195" cx="566.1" cy="128.7" r="36.9"/>
	<circle class="st196" cx="567.8" cy="128.7" r="36.9"/>
	<circle class="st197" cx="569.4" cy="128.7" r="36.9"/>
	<circle class="st198" cx="571.1" cy="128.7" r="36.9"/>
	<circle class="st199" cx="572.7" cy="128.7" r="36.9"/>
	<circle class="st200" cx="574.4" cy="128.7" r="36.9"/>
	<circle class="st201" cx="576" cy="128.7" r="36.9"/>
	<circle class="st202" cx="577.6" cy="128.7" r="36.9"/>
	<circle class="st203" cx="579.3" cy="128.7" r="36.9"/>
	<circle class="st204" cx="580.9" cy="128.7" r="36.9"/>
	<circle class="st205" cx="582.6" cy="128.7" r="36.9"/>
	<circle class="st206" cx="584.2" cy="128.7" r="36.9"/>
	<circle class="st207" cx="585.9" cy="128.7" r="36.9"/>
	<circle class="st208" cx="587.5" cy="128.7" r="36.9"/>
	<circle class="st209" cx="589.1" cy="128.7" r="36.9"/>
	<circle class="st210" cx="590.8" cy="128.7" r="36.9"/>
	<circle class="st211" cx="592.4" cy="128.8" r="36.9"/>
	<circle class="st212" cx="594.1" cy="128.8" r="36.9"/>
	<circle class="st213" cx="595.7" cy="128.8" r="36.9"/>
	<circle class="st214" cx="597.4" cy="128.8" r="36.9"/>
	<circle class="st215" cx="599" cy="128.8" r="36.9"/>
	<circle class="st216" cx="600.6" cy="128.8" r="36.9"/>
	<circle class="st217" cx="602.3" cy="128.8" r="36.9"/>
	<circle class="st218" cx="603.9" cy="128.8" r="36.9"/>
	<circle class="st219" cx="605.6" cy="128.8" r="36.9"/>
	<circle class="st220" cx="607.2" cy="128.8" r="36.9"/>
	<circle class="st221" cx="608.8" cy="128.8" r="36.9"/>
	<circle class="st222" cx="610.5" cy="128.8" r="36.9"/>
	<circle class="st223" cx="612.1" cy="128.8" r="36.9"/>
	<circle class="st224" cx="613.8" cy="128.8" r="36.9"/>
	<circle class="st225" cx="615.4" cy="128.8" r="36.9"/>
	<circle class="st226" cx="617.1" cy="128.8" r="36.9"/>
	
		<ellipse transform="matrix(0.4897 -0.8719 0.8719 0.4897 203.4341 605.2228)" class="st227" cx="618.8" cy="128.8" rx="36.9" ry="36.9"/>
	
		<ellipse transform="matrix(0.4897 -0.8719 0.8719 0.4897 204.1616 606.6716)" class="st228" cx="620.4" cy="128.9" rx="36.9" ry="36.9"/>
	
		<ellipse transform="matrix(0.4897 -0.8719 0.8719 0.4897 205.0293 608.1539)" class="st229" cx="622.1" cy="128.9" rx="36.9" ry="36.9"/>
	<circle class="st230" cx="623.6" cy="128.9" r="36.9"/>
	
		<ellipse transform="matrix(0.4897 -0.8719 0.8719 0.4897 206.7134 611.0312)" class="st231" cx="625.4" cy="128.9" rx="36.9" ry="36.9"/>
	<circle class="st232" cx="626.9" cy="128.9" r="36.9"/>
	<circle class="st233" cx="628.6" cy="128.9" r="36.9"/>
	
		<ellipse transform="matrix(0.4897 -0.8719 0.8719 0.4897 209.214 615.3035)" class="st234" cx="630.3" cy="128.9" rx="36.9" ry="36.9"/>
	
		<ellipse transform="matrix(0.4897 -0.8719 0.8719 0.4897 210.0307 616.6986)" class="st235" cx="631.9" cy="128.9" rx="36.9" ry="36.9"/>
	
		<ellipse transform="matrix(0.4897 -0.8719 0.8719 0.4897 210.8983 618.1808)" class="st236" cx="633.6" cy="128.9" rx="36.9" ry="36.9"/>
	<circle class="st237" cx="635.1" cy="128.9" r="36.9"/>
	
		<ellipse transform="matrix(0.4897 -0.8719 0.8719 0.4897 212.5823 621.0581)" class="st238" cx="636.9" cy="128.9" rx="36.9" ry="36.9"/>
	<circle class="st239" cx="638.4" cy="128.9" r="36.9"/>
	
		<ellipse transform="matrix(0.4897 -0.8719 0.8719 0.4897 214.2156 623.8483)" class="st240" cx="640.1" cy="128.9" rx="36.9" ry="36.9"/>
	
		<ellipse transform="matrix(0.4897 -0.8719 0.8719 0.4897 215.0832 625.3305)" class="st241" cx="641.8" cy="128.9" rx="36.9" ry="36.9"/>
	
		<ellipse transform="matrix(0.4897 -0.8719 0.8719 0.4897 215.8997 626.7254)" class="st242" cx="643.4" cy="128.9" rx="36.9" ry="36.9"/>
	
		<ellipse transform="matrix(0.4897 -0.8719 0.8719 0.4897 216.7675 628.2077)" class="st243" cx="645.1" cy="128.9" rx="36.9" ry="36.9"/>
	<circle class="st244" cx="646.6" cy="128.9" r="36.9"/>
	
		<ellipse transform="matrix(0.4897 -0.8719 0.8719 0.4897 218.4005 630.9979)" class="st245" cx="648.3" cy="128.9" rx="36.9" ry="36.9"/>
	<circle class="st246" cx="649.9" cy="129" r="36.9"/>
	
		<ellipse transform="matrix(0.4897 -0.8719 0.8719 0.4897 219.9976 633.9263)" class="st247" cx="651.6" cy="129" rx="36.9" ry="36.9"/>
	
		<ellipse transform="matrix(0.4897 -0.8719 0.8719 0.4897 220.8652 635.4083)" class="st248" cx="653.3" cy="129" rx="36.9" ry="36.9"/>
	
		<ellipse transform="matrix(0.4897 -0.8719 0.8719 0.4897 221.6816 636.8036)" class="st249" cx="654.9" cy="129" rx="36.9" ry="36.9"/>
	
		<ellipse transform="matrix(0.4897 -0.8719 0.8719 0.4897 222.5493 638.2858)" class="st250" cx="656.6" cy="129" rx="36.9" ry="36.9"/>
	
		<ellipse transform="matrix(0.4897 -0.8719 0.8719 0.4897 223.3658 639.6808)" class="st251" cx="658.2" cy="129" rx="36.9" ry="36.9"/>
	
		<ellipse transform="matrix(0.4897 -0.8719 0.8719 0.4897 224.2335 641.1631)" class="st252" cx="659.9" cy="129" rx="36.9" ry="36.9"/>
	
		<ellipse transform="matrix(0.4897 -0.8719 0.8719 0.4897 225.05 642.5579)" class="st253" cx="661.5" cy="129" rx="36.9" ry="36.9"/>
	
		<ellipse transform="matrix(0.4897 -0.8719 0.8719 0.4897 225.8667 643.9531)" class="st254" cx="663.1" cy="129" rx="36.9" ry="36.9"/>
	
		<ellipse transform="matrix(0.4897 -0.8719 0.8719 0.4897 226.7342 645.4354)" class="st255" cx="664.8" cy="129" rx="36.9" ry="36.9"/>
	
		<ellipse transform="matrix(0.4897 -0.8719 0.8719 0.4897 227.5508 646.8305)" class="st256" cx="666.4" cy="129" rx="36.9" ry="36.9"/>
</g>
<g>
	<text transform="matrix(1 0 0 1 69.796 135.3549)" class="st257 st258">Republic</text>
	<text transform="matrix(1 0 0 1 769.9694 135.3544)" class="st257 st258">Democracy</text>
</g>
</svg>
