<?xml version="1.0" encoding="utf-8"?>
<!-- Generator: Adobe Illustrator 26.0.2, SVG Export Plug-In . SVG Version: 6.00 Build 0)  -->
<svg version="1.1" id="图层_1" xmlns="http://www.w3.org/2000/svg" xmlns:xlink="http://www.w3.org/1999/xlink" x="0px" y="0px"
	 viewBox="0 0 963 279.8" style="enable-background:new 0 0 963 279.8;" xml:space="preserve">
<style type="text/css">
	.st0{fill:#E9E8E2;stroke:#000000;stroke-miterlimit:10;}
	.st1{fill:#67001F;}
	.st2{fill:#B2182B;}
	.st3{fill:#EF8A62;}
	.st4{fill:#FDDBC7;}
	.st5{fill:#FFFFFF;}
	.st6{fill:#E0E0E0;}
	.st7{fill:#BABABA;}
	.st8{fill:#4D4D4D;}
	.st9{fill:#1A1A1A;}
	.st10{font-family:'Futura-Medium';}
	.st11{font-size:21.0928px;}
</style>
<g>
	<path class="st0" d="M12.8,0h937.4c7.1,0,12.8,5.7,12.8,12.8V267c0,7.1-5.7,12.8-12.8,12.8H12.8C5.7,279.8,0,274.1,0,267V12.8
		C0,5.8,5.7,0,12.8,0z"/>
	<ellipse class="st1" cx="117.8" cy="137.8" rx="33.5" ry="33.5"/>
	<ellipse class="st2" cx="210.5" cy="137" rx="33.5" ry="33.5"/>
	<ellipse class="st3" cx="300.7" cy="137.8" rx="33.5" ry="33.5"/>
	<ellipse class="st4" cx="390.1" cy="138.7" rx="33.5" ry="33.5"/>
	<ellipse class="st5" cx="479.4" cy="137.8" rx="33.5" ry="33.5"/>
	<ellipse class="st6" cx="569.5" cy="138.7" rx="33.5" ry="33.5"/>
	<ellipse class="st7" cx="662.3" cy="138.7" rx="33.5" ry="33.5"/>
	<ellipse class="st8" cx="753.3" cy="138.7" rx="33.5" ry="33.5"/>
	<ellipse class="st9" cx="843.5" cy="137.8" rx="33.5" ry="33.5"/>
	<text transform="matrix(1 0 0 1 230.7847 80.5742)" class="st10 st11">Male</text>
	<text transform="matrix(1 0 0 1 672.875 80.5742)" class="st10 st11">Female</text>
	<text transform="matrix(1 0 0 1 82.0244 204.709)" class="st10 st11">Black</text>
	<text transform="matrix(1 0 0 1 826.4463 206.4141)" class="st10 st11">Black</text>
	<text transform="matrix(1 0 0 1 177.0299 204.708)" class="st10 st11">Asian</text>
	<text transform="matrix(1 0 0 1 733.668 206.1309)" class="st10 st11">Asian</text>
	<text transform="matrix(1 0 0 1 266.6757 206.6742)" class="st10 st11">White</text>
	<text transform="matrix(1 0 0 1 641.7988 206.4141)" class="st10 st11">White</text>
	<text transform="matrix(1 0 0 1 354.2969 208.1094)" class="st10 st11">Unkown</text>
	<text transform="matrix(1 0 0 1 525.4385 208.1094)" class="st10 st11">Unkown</text>
	<text transform="matrix(1 0 0 1 435.8867 81.2285)" class="st10 st11">Unkown</text>
</g>
</svg>
