<?xml version="1.0" encoding="utf-8"?>
<!-- Generator: Adobe Illustrator 26.0.2, SVG Export Plug-In . SVG Version: 6.00 Build 0)  -->
<svg version="1.1" id="图层_1" xmlns="http://www.w3.org/2000/svg" xmlns:xlink="http://www.w3.org/1999/xlink" x="0px" y="0px"
	 viewBox="0 0 57 57" style="enable-background:new 0 0 57 57;" xml:space="preserve">
<style type="text/css">
	.st0{fill:#494949;}
</style>
<g>
	<path class="st0" d="M17.5,54.8c-3.4-1.5-6.5-3.5-9.1-6.2C5.8,46,3.7,43,2.2,39.5C0.7,36.1,0,32.4,0,28.5c0-3.9,0.7-7.6,2.2-11
		S5.8,11,8.4,8.4s5.7-4.7,9.1-6.2S24.6,0,28.5,0c3.9,0,7.6,0.7,11,2.2s6.5,3.5,9.1,6.2s4.7,5.6,6.2,9.1s2.2,7.1,2.2,11
		c0,3.9-0.7,7.6-2.2,11c-1.5,3.4-3.5,6.5-6.2,9.1c-2.6,2.6-5.6,4.7-9.1,6.2c-3.4,1.5-7.1,2.2-11,2.2C24.6,57,20.9,56.3,17.5,54.8z
		 M17.7,36.2c1.1,1.9,2.6,3.4,4.5,4.6c1.9,1.1,4,1.7,6.3,1.7c2.3,0,4.4-0.6,6.3-1.7c1.9-1.1,3.4-2.7,4.5-4.5s1.7-4,1.7-6.3
		c0-0.7-0.2-1.2-0.7-1.7c-0.5-0.5-1-0.7-1.7-0.7c-0.7,0-1.2,0.2-1.7,0.7c-0.5,0.5-0.7,1-0.7,1.7c0,1.4-0.3,2.7-1,3.9
		s-1.6,2.1-2.8,2.8c-1.2,0.7-2.5,1-3.9,1s-2.7-0.3-3.9-1c-1.2-0.7-2.1-1.6-2.8-2.8c-0.7-1.2-1-2.5-1-3.9c0-1.3,0.3-2.5,0.8-3.6
		c0.6-1.1,1.3-2,2.3-2.6s2-1.1,3.2-1.2c0.3,0,0.6,0,0.9-0.1l-1.7,1.7c-0.3,0.3-0.4,0.8-0.4,1.3c0,0.7,0.2,1.2,0.6,1.6s1,0.6,1.6,0.6
		c0.6,0,1.1-0.2,1.6-0.7l5.1-5.2c0.4-0.4,0.7-1,0.6-1.6c0-0.6-0.2-1.2-0.6-1.6l-5.1-5.2c-0.2-0.2-0.5-0.4-0.7-0.5
		c-0.3-0.2-0.6-0.2-0.9-0.2c-0.7,0-1.2,0.2-1.6,0.6s-0.6,0.9-0.6,1.5c0,0.3,0.1,0.6,0.2,0.8c0.1,0.2,0.3,0.4,0.4,0.7l1.2,1.3
		c-0.1,0-0.2,0-0.3,0c-0.1,0-0.2,0-0.3,0c-2,0.1-3.8,0.8-5.5,1.9c-1.7,1.1-3,2.6-4,4.4c-1,1.8-1.5,3.8-1.5,6
		C16,32.1,16.5,34.2,17.7,36.2z"/>
</g>
</svg>
